<svg xmlns="http://www.w3.org/2000/svg" viewBox="0 0 1000 1000" width="1000" height="1000">
  <g transform="translate(110 100) scale(780.0 780.0) translate(-0.0 -0.0)">
<path d="M 0.15394112549695427 0.9139411254969543 L 0.16647123564539917 0.902344251518415 L 0.17054021096851146 0.8822862427145433 L 0.19139889290788245 0.87901794052693 L 0.20380746191275317 0.8672995254048167 L 0.2161827981712495 0.8555478775363289 L 0.22032390949309755 0.8355620047311928 L 0.2408407661238134 0.8319518772349246 L 0.25312614386202015 0.8201102708461471 L 0.26538396403962317 0.8082411068967661 L 0.2776151983676288 0.7963453570977875 L 0.28982072389811314 0.7844238985012878 L 0.30200134229497444 0.7724775327711649 L 0.31415779379724196 0.7605070001464482 L 0.32629076765120224 0.7485129898734245 L 0.3384009101039103 0.7364961481991483 L 0.3504888306596645 0.7244570846279186 L 0.362555107066427 0.7123963769076969 L 0.37460028935261863 0.7003145750669043 L 0.37957313517000146 0.6811604367573031 L 0.3986294523951684 0.6760897698554857 L 0.4037910130905526 0.6571243464238861 L 0.42258027840634865 0.6517866276126979 L 0.4345274739143922 0.6396068389937573 L 0.45291542992495515 0.6338678108773361 L 0.45836761740943766 0.6151930142348345 L 0.47026140190558413 0.602959814603997 L 0.48213820031028365 0.5907096288817122 L 0.48806338094109236 0.5725078253855368 L 0.5000447462135653 0.5603622065310256 L 0.517670544593539 0.5538610207840152 L 0.5294832199605168 0.541546712024009 L 0.5412807777143369 0.5292172856508448 L 0.5530635681755087 0.5168730919850324 L 0.5597566092787887 0.4994391489613283 L 0.5716620662922065 0.4872176218477621 L 0.5787850278598992 0.4702135992884706 L 0.5954383404318084 0.4627399277333957 L 0.611767828149624 0.45494243132422724 L 0.6234690251885487 0.4425166442361678 L 0.6351577410130691 0.43007837593370407 L 0.642859901430089 0.4136535522237398 L 0.6546895330096991 0.40135619967636593 L 0.6665093710557328 0.3890490535954154 L 0.6783196646286304 0.37673236304132873 L 0.6901206596592999 0.3644063739450141 L 0.7019125990868261 0.3520713292455563 L 0.7136957229869514 0.33972746901869727 L 0.7254702686921388 0.32737503059690076 L 0.7372364709039448 0.3150142486817226 L 0.7489945617983444 0.3026453554491382 L 0.7607447711245948 0.2902685806484043 L 0.7704181770458486 0.2758150024426741 L 0.7804484452210564 0.2617182864908977 L 0.7908397291890641 0.24798258633192144 L 0.8000771977047575 0.23309307072063057 L 0.8127211467893779 0.22161003567826673 L 0.8229151815096751 0.20767708627157971 L 0.8344132575222297 0.19504817815715036 L 0.8459210309992121 0.1824289675071486 L 0.859911355369686 0.17229230775063845 L 0.8701972483287781 0.15845121658274633 L 0.8817292654668297 0.14585624959381394 L 0.8920490995514188 0.13204909955141877 Z"
          fill="black"
          stroke="black"
          stroke-width="0.006"
          stroke-linejoin="round"
          stroke-linecap="round" />
</g>
  <g transform="translate(690 690) scale(0.5232558139534884 0.5232558139534884) translate(-0.0 -0.0)">
<rect x="40" y="40" width="56" height="8"/>
  <rect x="104" y="40" width="16" height="8"/>
  <rect x="136" y="40" width="16" height="8"/>
  <rect x="160" y="40" width="32" height="8"/>
  <rect x="208" y="40" width="8" height="8"/>
  <rect x="224" y="40" width="8" height="8"/>
  <rect x="248" y="40" width="56" height="8"/>
  <rect x="40" y="48" width="8" height="8"/>
  <rect x="88" y="48" width="8" height="8"/>
  <rect x="112" y="48" width="16" height="8"/>
  <rect x="136" y="48" width="24" height="8"/>
  <rect x="168" y="48" width="8" height="8"/>
  <rect x="184" y="48" width="40" height="8"/>
  <rect x="232" y="48" width="8" height="8"/>
  <rect x="248" y="48" width="8" height="8"/>
  <rect x="296" y="48" width="8" height="8"/>
  <rect x="40" y="56" width="8" height="8"/>
  <rect x="56" y="56" width="24" height="8"/>
  <rect x="88" y="56" width="8" height="8"/>
  <rect x="120" y="56" width="8" height="8"/>
  <rect x="152" y="56" width="8" height="8"/>
  <rect x="176" y="56" width="48" height="8"/>
  <rect x="248" y="56" width="8" height="8"/>
  <rect x="264" y="56" width="24" height="8"/>
  <rect x="296" y="56" width="8" height="8"/>
  <rect x="40" y="64" width="8" height="8"/>
  <rect x="56" y="64" width="24" height="8"/>
  <rect x="88" y="64" width="8" height="8"/>
  <rect x="104" y="64" width="16" height="8"/>
  <rect x="128" y="64" width="8" height="8"/>
  <rect x="168" y="64" width="8" height="8"/>
  <rect x="184" y="64" width="16" height="8"/>
  <rect x="224" y="64" width="8" height="8"/>
  <rect x="248" y="64" width="8" height="8"/>
  <rect x="264" y="64" width="24" height="8"/>
  <rect x="296" y="64" width="8" height="8"/>
  <rect x="40" y="72" width="8" height="8"/>
  <rect x="56" y="72" width="24" height="8"/>
  <rect x="88" y="72" width="8" height="8"/>
  <rect x="104" y="72" width="16" height="8"/>
  <rect x="144" y="72" width="8" height="8"/>
  <rect x="168" y="72" width="8" height="8"/>
  <rect x="224" y="72" width="16" height="8"/>
  <rect x="248" y="72" width="8" height="8"/>
  <rect x="264" y="72" width="24" height="8"/>
  <rect x="296" y="72" width="8" height="8"/>
  <rect x="40" y="80" width="8" height="8"/>
  <rect x="88" y="80" width="8" height="8"/>
  <rect x="104" y="80" width="40" height="8"/>
  <rect x="152" y="80" width="16" height="8"/>
  <rect x="192" y="80" width="16" height="8"/>
  <rect x="216" y="80" width="8" height="8"/>
  <rect x="232" y="80" width="8" height="8"/>
  <rect x="248" y="80" width="8" height="8"/>
  <rect x="296" y="80" width="8" height="8"/>
  <rect x="40" y="88" width="56" height="8"/>
  <rect x="104" y="88" width="8" height="8"/>
  <rect x="120" y="88" width="8" height="8"/>
  <rect x="136" y="88" width="8" height="8"/>
  <rect x="152" y="88" width="8" height="8"/>
  <rect x="168" y="88" width="8" height="8"/>
  <rect x="184" y="88" width="8" height="8"/>
  <rect x="200" y="88" width="8" height="8"/>
  <rect x="216" y="88" width="8" height="8"/>
  <rect x="232" y="88" width="8" height="8"/>
  <rect x="248" y="88" width="56" height="8"/>
  <rect x="104" y="96" width="24" height="8"/>
  <rect x="136" y="96" width="8" height="8"/>
  <rect x="152" y="96" width="8" height="8"/>
  <rect x="176" y="96" width="8" height="8"/>
  <rect x="192" y="96" width="24" height="8"/>
  <rect x="224" y="96" width="16" height="8"/>
  <rect x="40" y="104" width="8" height="8"/>
  <rect x="72" y="104" width="8" height="8"/>
  <rect x="88" y="104" width="32" height="8"/>
  <rect x="128" y="104" width="8" height="8"/>
  <rect x="160" y="104" width="8" height="8"/>
  <rect x="176" y="104" width="8" height="8"/>
  <rect x="200" y="104" width="32" height="8"/>
  <rect x="240" y="104" width="40" height="8"/>
  <rect x="296" y="104" width="8" height="8"/>
  <rect x="48" y="112" width="16" height="8"/>
  <rect x="72" y="112" width="16" height="8"/>
  <rect x="96" y="112" width="8" height="8"/>
  <rect x="112" y="112" width="8" height="8"/>
  <rect x="128" y="112" width="16" height="8"/>
  <rect x="160" y="112" width="8" height="8"/>
  <rect x="184" y="112" width="8" height="8"/>
  <rect x="208" y="112" width="8" height="8"/>
  <rect x="224" y="112" width="8" height="8"/>
  <rect x="240" y="112" width="8" height="8"/>
  <rect x="272" y="112" width="24" height="8"/>
  <rect x="48" y="120" width="16" height="8"/>
  <rect x="72" y="120" width="8" height="8"/>
  <rect x="88" y="120" width="8" height="8"/>
  <rect x="104" y="120" width="32" height="8"/>
  <rect x="144" y="120" width="24" height="8"/>
  <rect x="176" y="120" width="16" height="8"/>
  <rect x="200" y="120" width="56" height="8"/>
  <rect x="272" y="120" width="8" height="8"/>
  <rect x="288" y="120" width="8" height="8"/>
  <rect x="40" y="128" width="8" height="8"/>
  <rect x="56" y="128" width="8" height="8"/>
  <rect x="72" y="128" width="16" height="8"/>
  <rect x="96" y="128" width="8" height="8"/>
  <rect x="128" y="128" width="8" height="8"/>
  <rect x="144" y="128" width="8" height="8"/>
  <rect x="176" y="128" width="8" height="8"/>
  <rect x="208" y="128" width="48" height="8"/>
  <rect x="296" y="128" width="8" height="8"/>
  <rect x="48" y="136" width="8" height="8"/>
  <rect x="64" y="136" width="16" height="8"/>
  <rect x="88" y="136" width="8" height="8"/>
  <rect x="128" y="136" width="8" height="8"/>
  <rect x="144" y="136" width="8" height="8"/>
  <rect x="160" y="136" width="64" height="8"/>
  <rect x="232" y="136" width="8" height="8"/>
  <rect x="248" y="136" width="8" height="8"/>
  <rect x="264" y="136" width="16" height="8"/>
  <rect x="40" y="144" width="16" height="8"/>
  <rect x="72" y="144" width="8" height="8"/>
  <rect x="96" y="144" width="16" height="8"/>
  <rect x="120" y="144" width="8" height="8"/>
  <rect x="136" y="144" width="24" height="8"/>
  <rect x="208" y="144" width="24" height="8"/>
  <rect x="240" y="144" width="8" height="8"/>
  <rect x="256" y="144" width="8" height="8"/>
  <rect x="272" y="144" width="16" height="8"/>
  <rect x="56" y="152" width="40" height="8"/>
  <rect x="112" y="152" width="16" height="8"/>
  <rect x="160" y="152" width="8" height="8"/>
  <rect x="176" y="152" width="8" height="8"/>
  <rect x="200" y="152" width="56" height="8"/>
  <rect x="272" y="152" width="8" height="8"/>
  <rect x="288" y="152" width="8" height="8"/>
  <rect x="40" y="160" width="16" height="8"/>
  <rect x="64" y="160" width="8" height="8"/>
  <rect x="96" y="160" width="40" height="8"/>
  <rect x="144" y="160" width="8" height="8"/>
  <rect x="160" y="160" width="32" height="8"/>
  <rect x="200" y="160" width="16" height="8"/>
  <rect x="232" y="160" width="40" height="8"/>
  <rect x="56" y="168" width="16" height="8"/>
  <rect x="88" y="168" width="8" height="8"/>
  <rect x="104" y="168" width="8" height="8"/>
  <rect x="128" y="168" width="8" height="8"/>
  <rect x="144" y="168" width="8" height="8"/>
  <rect x="176" y="168" width="8" height="8"/>
  <rect x="192" y="168" width="48" height="8"/>
  <rect x="248" y="168" width="8" height="8"/>
  <rect x="264" y="168" width="8" height="8"/>
  <rect x="288" y="168" width="8" height="8"/>
  <rect x="64" y="176" width="8" height="8"/>
  <rect x="96" y="176" width="8" height="8"/>
  <rect x="120" y="176" width="8" height="8"/>
  <rect x="144" y="176" width="8" height="8"/>
  <rect x="160" y="176" width="24" height="8"/>
  <rect x="224" y="176" width="8" height="8"/>
  <rect x="272" y="176" width="24" height="8"/>
  <rect x="56" y="184" width="8" height="8"/>
  <rect x="72" y="184" width="32" height="8"/>
  <rect x="120" y="184" width="8" height="8"/>
  <rect x="160" y="184" width="8" height="8"/>
  <rect x="176" y="184" width="16" height="8"/>
  <rect x="208" y="184" width="8" height="8"/>
  <rect x="224" y="184" width="8" height="8"/>
  <rect x="240" y="184" width="24" height="8"/>
  <rect x="272" y="184" width="8" height="8"/>
  <rect x="288" y="184" width="8" height="8"/>
  <rect x="64" y="192" width="16" height="8"/>
  <rect x="96" y="192" width="32" height="8"/>
  <rect x="136" y="192" width="16" height="8"/>
  <rect x="168" y="192" width="24" height="8"/>
  <rect x="200" y="192" width="24" height="8"/>
  <rect x="232" y="192" width="8" height="8"/>
  <rect x="248" y="192" width="16" height="8"/>
  <rect x="288" y="192" width="8" height="8"/>
  <rect x="40" y="200" width="8" height="8"/>
  <rect x="72" y="200" width="8" height="8"/>
  <rect x="88" y="200" width="8" height="8"/>
  <rect x="120" y="200" width="24" height="8"/>
  <rect x="176" y="200" width="24" height="8"/>
  <rect x="208" y="200" width="16" height="8"/>
  <rect x="232" y="200" width="8" height="8"/>
  <rect x="248" y="200" width="8" height="8"/>
  <rect x="264" y="200" width="16" height="8"/>
  <rect x="288" y="200" width="16" height="8"/>
  <rect x="40" y="208" width="32" height="8"/>
  <rect x="136" y="208" width="8" height="8"/>
  <rect x="168" y="208" width="8" height="8"/>
  <rect x="224" y="208" width="8" height="8"/>
  <rect x="256" y="208" width="8" height="8"/>
  <rect x="280" y="208" width="16" height="8"/>
  <rect x="64" y="216" width="40" height="8"/>
  <rect x="120" y="216" width="8" height="8"/>
  <rect x="144" y="216" width="16" height="8"/>
  <rect x="168" y="216" width="8" height="8"/>
  <rect x="200" y="216" width="8" height="8"/>
  <rect x="224" y="216" width="8" height="8"/>
  <rect x="256" y="216" width="16" height="8"/>
  <rect x="288" y="216" width="8" height="8"/>
  <rect x="56" y="224" width="32" height="8"/>
  <rect x="96" y="224" width="8" height="8"/>
  <rect x="112" y="224" width="24" height="8"/>
  <rect x="152" y="224" width="8" height="8"/>
  <rect x="176" y="224" width="8" height="8"/>
  <rect x="192" y="224" width="24" height="8"/>
  <rect x="240" y="224" width="16" height="8"/>
  <rect x="264" y="224" width="8" height="8"/>
  <rect x="288" y="224" width="8" height="8"/>
  <rect x="40" y="232" width="24" height="8"/>
  <rect x="80" y="232" width="32" height="8"/>
  <rect x="120" y="232" width="8" height="8"/>
  <rect x="136" y="232" width="32" height="8"/>
  <rect x="176" y="232" width="8" height="8"/>
  <rect x="208" y="232" width="16" height="8"/>
  <rect x="232" y="232" width="48" height="8"/>
  <rect x="288" y="232" width="8" height="8"/>
  <rect x="104" y="240" width="16" height="8"/>
  <rect x="144" y="240" width="8" height="8"/>
  <rect x="160" y="240" width="16" height="8"/>
  <rect x="184" y="240" width="8" height="8"/>
  <rect x="208" y="240" width="8" height="8"/>
  <rect x="224" y="240" width="16" height="8"/>
  <rect x="264" y="240" width="8" height="8"/>
  <rect x="280" y="240" width="16" height="8"/>
  <rect x="40" y="248" width="56" height="8"/>
  <rect x="104" y="248" width="8" height="8"/>
  <rect x="120" y="248" width="24" height="8"/>
  <rect x="152" y="248" width="24" height="8"/>
  <rect x="184" y="248" width="8" height="8"/>
  <rect x="200" y="248" width="16" height="8"/>
  <rect x="232" y="248" width="8" height="8"/>
  <rect x="248" y="248" width="8" height="8"/>
  <rect x="264" y="248" width="16" height="8"/>
  <rect x="288" y="248" width="8" height="8"/>
  <rect x="40" y="256" width="8" height="8"/>
  <rect x="88" y="256" width="8" height="8"/>
  <rect x="120" y="256" width="24" height="8"/>
  <rect x="176" y="256" width="8" height="8"/>
  <rect x="192" y="256" width="8" height="8"/>
  <rect x="208" y="256" width="8" height="8"/>
  <rect x="232" y="256" width="8" height="8"/>
  <rect x="264" y="256" width="8" height="8"/>
  <rect x="40" y="264" width="8" height="8"/>
  <rect x="56" y="264" width="24" height="8"/>
  <rect x="88" y="264" width="8" height="8"/>
  <rect x="104" y="264" width="16" height="8"/>
  <rect x="152" y="264" width="16" height="8"/>
  <rect x="176" y="264" width="24" height="8"/>
  <rect x="208" y="264" width="16" height="8"/>
  <rect x="232" y="264" width="48" height="8"/>
  <rect x="296" y="264" width="8" height="8"/>
  <rect x="40" y="272" width="8" height="8"/>
  <rect x="56" y="272" width="24" height="8"/>
  <rect x="88" y="272" width="8" height="8"/>
  <rect x="112" y="272" width="8" height="8"/>
  <rect x="144" y="272" width="8" height="8"/>
  <rect x="200" y="272" width="16" height="8"/>
  <rect x="224" y="272" width="8" height="8"/>
  <rect x="248" y="272" width="24" height="8"/>
  <rect x="280" y="272" width="8" height="8"/>
  <rect x="40" y="280" width="8" height="8"/>
  <rect x="56" y="280" width="24" height="8"/>
  <rect x="88" y="280" width="8" height="8"/>
  <rect x="120" y="280" width="8" height="8"/>
  <rect x="136" y="280" width="16" height="8"/>
  <rect x="160" y="280" width="8" height="8"/>
  <rect x="176" y="280" width="16" height="8"/>
  <rect x="232" y="280" width="8" height="8"/>
  <rect x="248" y="280" width="40" height="8"/>
  <rect x="40" y="288" width="8" height="8"/>
  <rect x="88" y="288" width="8" height="8"/>
  <rect x="112" y="288" width="8" height="8"/>
  <rect x="144" y="288" width="40" height="8"/>
  <rect x="200" y="288" width="24" height="8"/>
  <rect x="232" y="288" width="16" height="8"/>
  <rect x="40" y="296" width="56" height="8"/>
  <rect x="104" y="296" width="8" height="8"/>
  <rect x="120" y="296" width="40" height="8"/>
  <rect x="176" y="296" width="16" height="8"/>
  <rect x="208" y="296" width="48" height="8"/>
  <rect x="296" y="296" width="8" height="8"/>
</g>
</svg>