<svg xmlns="http://www.w3.org/2000/svg" viewBox="0 0 1000 1000" width="1000" height="1000">
  <g transform="translate(110 100) scale(780.0 780.0) translate(-0.0 -0.0)">
<path d="M 0.16242640687119286 0.9224264068711928 L 0.16642640687119287 0.9017404327053622 L 0.17835364321306174 0.8900996749590935 L 0.19080107625882864 0.8784201238778763 L 0.212126378370534 0.8756184418625975 L 0.216126378370534 0.854957642743572 L 0.220126378370534 0.8343901722540621 L 0.24025949711384575 0.8313706082249569 L 0.26119444087003063 0.8281785678541576 L 0.27337855229138897 0.8162356951485319 L 0.27737855229138897 0.7957798721431579 L 0.2892610785210958 0.7838642531242704 L 0.3097507916199358 0.7802269820961263 L 0.3137507916199358 0.7599598469044557 L 0.333857997156139 0.7560802193783613 L 0.3458717112026186 0.7439669492978567 L 0.3578597845987667 0.7318280385670208 L 0.3698228839768475 0.7196641538181173 L 0.3817616439850388 0.7074759296993245 L 0.3861212054278452 0.6877085070151469 L 0.3981338027911366 0.675594120251454 L 0.4101270354074111 0.6634603687407445 L 0.429285060835839 0.6584914100421883 L 0.44111075917693643 0.6461901242563014 L 0.45291542992495515 0.6338678108773361 L 0.46469956256562156 0.6215249593910185 L 0.4764636328160685 0.6091620455144813 L 0.48170463578028744 0.590276064351716 L 0.4935744736030989 0.5780189180475434 L 0.5054282764902555 0.5657457368077158 L 0.5172664134371288 0.5534568896276051 L 0.5349988635769959 0.547062355640488 L 0.5466519029709123 0.5345884109074203 L 0.5582879031810039 0.5220974269905275 L 0.5699072607499904 0.5095898004325301 L 0.5815103650071262 0.49706592056268173 L 0.593097598486918 0.48452616991548947 L 0.6046693373115335 0.47197092461312073 L 0.616225951540988 0.45940055471559127 L 0.6231619694523993 0.4422095885000184 L 0.63486220408207 0.4297828390027049 L 0.6508086629009073 0.42160231369455814 L 0.6623083688392144 0.40897503550588127 L 0.6737947199590082 0.3963344024986908 L 0.6852680558881616 0.38368075430086007 L 0.6931886839543056 0.36747439824001965 L 0.7014651404833061 0.35162387064203626 L 0.7132730384923422 0.3393047845240882 L 0.7250725811166987 0.32697734302146064 L 0.7368639969617875 0.3146417747395652 L 0.7460446399832472 0.29969543363404094 L 0.7556020416462277 0.2851258511700372 L 0.7677578422928826 0.27315466768970803 L 0.7778875117183929 0.25915735298823417 L 0.7884060894220872 0.2455489465649445 L 0.799317786690048 0.23233365970592118 L 0.8134827845106763 0.22237167339956523 L 0.8261319689955496 0.21089387375745433 L 0.8375285679696287 0.19816348860454938 L 0.8489355570841661 0.18544349359210258 L 0.8590281934307347 0.1714091458116871 L 0.8704611578964178 0.1587151261503859 L 0.8819045125025589 0.1460314966295431 L 0.8920490995514188 0.13204909955141877 Z"
          fill="black"
          stroke="black"
          stroke-width="0.006"
          stroke-linejoin="round"
          stroke-linecap="round" />
</g>
  <g transform="translate(690 690) scale(0.5232558139534884 0.5232558139534884) translate(-0.0 -0.0)">
<rect x="40" y="40" width="56" height="8"/>
  <rect x="104" y="40" width="24" height="8"/>
  <rect x="152" y="40" width="8" height="8"/>
  <rect x="168" y="40" width="8" height="8"/>
  <rect x="192" y="40" width="24" height="8"/>
  <rect x="224" y="40" width="8" height="8"/>
  <rect x="248" y="40" width="56" height="8"/>
  <rect x="40" y="48" width="8" height="8"/>
  <rect x="88" y="48" width="8" height="8"/>
  <rect x="104" y="48" width="16" height="8"/>
  <rect x="128" y="48" width="8" height="8"/>
  <rect x="144" y="48" width="16" height="8"/>
  <rect x="168" y="48" width="24" height="8"/>
  <rect x="200" y="48" width="8" height="8"/>
  <rect x="216" y="48" width="16" height="8"/>
  <rect x="248" y="48" width="8" height="8"/>
  <rect x="296" y="48" width="8" height="8"/>
  <rect x="40" y="56" width="8" height="8"/>
  <rect x="56" y="56" width="24" height="8"/>
  <rect x="88" y="56" width="8" height="8"/>
  <rect x="120" y="56" width="8" height="8"/>
  <rect x="144" y="56" width="24" height="8"/>
  <rect x="192" y="56" width="8" height="8"/>
  <rect x="216" y="56" width="8" height="8"/>
  <rect x="248" y="56" width="8" height="8"/>
  <rect x="264" y="56" width="24" height="8"/>
  <rect x="296" y="56" width="8" height="8"/>
  <rect x="40" y="64" width="8" height="8"/>
  <rect x="56" y="64" width="24" height="8"/>
  <rect x="88" y="64" width="8" height="8"/>
  <rect x="104" y="64" width="8" height="8"/>
  <rect x="120" y="64" width="8" height="8"/>
  <rect x="168" y="64" width="16" height="8"/>
  <rect x="192" y="64" width="16" height="8"/>
  <rect x="232" y="64" width="8" height="8"/>
  <rect x="248" y="64" width="8" height="8"/>
  <rect x="264" y="64" width="24" height="8"/>
  <rect x="296" y="64" width="8" height="8"/>
  <rect x="40" y="72" width="8" height="8"/>
  <rect x="56" y="72" width="24" height="8"/>
  <rect x="88" y="72" width="8" height="8"/>
  <rect x="120" y="72" width="8" height="8"/>
  <rect x="152" y="72" width="16" height="8"/>
  <rect x="176" y="72" width="8" height="8"/>
  <rect x="192" y="72" width="8" height="8"/>
  <rect x="208" y="72" width="8" height="8"/>
  <rect x="232" y="72" width="8" height="8"/>
  <rect x="248" y="72" width="8" height="8"/>
  <rect x="264" y="72" width="24" height="8"/>
  <rect x="296" y="72" width="8" height="8"/>
  <rect x="40" y="80" width="8" height="8"/>
  <rect x="88" y="80" width="8" height="8"/>
  <rect x="112" y="80" width="32" height="8"/>
  <rect x="152" y="80" width="8" height="8"/>
  <rect x="168" y="80" width="8" height="8"/>
  <rect x="184" y="80" width="16" height="8"/>
  <rect x="208" y="80" width="8" height="8"/>
  <rect x="248" y="80" width="8" height="8"/>
  <rect x="296" y="80" width="8" height="8"/>
  <rect x="40" y="88" width="56" height="8"/>
  <rect x="104" y="88" width="8" height="8"/>
  <rect x="120" y="88" width="8" height="8"/>
  <rect x="136" y="88" width="8" height="8"/>
  <rect x="152" y="88" width="8" height="8"/>
  <rect x="168" y="88" width="8" height="8"/>
  <rect x="184" y="88" width="8" height="8"/>
  <rect x="200" y="88" width="8" height="8"/>
  <rect x="216" y="88" width="8" height="8"/>
  <rect x="232" y="88" width="8" height="8"/>
  <rect x="248" y="88" width="56" height="8"/>
  <rect x="104" y="96" width="8" height="8"/>
  <rect x="120" y="96" width="8" height="8"/>
  <rect x="152" y="96" width="40" height="8"/>
  <rect x="200" y="96" width="8" height="8"/>
  <rect x="216" y="96" width="8" height="8"/>
  <rect x="40" y="104" width="8" height="8"/>
  <rect x="56" y="104" width="16" height="8"/>
  <rect x="80" y="104" width="24" height="8"/>
  <rect x="120" y="104" width="24" height="8"/>
  <rect x="152" y="104" width="8" height="8"/>
  <rect x="168" y="104" width="24" height="8"/>
  <rect x="208" y="104" width="8" height="8"/>
  <rect x="232" y="104" width="8" height="8"/>
  <rect x="248" y="104" width="8" height="8"/>
  <rect x="272" y="104" width="8" height="8"/>
  <rect x="288" y="104" width="16" height="8"/>
  <rect x="40" y="112" width="16" height="8"/>
  <rect x="64" y="112" width="24" height="8"/>
  <rect x="96" y="112" width="8" height="8"/>
  <rect x="112" y="112" width="8" height="8"/>
  <rect x="136" y="112" width="16" height="8"/>
  <rect x="168" y="112" width="40" height="8"/>
  <rect x="224" y="112" width="8" height="8"/>
  <rect x="248" y="112" width="16" height="8"/>
  <rect x="272" y="112" width="16" height="8"/>
  <rect x="296" y="112" width="8" height="8"/>
  <rect x="40" y="120" width="8" height="8"/>
  <rect x="72" y="120" width="24" height="8"/>
  <rect x="112" y="120" width="8" height="8"/>
  <rect x="128" y="120" width="24" height="8"/>
  <rect x="168" y="120" width="24" height="8"/>
  <rect x="200" y="120" width="80" height="8"/>
  <rect x="288" y="120" width="16" height="8"/>
  <rect x="40" y="128" width="16" height="8"/>
  <rect x="64" y="128" width="8" height="8"/>
  <rect x="80" y="128" width="8" height="8"/>
  <rect x="96" y="128" width="8" height="8"/>
  <rect x="112" y="128" width="16" height="8"/>
  <rect x="160" y="128" width="16" height="8"/>
  <rect x="184" y="128" width="24" height="8"/>
  <rect x="224" y="128" width="24" height="8"/>
  <rect x="256" y="128" width="8" height="8"/>
  <rect x="272" y="128" width="8" height="8"/>
  <rect x="48" y="136" width="8" height="8"/>
  <rect x="72" y="136" width="8" height="8"/>
  <rect x="88" y="136" width="8" height="8"/>
  <rect x="128" y="136" width="8" height="8"/>
  <rect x="152" y="136" width="32" height="8"/>
  <rect x="216" y="136" width="16" height="8"/>
  <rect x="240" y="136" width="8" height="8"/>
  <rect x="264" y="136" width="16" height="8"/>
  <rect x="288" y="136" width="8" height="8"/>
  <rect x="56" y="144" width="24" height="8"/>
  <rect x="104" y="144" width="64" height="8"/>
  <rect x="176" y="144" width="8" height="8"/>
  <rect x="192" y="144" width="8" height="8"/>
  <rect x="216" y="144" width="8" height="8"/>
  <rect x="232" y="144" width="8" height="8"/>
  <rect x="256" y="144" width="8" height="8"/>
  <rect x="272" y="144" width="24" height="8"/>
  <rect x="40" y="152" width="8" height="8"/>
  <rect x="72" y="152" width="32" height="8"/>
  <rect x="128" y="152" width="24" height="8"/>
  <rect x="176" y="152" width="8" height="8"/>
  <rect x="192" y="152" width="8" height="8"/>
  <rect x="232" y="152" width="8" height="8"/>
  <rect x="248" y="152" width="16" height="8"/>
  <rect x="272" y="152" width="8" height="8"/>
  <rect x="40" y="160" width="8" height="8"/>
  <rect x="64" y="160" width="16" height="8"/>
  <rect x="96" y="160" width="8" height="8"/>
  <rect x="120" y="160" width="8" height="8"/>
  <rect x="136" y="160" width="8" height="8"/>
  <rect x="160" y="160" width="16" height="8"/>
  <rect x="184" y="160" width="40" height="8"/>
  <rect x="232" y="160" width="32" height="8"/>
  <rect x="272" y="160" width="16" height="8"/>
  <rect x="48" y="168" width="8" height="8"/>
  <rect x="64" y="168" width="8" height="8"/>
  <rect x="88" y="168" width="8" height="8"/>
  <rect x="104" y="168" width="8" height="8"/>
  <rect x="128" y="168" width="8" height="8"/>
  <rect x="160" y="168" width="16" height="8"/>
  <rect x="192" y="168" width="8" height="8"/>
  <rect x="208" y="168" width="24" height="8"/>
  <rect x="240" y="168" width="16" height="8"/>
  <rect x="264" y="168" width="24" height="8"/>
  <rect x="40" y="176" width="16" height="8"/>
  <rect x="72" y="176" width="8" height="8"/>
  <rect x="96" y="176" width="8" height="8"/>
  <rect x="112" y="176" width="8" height="8"/>
  <rect x="128" y="176" width="8" height="8"/>
  <rect x="144" y="176" width="24" height="8"/>
  <rect x="176" y="176" width="8" height="8"/>
  <rect x="200" y="176" width="8" height="8"/>
  <rect x="224" y="176" width="16" height="8"/>
  <rect x="248" y="176" width="8" height="8"/>
  <rect x="264" y="176" width="16" height="8"/>
  <rect x="288" y="176" width="16" height="8"/>
  <rect x="40" y="184" width="8" height="8"/>
  <rect x="56" y="184" width="16" height="8"/>
  <rect x="80" y="184" width="32" height="8"/>
  <rect x="136" y="184" width="8" height="8"/>
  <rect x="160" y="184" width="16" height="8"/>
  <rect x="200" y="184" width="24" height="8"/>
  <rect x="232" y="184" width="8" height="8"/>
  <rect x="256" y="184" width="16" height="8"/>
  <rect x="280" y="184" width="16" height="8"/>
  <rect x="48" y="192" width="8" height="8"/>
  <rect x="64" y="192" width="8" height="8"/>
  <rect x="80" y="192" width="8" height="8"/>
  <rect x="96" y="192" width="16" height="8"/>
  <rect x="120" y="192" width="16" height="8"/>
  <rect x="144" y="192" width="40" height="8"/>
  <rect x="200" y="192" width="8" height="8"/>
  <rect x="216" y="192" width="8" height="8"/>
  <rect x="240" y="192" width="16" height="8"/>
  <rect x="264" y="192" width="8" height="8"/>
  <rect x="56" y="200" width="8" height="8"/>
  <rect x="80" y="200" width="40" height="8"/>
  <rect x="128" y="200" width="8" height="8"/>
  <rect x="144" y="200" width="24" height="8"/>
  <rect x="176" y="200" width="8" height="8"/>
  <rect x="208" y="200" width="8" height="8"/>
  <rect x="256" y="200" width="8" height="8"/>
  <rect x="272" y="200" width="24" height="8"/>
  <rect x="40" y="208" width="16" height="8"/>
  <rect x="64" y="208" width="8" height="8"/>
  <rect x="176" y="208" width="8" height="8"/>
  <rect x="192" y="208" width="8" height="8"/>
  <rect x="208" y="208" width="8" height="8"/>
  <rect x="224" y="208" width="8" height="8"/>
  <rect x="248" y="208" width="8" height="8"/>
  <rect x="272" y="208" width="16" height="8"/>
  <rect x="296" y="208" width="8" height="8"/>
  <rect x="64" y="216" width="8" height="8"/>
  <rect x="88" y="216" width="16" height="8"/>
  <rect x="112" y="216" width="16" height="8"/>
  <rect x="136" y="216" width="8" height="8"/>
  <rect x="184" y="216" width="8" height="8"/>
  <rect x="200" y="216" width="8" height="8"/>
  <rect x="216" y="216" width="16" height="8"/>
  <rect x="256" y="216" width="8" height="8"/>
  <rect x="280" y="216" width="24" height="8"/>
  <rect x="48" y="224" width="32" height="8"/>
  <rect x="96" y="224" width="24" height="8"/>
  <rect x="128" y="224" width="8" height="8"/>
  <rect x="144" y="224" width="8" height="8"/>
  <rect x="192" y="224" width="16" height="8"/>
  <rect x="216" y="224" width="8" height="8"/>
  <rect x="232" y="224" width="32" height="8"/>
  <rect x="272" y="224" width="8" height="8"/>
  <rect x="40" y="232" width="8" height="8"/>
  <rect x="56" y="232" width="8" height="8"/>
  <rect x="80" y="232" width="16" height="8"/>
  <rect x="128" y="232" width="16" height="8"/>
  <rect x="152" y="232" width="16" height="8"/>
  <rect x="176" y="232" width="8" height="8"/>
  <rect x="232" y="232" width="40" height="8"/>
  <rect x="288" y="232" width="16" height="8"/>
  <rect x="104" y="240" width="8" height="8"/>
  <rect x="120" y="240" width="8" height="8"/>
  <rect x="136" y="240" width="16" height="8"/>
  <rect x="160" y="240" width="8" height="8"/>
  <rect x="192" y="240" width="8" height="8"/>
  <rect x="208" y="240" width="8" height="8"/>
  <rect x="232" y="240" width="8" height="8"/>
  <rect x="264" y="240" width="16" height="8"/>
  <rect x="288" y="240" width="8" height="8"/>
  <rect x="40" y="248" width="56" height="8"/>
  <rect x="104" y="248" width="8" height="8"/>
  <rect x="136" y="248" width="24" height="8"/>
  <rect x="176" y="248" width="40" height="8"/>
  <rect x="224" y="248" width="16" height="8"/>
  <rect x="248" y="248" width="8" height="8"/>
  <rect x="264" y="248" width="8" height="8"/>
  <rect x="40" y="256" width="8" height="8"/>
  <rect x="88" y="256" width="8" height="8"/>
  <rect x="104" y="256" width="32" height="8"/>
  <rect x="168" y="256" width="8" height="8"/>
  <rect x="192" y="256" width="24" height="8"/>
  <rect x="224" y="256" width="16" height="8"/>
  <rect x="264" y="256" width="32" height="8"/>
  <rect x="40" y="264" width="8" height="8"/>
  <rect x="56" y="264" width="24" height="8"/>
  <rect x="88" y="264" width="8" height="8"/>
  <rect x="120" y="264" width="8" height="8"/>
  <rect x="136" y="264" width="16" height="8"/>
  <rect x="160" y="264" width="8" height="8"/>
  <rect x="184" y="264" width="8" height="8"/>
  <rect x="208" y="264" width="64" height="8"/>
  <rect x="280" y="264" width="24" height="8"/>
  <rect x="40" y="272" width="8" height="8"/>
  <rect x="56" y="272" width="24" height="8"/>
  <rect x="88" y="272" width="8" height="8"/>
  <rect x="104" y="272" width="8" height="8"/>
  <rect x="120" y="272" width="8" height="8"/>
  <rect x="136" y="272" width="16" height="8"/>
  <rect x="160" y="272" width="8" height="8"/>
  <rect x="176" y="272" width="8" height="8"/>
  <rect x="200" y="272" width="32" height="8"/>
  <rect x="256" y="272" width="8" height="8"/>
  <rect x="272" y="272" width="16" height="8"/>
  <rect x="296" y="272" width="8" height="8"/>
  <rect x="40" y="280" width="8" height="8"/>
  <rect x="56" y="280" width="24" height="8"/>
  <rect x="88" y="280" width="8" height="8"/>
  <rect x="104" y="280" width="8" height="8"/>
  <rect x="152" y="280" width="24" height="8"/>
  <rect x="184" y="280" width="8" height="8"/>
  <rect x="200" y="280" width="8" height="8"/>
  <rect x="216" y="280" width="24" height="8"/>
  <rect x="248" y="280" width="16" height="8"/>
  <rect x="40" y="288" width="8" height="8"/>
  <rect x="88" y="288" width="8" height="8"/>
  <rect x="128" y="288" width="16" height="8"/>
  <rect x="176" y="288" width="16" height="8"/>
  <rect x="200" y="288" width="8" height="8"/>
  <rect x="224" y="288" width="24" height="8"/>
  <rect x="256" y="288" width="24" height="8"/>
  <rect x="296" y="288" width="8" height="8"/>
  <rect x="40" y="296" width="56" height="8"/>
  <rect x="104" y="296" width="32" height="8"/>
  <rect x="160" y="296" width="32" height="8"/>
  <rect x="208" y="296" width="8" height="8"/>
  <rect x="224" y="296" width="8" height="8"/>
  <rect x="240" y="296" width="16" height="8"/>
  <rect x="264" y="296" width="8" height="8"/>
  <rect x="280" y="296" width="8" height="8"/>
</g>
</svg>