<svg xmlns="http://www.w3.org/2000/svg" viewBox="0 0 344 344" width="344" height="344" shape-rendering="crispEdges">
  <rect x="40" y="40" width="56" height="8"/>
  <rect x="128" y="40" width="8" height="8"/>
  <rect x="144" y="40" width="8" height="8"/>
  <rect x="160" y="40" width="8" height="8"/>
  <rect x="192" y="40" width="8" height="8"/>
  <rect x="216" y="40" width="16" height="8"/>
  <rect x="248" y="40" width="56" height="8"/>
  <rect x="40" y="48" width="8" height="8"/>
  <rect x="88" y="48" width="8" height="8"/>
  <rect x="104" y="48" width="8" height="8"/>
  <rect x="120" y="48" width="8" height="8"/>
  <rect x="144" y="48" width="56" height="8"/>
  <rect x="208" y="48" width="24" height="8"/>
  <rect x="248" y="48" width="8" height="8"/>
  <rect x="296" y="48" width="8" height="8"/>
  <rect x="40" y="56" width="8" height="8"/>
  <rect x="56" y="56" width="24" height="8"/>
  <rect x="88" y="56" width="8" height="8"/>
  <rect x="112" y="56" width="16" height="8"/>
  <rect x="136" y="56" width="8" height="8"/>
  <rect x="152" y="56" width="16" height="8"/>
  <rect x="184" y="56" width="8" height="8"/>
  <rect x="200" y="56" width="8" height="8"/>
  <rect x="216" y="56" width="8" height="8"/>
  <rect x="232" y="56" width="8" height="8"/>
  <rect x="248" y="56" width="8" height="8"/>
  <rect x="264" y="56" width="24" height="8"/>
  <rect x="296" y="56" width="8" height="8"/>
  <rect x="40" y="64" width="8" height="8"/>
  <rect x="56" y="64" width="24" height="8"/>
  <rect x="88" y="64" width="8" height="8"/>
  <rect x="120" y="64" width="16" height="8"/>
  <rect x="152" y="64" width="8" height="8"/>
  <rect x="184" y="64" width="8" height="8"/>
  <rect x="200" y="64" width="8" height="8"/>
  <rect x="224" y="64" width="8" height="8"/>
  <rect x="248" y="64" width="8" height="8"/>
  <rect x="264" y="64" width="24" height="8"/>
  <rect x="296" y="64" width="8" height="8"/>
  <rect x="40" y="72" width="8" height="8"/>
  <rect x="56" y="72" width="24" height="8"/>
  <rect x="88" y="72" width="8" height="8"/>
  <rect x="104" y="72" width="8" height="8"/>
  <rect x="120" y="72" width="8" height="8"/>
  <rect x="168" y="72" width="8" height="8"/>
  <rect x="184" y="72" width="16" height="8"/>
  <rect x="208" y="72" width="24" height="8"/>
  <rect x="248" y="72" width="8" height="8"/>
  <rect x="264" y="72" width="24" height="8"/>
  <rect x="296" y="72" width="8" height="8"/>
  <rect x="40" y="80" width="8" height="8"/>
  <rect x="88" y="80" width="8" height="8"/>
  <rect x="112" y="80" width="24" height="8"/>
  <rect x="152" y="80" width="16" height="8"/>
  <rect x="176" y="80" width="24" height="8"/>
  <rect x="216" y="80" width="16" height="8"/>
  <rect x="248" y="80" width="8" height="8"/>
  <rect x="296" y="80" width="8" height="8"/>
  <rect x="40" y="88" width="56" height="8"/>
  <rect x="104" y="88" width="8" height="8"/>
  <rect x="120" y="88" width="8" height="8"/>
  <rect x="136" y="88" width="8" height="8"/>
  <rect x="152" y="88" width="8" height="8"/>
  <rect x="168" y="88" width="8" height="8"/>
  <rect x="184" y="88" width="8" height="8"/>
  <rect x="200" y="88" width="8" height="8"/>
  <rect x="216" y="88" width="8" height="8"/>
  <rect x="232" y="88" width="8" height="8"/>
  <rect x="248" y="88" width="56" height="8"/>
  <rect x="120" y="96" width="8" height="8"/>
  <rect x="144" y="96" width="8" height="8"/>
  <rect x="160" y="96" width="8" height="8"/>
  <rect x="176" y="96" width="24" height="8"/>
  <rect x="208" y="96" width="16" height="8"/>
  <rect x="40" y="104" width="8" height="8"/>
  <rect x="56" y="104" width="8" height="8"/>
  <rect x="72" y="104" width="8" height="8"/>
  <rect x="88" y="104" width="8" height="8"/>
  <rect x="112" y="104" width="8" height="8"/>
  <rect x="136" y="104" width="16" height="8"/>
  <rect x="168" y="104" width="16" height="8"/>
  <rect x="192" y="104" width="24" height="8"/>
  <rect x="264" y="104" width="8" height="8"/>
  <rect x="288" y="104" width="8" height="8"/>
  <rect x="40" y="112" width="16" height="8"/>
  <rect x="64" y="112" width="16" height="8"/>
  <rect x="104" y="112" width="8" height="8"/>
  <rect x="128" y="112" width="8" height="8"/>
  <rect x="168" y="112" width="8" height="8"/>
  <rect x="200" y="112" width="8" height="8"/>
  <rect x="232" y="112" width="32" height="8"/>
  <rect x="288" y="112" width="16" height="8"/>
  <rect x="40" y="120" width="16" height="8"/>
  <rect x="72" y="120" width="24" height="8"/>
  <rect x="104" y="120" width="8" height="8"/>
  <rect x="120" y="120" width="8" height="8"/>
  <rect x="144" y="120" width="8" height="8"/>
  <rect x="200" y="120" width="16" height="8"/>
  <rect x="240" y="120" width="24" height="8"/>
  <rect x="280" y="120" width="24" height="8"/>
  <rect x="56" y="128" width="8" height="8"/>
  <rect x="72" y="128" width="16" height="8"/>
  <rect x="104" y="128" width="8" height="8"/>
  <rect x="120" y="128" width="8" height="8"/>
  <rect x="144" y="128" width="16" height="8"/>
  <rect x="176" y="128" width="48" height="8"/>
  <rect x="232" y="128" width="16" height="8"/>
  <rect x="264" y="128" width="8" height="8"/>
  <rect x="40" y="136" width="16" height="8"/>
  <rect x="64" y="136" width="48" height="8"/>
  <rect x="136" y="136" width="8" height="8"/>
  <rect x="152" y="136" width="8" height="8"/>
  <rect x="176" y="136" width="8" height="8"/>
  <rect x="200" y="136" width="16" height="8"/>
  <rect x="224" y="136" width="8" height="8"/>
  <rect x="240" y="136" width="24" height="8"/>
  <rect x="272" y="136" width="8" height="8"/>
  <rect x="288" y="136" width="16" height="8"/>
  <rect x="40" y="144" width="24" height="8"/>
  <rect x="104" y="144" width="40" height="8"/>
  <rect x="160" y="144" width="8" height="8"/>
  <rect x="176" y="144" width="8" height="8"/>
  <rect x="200" y="144" width="24" height="8"/>
  <rect x="232" y="144" width="24" height="8"/>
  <rect x="272" y="144" width="16" height="8"/>
  <rect x="296" y="144" width="8" height="8"/>
  <rect x="48" y="152" width="16" height="8"/>
  <rect x="80" y="152" width="16" height="8"/>
  <rect x="112" y="152" width="8" height="8"/>
  <rect x="128" y="152" width="8" height="8"/>
  <rect x="144" y="152" width="8" height="8"/>
  <rect x="176" y="152" width="16" height="8"/>
  <rect x="200" y="152" width="8" height="8"/>
  <rect x="240" y="152" width="8" height="8"/>
  <rect x="256" y="152" width="8" height="8"/>
  <rect x="272" y="152" width="32" height="8"/>
  <rect x="48" y="160" width="8" height="8"/>
  <rect x="72" y="160" width="16" height="8"/>
  <rect x="104" y="160" width="8" height="8"/>
  <rect x="144" y="160" width="8" height="8"/>
  <rect x="160" y="160" width="24" height="8"/>
  <rect x="200" y="160" width="32" height="8"/>
  <rect x="248" y="160" width="16" height="8"/>
  <rect x="288" y="160" width="8" height="8"/>
  <rect x="40" y="168" width="8" height="8"/>
  <rect x="64" y="168" width="16" height="8"/>
  <rect x="88" y="168" width="16" height="8"/>
  <rect x="112" y="168" width="8" height="8"/>
  <rect x="136" y="168" width="8" height="8"/>
  <rect x="152" y="168" width="16" height="8"/>
  <rect x="176" y="168" width="24" height="8"/>
  <rect x="208" y="168" width="8" height="8"/>
  <rect x="232" y="168" width="24" height="8"/>
  <rect x="48" y="176" width="8" height="8"/>
  <rect x="72" y="176" width="8" height="8"/>
  <rect x="96" y="176" width="8" height="8"/>
  <rect x="120" y="176" width="8" height="8"/>
  <rect x="136" y="176" width="8" height="8"/>
  <rect x="152" y="176" width="8" height="8"/>
  <rect x="168" y="176" width="8" height="8"/>
  <rect x="200" y="176" width="24" height="8"/>
  <rect x="232" y="176" width="8" height="8"/>
  <rect x="248" y="176" width="16" height="8"/>
  <rect x="288" y="176" width="16" height="8"/>
  <rect x="40" y="184" width="16" height="8"/>
  <rect x="64" y="184" width="8" height="8"/>
  <rect x="80" y="184" width="24" height="8"/>
  <rect x="112" y="184" width="24" height="8"/>
  <rect x="144" y="184" width="16" height="8"/>
  <rect x="232" y="184" width="8" height="8"/>
  <rect x="248" y="184" width="8" height="8"/>
  <rect x="280" y="184" width="24" height="8"/>
  <rect x="40" y="192" width="8" height="8"/>
  <rect x="80" y="192" width="8" height="8"/>
  <rect x="112" y="192" width="8" height="8"/>
  <rect x="128" y="192" width="8" height="8"/>
  <rect x="144" y="192" width="16" height="8"/>
  <rect x="168" y="192" width="16" height="8"/>
  <rect x="192" y="192" width="8" height="8"/>
  <rect x="208" y="192" width="16" height="8"/>
  <rect x="256" y="192" width="16" height="8"/>
  <rect x="288" y="192" width="16" height="8"/>
  <rect x="40" y="200" width="16" height="8"/>
  <rect x="64" y="200" width="32" height="8"/>
  <rect x="104" y="200" width="8" height="8"/>
  <rect x="120" y="200" width="8" height="8"/>
  <rect x="144" y="200" width="8" height="8"/>
  <rect x="160" y="200" width="8" height="8"/>
  <rect x="176" y="200" width="40" height="8"/>
  <rect x="232" y="200" width="32" height="8"/>
  <rect x="272" y="200" width="8" height="8"/>
  <rect x="296" y="200" width="8" height="8"/>
  <rect x="48" y="208" width="8" height="8"/>
  <rect x="72" y="208" width="16" height="8"/>
  <rect x="96" y="208" width="40" height="8"/>
  <rect x="144" y="208" width="16" height="8"/>
  <rect x="184" y="208" width="8" height="8"/>
  <rect x="208" y="208" width="8" height="8"/>
  <rect x="232" y="208" width="24" height="8"/>
  <rect x="288" y="208" width="16" height="8"/>
  <rect x="40" y="216" width="8" height="8"/>
  <rect x="72" y="216" width="24" height="8"/>
  <rect x="104" y="216" width="16" height="8"/>
  <rect x="128" y="216" width="24" height="8"/>
  <rect x="168" y="216" width="16" height="8"/>
  <rect x="200" y="216" width="8" height="8"/>
  <rect x="232" y="216" width="8" height="8"/>
  <rect x="256" y="216" width="24" height="8"/>
  <rect x="288" y="216" width="16" height="8"/>
  <rect x="48" y="224" width="24" height="8"/>
  <rect x="80" y="224" width="8" height="8"/>
  <rect x="104" y="224" width="8" height="8"/>
  <rect x="144" y="224" width="40" height="8"/>
  <rect x="192" y="224" width="24" height="8"/>
  <rect x="224" y="224" width="32" height="8"/>
  <rect x="264" y="224" width="8" height="8"/>
  <rect x="296" y="224" width="8" height="8"/>
  <rect x="40" y="232" width="8" height="8"/>
  <rect x="56" y="232" width="56" height="8"/>
  <rect x="144" y="232" width="16" height="8"/>
  <rect x="168" y="232" width="16" height="8"/>
  <rect x="200" y="232" width="24" height="8"/>
  <rect x="232" y="232" width="40" height="8"/>
  <rect x="104" y="240" width="8" height="8"/>
  <rect x="136" y="240" width="24" height="8"/>
  <rect x="200" y="240" width="8" height="8"/>
  <rect x="232" y="240" width="8" height="8"/>
  <rect x="264" y="240" width="16" height="8"/>
  <rect x="296" y="240" width="8" height="8"/>
  <rect x="40" y="248" width="56" height="8"/>
  <rect x="120" y="248" width="16" height="8"/>
  <rect x="144" y="248" width="16" height="8"/>
  <rect x="176" y="248" width="8" height="8"/>
  <rect x="208" y="248" width="8" height="8"/>
  <rect x="224" y="248" width="16" height="8"/>
  <rect x="248" y="248" width="8" height="8"/>
  <rect x="264" y="248" width="8" height="8"/>
  <rect x="280" y="248" width="24" height="8"/>
  <rect x="40" y="256" width="8" height="8"/>
  <rect x="88" y="256" width="8" height="8"/>
  <rect x="120" y="256" width="16" height="8"/>
  <rect x="144" y="256" width="8" height="8"/>
  <rect x="168" y="256" width="24" height="8"/>
  <rect x="200" y="256" width="16" height="8"/>
  <rect x="232" y="256" width="8" height="8"/>
  <rect x="264" y="256" width="8" height="8"/>
  <rect x="40" y="264" width="8" height="8"/>
  <rect x="56" y="264" width="24" height="8"/>
  <rect x="88" y="264" width="8" height="8"/>
  <rect x="104" y="264" width="8" height="8"/>
  <rect x="120" y="264" width="32" height="8"/>
  <rect x="160" y="264" width="24" height="8"/>
  <rect x="208" y="264" width="8" height="8"/>
  <rect x="232" y="264" width="48" height="8"/>
  <rect x="288" y="264" width="16" height="8"/>
  <rect x="40" y="272" width="8" height="8"/>
  <rect x="56" y="272" width="24" height="8"/>
  <rect x="88" y="272" width="8" height="8"/>
  <rect x="112" y="272" width="8" height="8"/>
  <rect x="128" y="272" width="8" height="8"/>
  <rect x="168" y="272" width="8" height="8"/>
  <rect x="200" y="272" width="8" height="8"/>
  <rect x="264" y="272" width="8" height="8"/>
  <rect x="280" y="272" width="8" height="8"/>
  <rect x="296" y="272" width="8" height="8"/>
  <rect x="40" y="280" width="8" height="8"/>
  <rect x="56" y="280" width="24" height="8"/>
  <rect x="88" y="280" width="8" height="8"/>
  <rect x="104" y="280" width="8" height="8"/>
  <rect x="120" y="280" width="8" height="8"/>
  <rect x="152" y="280" width="8" height="8"/>
  <rect x="184" y="280" width="8" height="8"/>
  <rect x="208" y="280" width="8" height="8"/>
  <rect x="224" y="280" width="16" height="8"/>
  <rect x="264" y="280" width="8" height="8"/>
  <rect x="296" y="280" width="8" height="8"/>
  <rect x="40" y="288" width="8" height="8"/>
  <rect x="88" y="288" width="8" height="8"/>
  <rect x="128" y="288" width="8" height="8"/>
  <rect x="152" y="288" width="16" height="8"/>
  <rect x="176" y="288" width="24" height="8"/>
  <rect x="208" y="288" width="8" height="8"/>
  <rect x="224" y="288" width="16" height="8"/>
  <rect x="248" y="288" width="8" height="8"/>
  <rect x="264" y="288" width="16" height="8"/>
  <rect x="288" y="288" width="8" height="8"/>
  <rect x="40" y="296" width="56" height="8"/>
  <rect x="104" y="296" width="16" height="8"/>
  <rect x="136" y="296" width="8" height="8"/>
  <rect x="160" y="296" width="24" height="8"/>
  <rect x="192" y="296" width="24" height="8"/>
  <rect x="224" y="296" width="16" height="8"/>
  <rect x="264" y="296" width="8" height="8"/>
  <rect x="288" y="296" width="16" height="8"/>
</svg>