<svg xmlns="http://www.w3.org/2000/svg" viewBox="0 0 1000 1000" width="1000" height="1000">
  <g transform="translate(110 100) scale(780.0 780.0) translate(-0.0 -0.0)">
<path d="M 0.15394112549695427 0.9139411254969543 L 0.16647123564539917 0.902344251518415 L 0.17895467646264251 0.8907007082086743 L 0.19139889290788245 0.87901794052693 L 0.20380746191275317 0.8672995254048167 L 0.22444608526984614 0.8638111646349255 L 0.23672956417292762 0.8519676594110229 L 0.2489785322633603 0.8400896433744715 L 0.26119444087003063 0.8281785678541576 L 0.27337855229138897 0.8162356951485319 L 0.2776151983676288 0.7963453570977875 L 0.28982072389811314 0.7844238985012878 L 0.30200134229497444 0.7724775327711649 L 0.31415779379724196 0.7605070001464482 L 0.333857997156139 0.7560802193783613 L 0.3458717112026186 0.7439669492978567 L 0.3504888306596645 0.7244570846279186 L 0.362555107066427 0.7123963769076969 L 0.37460028935261863 0.7003145750669043 L 0.37957313517000146 0.6811604367573031 L 0.39169035793872314 0.6691506753990406 L 0.4037910130905526 0.6571243464238861 L 0.4077910130905526 0.6316722803242268 L 0.4213609033893038 0.6264402684686688 L 0.43999746109191334 0.6209498420442944 L 0.45836761740943766 0.6151930142348345 L 0.46405917099509975 0.5967575836935125 L 0.47606829689033675 0.5846397254617653 L 0.48806338094109236 0.5725078253855368 L 0.5058423942038469 0.5661598545213072 L 0.517670544593539 0.5538610207840152 L 0.5294832199605168 0.541546712024009 L 0.5412807777143369 0.5292172856508448 L 0.5530635681755087 0.5168730919850324 L 0.5648319350143896 0.5045144746969292 L 0.5716620662922065 0.4872176218477621 L 0.5835558847355721 0.4749844561641436 L 0.6046693373115335 0.47197092461312073 L 0.611767828149624 0.45494243132422724 L 0.6191702448824569 0.43821786393007595 L 0.6310202239790808 0.4259408588997158 L 0.642859901430089 0.4136535522237398 L 0.6546895330096991 0.40135619967636593 L 0.6665093710557328 0.3890490535954154 L 0.6748454689988647 0.3732581674115631 L 0.6802085811677433 0.35449429545345745 L 0.6956481786375461 0.34580690879627635 L 0.7077781400624236 0.3338098860941695 L 0.7199026426359768 0.3218074045407388 L 0.7346291533088435 0.31240693108662115 L 0.7441358670440666 0.2977866606948603 L 0.7562448828310235 0.2857686923548331 L 0.7704181770458486 0.2758150024426741 L 0.7823354488545979 0.26360529012443923 L 0.792543277025948 0.24968613416880528 L 0.8076713078518515 0.24068718086772456 L 0.8180526108384674 0.22694149972735625 L 0.8279190731543689 0.21268097791627355 L 0.8393977542380682 0.20003267487298879 L 0.8508861327861952 0.18739406929413163 L 0.8611477820842179 0.17352873446517036 L 0.8714288263110962 0.1596827945650644 L 0.8817292654668297 0.14585624959381394 L 0.8920490995514188 0.13204909955141877 Z"
          fill="black"
          stroke="black"
          stroke-width="0.006"
          stroke-linejoin="round"
          stroke-linecap="round" />
</g>
  <g transform="translate(690 690) scale(0.5232558139534884 0.5232558139534884) translate(-0.0 -0.0)">
<rect x="40" y="40" width="56" height="8"/>
  <rect x="104" y="40" width="8" height="8"/>
  <rect x="128" y="40" width="8" height="8"/>
  <rect x="144" y="40" width="16" height="8"/>
  <rect x="168" y="40" width="40" height="8"/>
  <rect x="224" y="40" width="8" height="8"/>
  <rect x="248" y="40" width="56" height="8"/>
  <rect x="40" y="48" width="8" height="8"/>
  <rect x="88" y="48" width="8" height="8"/>
  <rect x="104" y="48" width="8" height="8"/>
  <rect x="128" y="48" width="8" height="8"/>
  <rect x="144" y="48" width="8" height="8"/>
  <rect x="168" y="48" width="8" height="8"/>
  <rect x="184" y="48" width="8" height="8"/>
  <rect x="200" y="48" width="32" height="8"/>
  <rect x="248" y="48" width="8" height="8"/>
  <rect x="296" y="48" width="8" height="8"/>
  <rect x="40" y="56" width="8" height="8"/>
  <rect x="56" y="56" width="24" height="8"/>
  <rect x="88" y="56" width="8" height="8"/>
  <rect x="120" y="56" width="8" height="8"/>
  <rect x="136" y="56" width="8" height="8"/>
  <rect x="160" y="56" width="8" height="8"/>
  <rect x="176" y="56" width="8" height="8"/>
  <rect x="200" y="56" width="32" height="8"/>
  <rect x="248" y="56" width="8" height="8"/>
  <rect x="264" y="56" width="24" height="8"/>
  <rect x="296" y="56" width="8" height="8"/>
  <rect x="40" y="64" width="8" height="8"/>
  <rect x="56" y="64" width="24" height="8"/>
  <rect x="88" y="64" width="8" height="8"/>
  <rect x="104" y="64" width="8" height="8"/>
  <rect x="120" y="64" width="8" height="8"/>
  <rect x="152" y="64" width="8" height="8"/>
  <rect x="168" y="64" width="8" height="8"/>
  <rect x="192" y="64" width="32" height="8"/>
  <rect x="232" y="64" width="8" height="8"/>
  <rect x="248" y="64" width="8" height="8"/>
  <rect x="264" y="64" width="24" height="8"/>
  <rect x="296" y="64" width="8" height="8"/>
  <rect x="40" y="72" width="8" height="8"/>
  <rect x="56" y="72" width="24" height="8"/>
  <rect x="88" y="72" width="8" height="8"/>
  <rect x="120" y="72" width="8" height="8"/>
  <rect x="152" y="72" width="8" height="8"/>
  <rect x="176" y="72" width="8" height="8"/>
  <rect x="200" y="72" width="8" height="8"/>
  <rect x="224" y="72" width="8" height="8"/>
  <rect x="248" y="72" width="8" height="8"/>
  <rect x="264" y="72" width="24" height="8"/>
  <rect x="296" y="72" width="8" height="8"/>
  <rect x="40" y="80" width="8" height="8"/>
  <rect x="88" y="80" width="8" height="8"/>
  <rect x="112" y="80" width="24" height="8"/>
  <rect x="144" y="80" width="16" height="8"/>
  <rect x="184" y="80" width="24" height="8"/>
  <rect x="232" y="80" width="8" height="8"/>
  <rect x="248" y="80" width="8" height="8"/>
  <rect x="296" y="80" width="8" height="8"/>
  <rect x="40" y="88" width="56" height="8"/>
  <rect x="104" y="88" width="8" height="8"/>
  <rect x="120" y="88" width="8" height="8"/>
  <rect x="136" y="88" width="8" height="8"/>
  <rect x="152" y="88" width="8" height="8"/>
  <rect x="168" y="88" width="8" height="8"/>
  <rect x="184" y="88" width="8" height="8"/>
  <rect x="200" y="88" width="8" height="8"/>
  <rect x="216" y="88" width="8" height="8"/>
  <rect x="232" y="88" width="8" height="8"/>
  <rect x="248" y="88" width="56" height="8"/>
  <rect x="104" y="96" width="16" height="8"/>
  <rect x="136" y="96" width="8" height="8"/>
  <rect x="176" y="96" width="8" height="8"/>
  <rect x="200" y="96" width="8" height="8"/>
  <rect x="216" y="96" width="8" height="8"/>
  <rect x="232" y="96" width="8" height="8"/>
  <rect x="40" y="104" width="8" height="8"/>
  <rect x="56" y="104" width="16" height="8"/>
  <rect x="80" y="104" width="24" height="8"/>
  <rect x="152" y="104" width="8" height="8"/>
  <rect x="168" y="104" width="32" height="8"/>
  <rect x="208" y="104" width="8" height="8"/>
  <rect x="232" y="104" width="8" height="8"/>
  <rect x="248" y="104" width="8" height="8"/>
  <rect x="272" y="104" width="8" height="8"/>
  <rect x="288" y="104" width="16" height="8"/>
  <rect x="48" y="112" width="16" height="8"/>
  <rect x="72" y="112" width="8" height="8"/>
  <rect x="96" y="112" width="8" height="8"/>
  <rect x="112" y="112" width="8" height="8"/>
  <rect x="128" y="112" width="16" height="8"/>
  <rect x="184" y="112" width="32" height="8"/>
  <rect x="224" y="112" width="8" height="8"/>
  <rect x="248" y="112" width="16" height="8"/>
  <rect x="272" y="112" width="16" height="8"/>
  <rect x="296" y="112" width="8" height="8"/>
  <rect x="40" y="120" width="16" height="8"/>
  <rect x="64" y="120" width="8" height="8"/>
  <rect x="80" y="120" width="16" height="8"/>
  <rect x="120" y="120" width="8" height="8"/>
  <rect x="152" y="120" width="8" height="8"/>
  <rect x="168" y="120" width="16" height="8"/>
  <rect x="224" y="120" width="24" height="8"/>
  <rect x="256" y="120" width="24" height="8"/>
  <rect x="296" y="120" width="8" height="8"/>
  <rect x="40" y="128" width="8" height="8"/>
  <rect x="72" y="128" width="16" height="8"/>
  <rect x="96" y="128" width="8" height="8"/>
  <rect x="112" y="128" width="56" height="8"/>
  <rect x="184" y="128" width="16" height="8"/>
  <rect x="232" y="128" width="8" height="8"/>
  <rect x="248" y="128" width="16" height="8"/>
  <rect x="272" y="128" width="8" height="8"/>
  <rect x="288" y="128" width="8" height="8"/>
  <rect x="40" y="136" width="8" height="8"/>
  <rect x="80" y="136" width="40" height="8"/>
  <rect x="184" y="136" width="8" height="8"/>
  <rect x="208" y="136" width="8" height="8"/>
  <rect x="240" y="136" width="8" height="8"/>
  <rect x="264" y="136" width="16" height="8"/>
  <rect x="288" y="136" width="8" height="8"/>
  <rect x="56" y="144" width="16" height="8"/>
  <rect x="80" y="144" width="8" height="8"/>
  <rect x="96" y="144" width="8" height="8"/>
  <rect x="120" y="144" width="8" height="8"/>
  <rect x="136" y="144" width="8" height="8"/>
  <rect x="168" y="144" width="24" height="8"/>
  <rect x="208" y="144" width="16" height="8"/>
  <rect x="280" y="144" width="16" height="8"/>
  <rect x="40" y="152" width="16" height="8"/>
  <rect x="64" y="152" width="16" height="8"/>
  <rect x="88" y="152" width="16" height="8"/>
  <rect x="112" y="152" width="16" height="8"/>
  <rect x="160" y="152" width="16" height="8"/>
  <rect x="216" y="152" width="8" height="8"/>
  <rect x="248" y="152" width="8" height="8"/>
  <rect x="264" y="152" width="8" height="8"/>
  <rect x="280" y="152" width="8" height="8"/>
  <rect x="64" y="160" width="24" height="8"/>
  <rect x="104" y="160" width="8" height="8"/>
  <rect x="136" y="160" width="24" height="8"/>
  <rect x="168" y="160" width="8" height="8"/>
  <rect x="192" y="160" width="40" height="8"/>
  <rect x="240" y="160" width="16" height="8"/>
  <rect x="264" y="160" width="24" height="8"/>
  <rect x="40" y="168" width="16" height="8"/>
  <rect x="64" y="168" width="16" height="8"/>
  <rect x="88" y="168" width="8" height="8"/>
  <rect x="112" y="168" width="8" height="8"/>
  <rect x="128" y="168" width="16" height="8"/>
  <rect x="152" y="168" width="16" height="8"/>
  <rect x="184" y="168" width="48" height="8"/>
  <rect x="240" y="168" width="16" height="8"/>
  <rect x="264" y="168" width="24" height="8"/>
  <rect x="48" y="176" width="8" height="8"/>
  <rect x="64" y="176" width="8" height="8"/>
  <rect x="104" y="176" width="24" height="8"/>
  <rect x="136" y="176" width="16" height="8"/>
  <rect x="160" y="176" width="8" height="8"/>
  <rect x="176" y="176" width="16" height="8"/>
  <rect x="200" y="176" width="40" height="8"/>
  <rect x="248" y="176" width="8" height="8"/>
  <rect x="264" y="176" width="16" height="8"/>
  <rect x="296" y="176" width="8" height="8"/>
  <rect x="56" y="184" width="16" height="8"/>
  <rect x="88" y="184" width="16" height="8"/>
  <rect x="112" y="184" width="16" height="8"/>
  <rect x="136" y="184" width="8" height="8"/>
  <rect x="160" y="184" width="24" height="8"/>
  <rect x="216" y="184" width="8" height="8"/>
  <rect x="232" y="184" width="8" height="8"/>
  <rect x="248" y="184" width="24" height="8"/>
  <rect x="280" y="184" width="16" height="8"/>
  <rect x="48" y="192" width="32" height="8"/>
  <rect x="96" y="192" width="8" height="8"/>
  <rect x="128" y="192" width="8" height="8"/>
  <rect x="144" y="192" width="24" height="8"/>
  <rect x="208" y="192" width="8" height="8"/>
  <rect x="232" y="192" width="24" height="8"/>
  <rect x="264" y="192" width="8" height="8"/>
  <rect x="288" y="192" width="16" height="8"/>
  <rect x="40" y="200" width="16" height="8"/>
  <rect x="80" y="200" width="16" height="8"/>
  <rect x="104" y="200" width="24" height="8"/>
  <rect x="136" y="200" width="8" height="8"/>
  <rect x="184" y="200" width="24" height="8"/>
  <rect x="232" y="200" width="8" height="8"/>
  <rect x="272" y="200" width="32" height="8"/>
  <rect x="40" y="208" width="8" height="8"/>
  <rect x="64" y="208" width="24" height="8"/>
  <rect x="96" y="208" width="8" height="8"/>
  <rect x="120" y="208" width="8" height="8"/>
  <rect x="160" y="208" width="8" height="8"/>
  <rect x="184" y="208" width="8" height="8"/>
  <rect x="208" y="208" width="8" height="8"/>
  <rect x="224" y="208" width="16" height="8"/>
  <rect x="248" y="208" width="8" height="8"/>
  <rect x="296" y="208" width="8" height="8"/>
  <rect x="56" y="216" width="56" height="8"/>
  <rect x="120" y="216" width="24" height="8"/>
  <rect x="168" y="216" width="8" height="8"/>
  <rect x="208" y="216" width="32" height="8"/>
  <rect x="248" y="216" width="16" height="8"/>
  <rect x="272" y="216" width="8" height="8"/>
  <rect x="288" y="216" width="16" height="8"/>
  <rect x="48" y="224" width="8" height="8"/>
  <rect x="64" y="224" width="24" height="8"/>
  <rect x="96" y="224" width="8" height="8"/>
  <rect x="120" y="224" width="16" height="8"/>
  <rect x="144" y="224" width="16" height="8"/>
  <rect x="168" y="224" width="8" height="8"/>
  <rect x="192" y="224" width="8" height="8"/>
  <rect x="232" y="224" width="8" height="8"/>
  <rect x="248" y="224" width="16" height="8"/>
  <rect x="272" y="224" width="8" height="8"/>
  <rect x="288" y="224" width="8" height="8"/>
  <rect x="40" y="232" width="8" height="8"/>
  <rect x="56" y="232" width="8" height="8"/>
  <rect x="88" y="232" width="24" height="8"/>
  <rect x="120" y="232" width="16" height="8"/>
  <rect x="144" y="232" width="8" height="8"/>
  <rect x="160" y="232" width="8" height="8"/>
  <rect x="176" y="232" width="8" height="8"/>
  <rect x="200" y="232" width="8" height="8"/>
  <rect x="216" y="232" width="64" height="8"/>
  <rect x="288" y="232" width="16" height="8"/>
  <rect x="104" y="240" width="8" height="8"/>
  <rect x="120" y="240" width="16" height="8"/>
  <rect x="152" y="240" width="32" height="8"/>
  <rect x="192" y="240" width="8" height="8"/>
  <rect x="232" y="240" width="8" height="8"/>
  <rect x="264" y="240" width="16" height="8"/>
  <rect x="40" y="248" width="56" height="8"/>
  <rect x="104" y="248" width="16" height="8"/>
  <rect x="136" y="248" width="16" height="8"/>
  <rect x="168" y="248" width="8" height="8"/>
  <rect x="192" y="248" width="16" height="8"/>
  <rect x="216" y="248" width="24" height="8"/>
  <rect x="248" y="248" width="8" height="8"/>
  <rect x="264" y="248" width="8" height="8"/>
  <rect x="40" y="256" width="8" height="8"/>
  <rect x="88" y="256" width="8" height="8"/>
  <rect x="104" y="256" width="8" height="8"/>
  <rect x="120" y="256" width="8" height="8"/>
  <rect x="168" y="256" width="8" height="8"/>
  <rect x="192" y="256" width="8" height="8"/>
  <rect x="208" y="256" width="32" height="8"/>
  <rect x="264" y="256" width="24" height="8"/>
  <rect x="296" y="256" width="8" height="8"/>
  <rect x="40" y="264" width="8" height="8"/>
  <rect x="56" y="264" width="24" height="8"/>
  <rect x="88" y="264" width="8" height="8"/>
  <rect x="128" y="264" width="24" height="8"/>
  <rect x="160" y="264" width="8" height="8"/>
  <rect x="176" y="264" width="8" height="8"/>
  <rect x="200" y="264" width="8" height="8"/>
  <rect x="224" y="264" width="48" height="8"/>
  <rect x="280" y="264" width="16" height="8"/>
  <rect x="40" y="272" width="8" height="8"/>
  <rect x="56" y="272" width="24" height="8"/>
  <rect x="88" y="272" width="8" height="8"/>
  <rect x="104" y="272" width="8" height="8"/>
  <rect x="128" y="272" width="32" height="8"/>
  <rect x="184" y="272" width="32" height="8"/>
  <rect x="224" y="272" width="16" height="8"/>
  <rect x="256" y="272" width="8" height="8"/>
  <rect x="272" y="272" width="8" height="8"/>
  <rect x="288" y="272" width="16" height="8"/>
  <rect x="40" y="280" width="8" height="8"/>
  <rect x="56" y="280" width="24" height="8"/>
  <rect x="88" y="280" width="8" height="8"/>
  <rect x="104" y="280" width="24" height="8"/>
  <rect x="192" y="280" width="8" height="8"/>
  <rect x="216" y="280" width="16" height="8"/>
  <rect x="248" y="280" width="16" height="8"/>
  <rect x="280" y="280" width="8" height="8"/>
  <rect x="40" y="288" width="8" height="8"/>
  <rect x="88" y="288" width="8" height="8"/>
  <rect x="112" y="288" width="16" height="8"/>
  <rect x="136" y="288" width="8" height="8"/>
  <rect x="152" y="288" width="32" height="8"/>
  <rect x="192" y="288" width="8" height="8"/>
  <rect x="232" y="288" width="40" height="8"/>
  <rect x="296" y="288" width="8" height="8"/>
  <rect x="40" y="296" width="56" height="8"/>
  <rect x="104" y="296" width="16" height="8"/>
  <rect x="128" y="296" width="8" height="8"/>
  <rect x="160" y="296" width="24" height="8"/>
  <rect x="200" y="296" width="16" height="8"/>
  <rect x="240" y="296" width="8" height="8"/>
  <rect x="264" y="296" width="8" height="8"/>
  <rect x="280" y="296" width="8" height="8"/>
</g>
</svg>