<svg xmlns="http://www.w3.org/2000/svg" viewBox="0 0 1000 1000" width="1000" height="1000">
  <g transform="translate(110 100) scale(780.0 780.0) translate(-0.0 -0.0)">
<path d="M 0.15333503397022297 0.913335033970223 L 0.17492469902813795 0.9107977149011538 L 0.18736914195677357 0.8991151737028054 L 0.199768325994636 0.8873873736136836 L 0.212126378370534 0.8756184418625975 L 0.22444608526984614 0.8638111646349255 L 0.22844608526984614 0.8431789158325426 L 0.2489785322633603 0.8400896433744715 L 0.26119444087003063 0.8281785678541576 L 0.27337855229138897 0.8162356951485319 L 0.28553198773244265 0.8042621464626014 L 0.29765575917635634 0.7922589337795309 L 0.30165575917635634 0.7719240006765249 L 0.3136106405552494 0.7599598469044557 L 0.32575025125799245 0.7479724734802148 L 0.3378672814540026 0.7359625195492406 L 0.34996233394972864 0.7239305879179827 L 0.3620359801442541 0.7118772499855239 L 0.37408876402173147 0.6998030497360171 L 0.3936766711099726 0.6952639726972742 L 0.3981338027911366 0.675594120251454 L 0.4101270354074111 0.6634603687407445 L 0.4221013653756708 0.65130771458202 L 0.4270037193286274 0.6320830844079924 L 0.4390747490324104 0.6200271299847914 L 0.4443468817064589 0.6011722785318558 L 0.4565278906037972 0.58922630330221 L 0.4621942319304582 0.5707656605018868 L 0.4744976143884608 0.5589420588329052 L 0.493004745082509 0.5533222053999693 L 0.5051424787448224 0.5413329549352986 L 0.5231796272559694 0.5352431193194616 L 0.5408971259102958 0.5288336338468038 L 0.552690401389402 0.5164999251989256 L 0.5590315627451313 0.49871410242767106 L 0.5709586163839979 0.48651417193955354 L 0.5828743337533331 0.47430290518190454 L 0.5997241604116808 0.467025747713268 L 0.6066728299880652 0.4498474331626684 L 0.6139502973679167 0.43299791641553576 L 0.6304291501170824 0.4253497850377174 L 0.6380338676799493 0.4088275184736001 L 0.6541453304504481 0.40081199711711485 L 0.6581832580234181 0.38072294056310074 L 0.6741009985067721 0.37251369691947045 L 0.6861086278889079 0.3603943421746221 L 0.7048210800097061 0.3549798101684362 L 0.7132730384923422 0.3393047845240882 L 0.7250725811166987 0.32697734302146064 L 0.7340704423956074 0.31184822017338515 L 0.7460446399832472 0.29969543363404094 L 0.7531913872032431 0.28271519672705264 L 0.7677578422928826 0.27315466768970803 L 0.7778875117183929 0.25915735298823417 L 0.7938817788977853 0.25102463604064257 L 0.8041997146417513 0.23721558765762443 L 0.8177669966929805 0.2266558855818693 L 0.8288126252337785 0.21357452999568316 L 0.838863701018514 0.19949862165343468 L 0.8502654950628223 0.18677343157075874 L 0.8616776792475888 0.17405863162854118 L 0.8717807057346156 0.16003467398858384 L 0.8819045125025589 0.1460314966295431 L 0.8920490995514188 0.13204909955141877 Z"
          fill="black"
          stroke="black"
          stroke-width="0.006"
          stroke-linejoin="round"
          stroke-linecap="round" />
</g>
  <g transform="translate(690 690) scale(0.5232558139534884 0.5232558139534884) translate(-0.0 -0.0)">
<rect x="40" y="40" width="56" height="8"/>
  <rect x="152" y="40" width="8" height="8"/>
  <rect x="168" y="40" width="8" height="8"/>
  <rect x="184" y="40" width="24" height="8"/>
  <rect x="224" y="40" width="8" height="8"/>
  <rect x="248" y="40" width="56" height="8"/>
  <rect x="40" y="48" width="8" height="8"/>
  <rect x="88" y="48" width="8" height="8"/>
  <rect x="128" y="48" width="16" height="8"/>
  <rect x="160" y="48" width="16" height="8"/>
  <rect x="184" y="48" width="8" height="8"/>
  <rect x="216" y="48" width="8" height="8"/>
  <rect x="232" y="48" width="8" height="8"/>
  <rect x="248" y="48" width="8" height="8"/>
  <rect x="296" y="48" width="8" height="8"/>
  <rect x="40" y="56" width="8" height="8"/>
  <rect x="56" y="56" width="24" height="8"/>
  <rect x="88" y="56" width="8" height="8"/>
  <rect x="104" y="56" width="24" height="8"/>
  <rect x="152" y="56" width="8" height="8"/>
  <rect x="168" y="56" width="8" height="8"/>
  <rect x="192" y="56" width="48" height="8"/>
  <rect x="248" y="56" width="8" height="8"/>
  <rect x="264" y="56" width="24" height="8"/>
  <rect x="296" y="56" width="8" height="8"/>
  <rect x="40" y="64" width="8" height="8"/>
  <rect x="56" y="64" width="24" height="8"/>
  <rect x="88" y="64" width="8" height="8"/>
  <rect x="104" y="64" width="8" height="8"/>
  <rect x="184" y="64" width="16" height="8"/>
  <rect x="208" y="64" width="8" height="8"/>
  <rect x="232" y="64" width="8" height="8"/>
  <rect x="248" y="64" width="8" height="8"/>
  <rect x="264" y="64" width="24" height="8"/>
  <rect x="296" y="64" width="8" height="8"/>
  <rect x="40" y="72" width="8" height="8"/>
  <rect x="56" y="72" width="24" height="8"/>
  <rect x="88" y="72" width="8" height="8"/>
  <rect x="104" y="72" width="16" height="8"/>
  <rect x="128" y="72" width="8" height="8"/>
  <rect x="152" y="72" width="24" height="8"/>
  <rect x="200" y="72" width="16" height="8"/>
  <rect x="224" y="72" width="8" height="8"/>
  <rect x="248" y="72" width="8" height="8"/>
  <rect x="264" y="72" width="24" height="8"/>
  <rect x="296" y="72" width="8" height="8"/>
  <rect x="40" y="80" width="8" height="8"/>
  <rect x="88" y="80" width="8" height="8"/>
  <rect x="104" y="80" width="40" height="8"/>
  <rect x="152" y="80" width="8" height="8"/>
  <rect x="192" y="80" width="8" height="8"/>
  <rect x="208" y="80" width="16" height="8"/>
  <rect x="232" y="80" width="8" height="8"/>
  <rect x="248" y="80" width="8" height="8"/>
  <rect x="296" y="80" width="8" height="8"/>
  <rect x="40" y="88" width="56" height="8"/>
  <rect x="104" y="88" width="8" height="8"/>
  <rect x="120" y="88" width="8" height="8"/>
  <rect x="136" y="88" width="8" height="8"/>
  <rect x="152" y="88" width="8" height="8"/>
  <rect x="168" y="88" width="8" height="8"/>
  <rect x="184" y="88" width="8" height="8"/>
  <rect x="200" y="88" width="8" height="8"/>
  <rect x="216" y="88" width="8" height="8"/>
  <rect x="232" y="88" width="8" height="8"/>
  <rect x="248" y="88" width="56" height="8"/>
  <rect x="104" y="96" width="16" height="8"/>
  <rect x="152" y="96" width="8" height="8"/>
  <rect x="168" y="96" width="8" height="8"/>
  <rect x="184" y="96" width="40" height="8"/>
  <rect x="40" y="104" width="8" height="8"/>
  <rect x="56" y="104" width="40" height="8"/>
  <rect x="128" y="104" width="8" height="8"/>
  <rect x="144" y="104" width="16" height="8"/>
  <rect x="176" y="104" width="8" height="8"/>
  <rect x="192" y="104" width="8" height="8"/>
  <rect x="216" y="104" width="16" height="8"/>
  <rect x="248" y="104" width="40" height="8"/>
  <rect x="40" y="112" width="8" height="8"/>
  <rect x="56" y="112" width="8" height="8"/>
  <rect x="96" y="112" width="16" height="8"/>
  <rect x="128" y="112" width="24" height="8"/>
  <rect x="176" y="112" width="32" height="8"/>
  <rect x="224" y="112" width="8" height="8"/>
  <rect x="248" y="112" width="16" height="8"/>
  <rect x="272" y="112" width="16" height="8"/>
  <rect x="296" y="112" width="8" height="8"/>
  <rect x="48" y="120" width="16" height="8"/>
  <rect x="80" y="120" width="16" height="8"/>
  <rect x="112" y="120" width="72" height="8"/>
  <rect x="200" y="120" width="8" height="8"/>
  <rect x="216" y="120" width="8" height="8"/>
  <rect x="240" y="120" width="16" height="8"/>
  <rect x="264" y="120" width="8" height="8"/>
  <rect x="280" y="120" width="8" height="8"/>
  <rect x="40" y="128" width="48" height="8"/>
  <rect x="96" y="128" width="16" height="8"/>
  <rect x="120" y="128" width="8" height="8"/>
  <rect x="144" y="128" width="8" height="8"/>
  <rect x="168" y="128" width="24" height="8"/>
  <rect x="240" y="128" width="16" height="8"/>
  <rect x="264" y="128" width="24" height="8"/>
  <rect x="56" y="136" width="16" height="8"/>
  <rect x="88" y="136" width="8" height="8"/>
  <rect x="104" y="136" width="8" height="8"/>
  <rect x="120" y="136" width="16" height="8"/>
  <rect x="152" y="136" width="8" height="8"/>
  <rect x="168" y="136" width="8" height="8"/>
  <rect x="200" y="136" width="24" height="8"/>
  <rect x="232" y="136" width="16" height="8"/>
  <rect x="264" y="136" width="16" height="8"/>
  <rect x="288" y="136" width="8" height="8"/>
  <rect x="64" y="144" width="16" height="8"/>
  <rect x="96" y="144" width="16" height="8"/>
  <rect x="136" y="144" width="8" height="8"/>
  <rect x="160" y="144" width="8" height="8"/>
  <rect x="184" y="144" width="8" height="8"/>
  <rect x="232" y="144" width="8" height="8"/>
  <rect x="248" y="144" width="16" height="8"/>
  <rect x="272" y="144" width="8" height="8"/>
  <rect x="288" y="144" width="16" height="8"/>
  <rect x="56" y="152" width="8" height="8"/>
  <rect x="72" y="152" width="8" height="8"/>
  <rect x="88" y="152" width="8" height="8"/>
  <rect x="112" y="152" width="8" height="8"/>
  <rect x="128" y="152" width="8" height="8"/>
  <rect x="152" y="152" width="24" height="8"/>
  <rect x="184" y="152" width="8" height="8"/>
  <rect x="200" y="152" width="16" height="8"/>
  <rect x="232" y="152" width="32" height="8"/>
  <rect x="288" y="152" width="8" height="8"/>
  <rect x="72" y="160" width="16" height="8"/>
  <rect x="96" y="160" width="8" height="8"/>
  <rect x="120" y="160" width="48" height="8"/>
  <rect x="208" y="160" width="16" height="8"/>
  <rect x="232" y="160" width="24" height="8"/>
  <rect x="264" y="160" width="24" height="8"/>
  <rect x="56" y="168" width="8" height="8"/>
  <rect x="72" y="168" width="8" height="8"/>
  <rect x="88" y="168" width="16" height="8"/>
  <rect x="112" y="168" width="16" height="8"/>
  <rect x="152" y="168" width="16" height="8"/>
  <rect x="176" y="168" width="8" height="8"/>
  <rect x="216" y="168" width="8" height="8"/>
  <rect x="232" y="168" width="16" height="8"/>
  <rect x="256" y="168" width="16" height="8"/>
  <rect x="296" y="168" width="8" height="8"/>
  <rect x="40" y="176" width="8" height="8"/>
  <rect x="64" y="176" width="8" height="8"/>
  <rect x="80" y="176" width="8" height="8"/>
  <rect x="96" y="176" width="16" height="8"/>
  <rect x="136" y="176" width="16" height="8"/>
  <rect x="168" y="176" width="8" height="8"/>
  <rect x="192" y="176" width="24" height="8"/>
  <rect x="224" y="176" width="8" height="8"/>
  <rect x="240" y="176" width="24" height="8"/>
  <rect x="272" y="176" width="32" height="8"/>
  <rect x="40" y="184" width="8" height="8"/>
  <rect x="56" y="184" width="8" height="8"/>
  <rect x="72" y="184" width="32" height="8"/>
  <rect x="112" y="184" width="24" height="8"/>
  <rect x="144" y="184" width="8" height="8"/>
  <rect x="160" y="184" width="16" height="8"/>
  <rect x="184" y="184" width="8" height="8"/>
  <rect x="208" y="184" width="8" height="8"/>
  <rect x="232" y="184" width="8" height="8"/>
  <rect x="248" y="184" width="24" height="8"/>
  <rect x="280" y="184" width="16" height="8"/>
  <rect x="40" y="192" width="24" height="8"/>
  <rect x="80" y="192" width="8" height="8"/>
  <rect x="96" y="192" width="16" height="8"/>
  <rect x="136" y="192" width="16" height="8"/>
  <rect x="200" y="192" width="32" height="8"/>
  <rect x="240" y="192" width="8" height="8"/>
  <rect x="256" y="192" width="40" height="8"/>
  <rect x="40" y="200" width="16" height="8"/>
  <rect x="64" y="200" width="8" height="8"/>
  <rect x="88" y="200" width="16" height="8"/>
  <rect x="112" y="200" width="8" height="8"/>
  <rect x="128" y="200" width="8" height="8"/>
  <rect x="144" y="200" width="24" height="8"/>
  <rect x="184" y="200" width="8" height="8"/>
  <rect x="208" y="200" width="8" height="8"/>
  <rect x="240" y="200" width="8" height="8"/>
  <rect x="256" y="200" width="24" height="8"/>
  <rect x="296" y="200" width="8" height="8"/>
  <rect x="40" y="208" width="8" height="8"/>
  <rect x="56" y="208" width="8" height="8"/>
  <rect x="80" y="208" width="8" height="8"/>
  <rect x="96" y="208" width="8" height="8"/>
  <rect x="112" y="208" width="16" height="8"/>
  <rect x="152" y="208" width="24" height="8"/>
  <rect x="200" y="208" width="24" height="8"/>
  <rect x="232" y="208" width="8" height="8"/>
  <rect x="248" y="208" width="8" height="8"/>
  <rect x="296" y="208" width="8" height="8"/>
  <rect x="40" y="216" width="8" height="8"/>
  <rect x="56" y="216" width="8" height="8"/>
  <rect x="72" y="216" width="8" height="8"/>
  <rect x="88" y="216" width="16" height="8"/>
  <rect x="112" y="216" width="48" height="8"/>
  <rect x="176" y="216" width="24" height="8"/>
  <rect x="216" y="216" width="8" height="8"/>
  <rect x="280" y="216" width="16" height="8"/>
  <rect x="40" y="224" width="8" height="8"/>
  <rect x="64" y="224" width="8" height="8"/>
  <rect x="80" y="224" width="8" height="8"/>
  <rect x="96" y="224" width="48" height="8"/>
  <rect x="168" y="224" width="8" height="8"/>
  <rect x="184" y="224" width="40" height="8"/>
  <rect x="240" y="224" width="16" height="8"/>
  <rect x="264" y="224" width="24" height="8"/>
  <rect x="296" y="224" width="8" height="8"/>
  <rect x="40" y="232" width="8" height="8"/>
  <rect x="88" y="232" width="32" height="8"/>
  <rect x="136" y="232" width="8" height="8"/>
  <rect x="152" y="232" width="8" height="8"/>
  <rect x="176" y="232" width="8" height="8"/>
  <rect x="192" y="232" width="16" height="8"/>
  <rect x="216" y="232" width="64" height="8"/>
  <rect x="296" y="232" width="8" height="8"/>
  <rect x="104" y="240" width="8" height="8"/>
  <rect x="136" y="240" width="16" height="8"/>
  <rect x="168" y="240" width="40" height="8"/>
  <rect x="224" y="240" width="16" height="8"/>
  <rect x="264" y="240" width="8" height="8"/>
  <rect x="280" y="240" width="8" height="8"/>
  <rect x="296" y="240" width="8" height="8"/>
  <rect x="40" y="248" width="56" height="8"/>
  <rect x="128" y="248" width="8" height="8"/>
  <rect x="152" y="248" width="16" height="8"/>
  <rect x="176" y="248" width="8" height="8"/>
  <rect x="200" y="248" width="8" height="8"/>
  <rect x="216" y="248" width="24" height="8"/>
  <rect x="248" y="248" width="8" height="8"/>
  <rect x="264" y="248" width="8" height="8"/>
  <rect x="280" y="248" width="16" height="8"/>
  <rect x="40" y="256" width="8" height="8"/>
  <rect x="88" y="256" width="8" height="8"/>
  <rect x="104" y="256" width="16" height="8"/>
  <rect x="128" y="256" width="16" height="8"/>
  <rect x="152" y="256" width="8" height="8"/>
  <rect x="168" y="256" width="32" height="8"/>
  <rect x="224" y="256" width="16" height="8"/>
  <rect x="264" y="256" width="24" height="8"/>
  <rect x="296" y="256" width="8" height="8"/>
  <rect x="40" y="264" width="8" height="8"/>
  <rect x="56" y="264" width="24" height="8"/>
  <rect x="88" y="264" width="8" height="8"/>
  <rect x="104" y="264" width="24" height="8"/>
  <rect x="144" y="264" width="8" height="8"/>
  <rect x="168" y="264" width="8" height="8"/>
  <rect x="200" y="264" width="24" height="8"/>
  <rect x="232" y="264" width="48" height="8"/>
  <rect x="288" y="264" width="16" height="8"/>
  <rect x="40" y="272" width="8" height="8"/>
  <rect x="56" y="272" width="24" height="8"/>
  <rect x="88" y="272" width="8" height="8"/>
  <rect x="104" y="272" width="16" height="8"/>
  <rect x="128" y="272" width="40" height="8"/>
  <rect x="184" y="272" width="8" height="8"/>
  <rect x="224" y="272" width="8" height="8"/>
  <rect x="240" y="272" width="8" height="8"/>
  <rect x="264" y="272" width="24" height="8"/>
  <rect x="296" y="272" width="8" height="8"/>
  <rect x="40" y="280" width="8" height="8"/>
  <rect x="56" y="280" width="24" height="8"/>
  <rect x="88" y="280" width="8" height="8"/>
  <rect x="104" y="280" width="8" height="8"/>
  <rect x="120" y="280" width="24" height="8"/>
  <rect x="152" y="280" width="24" height="8"/>
  <rect x="200" y="280" width="8" height="8"/>
  <rect x="216" y="280" width="16" height="8"/>
  <rect x="248" y="280" width="16" height="8"/>
  <rect x="280" y="280" width="8" height="8"/>
  <rect x="40" y="288" width="8" height="8"/>
  <rect x="88" y="288" width="8" height="8"/>
  <rect x="112" y="288" width="16" height="8"/>
  <rect x="144" y="288" width="8" height="8"/>
  <rect x="160" y="288" width="8" height="8"/>
  <rect x="184" y="288" width="8" height="8"/>
  <rect x="208" y="288" width="8" height="8"/>
  <rect x="224" y="288" width="8" height="8"/>
  <rect x="240" y="288" width="8" height="8"/>
  <rect x="264" y="288" width="24" height="8"/>
  <rect x="40" y="296" width="56" height="8"/>
  <rect x="104" y="296" width="8" height="8"/>
  <rect x="136" y="296" width="8" height="8"/>
  <rect x="152" y="296" width="16" height="8"/>
  <rect x="176" y="296" width="16" height="8"/>
  <rect x="200" y="296" width="8" height="8"/>
  <rect x="216" y="296" width="8" height="8"/>
  <rect x="232" y="296" width="8" height="8"/>
  <rect x="256" y="296" width="8" height="8"/>
  <rect x="288" y="296" width="8" height="8"/>
</g>
</svg>