<svg xmlns="http://www.w3.org/2000/svg" viewBox="0 0 1000 1000" width="1000" height="1000">
  <g transform="translate(110 100) scale(780.0 780.0) translate(-0.0 -0.0)">
<path d="M 0.13697056274847713 0.8969705627484772 L 0.14956430887992161 0.8854373247529375 L 0.1621257454743804 0.8738717772204122 L 0.1662905936476217 0.8539096412666694 L 0.1871696289971915 0.850661692489255 L 0.20791951107265283 0.8472845904377322 L 0.21212108215318248 0.8273591773912778 L 0.21642746770517257 0.8075385788162838 L 0.2289212528379886 0.7959053798221156 L 0.2414001992843257 0.7842573421414686 L 0.2617816196380012 0.7805117783681599 L 0.2663156180633836 0.7609187926665583 L 0.27875299432009054 0.7492291847962811 L 0.2911773576335547 0.737526563982761 L 0.31115630864132865 0.7333785308635509 L 0.3309301090052021 0.7290253471004401 L 0.3431178767205623 0.7170861306888163 L 0.3552873301560065 0.7051285999972763 L 0.37460028935261863 0.7003145750669043 L 0.37957313517000146 0.6811604367573031 L 0.3986294523951684 0.6760897698554857 L 0.4106144217394771 0.6639477550728106 L 0.42258027840634865 0.6517866276126979 L 0.4345274739143922 0.6396068389937573 L 0.43852747391439223 0.6144908576277734 L 0.4520356722532537 0.6088610690786507 L 0.46405917099509975 0.5967575836935125 L 0.47606829689033675 0.5846397254617653 L 0.4939984038078687 0.5784428482523131 L 0.5058423942038469 0.5661598545213072 L 0.517670544593539 0.5538610207840152 L 0.5294832199605168 0.541546712024009 L 0.5466519029709123 0.5345884109074203 L 0.5530635681755087 0.5168730919850324 L 0.5648319350143896 0.5045144746969292 L 0.5765862156496663 0.4921417712052219 L 0.5835558847355721 0.4749844561641436 L 0.600053838871671 0.4673554261732582 L 0.611767828149624 0.45494243132422724 L 0.6234690251885487 0.4425166442361678 L 0.6351577410130691 0.43007837593370407 L 0.6468342821654982 0.41762793295914896 L 0.6546895330096991 0.40135619967636593 L 0.6628666966040951 0.38540637914377773 L 0.6748454689988647 0.3732581674115631 L 0.6868166334954477 0.36110234778116185 L 0.6987803888621862 0.3489391190209163 L 0.7107369315246874 0.33676867755643336 L 0.7226864556640579 0.3245912175688198 L 0.7346291533088435 0.31240693108662115 L 0.7489945617983444 0.3026453554491382 L 0.7584948269778092 0.2880186365016187 L 0.7683490277935416 0.27374585319036715 L 0.7804484452210564 0.2617182864908977 L 0.7908397291890641 0.24798258633192144 L 0.803114841763595 0.23613071477946818 L 0.8153868788139226 0.2242757677028115 L 0.8279190731543689 0.21268097791627355 L 0.8381516300591085 0.19878655069402917 L 0.8484035818927037 0.1849115184006401 L 0.859911355369686 0.17229230775063845 L 0.8714288263110962 0.1596827945650644 L 0.8817292654668297 0.14585624959381394 L 0.8920490995514188 0.13204909955141877 Z"
          fill="black"
          stroke="black"
          stroke-width="0.006"
          stroke-linejoin="round"
          stroke-linecap="round" />
</g>
  <g transform="translate(690 690) scale(0.5232558139534884 0.5232558139534884) translate(-0.0 -0.0)">
<rect x="40" y="40" width="56" height="8"/>
  <rect x="112" y="40" width="8" height="8"/>
  <rect x="128" y="40" width="8" height="8"/>
  <rect x="144" y="40" width="16" height="8"/>
  <rect x="168" y="40" width="40" height="8"/>
  <rect x="224" y="40" width="8" height="8"/>
  <rect x="248" y="40" width="56" height="8"/>
  <rect x="40" y="48" width="8" height="8"/>
  <rect x="88" y="48" width="8" height="8"/>
  <rect x="112" y="48" width="16" height="8"/>
  <rect x="136" y="48" width="48" height="8"/>
  <rect x="216" y="48" width="8" height="8"/>
  <rect x="232" y="48" width="8" height="8"/>
  <rect x="248" y="48" width="8" height="8"/>
  <rect x="296" y="48" width="8" height="8"/>
  <rect x="40" y="56" width="8" height="8"/>
  <rect x="56" y="56" width="24" height="8"/>
  <rect x="88" y="56" width="8" height="8"/>
  <rect x="104" y="56" width="8" height="8"/>
  <rect x="144" y="56" width="8" height="8"/>
  <rect x="168" y="56" width="40" height="8"/>
  <rect x="224" y="56" width="16" height="8"/>
  <rect x="248" y="56" width="8" height="8"/>
  <rect x="264" y="56" width="24" height="8"/>
  <rect x="296" y="56" width="8" height="8"/>
  <rect x="40" y="64" width="8" height="8"/>
  <rect x="56" y="64" width="24" height="8"/>
  <rect x="88" y="64" width="8" height="8"/>
  <rect x="104" y="64" width="8" height="8"/>
  <rect x="152" y="64" width="8" height="8"/>
  <rect x="168" y="64" width="8" height="8"/>
  <rect x="192" y="64" width="32" height="8"/>
  <rect x="232" y="64" width="8" height="8"/>
  <rect x="248" y="64" width="8" height="8"/>
  <rect x="264" y="64" width="24" height="8"/>
  <rect x="296" y="64" width="8" height="8"/>
  <rect x="40" y="72" width="8" height="8"/>
  <rect x="56" y="72" width="24" height="8"/>
  <rect x="88" y="72" width="8" height="8"/>
  <rect x="104" y="72" width="16" height="8"/>
  <rect x="128" y="72" width="8" height="8"/>
  <rect x="160" y="72" width="8" height="8"/>
  <rect x="184" y="72" width="8" height="8"/>
  <rect x="208" y="72" width="8" height="8"/>
  <rect x="232" y="72" width="8" height="8"/>
  <rect x="248" y="72" width="8" height="8"/>
  <rect x="264" y="72" width="24" height="8"/>
  <rect x="296" y="72" width="8" height="8"/>
  <rect x="40" y="80" width="8" height="8"/>
  <rect x="88" y="80" width="8" height="8"/>
  <rect x="104" y="80" width="8" height="8"/>
  <rect x="136" y="80" width="8" height="8"/>
  <rect x="152" y="80" width="24" height="8"/>
  <rect x="200" y="80" width="24" height="8"/>
  <rect x="232" y="80" width="8" height="8"/>
  <rect x="248" y="80" width="8" height="8"/>
  <rect x="296" y="80" width="8" height="8"/>
  <rect x="40" y="88" width="56" height="8"/>
  <rect x="104" y="88" width="8" height="8"/>
  <rect x="120" y="88" width="8" height="8"/>
  <rect x="136" y="88" width="8" height="8"/>
  <rect x="152" y="88" width="8" height="8"/>
  <rect x="168" y="88" width="8" height="8"/>
  <rect x="184" y="88" width="8" height="8"/>
  <rect x="200" y="88" width="8" height="8"/>
  <rect x="216" y="88" width="8" height="8"/>
  <rect x="232" y="88" width="8" height="8"/>
  <rect x="248" y="88" width="56" height="8"/>
  <rect x="104" y="96" width="8" height="8"/>
  <rect x="152" y="96" width="16" height="8"/>
  <rect x="184" y="96" width="8" height="8"/>
  <rect x="208" y="96" width="16" height="8"/>
  <rect x="40" y="104" width="8" height="8"/>
  <rect x="56" y="104" width="40" height="8"/>
  <rect x="112" y="104" width="16" height="8"/>
  <rect x="136" y="104" width="32" height="8"/>
  <rect x="176" y="104" width="8" height="8"/>
  <rect x="216" y="104" width="8" height="8"/>
  <rect x="248" y="104" width="40" height="8"/>
  <rect x="48" y="112" width="16" height="8"/>
  <rect x="96" y="112" width="8" height="8"/>
  <rect x="128" y="112" width="16" height="8"/>
  <rect x="184" y="112" width="32" height="8"/>
  <rect x="224" y="112" width="8" height="8"/>
  <rect x="248" y="112" width="16" height="8"/>
  <rect x="272" y="112" width="16" height="8"/>
  <rect x="296" y="112" width="8" height="8"/>
  <rect x="48" y="120" width="16" height="8"/>
  <rect x="80" y="120" width="16" height="8"/>
  <rect x="104" y="120" width="8" height="8"/>
  <rect x="128" y="120" width="16" height="8"/>
  <rect x="160" y="120" width="16" height="8"/>
  <rect x="184" y="120" width="8" height="8"/>
  <rect x="200" y="120" width="16" height="8"/>
  <rect x="240" y="120" width="16" height="8"/>
  <rect x="264" y="120" width="8" height="8"/>
  <rect x="280" y="120" width="8" height="8"/>
  <rect x="40" y="128" width="8" height="8"/>
  <rect x="64" y="128" width="8" height="8"/>
  <rect x="80" y="128" width="8" height="8"/>
  <rect x="112" y="128" width="24" height="8"/>
  <rect x="152" y="128" width="8" height="8"/>
  <rect x="168" y="128" width="8" height="8"/>
  <rect x="208" y="128" width="16" height="8"/>
  <rect x="240" y="128" width="16" height="8"/>
  <rect x="264" y="128" width="24" height="8"/>
  <rect x="48" y="136" width="8" height="8"/>
  <rect x="64" y="136" width="40" height="8"/>
  <rect x="112" y="136" width="16" height="8"/>
  <rect x="184" y="136" width="8" height="8"/>
  <rect x="208" y="136" width="8" height="8"/>
  <rect x="240" y="136" width="8" height="8"/>
  <rect x="264" y="136" width="16" height="8"/>
  <rect x="288" y="136" width="8" height="8"/>
  <rect x="40" y="144" width="8" height="8"/>
  <rect x="96" y="144" width="40" height="8"/>
  <rect x="152" y="144" width="24" height="8"/>
  <rect x="200" y="144" width="8" height="8"/>
  <rect x="216" y="144" width="24" height="8"/>
  <rect x="248" y="144" width="16" height="8"/>
  <rect x="272" y="144" width="8" height="8"/>
  <rect x="288" y="144" width="16" height="8"/>
  <rect x="64" y="152" width="8" height="8"/>
  <rect x="88" y="152" width="16" height="8"/>
  <rect x="136" y="152" width="16" height="8"/>
  <rect x="184" y="152" width="16" height="8"/>
  <rect x="208" y="152" width="8" height="8"/>
  <rect x="240" y="152" width="24" height="8"/>
  <rect x="288" y="152" width="8" height="8"/>
  <rect x="72" y="160" width="16" height="8"/>
  <rect x="96" y="160" width="16" height="8"/>
  <rect x="128" y="160" width="8" height="8"/>
  <rect x="144" y="160" width="16" height="8"/>
  <rect x="168" y="160" width="8" height="8"/>
  <rect x="192" y="160" width="32" height="8"/>
  <rect x="232" y="160" width="24" height="8"/>
  <rect x="264" y="160" width="24" height="8"/>
  <rect x="48" y="168" width="8" height="8"/>
  <rect x="72" y="168" width="40" height="8"/>
  <rect x="128" y="168" width="8" height="8"/>
  <rect x="176" y="168" width="8" height="8"/>
  <rect x="192" y="168" width="8" height="8"/>
  <rect x="216" y="168" width="8" height="8"/>
  <rect x="232" y="168" width="16" height="8"/>
  <rect x="256" y="168" width="16" height="8"/>
  <rect x="296" y="168" width="8" height="8"/>
  <rect x="96" y="176" width="16" height="8"/>
  <rect x="168" y="176" width="16" height="8"/>
  <rect x="192" y="176" width="16" height="8"/>
  <rect x="224" y="176" width="8" height="8"/>
  <rect x="240" y="176" width="24" height="8"/>
  <rect x="272" y="176" width="32" height="8"/>
  <rect x="48" y="184" width="32" height="8"/>
  <rect x="88" y="184" width="16" height="8"/>
  <rect x="112" y="184" width="8" height="8"/>
  <rect x="136" y="184" width="16" height="8"/>
  <rect x="160" y="184" width="24" height="8"/>
  <rect x="216" y="184" width="8" height="8"/>
  <rect x="232" y="184" width="8" height="8"/>
  <rect x="248" y="184" width="24" height="8"/>
  <rect x="280" y="184" width="16" height="8"/>
  <rect x="80" y="192" width="8" height="8"/>
  <rect x="96" y="192" width="16" height="8"/>
  <rect x="136" y="192" width="24" height="8"/>
  <rect x="176" y="192" width="16" height="8"/>
  <rect x="200" y="192" width="8" height="8"/>
  <rect x="224" y="192" width="8" height="8"/>
  <rect x="240" y="192" width="8" height="8"/>
  <rect x="256" y="192" width="40" height="8"/>
  <rect x="40" y="200" width="8" height="8"/>
  <rect x="88" y="200" width="16" height="8"/>
  <rect x="112" y="200" width="16" height="8"/>
  <rect x="136" y="200" width="8" height="8"/>
  <rect x="160" y="200" width="16" height="8"/>
  <rect x="200" y="200" width="24" height="8"/>
  <rect x="240" y="200" width="8" height="8"/>
  <rect x="256" y="200" width="24" height="8"/>
  <rect x="296" y="200" width="8" height="8"/>
  <rect x="40" y="208" width="8" height="8"/>
  <rect x="72" y="208" width="8" height="8"/>
  <rect x="96" y="208" width="8" height="8"/>
  <rect x="120" y="208" width="8" height="8"/>
  <rect x="136" y="208" width="8" height="8"/>
  <rect x="160" y="208" width="8" height="8"/>
  <rect x="184" y="208" width="8" height="8"/>
  <rect x="208" y="208" width="8" height="8"/>
  <rect x="224" y="208" width="16" height="8"/>
  <rect x="248" y="208" width="8" height="8"/>
  <rect x="296" y="208" width="8" height="8"/>
  <rect x="40" y="216" width="8" height="8"/>
  <rect x="56" y="216" width="8" height="8"/>
  <rect x="72" y="216" width="8" height="8"/>
  <rect x="88" y="216" width="40" height="8"/>
  <rect x="136" y="216" width="8" height="8"/>
  <rect x="152" y="216" width="40" height="8"/>
  <rect x="200" y="216" width="8" height="8"/>
  <rect x="216" y="216" width="8" height="8"/>
  <rect x="280" y="216" width="16" height="8"/>
  <rect x="40" y="224" width="8" height="8"/>
  <rect x="80" y="224" width="8" height="8"/>
  <rect x="104" y="224" width="16" height="8"/>
  <rect x="128" y="224" width="8" height="8"/>
  <rect x="152" y="224" width="16" height="8"/>
  <rect x="184" y="224" width="8" height="8"/>
  <rect x="208" y="224" width="16" height="8"/>
  <rect x="240" y="224" width="16" height="8"/>
  <rect x="264" y="224" width="24" height="8"/>
  <rect x="40" y="232" width="8" height="8"/>
  <rect x="56" y="232" width="8" height="8"/>
  <rect x="88" y="232" width="24" height="8"/>
  <rect x="120" y="232" width="8" height="8"/>
  <rect x="144" y="232" width="8" height="8"/>
  <rect x="160" y="232" width="8" height="8"/>
  <rect x="176" y="232" width="8" height="8"/>
  <rect x="200" y="232" width="8" height="8"/>
  <rect x="216" y="232" width="64" height="8"/>
  <rect x="288" y="232" width="16" height="8"/>
  <rect x="104" y="240" width="24" height="8"/>
  <rect x="136" y="240" width="16" height="8"/>
  <rect x="168" y="240" width="8" height="8"/>
  <rect x="184" y="240" width="32" height="8"/>
  <rect x="224" y="240" width="16" height="8"/>
  <rect x="264" y="240" width="8" height="8"/>
  <rect x="280" y="240" width="8" height="8"/>
  <rect x="296" y="240" width="8" height="8"/>
  <rect x="40" y="248" width="56" height="8"/>
  <rect x="112" y="248" width="8" height="8"/>
  <rect x="144" y="248" width="8" height="8"/>
  <rect x="160" y="248" width="8" height="8"/>
  <rect x="184" y="248" width="8" height="8"/>
  <rect x="200" y="248" width="16" height="8"/>
  <rect x="224" y="248" width="16" height="8"/>
  <rect x="248" y="248" width="8" height="8"/>
  <rect x="264" y="248" width="8" height="8"/>
  <rect x="280" y="248" width="16" height="8"/>
  <rect x="40" y="256" width="8" height="8"/>
  <rect x="88" y="256" width="8" height="8"/>
  <rect x="104" y="256" width="8" height="8"/>
  <rect x="120" y="256" width="8" height="8"/>
  <rect x="168" y="256" width="8" height="8"/>
  <rect x="192" y="256" width="8" height="8"/>
  <rect x="208" y="256" width="32" height="8"/>
  <rect x="264" y="256" width="24" height="8"/>
  <rect x="296" y="256" width="8" height="8"/>
  <rect x="40" y="264" width="8" height="8"/>
  <rect x="56" y="264" width="24" height="8"/>
  <rect x="88" y="264" width="8" height="8"/>
  <rect x="104" y="264" width="16" height="8"/>
  <rect x="144" y="264" width="8" height="8"/>
  <rect x="184" y="264" width="8" height="8"/>
  <rect x="208" y="264" width="8" height="8"/>
  <rect x="232" y="264" width="48" height="8"/>
  <rect x="288" y="264" width="16" height="8"/>
  <rect x="40" y="272" width="8" height="8"/>
  <rect x="56" y="272" width="24" height="8"/>
  <rect x="88" y="272" width="8" height="8"/>
  <rect x="104" y="272" width="16" height="8"/>
  <rect x="128" y="272" width="16" height="8"/>
  <rect x="152" y="272" width="24" height="8"/>
  <rect x="200" y="272" width="8" height="8"/>
  <rect x="216" y="272" width="16" height="8"/>
  <rect x="240" y="272" width="8" height="8"/>
  <rect x="264" y="272" width="24" height="8"/>
  <rect x="296" y="272" width="8" height="8"/>
  <rect x="40" y="280" width="8" height="8"/>
  <rect x="56" y="280" width="24" height="8"/>
  <rect x="88" y="280" width="8" height="8"/>
  <rect x="104" y="280" width="40" height="8"/>
  <rect x="192" y="280" width="8" height="8"/>
  <rect x="216" y="280" width="16" height="8"/>
  <rect x="248" y="280" width="16" height="8"/>
  <rect x="280" y="280" width="8" height="8"/>
  <rect x="40" y="288" width="8" height="8"/>
  <rect x="88" y="288" width="8" height="8"/>
  <rect x="120" y="288" width="24" height="8"/>
  <rect x="168" y="288" width="8" height="8"/>
  <rect x="184" y="288" width="32" height="8"/>
  <rect x="224" y="288" width="8" height="8"/>
  <rect x="240" y="288" width="8" height="8"/>
  <rect x="264" y="288" width="24" height="8"/>
  <rect x="40" y="296" width="56" height="8"/>
  <rect x="104" y="296" width="8" height="8"/>
  <rect x="120" y="296" width="32" height="8"/>
  <rect x="176" y="296" width="32" height="8"/>
  <rect x="216" y="296" width="8" height="8"/>
  <rect x="232" y="296" width="8" height="8"/>
  <rect x="256" y="296" width="8" height="8"/>
  <rect x="288" y="296" width="8" height="8"/>
</g>
</svg>