<svg xmlns="http://www.w3.org/2000/svg" viewBox="0 0 1000 1000" width="1000" height="1000">
  <g transform="translate(110 100) scale(780.0 780.0) translate(-0.0 -0.0)">
<path d="M 0.15394112549695427 0.9139411254969543 L 0.16647123564539917 0.902344251518415 L 0.17895467646264251 0.8907007082086743 L 0.199768325994636 0.8873873736136836 L 0.20380746191275317 0.8672995254048167 L 0.2161827981712495 0.8555478775363289 L 0.22852673683301258 0.8437648320711079 L 0.2489785322633603 0.8400896433744715 L 0.25312614386202015 0.8201102708461471 L 0.26538396403962317 0.8082411068967661 L 0.2776151983676288 0.7963453570977875 L 0.28198568861986995 0.7765888632230447 L 0.2942518929700132 0.7647280834462037 L 0.31415779379724196 0.7605070001464482 L 0.32629076765120224 0.7485129898734245 L 0.3458717112026186 0.7439669492978567 L 0.3498717112026186 0.7170861306888163 L 0.3538717112026186 0.6978608230868558 L 0.3674389347201984 0.6931532204344841 L 0.37957313517000146 0.6811604367573031 L 0.39169035793872314 0.6691506753990406 L 0.3969676044416281 0.6503009377749616 L 0.4024659311178776 0.6316722803242268 L 0.427944188651848 0.633023553731213 L 0.43999746109191334 0.6209498420442944 L 0.45836761740943766 0.6151930142348345 L 0.46405917099509975 0.5967575836935125 L 0.47606829689033675 0.5846397254617653 L 0.48212835807431603 0.5665728025187604 L 0.48844945023300196 0.5487669105504623 L 0.50069703602431 0.5368875122147864 L 0.5074206454946008 0.5194841375580929 L 0.5197962766880353 0.5077327846245432 L 0.5373905631590233 0.501200086968547 L 0.5546812835431878 0.4943638232257274 L 0.5667379169347466 0.48229347249030224 L 0.5835558847355721 0.4749844561641436 L 0.5954383404318084 0.4627399277333957 L 0.60730970475826 0.45048430793286326 L 0.6191702448824569 0.43821786393007595 L 0.6310202239790808 0.4259408588997158 L 0.6468342821654982 0.41762793295914896 L 0.6584989509244568 0.40516561759112363 L 0.6701520455073705 0.3926917280470531 L 0.6783196646286304 0.37673236304132873 L 0.6934246858231521 0.36771040010886624 L 0.7019125990868261 0.3520713292455563 L 0.7136957229869514 0.33972746901869727 L 0.7254702686921388 0.32737503059690076 L 0.7372364709039448 0.3150142486817226 L 0.7514239091754834 0.3050747028262771 L 0.7607447711245948 0.2902685806484043 L 0.7724873262981555 0.277884151694981 L 0.7842224524881395 0.2654922937579808 L 0.7942468248628318 0.2513896820056891 L 0.8046336637930138 0.23764953680888695 L 0.816719744826195 0.22560863371508386 L 0.8291700460655423 0.213931950827447 L 0.8406438784170277 0.2012787990519484 L 0.8508861327861952 0.18739406929413163 L 0.8611477820842179 0.17352873446517036 L 0.8714288263110962 0.1596827945650644 L 0.8817292654668297 0.14585624959381394 L 0.8920490995514188 0.13204909955141877 Z"
          fill="black"
          stroke="black"
          stroke-width="0.006"
          stroke-linejoin="round"
          stroke-linecap="round" />
</g>
  <g transform="translate(690 690) scale(0.5232558139534884 0.5232558139534884) translate(-0.0 -0.0)">
<rect x="40" y="40" width="56" height="8"/>
  <rect x="104" y="40" width="8" height="8"/>
  <rect x="128" y="40" width="8" height="8"/>
  <rect x="144" y="40" width="16" height="8"/>
  <rect x="168" y="40" width="40" height="8"/>
  <rect x="224" y="40" width="8" height="8"/>
  <rect x="248" y="40" width="56" height="8"/>
  <rect x="40" y="48" width="8" height="8"/>
  <rect x="88" y="48" width="8" height="8"/>
  <rect x="104" y="48" width="16" height="8"/>
  <rect x="128" y="48" width="8" height="8"/>
  <rect x="144" y="48" width="8" height="8"/>
  <rect x="168" y="48" width="8" height="8"/>
  <rect x="184" y="48" width="8" height="8"/>
  <rect x="200" y="48" width="32" height="8"/>
  <rect x="248" y="48" width="8" height="8"/>
  <rect x="296" y="48" width="8" height="8"/>
  <rect x="40" y="56" width="8" height="8"/>
  <rect x="56" y="56" width="24" height="8"/>
  <rect x="88" y="56" width="8" height="8"/>
  <rect x="112" y="56" width="8" height="8"/>
  <rect x="136" y="56" width="8" height="8"/>
  <rect x="160" y="56" width="8" height="8"/>
  <rect x="176" y="56" width="8" height="8"/>
  <rect x="200" y="56" width="32" height="8"/>
  <rect x="248" y="56" width="8" height="8"/>
  <rect x="264" y="56" width="24" height="8"/>
  <rect x="296" y="56" width="8" height="8"/>
  <rect x="40" y="64" width="8" height="8"/>
  <rect x="56" y="64" width="24" height="8"/>
  <rect x="88" y="64" width="8" height="8"/>
  <rect x="104" y="64" width="8" height="8"/>
  <rect x="152" y="64" width="8" height="8"/>
  <rect x="168" y="64" width="8" height="8"/>
  <rect x="192" y="64" width="32" height="8"/>
  <rect x="232" y="64" width="8" height="8"/>
  <rect x="248" y="64" width="8" height="8"/>
  <rect x="264" y="64" width="24" height="8"/>
  <rect x="296" y="64" width="8" height="8"/>
  <rect x="40" y="72" width="8" height="8"/>
  <rect x="56" y="72" width="24" height="8"/>
  <rect x="88" y="72" width="8" height="8"/>
  <rect x="120" y="72" width="8" height="8"/>
  <rect x="136" y="72" width="8" height="8"/>
  <rect x="152" y="72" width="8" height="8"/>
  <rect x="176" y="72" width="8" height="8"/>
  <rect x="200" y="72" width="8" height="8"/>
  <rect x="224" y="72" width="8" height="8"/>
  <rect x="248" y="72" width="8" height="8"/>
  <rect x="264" y="72" width="24" height="8"/>
  <rect x="296" y="72" width="8" height="8"/>
  <rect x="40" y="80" width="8" height="8"/>
  <rect x="88" y="80" width="8" height="8"/>
  <rect x="112" y="80" width="16" height="8"/>
  <rect x="136" y="80" width="24" height="8"/>
  <rect x="184" y="80" width="24" height="8"/>
  <rect x="232" y="80" width="8" height="8"/>
  <rect x="248" y="80" width="8" height="8"/>
  <rect x="296" y="80" width="8" height="8"/>
  <rect x="40" y="88" width="56" height="8"/>
  <rect x="104" y="88" width="8" height="8"/>
  <rect x="120" y="88" width="8" height="8"/>
  <rect x="136" y="88" width="8" height="8"/>
  <rect x="152" y="88" width="8" height="8"/>
  <rect x="168" y="88" width="8" height="8"/>
  <rect x="184" y="88" width="8" height="8"/>
  <rect x="200" y="88" width="8" height="8"/>
  <rect x="216" y="88" width="8" height="8"/>
  <rect x="232" y="88" width="8" height="8"/>
  <rect x="248" y="88" width="56" height="8"/>
  <rect x="104" y="96" width="16" height="8"/>
  <rect x="128" y="96" width="16" height="8"/>
  <rect x="176" y="96" width="8" height="8"/>
  <rect x="200" y="96" width="8" height="8"/>
  <rect x="216" y="96" width="8" height="8"/>
  <rect x="232" y="96" width="8" height="8"/>
  <rect x="40" y="104" width="8" height="8"/>
  <rect x="56" y="104" width="16" height="8"/>
  <rect x="80" y="104" width="24" height="8"/>
  <rect x="152" y="104" width="8" height="8"/>
  <rect x="168" y="104" width="32" height="8"/>
  <rect x="208" y="104" width="8" height="8"/>
  <rect x="232" y="104" width="8" height="8"/>
  <rect x="248" y="104" width="8" height="8"/>
  <rect x="272" y="104" width="8" height="8"/>
  <rect x="288" y="104" width="16" height="8"/>
  <rect x="48" y="112" width="16" height="8"/>
  <rect x="72" y="112" width="8" height="8"/>
  <rect x="96" y="112" width="8" height="8"/>
  <rect x="112" y="112" width="8" height="8"/>
  <rect x="128" y="112" width="16" height="8"/>
  <rect x="184" y="112" width="32" height="8"/>
  <rect x="224" y="112" width="8" height="8"/>
  <rect x="248" y="112" width="16" height="8"/>
  <rect x="272" y="112" width="16" height="8"/>
  <rect x="296" y="112" width="8" height="8"/>
  <rect x="40" y="120" width="16" height="8"/>
  <rect x="64" y="120" width="32" height="8"/>
  <rect x="152" y="120" width="8" height="8"/>
  <rect x="168" y="120" width="16" height="8"/>
  <rect x="224" y="120" width="24" height="8"/>
  <rect x="256" y="120" width="24" height="8"/>
  <rect x="296" y="120" width="8" height="8"/>
  <rect x="40" y="128" width="16" height="8"/>
  <rect x="72" y="128" width="8" height="8"/>
  <rect x="96" y="128" width="8" height="8"/>
  <rect x="128" y="128" width="40" height="8"/>
  <rect x="184" y="128" width="16" height="8"/>
  <rect x="232" y="128" width="8" height="8"/>
  <rect x="248" y="128" width="16" height="8"/>
  <rect x="272" y="128" width="8" height="8"/>
  <rect x="288" y="128" width="8" height="8"/>
  <rect x="48" y="136" width="8" height="8"/>
  <rect x="88" y="136" width="40" height="8"/>
  <rect x="136" y="136" width="8" height="8"/>
  <rect x="184" y="136" width="8" height="8"/>
  <rect x="208" y="136" width="8" height="8"/>
  <rect x="240" y="136" width="8" height="8"/>
  <rect x="264" y="136" width="16" height="8"/>
  <rect x="288" y="136" width="8" height="8"/>
  <rect x="64" y="144" width="8" height="8"/>
  <rect x="80" y="144" width="8" height="8"/>
  <rect x="96" y="144" width="16" height="8"/>
  <rect x="128" y="144" width="8" height="8"/>
  <rect x="168" y="144" width="24" height="8"/>
  <rect x="208" y="144" width="16" height="8"/>
  <rect x="280" y="144" width="16" height="8"/>
  <rect x="40" y="152" width="16" height="8"/>
  <rect x="64" y="152" width="16" height="8"/>
  <rect x="88" y="152" width="56" height="8"/>
  <rect x="160" y="152" width="16" height="8"/>
  <rect x="216" y="152" width="8" height="8"/>
  <rect x="232" y="152" width="8" height="8"/>
  <rect x="248" y="152" width="8" height="8"/>
  <rect x="264" y="152" width="8" height="8"/>
  <rect x="280" y="152" width="8" height="8"/>
  <rect x="64" y="160" width="24" height="8"/>
  <rect x="96" y="160" width="16" height="8"/>
  <rect x="136" y="160" width="24" height="8"/>
  <rect x="168" y="160" width="8" height="8"/>
  <rect x="192" y="160" width="40" height="8"/>
  <rect x="240" y="160" width="16" height="8"/>
  <rect x="264" y="160" width="24" height="8"/>
  <rect x="40" y="168" width="16" height="8"/>
  <rect x="64" y="168" width="16" height="8"/>
  <rect x="88" y="168" width="16" height="8"/>
  <rect x="112" y="168" width="8" height="8"/>
  <rect x="128" y="168" width="16" height="8"/>
  <rect x="152" y="168" width="16" height="8"/>
  <rect x="184" y="168" width="48" height="8"/>
  <rect x="240" y="168" width="16" height="8"/>
  <rect x="264" y="168" width="24" height="8"/>
  <rect x="48" y="176" width="8" height="8"/>
  <rect x="64" y="176" width="16" height="8"/>
  <rect x="104" y="176" width="24" height="8"/>
  <rect x="136" y="176" width="16" height="8"/>
  <rect x="160" y="176" width="8" height="8"/>
  <rect x="176" y="176" width="16" height="8"/>
  <rect x="200" y="176" width="40" height="8"/>
  <rect x="248" y="176" width="8" height="8"/>
  <rect x="264" y="176" width="16" height="8"/>
  <rect x="296" y="176" width="8" height="8"/>
  <rect x="56" y="184" width="24" height="8"/>
  <rect x="88" y="184" width="16" height="8"/>
  <rect x="112" y="184" width="16" height="8"/>
  <rect x="136" y="184" width="48" height="8"/>
  <rect x="216" y="184" width="8" height="8"/>
  <rect x="232" y="184" width="8" height="8"/>
  <rect x="248" y="184" width="24" height="8"/>
  <rect x="280" y="184" width="16" height="8"/>
  <rect x="56" y="192" width="16" height="8"/>
  <rect x="96" y="192" width="8" height="8"/>
  <rect x="112" y="192" width="8" height="8"/>
  <rect x="128" y="192" width="8" height="8"/>
  <rect x="160" y="192" width="8" height="8"/>
  <rect x="208" y="192" width="8" height="8"/>
  <rect x="232" y="192" width="24" height="8"/>
  <rect x="264" y="192" width="8" height="8"/>
  <rect x="288" y="192" width="16" height="8"/>
  <rect x="40" y="200" width="16" height="8"/>
  <rect x="72" y="200" width="24" height="8"/>
  <rect x="104" y="200" width="8" height="8"/>
  <rect x="120" y="200" width="8" height="8"/>
  <rect x="152" y="200" width="8" height="8"/>
  <rect x="184" y="200" width="24" height="8"/>
  <rect x="232" y="200" width="8" height="8"/>
  <rect x="272" y="200" width="32" height="8"/>
  <rect x="40" y="208" width="8" height="8"/>
  <rect x="64" y="208" width="16" height="8"/>
  <rect x="104" y="208" width="8" height="8"/>
  <rect x="120" y="208" width="24" height="8"/>
  <rect x="152" y="208" width="16" height="8"/>
  <rect x="184" y="208" width="8" height="8"/>
  <rect x="208" y="208" width="8" height="8"/>
  <rect x="224" y="208" width="16" height="8"/>
  <rect x="248" y="208" width="8" height="8"/>
  <rect x="296" y="208" width="8" height="8"/>
  <rect x="56" y="216" width="8" height="8"/>
  <rect x="72" y="216" width="32" height="8"/>
  <rect x="120" y="216" width="16" height="8"/>
  <rect x="168" y="216" width="8" height="8"/>
  <rect x="208" y="216" width="32" height="8"/>
  <rect x="248" y="216" width="16" height="8"/>
  <rect x="272" y="216" width="8" height="8"/>
  <rect x="288" y="216" width="16" height="8"/>
  <rect x="48" y="224" width="16" height="8"/>
  <rect x="72" y="224" width="16" height="8"/>
  <rect x="104" y="224" width="8" height="8"/>
  <rect x="120" y="224" width="8" height="8"/>
  <rect x="136" y="224" width="24" height="8"/>
  <rect x="168" y="224" width="8" height="8"/>
  <rect x="192" y="224" width="8" height="8"/>
  <rect x="232" y="224" width="8" height="8"/>
  <rect x="248" y="224" width="16" height="8"/>
  <rect x="272" y="224" width="8" height="8"/>
  <rect x="288" y="224" width="8" height="8"/>
  <rect x="40" y="232" width="8" height="8"/>
  <rect x="56" y="232" width="8" height="8"/>
  <rect x="88" y="232" width="24" height="8"/>
  <rect x="120" y="232" width="16" height="8"/>
  <rect x="144" y="232" width="8" height="8"/>
  <rect x="160" y="232" width="8" height="8"/>
  <rect x="176" y="232" width="8" height="8"/>
  <rect x="200" y="232" width="8" height="8"/>
  <rect x="216" y="232" width="64" height="8"/>
  <rect x="288" y="232" width="16" height="8"/>
  <rect x="104" y="240" width="8" height="8"/>
  <rect x="120" y="240" width="16" height="8"/>
  <rect x="152" y="240" width="32" height="8"/>
  <rect x="192" y="240" width="8" height="8"/>
  <rect x="232" y="240" width="8" height="8"/>
  <rect x="264" y="240" width="16" height="8"/>
  <rect x="40" y="248" width="56" height="8"/>
  <rect x="104" y="248" width="8" height="8"/>
  <rect x="120" y="248" width="8" height="8"/>
  <rect x="136" y="248" width="24" height="8"/>
  <rect x="168" y="248" width="8" height="8"/>
  <rect x="192" y="248" width="16" height="8"/>
  <rect x="216" y="248" width="24" height="8"/>
  <rect x="248" y="248" width="8" height="8"/>
  <rect x="264" y="248" width="8" height="8"/>
  <rect x="40" y="256" width="8" height="8"/>
  <rect x="88" y="256" width="8" height="8"/>
  <rect x="104" y="256" width="8" height="8"/>
  <rect x="120" y="256" width="8" height="8"/>
  <rect x="144" y="256" width="16" height="8"/>
  <rect x="168" y="256" width="8" height="8"/>
  <rect x="192" y="256" width="8" height="8"/>
  <rect x="208" y="256" width="32" height="8"/>
  <rect x="264" y="256" width="24" height="8"/>
  <rect x="296" y="256" width="8" height="8"/>
  <rect x="40" y="264" width="8" height="8"/>
  <rect x="56" y="264" width="24" height="8"/>
  <rect x="88" y="264" width="8" height="8"/>
  <rect x="120" y="264" width="16" height="8"/>
  <rect x="152" y="264" width="16" height="8"/>
  <rect x="176" y="264" width="8" height="8"/>
  <rect x="200" y="264" width="8" height="8"/>
  <rect x="224" y="264" width="48" height="8"/>
  <rect x="280" y="264" width="16" height="8"/>
  <rect x="40" y="272" width="8" height="8"/>
  <rect x="56" y="272" width="24" height="8"/>
  <rect x="88" y="272" width="8" height="8"/>
  <rect x="104" y="272" width="8" height="8"/>
  <rect x="120" y="272" width="32" height="8"/>
  <rect x="184" y="272" width="32" height="8"/>
  <rect x="224" y="272" width="16" height="8"/>
  <rect x="256" y="272" width="8" height="8"/>
  <rect x="272" y="272" width="8" height="8"/>
  <rect x="288" y="272" width="16" height="8"/>
  <rect x="40" y="280" width="8" height="8"/>
  <rect x="56" y="280" width="24" height="8"/>
  <rect x="88" y="280" width="8" height="8"/>
  <rect x="104" y="280" width="24" height="8"/>
  <rect x="192" y="280" width="8" height="8"/>
  <rect x="216" y="280" width="16" height="8"/>
  <rect x="248" y="280" width="16" height="8"/>
  <rect x="280" y="280" width="8" height="8"/>
  <rect x="40" y="288" width="8" height="8"/>
  <rect x="88" y="288" width="8" height="8"/>
  <rect x="112" y="288" width="16" height="8"/>
  <rect x="152" y="288" width="32" height="8"/>
  <rect x="192" y="288" width="8" height="8"/>
  <rect x="232" y="288" width="40" height="8"/>
  <rect x="296" y="288" width="8" height="8"/>
  <rect x="40" y="296" width="56" height="8"/>
  <rect x="104" y="296" width="16" height="8"/>
  <rect x="128" y="296" width="8" height="8"/>
  <rect x="160" y="296" width="24" height="8"/>
  <rect x="200" y="296" width="16" height="8"/>
  <rect x="240" y="296" width="8" height="8"/>
  <rect x="264" y="296" width="8" height="8"/>
  <rect x="280" y="296" width="8" height="8"/>
</g>
</svg>