<svg xmlns="http://www.w3.org/2000/svg" viewBox="0 0 1000 1000" width="1000" height="1000">
  <g transform="translate(110 100) scale(780.0 780.0) translate(-0.0 -0.0)">
<path d="M 0.1454558441227157 0.9054558441227157 L 0.1580177722626604 0.8938907881356762 L 0.17054021096851146 0.8822862427145433 L 0.18302945982112886 0.8706485074401765 L 0.19548854545497232 0.8589806089470359 L 0.1996562239740562 0.8390213033391356 L 0.20391825481326745 0.8191563500513628 L 0.22456523384471952 0.8156763449558306 L 0.24505784685400964 0.8120419738381366 L 0.25738937578785737 0.8002465186450003 L 0.2617816196380012 0.7805117783681599 L 0.28198568861986995 0.7765888632230447 L 0.2865024436450519 0.7569786341212423 L 0.3064976484093462 0.7528468547585525 L 0.31115630864132865 0.7333785308635509 L 0.3234593079064938 0.7215545460017319 L 0.3431178767205623 0.7170861306888163 L 0.3552873301560065 0.7051285999972763 L 0.3674389347201984 0.6931532204344841 L 0.37957313517000146 0.6811604367573031 L 0.39169035793872314 0.6691506753990406 L 0.4037910130905526 0.6571243464238861 L 0.40917071354736795 0.6383770627537172 L 0.427944188651848 0.633023553731213 L 0.4464564455084342 0.6274088264608152 L 0.45836761740943766 0.6151930142348345 L 0.47026140190558413 0.602959814603997 L 0.48213820031028365 0.5907096288817122 L 0.4939984038078687 0.5784428482523131 L 0.5058423942038469 0.5661598545213072 L 0.5233283807832819 0.5595188569737582 L 0.5349988635769959 0.547062355640488 L 0.5412807777143369 0.5292172856508448 L 0.5478392331700136 0.5116487569795373 L 0.5597566092787887 0.4994391489613283 L 0.5716620662922065 0.4872176218477621 L 0.5835558847355721 0.4749844561641436 L 0.5908228419919459 0.45812442929353314 L 0.60730970475826 0.45048430793286326 L 0.6191702448824569 0.43821786393007595 L 0.6310202239790808 0.4259408588997158 L 0.642859901430089 0.4136535522237398 L 0.6546895330096991 0.40135619967636593 L 0.6665093710557328 0.3890490535954154 L 0.6748454689988647 0.3732581674115631 L 0.6868166334954477 0.36110234778116185 L 0.6987803888621862 0.3489391190209163 L 0.7107369315246874 0.33676867755643336 L 0.7226864556640579 0.3245912175688198 L 0.7346291533088435 0.31240693108662115 L 0.7465652144212055 0.3002160080719993 L 0.7607447711245948 0.2902685806484043 L 0.7704181770458486 0.2758150024426741 L 0.7823354488545979 0.26360529012443923 L 0.7942468248628318 0.2513896820056891 L 0.8046336637930138 0.23764953680888695 L 0.8153868788139226 0.2242757677028115 L 0.8266681002431955 0.2114300050051001 L 0.8369055058801489 0.19754042651506956 L 0.8496448573394495 0.18615279384738587 L 0.8611477820842179 0.17352873446517036 L 0.8714288263110962 0.1596827945650644 L 0.8817292654668297 0.14585624959381394 L 0.8920490995514188 0.13204909955141877 Z"
          fill="black"
          stroke="black"
          stroke-width="0.006"
          stroke-linejoin="round"
          stroke-linecap="round" />
</g>
  <g transform="translate(690 690) scale(0.5232558139534884 0.5232558139534884) translate(-0.0 -0.0)">
<rect x="40" y="40" width="56" height="8"/>
  <rect x="104" y="40" width="8" height="8"/>
  <rect x="120" y="40" width="8" height="8"/>
  <rect x="144" y="40" width="8" height="8"/>
  <rect x="160" y="40" width="16" height="8"/>
  <rect x="224" y="40" width="8" height="8"/>
  <rect x="248" y="40" width="56" height="8"/>
  <rect x="40" y="48" width="8" height="8"/>
  <rect x="88" y="48" width="8" height="8"/>
  <rect x="120" y="48" width="8" height="8"/>
  <rect x="136" y="48" width="24" height="8"/>
  <rect x="168" y="48" width="8" height="8"/>
  <rect x="192" y="48" width="16" height="8"/>
  <rect x="216" y="48" width="8" height="8"/>
  <rect x="232" y="48" width="8" height="8"/>
  <rect x="248" y="48" width="8" height="8"/>
  <rect x="296" y="48" width="8" height="8"/>
  <rect x="40" y="56" width="8" height="8"/>
  <rect x="56" y="56" width="24" height="8"/>
  <rect x="88" y="56" width="8" height="8"/>
  <rect x="112" y="56" width="24" height="8"/>
  <rect x="176" y="56" width="8" height="8"/>
  <rect x="208" y="56" width="24" height="8"/>
  <rect x="248" y="56" width="8" height="8"/>
  <rect x="264" y="56" width="24" height="8"/>
  <rect x="296" y="56" width="8" height="8"/>
  <rect x="40" y="64" width="8" height="8"/>
  <rect x="56" y="64" width="24" height="8"/>
  <rect x="88" y="64" width="8" height="8"/>
  <rect x="104" y="64" width="8" height="8"/>
  <rect x="128" y="64" width="8" height="8"/>
  <rect x="184" y="64" width="24" height="8"/>
  <rect x="216" y="64" width="16" height="8"/>
  <rect x="248" y="64" width="8" height="8"/>
  <rect x="264" y="64" width="24" height="8"/>
  <rect x="296" y="64" width="8" height="8"/>
  <rect x="40" y="72" width="8" height="8"/>
  <rect x="56" y="72" width="24" height="8"/>
  <rect x="88" y="72" width="8" height="8"/>
  <rect x="104" y="72" width="8" height="8"/>
  <rect x="136" y="72" width="32" height="8"/>
  <rect x="184" y="72" width="8" height="8"/>
  <rect x="208" y="72" width="8" height="8"/>
  <rect x="224" y="72" width="8" height="8"/>
  <rect x="248" y="72" width="8" height="8"/>
  <rect x="264" y="72" width="24" height="8"/>
  <rect x="296" y="72" width="8" height="8"/>
  <rect x="40" y="80" width="8" height="8"/>
  <rect x="88" y="80" width="8" height="8"/>
  <rect x="104" y="80" width="16" height="8"/>
  <rect x="136" y="80" width="8" height="8"/>
  <rect x="168" y="80" width="8" height="8"/>
  <rect x="192" y="80" width="32" height="8"/>
  <rect x="232" y="80" width="8" height="8"/>
  <rect x="248" y="80" width="8" height="8"/>
  <rect x="296" y="80" width="8" height="8"/>
  <rect x="40" y="88" width="56" height="8"/>
  <rect x="104" y="88" width="8" height="8"/>
  <rect x="120" y="88" width="8" height="8"/>
  <rect x="136" y="88" width="8" height="8"/>
  <rect x="152" y="88" width="8" height="8"/>
  <rect x="168" y="88" width="8" height="8"/>
  <rect x="184" y="88" width="8" height="8"/>
  <rect x="200" y="88" width="8" height="8"/>
  <rect x="216" y="88" width="8" height="8"/>
  <rect x="232" y="88" width="8" height="8"/>
  <rect x="248" y="88" width="56" height="8"/>
  <rect x="104" y="96" width="16" height="8"/>
  <rect x="128" y="96" width="16" height="8"/>
  <rect x="160" y="96" width="8" height="8"/>
  <rect x="176" y="96" width="16" height="8"/>
  <rect x="208" y="96" width="8" height="8"/>
  <rect x="40" y="104" width="8" height="8"/>
  <rect x="72" y="104" width="8" height="8"/>
  <rect x="88" y="104" width="24" height="8"/>
  <rect x="128" y="104" width="8" height="8"/>
  <rect x="176" y="104" width="8" height="8"/>
  <rect x="200" y="104" width="24" height="8"/>
  <rect x="240" y="104" width="40" height="8"/>
  <rect x="296" y="104" width="8" height="8"/>
  <rect x="40" y="112" width="8" height="8"/>
  <rect x="56" y="112" width="8" height="8"/>
  <rect x="80" y="112" width="8" height="8"/>
  <rect x="104" y="112" width="16" height="8"/>
  <rect x="136" y="112" width="8" height="8"/>
  <rect x="152" y="112" width="40" height="8"/>
  <rect x="208" y="112" width="8" height="8"/>
  <rect x="224" y="112" width="8" height="8"/>
  <rect x="240" y="112" width="8" height="8"/>
  <rect x="272" y="112" width="24" height="8"/>
  <rect x="40" y="120" width="56" height="8"/>
  <rect x="104" y="120" width="8" height="8"/>
  <rect x="128" y="120" width="40" height="8"/>
  <rect x="176" y="120" width="16" height="8"/>
  <rect x="224" y="120" width="24" height="8"/>
  <rect x="272" y="120" width="8" height="8"/>
  <rect x="288" y="120" width="8" height="8"/>
  <rect x="40" y="128" width="16" height="8"/>
  <rect x="120" y="128" width="16" height="8"/>
  <rect x="144" y="128" width="8" height="8"/>
  <rect x="168" y="128" width="24" height="8"/>
  <rect x="200" y="128" width="16" height="8"/>
  <rect x="232" y="128" width="8" height="8"/>
  <rect x="288" y="128" width="8" height="8"/>
  <rect x="40" y="136" width="8" height="8"/>
  <rect x="56" y="136" width="8" height="8"/>
  <rect x="88" y="136" width="32" height="8"/>
  <rect x="128" y="136" width="24" height="8"/>
  <rect x="168" y="136" width="16" height="8"/>
  <rect x="192" y="136" width="40" height="8"/>
  <rect x="248" y="136" width="32" height="8"/>
  <rect x="296" y="136" width="8" height="8"/>
  <rect x="40" y="144" width="16" height="8"/>
  <rect x="72" y="144" width="8" height="8"/>
  <rect x="104" y="144" width="16" height="8"/>
  <rect x="128" y="144" width="16" height="8"/>
  <rect x="152" y="144" width="16" height="8"/>
  <rect x="184" y="144" width="8" height="8"/>
  <rect x="216" y="144" width="16" height="8"/>
  <rect x="240" y="144" width="8" height="8"/>
  <rect x="256" y="144" width="8" height="8"/>
  <rect x="40" y="152" width="40" height="8"/>
  <rect x="88" y="152" width="32" height="8"/>
  <rect x="136" y="152" width="8" height="8"/>
  <rect x="160" y="152" width="8" height="8"/>
  <rect x="208" y="152" width="8" height="8"/>
  <rect x="224" y="152" width="32" height="8"/>
  <rect x="288" y="152" width="8" height="8"/>
  <rect x="56" y="160" width="8" height="8"/>
  <rect x="80" y="160" width="8" height="8"/>
  <rect x="96" y="160" width="16" height="8"/>
  <rect x="136" y="160" width="8" height="8"/>
  <rect x="160" y="160" width="8" height="8"/>
  <rect x="176" y="160" width="8" height="8"/>
  <rect x="192" y="160" width="24" height="8"/>
  <rect x="224" y="160" width="8" height="8"/>
  <rect x="240" y="160" width="32" height="8"/>
  <rect x="40" y="168" width="8" height="8"/>
  <rect x="56" y="168" width="16" height="8"/>
  <rect x="80" y="168" width="16" height="8"/>
  <rect x="104" y="168" width="8" height="8"/>
  <rect x="128" y="168" width="24" height="8"/>
  <rect x="160" y="168" width="32" height="8"/>
  <rect x="208" y="168" width="16" height="8"/>
  <rect x="232" y="168" width="8" height="8"/>
  <rect x="248" y="168" width="8" height="8"/>
  <rect x="264" y="168" width="8" height="8"/>
  <rect x="288" y="168" width="8" height="8"/>
  <rect x="40" y="176" width="24" height="8"/>
  <rect x="96" y="176" width="16" height="8"/>
  <rect x="120" y="176" width="24" height="8"/>
  <rect x="160" y="176" width="32" height="8"/>
  <rect x="216" y="176" width="16" height="8"/>
  <rect x="272" y="176" width="24" height="8"/>
  <rect x="40" y="184" width="8" height="8"/>
  <rect x="56" y="184" width="24" height="8"/>
  <rect x="88" y="184" width="32" height="8"/>
  <rect x="128" y="184" width="8" height="8"/>
  <rect x="152" y="184" width="16" height="8"/>
  <rect x="176" y="184" width="16" height="8"/>
  <rect x="200" y="184" width="16" height="8"/>
  <rect x="224" y="184" width="8" height="8"/>
  <rect x="256" y="184" width="8" height="8"/>
  <rect x="272" y="184" width="8" height="8"/>
  <rect x="288" y="184" width="8" height="8"/>
  <rect x="40" y="192" width="8" height="8"/>
  <rect x="56" y="192" width="8" height="8"/>
  <rect x="72" y="192" width="8" height="8"/>
  <rect x="96" y="192" width="8" height="8"/>
  <rect x="128" y="192" width="8" height="8"/>
  <rect x="152" y="192" width="8" height="8"/>
  <rect x="176" y="192" width="8" height="8"/>
  <rect x="208" y="192" width="8" height="8"/>
  <rect x="240" y="192" width="8" height="8"/>
  <rect x="256" y="192" width="8" height="8"/>
  <rect x="296" y="192" width="8" height="8"/>
  <rect x="48" y="200" width="8" height="8"/>
  <rect x="64" y="200" width="40" height="8"/>
  <rect x="128" y="200" width="16" height="8"/>
  <rect x="160" y="200" width="32" height="8"/>
  <rect x="200" y="200" width="24" height="8"/>
  <rect x="232" y="200" width="8" height="8"/>
  <rect x="248" y="200" width="32" height="8"/>
  <rect x="288" y="200" width="16" height="8"/>
  <rect x="40" y="208" width="16" height="8"/>
  <rect x="80" y="208" width="8" height="8"/>
  <rect x="104" y="208" width="32" height="8"/>
  <rect x="144" y="208" width="24" height="8"/>
  <rect x="176" y="208" width="8" height="8"/>
  <rect x="200" y="208" width="8" height="8"/>
  <rect x="224" y="208" width="8" height="8"/>
  <rect x="240" y="208" width="8" height="8"/>
  <rect x="256" y="208" width="8" height="8"/>
  <rect x="272" y="208" width="24" height="8"/>
  <rect x="56" y="216" width="24" height="8"/>
  <rect x="88" y="216" width="16" height="8"/>
  <rect x="128" y="216" width="16" height="8"/>
  <rect x="152" y="216" width="24" height="8"/>
  <rect x="184" y="216" width="8" height="8"/>
  <rect x="208" y="216" width="8" height="8"/>
  <rect x="224" y="216" width="8" height="8"/>
  <rect x="248" y="216" width="8" height="8"/>
  <rect x="264" y="216" width="8" height="8"/>
  <rect x="280" y="216" width="16" height="8"/>
  <rect x="56" y="224" width="8" height="8"/>
  <rect x="72" y="224" width="16" height="8"/>
  <rect x="104" y="224" width="8" height="8"/>
  <rect x="128" y="224" width="16" height="8"/>
  <rect x="160" y="224" width="8" height="8"/>
  <rect x="176" y="224" width="8" height="8"/>
  <rect x="200" y="224" width="40" height="8"/>
  <rect x="248" y="224" width="8" height="8"/>
  <rect x="288" y="224" width="8" height="8"/>
  <rect x="40" y="232" width="32" height="8"/>
  <rect x="80" y="232" width="16" height="8"/>
  <rect x="104" y="232" width="16" height="8"/>
  <rect x="136" y="232" width="16" height="8"/>
  <rect x="176" y="232" width="8" height="8"/>
  <rect x="192" y="232" width="24" height="8"/>
  <rect x="232" y="232" width="40" height="8"/>
  <rect x="104" y="240" width="8" height="8"/>
  <rect x="120" y="240" width="16" height="8"/>
  <rect x="160" y="240" width="8" height="8"/>
  <rect x="176" y="240" width="16" height="8"/>
  <rect x="208" y="240" width="8" height="8"/>
  <rect x="224" y="240" width="16" height="8"/>
  <rect x="264" y="240" width="8" height="8"/>
  <rect x="280" y="240" width="8" height="8"/>
  <rect x="40" y="248" width="56" height="8"/>
  <rect x="104" y="248" width="8" height="8"/>
  <rect x="128" y="248" width="16" height="8"/>
  <rect x="160" y="248" width="8" height="8"/>
  <rect x="184" y="248" width="8" height="8"/>
  <rect x="200" y="248" width="8" height="8"/>
  <rect x="232" y="248" width="8" height="8"/>
  <rect x="248" y="248" width="8" height="8"/>
  <rect x="264" y="248" width="16" height="8"/>
  <rect x="288" y="248" width="8" height="8"/>
  <rect x="40" y="256" width="8" height="8"/>
  <rect x="88" y="256" width="8" height="8"/>
  <rect x="112" y="256" width="16" height="8"/>
  <rect x="136" y="256" width="16" height="8"/>
  <rect x="176" y="256" width="48" height="8"/>
  <rect x="232" y="256" width="8" height="8"/>
  <rect x="264" y="256" width="8" height="8"/>
  <rect x="288" y="256" width="8" height="8"/>
  <rect x="40" y="264" width="8" height="8"/>
  <rect x="56" y="264" width="24" height="8"/>
  <rect x="88" y="264" width="8" height="8"/>
  <rect x="104" y="264" width="16" height="8"/>
  <rect x="128" y="264" width="8" height="8"/>
  <rect x="152" y="264" width="16" height="8"/>
  <rect x="176" y="264" width="8" height="8"/>
  <rect x="192" y="264" width="8" height="8"/>
  <rect x="208" y="264" width="16" height="8"/>
  <rect x="232" y="264" width="48" height="8"/>
  <rect x="296" y="264" width="8" height="8"/>
  <rect x="40" y="272" width="8" height="8"/>
  <rect x="56" y="272" width="24" height="8"/>
  <rect x="88" y="272" width="8" height="8"/>
  <rect x="120" y="272" width="16" height="8"/>
  <rect x="144" y="272" width="8" height="8"/>
  <rect x="160" y="272" width="32" height="8"/>
  <rect x="208" y="272" width="8" height="8"/>
  <rect x="224" y="272" width="16" height="8"/>
  <rect x="248" y="272" width="32" height="8"/>
  <rect x="40" y="280" width="8" height="8"/>
  <rect x="56" y="280" width="24" height="8"/>
  <rect x="88" y="280" width="8" height="8"/>
  <rect x="120" y="280" width="16" height="8"/>
  <rect x="152" y="280" width="16" height="8"/>
  <rect x="176" y="280" width="8" height="8"/>
  <rect x="200" y="280" width="8" height="8"/>
  <rect x="248" y="280" width="40" height="8"/>
  <rect x="40" y="288" width="8" height="8"/>
  <rect x="88" y="288" width="8" height="8"/>
  <rect x="112" y="288" width="16" height="8"/>
  <rect x="152" y="288" width="40" height="8"/>
  <rect x="208" y="288" width="48" height="8"/>
  <rect x="272" y="288" width="8" height="8"/>
  <rect x="40" y="296" width="56" height="8"/>
  <rect x="104" y="296" width="16" height="8"/>
  <rect x="136" y="296" width="8" height="8"/>
  <rect x="152" y="296" width="16" height="8"/>
  <rect x="176" y="296" width="8" height="8"/>
  <rect x="200" y="296" width="48" height="8"/>
  <rect x="296" y="296" width="8" height="8"/>
</g>
</svg>