<svg xmlns="http://www.w3.org/2000/svg" viewBox="0 0 1000 1000" width="1000" height="1000">
  <g transform="translate(110 100) scale(780.0 780.0) translate(-0.0 -0.0)">
<path d="M 0.15394112549695427 0.9139411254969543 L 0.16647123564539917 0.902344251518415 L 0.17895467646264251 0.8907007082086743 L 0.19139889290788245 0.87901794052693 L 0.19548854545497232 0.8589806089470359 L 0.20791951107265283 0.8472845904377322 L 0.21212108215318248 0.8273591773912778 L 0.22456523384471952 0.8156763449558306 L 0.24505784685400964 0.8120419738381366 L 0.25738937578785737 0.8002465186450003 L 0.2776151983676288 0.7963453570977875 L 0.28982072389811314 0.7844238985012878 L 0.30200134229497444 0.7724775327711649 L 0.31415779379724196 0.7605070001464482 L 0.32629076765120224 0.7485129898734245 L 0.3384009101039103 0.7364961481991483 L 0.3504888306596645 0.7244570846279186 L 0.3552873301560065 0.7051285999972763 L 0.3674389347201984 0.6931532204344841 L 0.37957313517000146 0.6811604367573031 L 0.3986294523951684 0.6760897698554857 L 0.4037910130905526 0.6571243464238861 L 0.42258027840634865 0.6517866276126979 L 0.4345274739143922 0.6396068389937573 L 0.45291542992495515 0.6338678108773361 L 0.46469956256562156 0.6215249593910185 L 0.47026140190558413 0.602959814603997 L 0.48213820031028365 0.5907096288817122 L 0.4939984038078687 0.5784428482523131 L 0.5058423942038469 0.5661598545213072 L 0.512012708403796 0.5482031845942723 L 0.5294832199605168 0.541546712024009 L 0.5412807777143369 0.5292172856508448 L 0.5452807777143369 0.5064244219740421 L 0.5546812835431878 0.4943638232257274 L 0.5618137675772867 0.47736932313284236 L 0.5787850278598992 0.4702135992884706 L 0.5908228419919459 0.45812442929353314 L 0.602851581366896 0.4460261845414992 L 0.6105726842702731 0.42962030331789214 L 0.6227451899111042 0.4176658248317391 L 0.6388855206946799 0.40967917148833066 L 0.6508801150949415 0.3975467817616083 L 0.6628666966040951 0.38540637914377773 L 0.6748454689988647 0.3732581674115631 L 0.6934246858231521 0.36771040010886624 L 0.7019125990868261 0.3520713292455563 L 0.7136957229869514 0.33972746901869727 L 0.7254702686921388 0.32737503059690076 L 0.7372364709039448 0.3150142486817226 L 0.7489945617983444 0.3026453554491382 L 0.7584948269778092 0.2880186365016187 L 0.7704181770458486 0.2758150024426741 L 0.7823354488545979 0.26360529012443923 L 0.792543277025948 0.24968613416880528 L 0.8015960197341763 0.23461189275004937 L 0.8113882807771055 0.22027716966599434 L 0.8229151815096751 0.20767708627157971 L 0.8381516300591085 0.19878655069402917 L 0.8484035818927037 0.1849115184006401 L 0.8586749286551542 0.17105588103610656 L 0.8701972483287781 0.15845121658274633 L 0.8817292654668297 0.14585624959381394 L 0.8920490995514188 0.13204909955141877 Z"
          fill="black"
          stroke="black"
          stroke-width="0.006"
          stroke-linejoin="round"
          stroke-linecap="round" />
</g>
  <g transform="translate(690 690) scale(0.5232558139534884 0.5232558139534884) translate(-0.0 -0.0)">
<rect x="40" y="40" width="56" height="8"/>
  <rect x="152" y="40" width="8" height="8"/>
  <rect x="168" y="40" width="8" height="8"/>
  <rect x="184" y="40" width="32" height="8"/>
  <rect x="224" y="40" width="8" height="8"/>
  <rect x="248" y="40" width="56" height="8"/>
  <rect x="40" y="48" width="8" height="8"/>
  <rect x="88" y="48" width="8" height="8"/>
  <rect x="112" y="48" width="8" height="8"/>
  <rect x="128" y="48" width="16" height="8"/>
  <rect x="160" y="48" width="16" height="8"/>
  <rect x="184" y="48" width="8" height="8"/>
  <rect x="232" y="48" width="8" height="8"/>
  <rect x="248" y="48" width="8" height="8"/>
  <rect x="296" y="48" width="8" height="8"/>
  <rect x="40" y="56" width="8" height="8"/>
  <rect x="56" y="56" width="24" height="8"/>
  <rect x="88" y="56" width="8" height="8"/>
  <rect x="104" y="56" width="16" height="8"/>
  <rect x="152" y="56" width="8" height="8"/>
  <rect x="168" y="56" width="8" height="8"/>
  <rect x="192" y="56" width="48" height="8"/>
  <rect x="248" y="56" width="8" height="8"/>
  <rect x="264" y="56" width="24" height="8"/>
  <rect x="296" y="56" width="8" height="8"/>
  <rect x="40" y="64" width="8" height="8"/>
  <rect x="56" y="64" width="24" height="8"/>
  <rect x="88" y="64" width="8" height="8"/>
  <rect x="104" y="64" width="8" height="8"/>
  <rect x="184" y="64" width="16" height="8"/>
  <rect x="208" y="64" width="8" height="8"/>
  <rect x="248" y="64" width="8" height="8"/>
  <rect x="264" y="64" width="24" height="8"/>
  <rect x="296" y="64" width="8" height="8"/>
  <rect x="40" y="72" width="8" height="8"/>
  <rect x="56" y="72" width="24" height="8"/>
  <rect x="88" y="72" width="8" height="8"/>
  <rect x="104" y="72" width="24" height="8"/>
  <rect x="136" y="72" width="8" height="8"/>
  <rect x="152" y="72" width="24" height="8"/>
  <rect x="200" y="72" width="16" height="8"/>
  <rect x="224" y="72" width="8" height="8"/>
  <rect x="248" y="72" width="8" height="8"/>
  <rect x="264" y="72" width="24" height="8"/>
  <rect x="296" y="72" width="8" height="8"/>
  <rect x="40" y="80" width="8" height="8"/>
  <rect x="88" y="80" width="8" height="8"/>
  <rect x="104" y="80" width="40" height="8"/>
  <rect x="152" y="80" width="8" height="8"/>
  <rect x="192" y="80" width="8" height="8"/>
  <rect x="208" y="80" width="16" height="8"/>
  <rect x="232" y="80" width="8" height="8"/>
  <rect x="248" y="80" width="8" height="8"/>
  <rect x="296" y="80" width="8" height="8"/>
  <rect x="40" y="88" width="56" height="8"/>
  <rect x="104" y="88" width="8" height="8"/>
  <rect x="120" y="88" width="8" height="8"/>
  <rect x="136" y="88" width="8" height="8"/>
  <rect x="152" y="88" width="8" height="8"/>
  <rect x="168" y="88" width="8" height="8"/>
  <rect x="184" y="88" width="8" height="8"/>
  <rect x="200" y="88" width="8" height="8"/>
  <rect x="216" y="88" width="8" height="8"/>
  <rect x="232" y="88" width="8" height="8"/>
  <rect x="248" y="88" width="56" height="8"/>
  <rect x="104" y="96" width="16" height="8"/>
  <rect x="128" y="96" width="8" height="8"/>
  <rect x="152" y="96" width="8" height="8"/>
  <rect x="168" y="96" width="8" height="8"/>
  <rect x="184" y="96" width="40" height="8"/>
  <rect x="40" y="104" width="8" height="8"/>
  <rect x="56" y="104" width="40" height="8"/>
  <rect x="128" y="104" width="8" height="8"/>
  <rect x="144" y="104" width="16" height="8"/>
  <rect x="176" y="104" width="8" height="8"/>
  <rect x="192" y="104" width="8" height="8"/>
  <rect x="216" y="104" width="16" height="8"/>
  <rect x="248" y="104" width="40" height="8"/>
  <rect x="56" y="112" width="8" height="8"/>
  <rect x="96" y="112" width="16" height="8"/>
  <rect x="128" y="112" width="24" height="8"/>
  <rect x="176" y="112" width="32" height="8"/>
  <rect x="224" y="112" width="8" height="8"/>
  <rect x="248" y="112" width="16" height="8"/>
  <rect x="272" y="112" width="16" height="8"/>
  <rect x="296" y="112" width="8" height="8"/>
  <rect x="40" y="120" width="24" height="8"/>
  <rect x="88" y="120" width="8" height="8"/>
  <rect x="112" y="120" width="8" height="8"/>
  <rect x="128" y="120" width="56" height="8"/>
  <rect x="200" y="120" width="8" height="8"/>
  <rect x="216" y="120" width="8" height="8"/>
  <rect x="240" y="120" width="16" height="8"/>
  <rect x="264" y="120" width="8" height="8"/>
  <rect x="280" y="120" width="8" height="8"/>
  <rect x="48" y="128" width="40" height="8"/>
  <rect x="96" y="128" width="24" height="8"/>
  <rect x="144" y="128" width="8" height="8"/>
  <rect x="168" y="128" width="24" height="8"/>
  <rect x="240" y="128" width="16" height="8"/>
  <rect x="264" y="128" width="24" height="8"/>
  <rect x="56" y="136" width="16" height="8"/>
  <rect x="88" y="136" width="8" height="8"/>
  <rect x="104" y="136" width="8" height="8"/>
  <rect x="120" y="136" width="16" height="8"/>
  <rect x="152" y="136" width="8" height="8"/>
  <rect x="168" y="136" width="8" height="8"/>
  <rect x="200" y="136" width="24" height="8"/>
  <rect x="232" y="136" width="16" height="8"/>
  <rect x="264" y="136" width="16" height="8"/>
  <rect x="288" y="136" width="8" height="8"/>
  <rect x="48" y="144" width="32" height="8"/>
  <rect x="104" y="144" width="8" height="8"/>
  <rect x="128" y="144" width="16" height="8"/>
  <rect x="160" y="144" width="8" height="8"/>
  <rect x="184" y="144" width="8" height="8"/>
  <rect x="232" y="144" width="8" height="8"/>
  <rect x="248" y="144" width="16" height="8"/>
  <rect x="272" y="144" width="8" height="8"/>
  <rect x="288" y="144" width="16" height="8"/>
  <rect x="56" y="152" width="24" height="8"/>
  <rect x="88" y="152" width="8" height="8"/>
  <rect x="104" y="152" width="16" height="8"/>
  <rect x="128" y="152" width="8" height="8"/>
  <rect x="152" y="152" width="24" height="8"/>
  <rect x="184" y="152" width="8" height="8"/>
  <rect x="200" y="152" width="16" height="8"/>
  <rect x="232" y="152" width="32" height="8"/>
  <rect x="288" y="152" width="8" height="8"/>
  <rect x="64" y="160" width="24" height="8"/>
  <rect x="96" y="160" width="8" height="8"/>
  <rect x="120" y="160" width="48" height="8"/>
  <rect x="208" y="160" width="16" height="8"/>
  <rect x="232" y="160" width="24" height="8"/>
  <rect x="264" y="160" width="24" height="8"/>
  <rect x="56" y="168" width="8" height="8"/>
  <rect x="72" y="168" width="8" height="8"/>
  <rect x="88" y="168" width="16" height="8"/>
  <rect x="112" y="168" width="24" height="8"/>
  <rect x="152" y="168" width="16" height="8"/>
  <rect x="176" y="168" width="8" height="8"/>
  <rect x="216" y="168" width="8" height="8"/>
  <rect x="232" y="168" width="16" height="8"/>
  <rect x="256" y="168" width="16" height="8"/>
  <rect x="296" y="168" width="8" height="8"/>
  <rect x="64" y="176" width="8" height="8"/>
  <rect x="80" y="176" width="8" height="8"/>
  <rect x="96" y="176" width="24" height="8"/>
  <rect x="136" y="176" width="16" height="8"/>
  <rect x="168" y="176" width="8" height="8"/>
  <rect x="192" y="176" width="24" height="8"/>
  <rect x="224" y="176" width="8" height="8"/>
  <rect x="240" y="176" width="24" height="8"/>
  <rect x="272" y="176" width="32" height="8"/>
  <rect x="40" y="184" width="24" height="8"/>
  <rect x="72" y="184" width="8" height="8"/>
  <rect x="88" y="184" width="16" height="8"/>
  <rect x="112" y="184" width="24" height="8"/>
  <rect x="144" y="184" width="32" height="8"/>
  <rect x="184" y="184" width="8" height="8"/>
  <rect x="208" y="184" width="8" height="8"/>
  <rect x="232" y="184" width="8" height="8"/>
  <rect x="248" y="184" width="24" height="8"/>
  <rect x="280" y="184" width="16" height="8"/>
  <rect x="56" y="192" width="8" height="8"/>
  <rect x="72" y="192" width="16" height="8"/>
  <rect x="96" y="192" width="24" height="8"/>
  <rect x="136" y="192" width="16" height="8"/>
  <rect x="200" y="192" width="32" height="8"/>
  <rect x="240" y="192" width="8" height="8"/>
  <rect x="256" y="192" width="40" height="8"/>
  <rect x="40" y="200" width="16" height="8"/>
  <rect x="72" y="200" width="8" height="8"/>
  <rect x="88" y="200" width="16" height="8"/>
  <rect x="120" y="200" width="32" height="8"/>
  <rect x="160" y="200" width="8" height="8"/>
  <rect x="184" y="200" width="8" height="8"/>
  <rect x="208" y="200" width="8" height="8"/>
  <rect x="240" y="200" width="8" height="8"/>
  <rect x="256" y="200" width="24" height="8"/>
  <rect x="296" y="200" width="8" height="8"/>
  <rect x="40" y="208" width="8" height="8"/>
  <rect x="64" y="208" width="8" height="8"/>
  <rect x="80" y="208" width="8" height="8"/>
  <rect x="112" y="208" width="16" height="8"/>
  <rect x="160" y="208" width="16" height="8"/>
  <rect x="200" y="208" width="24" height="8"/>
  <rect x="232" y="208" width="8" height="8"/>
  <rect x="248" y="208" width="8" height="8"/>
  <rect x="296" y="208" width="8" height="8"/>
  <rect x="40" y="216" width="8" height="8"/>
  <rect x="64" y="216" width="16" height="8"/>
  <rect x="88" y="216" width="8" height="8"/>
  <rect x="112" y="216" width="16" height="8"/>
  <rect x="136" y="216" width="24" height="8"/>
  <rect x="176" y="216" width="24" height="8"/>
  <rect x="216" y="216" width="8" height="8"/>
  <rect x="280" y="216" width="16" height="8"/>
  <rect x="40" y="224" width="8" height="8"/>
  <rect x="56" y="224" width="8" height="8"/>
  <rect x="80" y="224" width="8" height="8"/>
  <rect x="96" y="224" width="32" height="8"/>
  <rect x="168" y="224" width="8" height="8"/>
  <rect x="184" y="224" width="40" height="8"/>
  <rect x="240" y="224" width="16" height="8"/>
  <rect x="264" y="224" width="24" height="8"/>
  <rect x="296" y="224" width="8" height="8"/>
  <rect x="40" y="232" width="8" height="8"/>
  <rect x="56" y="232" width="8" height="8"/>
  <rect x="88" y="232" width="32" height="8"/>
  <rect x="136" y="232" width="8" height="8"/>
  <rect x="152" y="232" width="8" height="8"/>
  <rect x="176" y="232" width="8" height="8"/>
  <rect x="192" y="232" width="16" height="8"/>
  <rect x="216" y="232" width="64" height="8"/>
  <rect x="296" y="232" width="8" height="8"/>
  <rect x="104" y="240" width="8" height="8"/>
  <rect x="136" y="240" width="16" height="8"/>
  <rect x="168" y="240" width="40" height="8"/>
  <rect x="224" y="240" width="16" height="8"/>
  <rect x="264" y="240" width="8" height="8"/>
  <rect x="280" y="240" width="8" height="8"/>
  <rect x="296" y="240" width="8" height="8"/>
  <rect x="40" y="248" width="56" height="8"/>
  <rect x="128" y="248" width="8" height="8"/>
  <rect x="160" y="248" width="8" height="8"/>
  <rect x="176" y="248" width="8" height="8"/>
  <rect x="200" y="248" width="8" height="8"/>
  <rect x="216" y="248" width="24" height="8"/>
  <rect x="248" y="248" width="8" height="8"/>
  <rect x="264" y="248" width="8" height="8"/>
  <rect x="280" y="248" width="16" height="8"/>
  <rect x="40" y="256" width="8" height="8"/>
  <rect x="88" y="256" width="8" height="8"/>
  <rect x="104" y="256" width="8" height="8"/>
  <rect x="120" y="256" width="40" height="8"/>
  <rect x="168" y="256" width="32" height="8"/>
  <rect x="224" y="256" width="16" height="8"/>
  <rect x="264" y="256" width="24" height="8"/>
  <rect x="296" y="256" width="8" height="8"/>
  <rect x="40" y="264" width="8" height="8"/>
  <rect x="56" y="264" width="24" height="8"/>
  <rect x="88" y="264" width="8" height="8"/>
  <rect x="104" y="264" width="8" height="8"/>
  <rect x="136" y="264" width="8" height="8"/>
  <rect x="168" y="264" width="8" height="8"/>
  <rect x="200" y="264" width="24" height="8"/>
  <rect x="232" y="264" width="48" height="8"/>
  <rect x="288" y="264" width="16" height="8"/>
  <rect x="40" y="272" width="8" height="8"/>
  <rect x="56" y="272" width="24" height="8"/>
  <rect x="88" y="272" width="8" height="8"/>
  <rect x="104" y="272" width="32" height="8"/>
  <rect x="144" y="272" width="24" height="8"/>
  <rect x="184" y="272" width="8" height="8"/>
  <rect x="224" y="272" width="8" height="8"/>
  <rect x="240" y="272" width="8" height="8"/>
  <rect x="264" y="272" width="24" height="8"/>
  <rect x="296" y="272" width="8" height="8"/>
  <rect x="40" y="280" width="8" height="8"/>
  <rect x="56" y="280" width="24" height="8"/>
  <rect x="88" y="280" width="8" height="8"/>
  <rect x="104" y="280" width="8" height="8"/>
  <rect x="120" y="280" width="16" height="8"/>
  <rect x="152" y="280" width="24" height="8"/>
  <rect x="200" y="280" width="8" height="8"/>
  <rect x="216" y="280" width="16" height="8"/>
  <rect x="248" y="280" width="16" height="8"/>
  <rect x="280" y="280" width="8" height="8"/>
  <rect x="40" y="288" width="8" height="8"/>
  <rect x="88" y="288" width="8" height="8"/>
  <rect x="112" y="288" width="24" height="8"/>
  <rect x="144" y="288" width="8" height="8"/>
  <rect x="160" y="288" width="8" height="8"/>
  <rect x="184" y="288" width="8" height="8"/>
  <rect x="208" y="288" width="8" height="8"/>
  <rect x="224" y="288" width="8" height="8"/>
  <rect x="240" y="288" width="8" height="8"/>
  <rect x="264" y="288" width="24" height="8"/>
  <rect x="40" y="296" width="56" height="8"/>
  <rect x="104" y="296" width="8" height="8"/>
  <rect x="136" y="296" width="8" height="8"/>
  <rect x="152" y="296" width="16" height="8"/>
  <rect x="176" y="296" width="16" height="8"/>
  <rect x="200" y="296" width="8" height="8"/>
  <rect x="216" y="296" width="8" height="8"/>
  <rect x="232" y="296" width="8" height="8"/>
  <rect x="256" y="296" width="8" height="8"/>
  <rect x="288" y="296" width="8" height="8"/>
</g>
</svg>