<svg xmlns="http://www.w3.org/2000/svg" viewBox="0 0 1000 1000" width="1000" height="1000">
  <g transform="translate(110 100) scale(780.0 780.0) translate(-0.0 -0.0)">
<path d="M 0.15394112549695427 0.9139411254969543 L 0.16647123564539917 0.902344251518415 L 0.17054021096851146 0.8822862427145433 L 0.18302945982112886 0.8706485074401765 L 0.19548854545497232 0.8589806089470359 L 0.20791951107265283 0.8472845904377322 L 0.22032390949309755 0.8355620047311928 L 0.23270299998426644 0.8238141110953776 L 0.24505784685400964 0.8120419738381366 L 0.25738937578785737 0.8002465186450003 L 0.269698409002815 0.7884285677329738 L 0.28198568861986995 0.7765888632230447 L 0.2942518929700132 0.7647280834462037 L 0.3064976484093462 0.7528468547585525 L 0.3187235381462654 0.7409457603684877 L 0.3309301090052021 0.7290253471004401 L 0.3431178767205623 0.7170861306888163 L 0.3552873301560065 0.7051285999972763 L 0.37460028935261863 0.7003145750669043 L 0.38662490313998704 0.6882122047272886 L 0.3986294523951684 0.6760897698554857 L 0.4106144217394771 0.6639477550728106 L 0.42258027840634865 0.6517866276126979 L 0.4345274739143922 0.6396068389937573 L 0.4464564455084342 0.6274088264608152 L 0.45836761740943766 0.6151930142348345 L 0.47026140190558413 0.602959814603997 L 0.48213820031028365 0.5907096288817122 L 0.48806338094109236 0.5725078253855368 L 0.5058423942038469 0.5661598545213072 L 0.517670544593539 0.5538610207840152 L 0.5294832199605168 0.541546712024009 L 0.5412807777143369 0.5292172856508448 L 0.5530635681755087 0.5168730919850324 L 0.5648319350143896 0.5045144746969292 L 0.5765862156496663 0.4921417712052219 L 0.5805862156496663 0.4702135992884706 L 0.5908228419919459 0.45812442929353314 L 0.60730970475826 0.45048430793286326 L 0.6234690251885487 0.4425166442361678 L 0.6392952580470574 0.43421589296769236 L 0.6508086629009073 0.42160231369455814 L 0.6623083688392144 0.40897503550588127 L 0.6701520455073705 0.3926917280470531 L 0.6852680558881616 0.38368075430086007 L 0.6967287119870043 0.3710144262727184 L 0.7050448093114661 0.35520353947019623 L 0.7136957229869514 0.33972746901869727 L 0.7282540817202199 0.33015884362498177 L 0.7372364709039448 0.3150142486817226 L 0.7465652144212055 0.3002160080719993 L 0.7562448828310235 0.2857686923548331 L 0.7683490277935416 0.27374585319036715 L 0.7785614415875148 0.2598312828573562 L 0.7891361813521803 0.24627903849503757 L 0.8015960197341763 0.23461189275004937 L 0.8127211467893779 0.22161003567826673 L 0.825417127332022 0.21017903209392663 L 0.8356593817011894 0.19629430233610995 L 0.8459210309992121 0.1824289675071486 L 0.8611477820842179 0.17352873446517036 L 0.8714288263110962 0.1596827945650644 L 0.8817292654668297 0.14585624959381394 L 0.8920490995514188 0.13204909955141877 Z"
          fill="black"
          stroke="black"
          stroke-width="0.006"
          stroke-linejoin="round"
          stroke-linecap="round" />
</g>
  <g transform="translate(690 690) scale(0.5232558139534884 0.5232558139534884) translate(-0.0 -0.0)">
<rect x="40" y="40" width="56" height="8"/>
  <rect x="104" y="40" width="16" height="8"/>
  <rect x="128" y="40" width="8" height="8"/>
  <rect x="160" y="40" width="32" height="8"/>
  <rect x="208" y="40" width="8" height="8"/>
  <rect x="224" y="40" width="8" height="8"/>
  <rect x="248" y="40" width="56" height="8"/>
  <rect x="40" y="48" width="8" height="8"/>
  <rect x="88" y="48" width="8" height="8"/>
  <rect x="112" y="48" width="16" height="8"/>
  <rect x="136" y="48" width="8" height="8"/>
  <rect x="168" y="48" width="16" height="8"/>
  <rect x="192" y="48" width="32" height="8"/>
  <rect x="232" y="48" width="8" height="8"/>
  <rect x="248" y="48" width="8" height="8"/>
  <rect x="296" y="48" width="8" height="8"/>
  <rect x="40" y="56" width="8" height="8"/>
  <rect x="56" y="56" width="24" height="8"/>
  <rect x="88" y="56" width="8" height="8"/>
  <rect x="112" y="56" width="40" height="8"/>
  <rect x="192" y="56" width="16" height="8"/>
  <rect x="216" y="56" width="8" height="8"/>
  <rect x="248" y="56" width="8" height="8"/>
  <rect x="264" y="56" width="24" height="8"/>
  <rect x="296" y="56" width="8" height="8"/>
  <rect x="40" y="64" width="8" height="8"/>
  <rect x="56" y="64" width="24" height="8"/>
  <rect x="88" y="64" width="8" height="8"/>
  <rect x="104" y="64" width="32" height="8"/>
  <rect x="152" y="64" width="8" height="8"/>
  <rect x="176" y="64" width="40" height="8"/>
  <rect x="224" y="64" width="8" height="8"/>
  <rect x="248" y="64" width="8" height="8"/>
  <rect x="264" y="64" width="24" height="8"/>
  <rect x="296" y="64" width="8" height="8"/>
  <rect x="40" y="72" width="8" height="8"/>
  <rect x="56" y="72" width="24" height="8"/>
  <rect x="88" y="72" width="8" height="8"/>
  <rect x="104" y="72" width="8" height="8"/>
  <rect x="144" y="72" width="16" height="8"/>
  <rect x="184" y="72" width="24" height="8"/>
  <rect x="232" y="72" width="8" height="8"/>
  <rect x="248" y="72" width="8" height="8"/>
  <rect x="264" y="72" width="24" height="8"/>
  <rect x="296" y="72" width="8" height="8"/>
  <rect x="40" y="80" width="8" height="8"/>
  <rect x="88" y="80" width="8" height="8"/>
  <rect x="104" y="80" width="16" height="8"/>
  <rect x="128" y="80" width="24" height="8"/>
  <rect x="168" y="80" width="8" height="8"/>
  <rect x="192" y="80" width="8" height="8"/>
  <rect x="216" y="80" width="8" height="8"/>
  <rect x="232" y="80" width="8" height="8"/>
  <rect x="248" y="80" width="8" height="8"/>
  <rect x="296" y="80" width="8" height="8"/>
  <rect x="40" y="88" width="56" height="8"/>
  <rect x="104" y="88" width="8" height="8"/>
  <rect x="120" y="88" width="8" height="8"/>
  <rect x="136" y="88" width="8" height="8"/>
  <rect x="152" y="88" width="8" height="8"/>
  <rect x="168" y="88" width="8" height="8"/>
  <rect x="184" y="88" width="8" height="8"/>
  <rect x="200" y="88" width="8" height="8"/>
  <rect x="216" y="88" width="8" height="8"/>
  <rect x="232" y="88" width="8" height="8"/>
  <rect x="248" y="88" width="56" height="8"/>
  <rect x="104" y="96" width="8" height="8"/>
  <rect x="120" y="96" width="16" height="8"/>
  <rect x="152" y="96" width="32" height="8"/>
  <rect x="208" y="96" width="8" height="8"/>
  <rect x="224" y="96" width="8" height="8"/>
  <rect x="40" y="104" width="8" height="8"/>
  <rect x="72" y="104" width="8" height="8"/>
  <rect x="88" y="104" width="24" height="8"/>
  <rect x="120" y="104" width="24" height="8"/>
  <rect x="176" y="104" width="8" height="8"/>
  <rect x="192" y="104" width="32" height="8"/>
  <rect x="240" y="104" width="40" height="8"/>
  <rect x="296" y="104" width="8" height="8"/>
  <rect x="40" y="112" width="8" height="8"/>
  <rect x="64" y="112" width="8" height="8"/>
  <rect x="104" y="112" width="16" height="8"/>
  <rect x="128" y="112" width="40" height="8"/>
  <rect x="184" y="112" width="8" height="8"/>
  <rect x="224" y="112" width="8" height="8"/>
  <rect x="240" y="112" width="8" height="8"/>
  <rect x="272" y="112" width="24" height="8"/>
  <rect x="56" y="120" width="8" height="8"/>
  <rect x="72" y="120" width="24" height="8"/>
  <rect x="104" y="120" width="16" height="8"/>
  <rect x="160" y="120" width="8" height="8"/>
  <rect x="176" y="120" width="8" height="8"/>
  <rect x="200" y="120" width="56" height="8"/>
  <rect x="272" y="120" width="8" height="8"/>
  <rect x="40" y="128" width="8" height="8"/>
  <rect x="64" y="128" width="24" height="8"/>
  <rect x="136" y="128" width="8" height="8"/>
  <rect x="152" y="128" width="8" height="8"/>
  <rect x="176" y="128" width="16" height="8"/>
  <rect x="208" y="128" width="8" height="8"/>
  <rect x="224" y="128" width="32" height="8"/>
  <rect x="40" y="136" width="8" height="8"/>
  <rect x="56" y="136" width="8" height="8"/>
  <rect x="72" y="136" width="8" height="8"/>
  <rect x="88" y="136" width="8" height="8"/>
  <rect x="104" y="136" width="24" height="8"/>
  <rect x="136" y="136" width="32" height="8"/>
  <rect x="184" y="136" width="24" height="8"/>
  <rect x="248" y="136" width="32" height="8"/>
  <rect x="296" y="136" width="8" height="8"/>
  <rect x="40" y="144" width="8" height="8"/>
  <rect x="64" y="144" width="8" height="8"/>
  <rect x="80" y="144" width="8" height="8"/>
  <rect x="104" y="144" width="8" height="8"/>
  <rect x="120" y="144" width="16" height="8"/>
  <rect x="144" y="144" width="8" height="8"/>
  <rect x="168" y="144" width="8" height="8"/>
  <rect x="192" y="144" width="8" height="8"/>
  <rect x="208" y="144" width="40" height="8"/>
  <rect x="272" y="144" width="8" height="8"/>
  <rect x="40" y="152" width="8" height="8"/>
  <rect x="72" y="152" width="24" height="8"/>
  <rect x="120" y="152" width="8" height="8"/>
  <rect x="144" y="152" width="8" height="8"/>
  <rect x="168" y="152" width="16" height="8"/>
  <rect x="192" y="152" width="8" height="8"/>
  <rect x="208" y="152" width="88" height="8"/>
  <rect x="40" y="160" width="8" height="8"/>
  <rect x="64" y="160" width="8" height="8"/>
  <rect x="104" y="160" width="8" height="8"/>
  <rect x="120" y="160" width="8" height="8"/>
  <rect x="144" y="160" width="16" height="8"/>
  <rect x="176" y="160" width="40" height="8"/>
  <rect x="224" y="160" width="8" height="8"/>
  <rect x="240" y="160" width="16" height="8"/>
  <rect x="64" y="168" width="32" height="8"/>
  <rect x="112" y="168" width="8" height="8"/>
  <rect x="128" y="168" width="8" height="8"/>
  <rect x="144" y="168" width="24" height="8"/>
  <rect x="176" y="168" width="8" height="8"/>
  <rect x="200" y="168" width="40" height="8"/>
  <rect x="248" y="168" width="8" height="8"/>
  <rect x="264" y="168" width="8" height="8"/>
  <rect x="288" y="168" width="8" height="8"/>
  <rect x="48" y="176" width="32" height="8"/>
  <rect x="144" y="176" width="40" height="8"/>
  <rect x="208" y="176" width="8" height="8"/>
  <rect x="224" y="176" width="8" height="8"/>
  <rect x="272" y="176" width="16" height="8"/>
  <rect x="40" y="184" width="40" height="8"/>
  <rect x="88" y="184" width="16" height="8"/>
  <rect x="128" y="184" width="8" height="8"/>
  <rect x="144" y="184" width="8" height="8"/>
  <rect x="160" y="184" width="8" height="8"/>
  <rect x="184" y="184" width="8" height="8"/>
  <rect x="224" y="184" width="8" height="8"/>
  <rect x="248" y="184" width="16" height="8"/>
  <rect x="272" y="184" width="8" height="8"/>
  <rect x="288" y="184" width="8" height="8"/>
  <rect x="40" y="192" width="8" height="8"/>
  <rect x="80" y="192" width="8" height="8"/>
  <rect x="96" y="192" width="16" height="8"/>
  <rect x="128" y="192" width="8" height="8"/>
  <rect x="168" y="192" width="8" height="8"/>
  <rect x="200" y="192" width="8" height="8"/>
  <rect x="216" y="192" width="8" height="8"/>
  <rect x="232" y="192" width="16" height="8"/>
  <rect x="256" y="192" width="8" height="8"/>
  <rect x="288" y="192" width="8" height="8"/>
  <rect x="40" y="200" width="8" height="8"/>
  <rect x="56" y="200" width="24" height="8"/>
  <rect x="88" y="200" width="8" height="8"/>
  <rect x="104" y="200" width="8" height="8"/>
  <rect x="120" y="200" width="8" height="8"/>
  <rect x="136" y="200" width="8" height="8"/>
  <rect x="168" y="200" width="8" height="8"/>
  <rect x="192" y="200" width="8" height="8"/>
  <rect x="216" y="200" width="8" height="8"/>
  <rect x="248" y="200" width="8" height="8"/>
  <rect x="264" y="200" width="16" height="8"/>
  <rect x="288" y="200" width="8" height="8"/>
  <rect x="40" y="208" width="8" height="8"/>
  <rect x="56" y="208" width="8" height="8"/>
  <rect x="72" y="208" width="16" height="8"/>
  <rect x="112" y="208" width="24" height="8"/>
  <rect x="144" y="208" width="8" height="8"/>
  <rect x="184" y="208" width="24" height="8"/>
  <rect x="224" y="208" width="24" height="8"/>
  <rect x="256" y="208" width="8" height="8"/>
  <rect x="288" y="208" width="8" height="8"/>
  <rect x="80" y="216" width="24" height="8"/>
  <rect x="112" y="216" width="8" height="8"/>
  <rect x="152" y="216" width="16" height="8"/>
  <rect x="200" y="216" width="8" height="8"/>
  <rect x="224" y="216" width="16" height="8"/>
  <rect x="264" y="216" width="16" height="8"/>
  <rect x="288" y="216" width="8" height="8"/>
  <rect x="56" y="224" width="8" height="8"/>
  <rect x="72" y="224" width="8" height="8"/>
  <rect x="96" y="224" width="8" height="8"/>
  <rect x="112" y="224" width="24" height="8"/>
  <rect x="152" y="224" width="32" height="8"/>
  <rect x="208" y="224" width="8" height="8"/>
  <rect x="224" y="224" width="32" height="8"/>
  <rect x="40" y="232" width="32" height="8"/>
  <rect x="88" y="232" width="8" height="8"/>
  <rect x="112" y="232" width="16" height="8"/>
  <rect x="152" y="232" width="8" height="8"/>
  <rect x="176" y="232" width="8" height="8"/>
  <rect x="192" y="232" width="8" height="8"/>
  <rect x="208" y="232" width="72" height="8"/>
  <rect x="104" y="240" width="24" height="8"/>
  <rect x="136" y="240" width="40" height="8"/>
  <rect x="184" y="240" width="8" height="8"/>
  <rect x="224" y="240" width="16" height="8"/>
  <rect x="264" y="240" width="8" height="8"/>
  <rect x="280" y="240" width="16" height="8"/>
  <rect x="40" y="248" width="56" height="8"/>
  <rect x="104" y="248" width="8" height="8"/>
  <rect x="128" y="248" width="16" height="8"/>
  <rect x="160" y="248" width="24" height="8"/>
  <rect x="200" y="248" width="24" height="8"/>
  <rect x="232" y="248" width="8" height="8"/>
  <rect x="248" y="248" width="8" height="8"/>
  <rect x="264" y="248" width="16" height="8"/>
  <rect x="288" y="248" width="8" height="8"/>
  <rect x="40" y="256" width="8" height="8"/>
  <rect x="88" y="256" width="8" height="8"/>
  <rect x="112" y="256" width="32" height="8"/>
  <rect x="152" y="256" width="8" height="8"/>
  <rect x="176" y="256" width="24" height="8"/>
  <rect x="208" y="256" width="8" height="8"/>
  <rect x="232" y="256" width="8" height="8"/>
  <rect x="264" y="256" width="8" height="8"/>
  <rect x="296" y="256" width="8" height="8"/>
  <rect x="40" y="264" width="8" height="8"/>
  <rect x="56" y="264" width="24" height="8"/>
  <rect x="88" y="264" width="8" height="8"/>
  <rect x="104" y="264" width="16" height="8"/>
  <rect x="144" y="264" width="24" height="8"/>
  <rect x="184" y="264" width="24" height="8"/>
  <rect x="232" y="264" width="48" height="8"/>
  <rect x="40" y="272" width="8" height="8"/>
  <rect x="56" y="272" width="24" height="8"/>
  <rect x="88" y="272" width="8" height="8"/>
  <rect x="120" y="272" width="16" height="8"/>
  <rect x="144" y="272" width="8" height="8"/>
  <rect x="168" y="272" width="8" height="8"/>
  <rect x="192" y="272" width="8" height="8"/>
  <rect x="208" y="272" width="24" height="8"/>
  <rect x="248" y="272" width="48" height="8"/>
  <rect x="40" y="280" width="8" height="8"/>
  <rect x="56" y="280" width="24" height="8"/>
  <rect x="88" y="280" width="8" height="8"/>
  <rect x="112" y="280" width="8" height="8"/>
  <rect x="128" y="280" width="8" height="8"/>
  <rect x="168" y="280" width="32" height="8"/>
  <rect x="232" y="280" width="8" height="8"/>
  <rect x="248" y="280" width="32" height="8"/>
  <rect x="40" y="288" width="8" height="8"/>
  <rect x="88" y="288" width="8" height="8"/>
  <rect x="128" y="288" width="8" height="8"/>
  <rect x="176" y="288" width="8" height="8"/>
  <rect x="192" y="288" width="32" height="8"/>
  <rect x="232" y="288" width="16" height="8"/>
  <rect x="40" y="296" width="56" height="8"/>
  <rect x="104" y="296" width="40" height="8"/>
  <rect x="152" y="296" width="16" height="8"/>
  <rect x="176" y="296" width="16" height="8"/>
  <rect x="208" y="296" width="16" height="8"/>
  <rect x="232" y="296" width="24" height="8"/>
  <rect x="296" y="296" width="8" height="8"/>
</g>
</svg>