<svg xmlns="http://www.w3.org/2000/svg" viewBox="0 0 1000 1000" width="1000" height="1000">
  <g transform="translate(110 100) scale(780.0 780.0) translate(-0.0 -0.0)">
<path d="M 0.13697056274847713 0.8969705627484772 L 0.1580177722626604 0.8938907881356762 L 0.1621257454743804 0.8738717772204122 L 0.17466002673437528 0.8622790743534229 L 0.1871696289971915 0.850661692489255 L 0.2161827981712495 0.8555478775363289 L 0.22852673683301258 0.8437648320711079 L 0.2408407661238134 0.8319518772349246 L 0.25312614386202015 0.8201102708461471 L 0.26538396403962317 0.8082411068967661 L 0.269698409002815 0.7884285677329738 L 0.28198568861986995 0.7765888632230447 L 0.2942518929700132 0.7647280834462037 L 0.3064976484093462 0.7528468547585525 L 0.3187235381462654 0.7409457603684877 L 0.3309301090052021 0.7290253471004401 L 0.3431178767205623 0.7170861306888163 L 0.3552873301560065 0.7051285999972763 L 0.3674389347201984 0.6931532204344841 L 0.37957313517000146 0.6811604367573031 L 0.39169035793872314 0.6691506753990406 L 0.4037910130905526 0.6571243464238861 L 0.4158754959768583 0.6450818451832075 L 0.4213609033893038 0.6264402684686688 L 0.43999746109191334 0.6209498420442944 L 0.4520356722532537 0.6088610690786507 L 0.47026140190558413 0.602959814603997 L 0.48213820031028365 0.5907096288817122 L 0.4939984038078687 0.5784428482523131 L 0.5058423942038469 0.5661598545213072 L 0.512012708403796 0.5482031845942723 L 0.5294832199605168 0.541546712024009 L 0.5359096524577616 0.5238461603942695 L 0.5478392331700136 0.5116487569795373 L 0.5699072607499904 0.5095898004325301 L 0.5815103650071262 0.49706592056268173 L 0.593097598486918 0.48452616991548947 L 0.6046693373115335 0.47197092461312073 L 0.616225951540988 0.45940055471559127 L 0.6277678054946407 0.4468154245422597 L 0.6351577410130691 0.43007837593370407 L 0.6468342821654982 0.41762793295914896 L 0.6584989509244568 0.40516561759112363 L 0.6665093710557328 0.3890490535954154 L 0.6817938602583961 0.3802065586710944 L 0.6901206596592999 0.3644063739450141 L 0.7050448093114661 0.35520353947019623 L 0.7136957229869514 0.33972746901869727 L 0.7254702686921388 0.32737503059690076 L 0.7372364709039448 0.3150142486817226 L 0.7465652144212055 0.3002160080719993 L 0.7584948269778092 0.2880186365016187 L 0.7683490277935416 0.27374585319036715 L 0.7785614415875148 0.2598312828573562 L 0.7891361813521803 0.24627903849503757 L 0.7985583756753387 0.23157424869121176 L 0.8113882807771055 0.22027716966599434 L 0.8241661544208485 0.20892805918275317 L 0.8344132575222297 0.19504817815715036 L 0.8459210309992121 0.1824289675071486 L 0.8562020752260903 0.16858302760704275 L 0.8701972483287781 0.15845121658274633 L 0.8817292654668297 0.14585624959381394 L 0.8920490995514188 0.13204909955141877 Z"
          fill="black"
          stroke="black"
          stroke-width="0.006"
          stroke-linejoin="round"
          stroke-linecap="round" />
</g>
  <g transform="translate(690 690) scale(0.5232558139534884 0.5232558139534884) translate(-0.0 -0.0)">
<rect x="40" y="40" width="56" height="8"/>
  <rect x="112" y="40" width="8" height="8"/>
  <rect x="128" y="40" width="8" height="8"/>
  <rect x="144" y="40" width="8" height="8"/>
  <rect x="160" y="40" width="8" height="8"/>
  <rect x="192" y="40" width="8" height="8"/>
  <rect x="216" y="40" width="16" height="8"/>
  <rect x="248" y="40" width="56" height="8"/>
  <rect x="40" y="48" width="8" height="8"/>
  <rect x="88" y="48" width="8" height="8"/>
  <rect x="104" y="48" width="8" height="8"/>
  <rect x="120" y="48" width="8" height="8"/>
  <rect x="144" y="48" width="56" height="8"/>
  <rect x="208" y="48" width="24" height="8"/>
  <rect x="248" y="48" width="8" height="8"/>
  <rect x="296" y="48" width="8" height="8"/>
  <rect x="40" y="56" width="8" height="8"/>
  <rect x="56" y="56" width="24" height="8"/>
  <rect x="88" y="56" width="8" height="8"/>
  <rect x="120" y="56" width="8" height="8"/>
  <rect x="136" y="56" width="32" height="8"/>
  <rect x="184" y="56" width="8" height="8"/>
  <rect x="200" y="56" width="8" height="8"/>
  <rect x="216" y="56" width="8" height="8"/>
  <rect x="232" y="56" width="8" height="8"/>
  <rect x="248" y="56" width="8" height="8"/>
  <rect x="264" y="56" width="24" height="8"/>
  <rect x="296" y="56" width="8" height="8"/>
  <rect x="40" y="64" width="8" height="8"/>
  <rect x="56" y="64" width="24" height="8"/>
  <rect x="88" y="64" width="8" height="8"/>
  <rect x="128" y="64" width="8" height="8"/>
  <rect x="144" y="64" width="8" height="8"/>
  <rect x="184" y="64" width="8" height="8"/>
  <rect x="200" y="64" width="8" height="8"/>
  <rect x="224" y="64" width="8" height="8"/>
  <rect x="248" y="64" width="8" height="8"/>
  <rect x="264" y="64" width="24" height="8"/>
  <rect x="296" y="64" width="8" height="8"/>
  <rect x="40" y="72" width="8" height="8"/>
  <rect x="56" y="72" width="24" height="8"/>
  <rect x="88" y="72" width="8" height="8"/>
  <rect x="104" y="72" width="8" height="8"/>
  <rect x="152" y="72" width="8" height="8"/>
  <rect x="168" y="72" width="8" height="8"/>
  <rect x="184" y="72" width="16" height="8"/>
  <rect x="208" y="72" width="24" height="8"/>
  <rect x="248" y="72" width="8" height="8"/>
  <rect x="264" y="72" width="24" height="8"/>
  <rect x="296" y="72" width="8" height="8"/>
  <rect x="40" y="80" width="8" height="8"/>
  <rect x="88" y="80" width="8" height="8"/>
  <rect x="112" y="80" width="16" height="8"/>
  <rect x="152" y="80" width="16" height="8"/>
  <rect x="176" y="80" width="24" height="8"/>
  <rect x="216" y="80" width="16" height="8"/>
  <rect x="248" y="80" width="8" height="8"/>
  <rect x="296" y="80" width="8" height="8"/>
  <rect x="40" y="88" width="56" height="8"/>
  <rect x="104" y="88" width="8" height="8"/>
  <rect x="120" y="88" width="8" height="8"/>
  <rect x="136" y="88" width="8" height="8"/>
  <rect x="152" y="88" width="8" height="8"/>
  <rect x="168" y="88" width="8" height="8"/>
  <rect x="184" y="88" width="8" height="8"/>
  <rect x="200" y="88" width="8" height="8"/>
  <rect x="216" y="88" width="8" height="8"/>
  <rect x="232" y="88" width="8" height="8"/>
  <rect x="248" y="88" width="56" height="8"/>
  <rect x="120" y="96" width="32" height="8"/>
  <rect x="160" y="96" width="8" height="8"/>
  <rect x="176" y="96" width="24" height="8"/>
  <rect x="208" y="96" width="16" height="8"/>
  <rect x="40" y="104" width="8" height="8"/>
  <rect x="56" y="104" width="8" height="8"/>
  <rect x="72" y="104" width="8" height="8"/>
  <rect x="88" y="104" width="8" height="8"/>
  <rect x="112" y="104" width="8" height="8"/>
  <rect x="128" y="104" width="24" height="8"/>
  <rect x="168" y="104" width="16" height="8"/>
  <rect x="192" y="104" width="24" height="8"/>
  <rect x="264" y="104" width="8" height="8"/>
  <rect x="288" y="104" width="8" height="8"/>
  <rect x="48" y="112" width="8" height="8"/>
  <rect x="64" y="112" width="16" height="8"/>
  <rect x="104" y="112" width="16" height="8"/>
  <rect x="128" y="112" width="8" height="8"/>
  <rect x="144" y="112" width="8" height="8"/>
  <rect x="168" y="112" width="8" height="8"/>
  <rect x="200" y="112" width="8" height="8"/>
  <rect x="232" y="112" width="32" height="8"/>
  <rect x="288" y="112" width="16" height="8"/>
  <rect x="40" y="120" width="8" height="8"/>
  <rect x="72" y="120" width="24" height="8"/>
  <rect x="104" y="120" width="24" height="8"/>
  <rect x="200" y="120" width="16" height="8"/>
  <rect x="240" y="120" width="24" height="8"/>
  <rect x="280" y="120" width="24" height="8"/>
  <rect x="40" y="128" width="8" height="8"/>
  <rect x="56" y="128" width="8" height="8"/>
  <rect x="72" y="128" width="16" height="8"/>
  <rect x="104" y="128" width="16" height="8"/>
  <rect x="144" y="128" width="16" height="8"/>
  <rect x="176" y="128" width="48" height="8"/>
  <rect x="232" y="128" width="16" height="8"/>
  <rect x="264" y="128" width="8" height="8"/>
  <rect x="48" y="136" width="8" height="8"/>
  <rect x="64" y="136" width="8" height="8"/>
  <rect x="88" y="136" width="16" height="8"/>
  <rect x="112" y="136" width="8" height="8"/>
  <rect x="152" y="136" width="8" height="8"/>
  <rect x="176" y="136" width="8" height="8"/>
  <rect x="200" y="136" width="16" height="8"/>
  <rect x="224" y="136" width="8" height="8"/>
  <rect x="240" y="136" width="24" height="8"/>
  <rect x="272" y="136" width="8" height="8"/>
  <rect x="288" y="136" width="16" height="8"/>
  <rect x="40" y="144" width="8" height="8"/>
  <rect x="56" y="144" width="16" height="8"/>
  <rect x="80" y="144" width="8" height="8"/>
  <rect x="104" y="144" width="24" height="8"/>
  <rect x="136" y="144" width="8" height="8"/>
  <rect x="160" y="144" width="8" height="8"/>
  <rect x="176" y="144" width="8" height="8"/>
  <rect x="200" y="144" width="24" height="8"/>
  <rect x="232" y="144" width="24" height="8"/>
  <rect x="272" y="144" width="16" height="8"/>
  <rect x="296" y="144" width="8" height="8"/>
  <rect x="48" y="152" width="8" height="8"/>
  <rect x="80" y="152" width="16" height="8"/>
  <rect x="112" y="152" width="8" height="8"/>
  <rect x="136" y="152" width="16" height="8"/>
  <rect x="176" y="152" width="16" height="8"/>
  <rect x="200" y="152" width="8" height="8"/>
  <rect x="240" y="152" width="8" height="8"/>
  <rect x="256" y="152" width="8" height="8"/>
  <rect x="272" y="152" width="32" height="8"/>
  <rect x="48" y="160" width="8" height="8"/>
  <rect x="64" y="160" width="24" height="8"/>
  <rect x="128" y="160" width="8" height="8"/>
  <rect x="144" y="160" width="8" height="8"/>
  <rect x="160" y="160" width="24" height="8"/>
  <rect x="200" y="160" width="32" height="8"/>
  <rect x="248" y="160" width="16" height="8"/>
  <rect x="288" y="160" width="8" height="8"/>
  <rect x="40" y="168" width="8" height="8"/>
  <rect x="64" y="168" width="16" height="8"/>
  <rect x="88" y="168" width="16" height="8"/>
  <rect x="112" y="168" width="8" height="8"/>
  <rect x="136" y="168" width="8" height="8"/>
  <rect x="152" y="168" width="16" height="8"/>
  <rect x="176" y="168" width="24" height="8"/>
  <rect x="208" y="168" width="8" height="8"/>
  <rect x="232" y="168" width="24" height="8"/>
  <rect x="40" y="176" width="16" height="8"/>
  <rect x="96" y="176" width="8" height="8"/>
  <rect x="120" y="176" width="8" height="8"/>
  <rect x="136" y="176" width="8" height="8"/>
  <rect x="152" y="176" width="8" height="8"/>
  <rect x="168" y="176" width="8" height="8"/>
  <rect x="200" y="176" width="24" height="8"/>
  <rect x="232" y="176" width="8" height="8"/>
  <rect x="248" y="176" width="16" height="8"/>
  <rect x="288" y="176" width="16" height="8"/>
  <rect x="64" y="184" width="16" height="8"/>
  <rect x="88" y="184" width="16" height="8"/>
  <rect x="128" y="184" width="8" height="8"/>
  <rect x="144" y="184" width="16" height="8"/>
  <rect x="232" y="184" width="8" height="8"/>
  <rect x="248" y="184" width="8" height="8"/>
  <rect x="280" y="184" width="24" height="8"/>
  <rect x="40" y="192" width="16" height="8"/>
  <rect x="72" y="192" width="8" height="8"/>
  <rect x="112" y="192" width="8" height="8"/>
  <rect x="128" y="192" width="8" height="8"/>
  <rect x="168" y="192" width="16" height="8"/>
  <rect x="192" y="192" width="8" height="8"/>
  <rect x="208" y="192" width="16" height="8"/>
  <rect x="256" y="192" width="16" height="8"/>
  <rect x="288" y="192" width="16" height="8"/>
  <rect x="40" y="200" width="8" height="8"/>
  <rect x="88" y="200" width="8" height="8"/>
  <rect x="136" y="200" width="8" height="8"/>
  <rect x="160" y="200" width="8" height="8"/>
  <rect x="176" y="200" width="40" height="8"/>
  <rect x="232" y="200" width="32" height="8"/>
  <rect x="272" y="200" width="8" height="8"/>
  <rect x="296" y="200" width="8" height="8"/>
  <rect x="48" y="208" width="8" height="8"/>
  <rect x="64" y="208" width="16" height="8"/>
  <rect x="104" y="208" width="24" height="8"/>
  <rect x="144" y="208" width="16" height="8"/>
  <rect x="184" y="208" width="8" height="8"/>
  <rect x="208" y="208" width="8" height="8"/>
  <rect x="232" y="208" width="24" height="8"/>
  <rect x="288" y="208" width="16" height="8"/>
  <rect x="40" y="216" width="8" height="8"/>
  <rect x="72" y="216" width="24" height="8"/>
  <rect x="112" y="216" width="8" height="8"/>
  <rect x="128" y="216" width="24" height="8"/>
  <rect x="168" y="216" width="16" height="8"/>
  <rect x="200" y="216" width="8" height="8"/>
  <rect x="232" y="216" width="8" height="8"/>
  <rect x="256" y="216" width="24" height="8"/>
  <rect x="288" y="216" width="16" height="8"/>
  <rect x="48" y="224" width="8" height="8"/>
  <rect x="64" y="224" width="8" height="8"/>
  <rect x="80" y="224" width="8" height="8"/>
  <rect x="96" y="224" width="8" height="8"/>
  <rect x="128" y="224" width="8" height="8"/>
  <rect x="144" y="224" width="40" height="8"/>
  <rect x="192" y="224" width="24" height="8"/>
  <rect x="224" y="224" width="32" height="8"/>
  <rect x="264" y="224" width="8" height="8"/>
  <rect x="296" y="224" width="8" height="8"/>
  <rect x="40" y="232" width="8" height="8"/>
  <rect x="56" y="232" width="56" height="8"/>
  <rect x="128" y="232" width="8" height="8"/>
  <rect x="144" y="232" width="16" height="8"/>
  <rect x="168" y="232" width="16" height="8"/>
  <rect x="200" y="232" width="24" height="8"/>
  <rect x="232" y="232" width="40" height="8"/>
  <rect x="104" y="240" width="16" height="8"/>
  <rect x="136" y="240" width="8" height="8"/>
  <rect x="152" y="240" width="8" height="8"/>
  <rect x="200" y="240" width="8" height="8"/>
  <rect x="232" y="240" width="8" height="8"/>
  <rect x="264" y="240" width="16" height="8"/>
  <rect x="296" y="240" width="8" height="8"/>
  <rect x="40" y="248" width="56" height="8"/>
  <rect x="112" y="248" width="24" height="8"/>
  <rect x="152" y="248" width="8" height="8"/>
  <rect x="176" y="248" width="8" height="8"/>
  <rect x="208" y="248" width="8" height="8"/>
  <rect x="224" y="248" width="16" height="8"/>
  <rect x="248" y="248" width="8" height="8"/>
  <rect x="264" y="248" width="8" height="8"/>
  <rect x="280" y="248" width="24" height="8"/>
  <rect x="40" y="256" width="8" height="8"/>
  <rect x="88" y="256" width="8" height="8"/>
  <rect x="112" y="256" width="24" height="8"/>
  <rect x="168" y="256" width="24" height="8"/>
  <rect x="200" y="256" width="16" height="8"/>
  <rect x="232" y="256" width="8" height="8"/>
  <rect x="264" y="256" width="8" height="8"/>
  <rect x="40" y="264" width="8" height="8"/>
  <rect x="56" y="264" width="24" height="8"/>
  <rect x="88" y="264" width="8" height="8"/>
  <rect x="104" y="264" width="40" height="8"/>
  <rect x="152" y="264" width="32" height="8"/>
  <rect x="208" y="264" width="8" height="8"/>
  <rect x="232" y="264" width="48" height="8"/>
  <rect x="288" y="264" width="16" height="8"/>
  <rect x="40" y="272" width="8" height="8"/>
  <rect x="56" y="272" width="24" height="8"/>
  <rect x="88" y="272" width="8" height="8"/>
  <rect x="112" y="272" width="8" height="8"/>
  <rect x="136" y="272" width="8" height="8"/>
  <rect x="168" y="272" width="8" height="8"/>
  <rect x="200" y="272" width="8" height="8"/>
  <rect x="264" y="272" width="8" height="8"/>
  <rect x="280" y="272" width="8" height="8"/>
  <rect x="296" y="272" width="8" height="8"/>
  <rect x="40" y="280" width="8" height="8"/>
  <rect x="56" y="280" width="24" height="8"/>
  <rect x="88" y="280" width="8" height="8"/>
  <rect x="104" y="280" width="8" height="8"/>
  <rect x="120" y="280" width="16" height="8"/>
  <rect x="152" y="280" width="8" height="8"/>
  <rect x="184" y="280" width="8" height="8"/>
  <rect x="208" y="280" width="8" height="8"/>
  <rect x="224" y="280" width="16" height="8"/>
  <rect x="264" y="280" width="8" height="8"/>
  <rect x="296" y="280" width="8" height="8"/>
  <rect x="40" y="288" width="8" height="8"/>
  <rect x="88" y="288" width="8" height="8"/>
  <rect x="128" y="288" width="8" height="8"/>
  <rect x="152" y="288" width="16" height="8"/>
  <rect x="176" y="288" width="24" height="8"/>
  <rect x="208" y="288" width="8" height="8"/>
  <rect x="224" y="288" width="16" height="8"/>
  <rect x="248" y="288" width="8" height="8"/>
  <rect x="264" y="288" width="16" height="8"/>
  <rect x="288" y="288" width="8" height="8"/>
  <rect x="40" y="296" width="56" height="8"/>
  <rect x="104" y="296" width="16" height="8"/>
  <rect x="136" y="296" width="8" height="8"/>
  <rect x="160" y="296" width="24" height="8"/>
  <rect x="192" y="296" width="24" height="8"/>
  <rect x="224" y="296" width="16" height="8"/>
  <rect x="264" y="296" width="8" height="8"/>
  <rect x="288" y="296" width="16" height="8"/>
</g>
</svg>