<svg xmlns="http://www.w3.org/2000/svg" viewBox="0 0 1000 1000" width="1000" height="1000">
  <g transform="translate(110 100) scale(780.0 780.0) translate(-0.0 -0.0)">
<path d="M 0.1454558441227157 0.9054558441227157 L 0.16647123564539917 0.902344251518415 L 0.17054021096851146 0.8822862427145433 L 0.18302945982112886 0.8706485074401765 L 0.19548854545497232 0.8589806089470359 L 0.2161827981712495 0.8555478775363289 L 0.22852673683301258 0.8437648320711079 L 0.2408407661238134 0.8319518772349246 L 0.25312614386202015 0.8201102708461471 L 0.26538396403962317 0.8082411068967661 L 0.2776151983676288 0.7963453570977875 L 0.29765575917635634 0.7922589337795309 L 0.3097507916199358 0.7802269820961263 L 0.3218179391851377 0.7681671455343441 L 0.333857997156139 0.7560802193783613 L 0.3384009101039103 0.7364961481991483 L 0.3504888306596645 0.7244570846279186 L 0.3552873301560065 0.7051285999972763 L 0.3674389347201984 0.6931532204344841 L 0.38662490313998704 0.6882122047272886 L 0.3986294523951684 0.6760897698554857 L 0.4106144217394771 0.6639477550728106 L 0.42258027840634865 0.6517866276126979 L 0.427944188651848 0.633023553731213 L 0.43999746109191334 0.6209498420442944 L 0.45836761740943766 0.6151930142348345 L 0.46405917099509975 0.5967575836935125 L 0.48213820031028365 0.5907096288817122 L 0.4939984038078687 0.5784428482523131 L 0.5058423942038469 0.5661598545213072 L 0.517670544593539 0.5538610207840152 L 0.5294832199605168 0.541546712024009 L 0.5412807777143369 0.5292172856508448 L 0.5530635681755087 0.5168730919850324 L 0.5648319350143896 0.5045144746969292 L 0.5765862156496663 0.4921417712052219 L 0.5835558847355721 0.4749844561641436 L 0.5954383404318084 0.4627399277333957 L 0.60730970475826 0.45048430793286326 L 0.6191702448824569 0.43821786393007595 L 0.6310202239790808 0.4259408588997158 L 0.642859901430089 0.4136535522237398 L 0.6546895330096991 0.40135619967636593 L 0.6665093710557328 0.3890490535954154 L 0.6783196646286304 0.37673236304132873 L 0.6868166334954477 0.36110234778116185 L 0.6925159684129062 0.34267469857163635 L 0.7048193486001596 0.3308510946319056 L 0.7171188296078959 0.3190235915126578 L 0.732021835713742 0.3097996134915197 L 0.7441358670440666 0.2977866606948603 L 0.7562448828310235 0.2857686923548331 L 0.7683490277935416 0.27374585319036715 L 0.7766744379539734 0.25794427922381463 L 0.7857290856784126 0.2428719428212699 L 0.7985583756753387 0.23157424869121176 L 0.8100554147648331 0.21894430365372197 L 0.8216642085985016 0.20642611336040625 L 0.8369055058801489 0.19754042651506956 L 0.8484035818927037 0.1849115184006401 L 0.8586749286551542 0.17105588103610656 L 0.8701972483287781 0.15845121658274633 L 0.8817292654668297 0.14585624959381394 L 0.8920490995514188 0.13204909955141877 Z"
          fill="black"
          stroke="black"
          stroke-width="0.006"
          stroke-linejoin="round"
          stroke-linecap="round" />
</g>
  <g transform="translate(690 690) scale(0.5232558139534884 0.5232558139534884) translate(-0.0 -0.0)">
<rect x="40" y="40" width="56" height="8"/>
  <rect x="112" y="40" width="8" height="8"/>
  <rect x="128" y="40" width="8" height="8"/>
  <rect x="144" y="40" width="16" height="8"/>
  <rect x="168" y="40" width="40" height="8"/>
  <rect x="224" y="40" width="8" height="8"/>
  <rect x="248" y="40" width="56" height="8"/>
  <rect x="40" y="48" width="8" height="8"/>
  <rect x="88" y="48" width="8" height="8"/>
  <rect x="112" y="48" width="8" height="8"/>
  <rect x="136" y="48" width="48" height="8"/>
  <rect x="216" y="48" width="8" height="8"/>
  <rect x="232" y="48" width="8" height="8"/>
  <rect x="248" y="48" width="8" height="8"/>
  <rect x="296" y="48" width="8" height="8"/>
  <rect x="40" y="56" width="8" height="8"/>
  <rect x="56" y="56" width="24" height="8"/>
  <rect x="88" y="56" width="8" height="8"/>
  <rect x="104" y="56" width="8" height="8"/>
  <rect x="120" y="56" width="8" height="8"/>
  <rect x="144" y="56" width="8" height="8"/>
  <rect x="168" y="56" width="40" height="8"/>
  <rect x="224" y="56" width="16" height="8"/>
  <rect x="248" y="56" width="8" height="8"/>
  <rect x="264" y="56" width="24" height="8"/>
  <rect x="296" y="56" width="8" height="8"/>
  <rect x="40" y="64" width="8" height="8"/>
  <rect x="56" y="64" width="24" height="8"/>
  <rect x="88" y="64" width="8" height="8"/>
  <rect x="104" y="64" width="24" height="8"/>
  <rect x="152" y="64" width="8" height="8"/>
  <rect x="168" y="64" width="8" height="8"/>
  <rect x="192" y="64" width="32" height="8"/>
  <rect x="232" y="64" width="8" height="8"/>
  <rect x="248" y="64" width="8" height="8"/>
  <rect x="264" y="64" width="24" height="8"/>
  <rect x="296" y="64" width="8" height="8"/>
  <rect x="40" y="72" width="8" height="8"/>
  <rect x="56" y="72" width="24" height="8"/>
  <rect x="88" y="72" width="8" height="8"/>
  <rect x="104" y="72" width="16" height="8"/>
  <rect x="136" y="72" width="8" height="8"/>
  <rect x="160" y="72" width="8" height="8"/>
  <rect x="184" y="72" width="8" height="8"/>
  <rect x="208" y="72" width="8" height="8"/>
  <rect x="232" y="72" width="8" height="8"/>
  <rect x="248" y="72" width="8" height="8"/>
  <rect x="264" y="72" width="24" height="8"/>
  <rect x="296" y="72" width="8" height="8"/>
  <rect x="40" y="80" width="8" height="8"/>
  <rect x="88" y="80" width="8" height="8"/>
  <rect x="104" y="80" width="8" height="8"/>
  <rect x="152" y="80" width="24" height="8"/>
  <rect x="200" y="80" width="24" height="8"/>
  <rect x="248" y="80" width="8" height="8"/>
  <rect x="296" y="80" width="8" height="8"/>
  <rect x="40" y="88" width="56" height="8"/>
  <rect x="104" y="88" width="8" height="8"/>
  <rect x="120" y="88" width="8" height="8"/>
  <rect x="136" y="88" width="8" height="8"/>
  <rect x="152" y="88" width="8" height="8"/>
  <rect x="168" y="88" width="8" height="8"/>
  <rect x="184" y="88" width="8" height="8"/>
  <rect x="200" y="88" width="8" height="8"/>
  <rect x="216" y="88" width="8" height="8"/>
  <rect x="232" y="88" width="8" height="8"/>
  <rect x="248" y="88" width="56" height="8"/>
  <rect x="104" y="96" width="8" height="8"/>
  <rect x="136" y="96" width="8" height="8"/>
  <rect x="152" y="96" width="16" height="8"/>
  <rect x="184" y="96" width="8" height="8"/>
  <rect x="208" y="96" width="32" height="8"/>
  <rect x="40" y="104" width="8" height="8"/>
  <rect x="56" y="104" width="40" height="8"/>
  <rect x="112" y="104" width="56" height="8"/>
  <rect x="176" y="104" width="8" height="8"/>
  <rect x="216" y="104" width="8" height="8"/>
  <rect x="248" y="104" width="40" height="8"/>
  <rect x="48" y="112" width="16" height="8"/>
  <rect x="72" y="112" width="8" height="8"/>
  <rect x="96" y="112" width="8" height="8"/>
  <rect x="128" y="112" width="16" height="8"/>
  <rect x="184" y="112" width="32" height="8"/>
  <rect x="224" y="112" width="8" height="8"/>
  <rect x="248" y="112" width="16" height="8"/>
  <rect x="272" y="112" width="16" height="8"/>
  <rect x="296" y="112" width="8" height="8"/>
  <rect x="48" y="120" width="16" height="8"/>
  <rect x="88" y="120" width="8" height="8"/>
  <rect x="104" y="120" width="40" height="8"/>
  <rect x="160" y="120" width="16" height="8"/>
  <rect x="184" y="120" width="8" height="8"/>
  <rect x="200" y="120" width="16" height="8"/>
  <rect x="240" y="120" width="16" height="8"/>
  <rect x="264" y="120" width="8" height="8"/>
  <rect x="280" y="120" width="8" height="8"/>
  <rect x="64" y="128" width="24" height="8"/>
  <rect x="112" y="128" width="8" height="8"/>
  <rect x="128" y="128" width="8" height="8"/>
  <rect x="152" y="128" width="8" height="8"/>
  <rect x="168" y="128" width="8" height="8"/>
  <rect x="208" y="128" width="16" height="8"/>
  <rect x="240" y="128" width="16" height="8"/>
  <rect x="264" y="128" width="24" height="8"/>
  <rect x="40" y="136" width="16" height="8"/>
  <rect x="88" y="136" width="16" height="8"/>
  <rect x="112" y="136" width="16" height="8"/>
  <rect x="184" y="136" width="8" height="8"/>
  <rect x="208" y="136" width="8" height="8"/>
  <rect x="240" y="136" width="8" height="8"/>
  <rect x="264" y="136" width="16" height="8"/>
  <rect x="288" y="136" width="8" height="8"/>
  <rect x="40" y="144" width="16" height="8"/>
  <rect x="104" y="144" width="24" height="8"/>
  <rect x="152" y="144" width="24" height="8"/>
  <rect x="200" y="144" width="8" height="8"/>
  <rect x="216" y="144" width="24" height="8"/>
  <rect x="248" y="144" width="16" height="8"/>
  <rect x="272" y="144" width="8" height="8"/>
  <rect x="288" y="144" width="16" height="8"/>
  <rect x="56" y="152" width="8" height="8"/>
  <rect x="88" y="152" width="24" height="8"/>
  <rect x="144" y="152" width="8" height="8"/>
  <rect x="184" y="152" width="16" height="8"/>
  <rect x="208" y="152" width="8" height="8"/>
  <rect x="240" y="152" width="24" height="8"/>
  <rect x="288" y="152" width="8" height="8"/>
  <rect x="72" y="160" width="16" height="8"/>
  <rect x="96" y="160" width="16" height="8"/>
  <rect x="144" y="160" width="16" height="8"/>
  <rect x="168" y="160" width="8" height="8"/>
  <rect x="192" y="160" width="64" height="8"/>
  <rect x="264" y="160" width="24" height="8"/>
  <rect x="48" y="168" width="8" height="8"/>
  <rect x="72" y="168" width="40" height="8"/>
  <rect x="128" y="168" width="8" height="8"/>
  <rect x="176" y="168" width="8" height="8"/>
  <rect x="192" y="168" width="8" height="8"/>
  <rect x="216" y="168" width="8" height="8"/>
  <rect x="232" y="168" width="16" height="8"/>
  <rect x="256" y="168" width="16" height="8"/>
  <rect x="296" y="168" width="8" height="8"/>
  <rect x="96" y="176" width="24" height="8"/>
  <rect x="168" y="176" width="16" height="8"/>
  <rect x="192" y="176" width="16" height="8"/>
  <rect x="224" y="176" width="8" height="8"/>
  <rect x="240" y="176" width="24" height="8"/>
  <rect x="272" y="176" width="32" height="8"/>
  <rect x="48" y="184" width="56" height="8"/>
  <rect x="112" y="184" width="16" height="8"/>
  <rect x="136" y="184" width="8" height="8"/>
  <rect x="152" y="184" width="32" height="8"/>
  <rect x="216" y="184" width="8" height="8"/>
  <rect x="232" y="184" width="8" height="8"/>
  <rect x="248" y="184" width="24" height="8"/>
  <rect x="280" y="184" width="16" height="8"/>
  <rect x="40" y="192" width="8" height="8"/>
  <rect x="72" y="192" width="8" height="8"/>
  <rect x="96" y="192" width="24" height="8"/>
  <rect x="136" y="192" width="16" height="8"/>
  <rect x="176" y="192" width="16" height="8"/>
  <rect x="200" y="192" width="8" height="8"/>
  <rect x="224" y="192" width="8" height="8"/>
  <rect x="240" y="192" width="8" height="8"/>
  <rect x="256" y="192" width="40" height="8"/>
  <rect x="48" y="200" width="8" height="8"/>
  <rect x="64" y="200" width="8" height="8"/>
  <rect x="88" y="200" width="32" height="8"/>
  <rect x="136" y="200" width="40" height="8"/>
  <rect x="200" y="200" width="24" height="8"/>
  <rect x="240" y="200" width="8" height="8"/>
  <rect x="256" y="200" width="24" height="8"/>
  <rect x="296" y="200" width="8" height="8"/>
  <rect x="40" y="208" width="24" height="8"/>
  <rect x="72" y="208" width="8" height="8"/>
  <rect x="96" y="208" width="8" height="8"/>
  <rect x="120" y="208" width="24" height="8"/>
  <rect x="160" y="208" width="8" height="8"/>
  <rect x="184" y="208" width="8" height="8"/>
  <rect x="208" y="208" width="8" height="8"/>
  <rect x="224" y="208" width="16" height="8"/>
  <rect x="248" y="208" width="8" height="8"/>
  <rect x="296" y="208" width="8" height="8"/>
  <rect x="40" y="216" width="8" height="8"/>
  <rect x="72" y="216" width="8" height="8"/>
  <rect x="88" y="216" width="40" height="8"/>
  <rect x="152" y="216" width="40" height="8"/>
  <rect x="200" y="216" width="8" height="8"/>
  <rect x="216" y="216" width="8" height="8"/>
  <rect x="280" y="216" width="16" height="8"/>
  <rect x="40" y="224" width="8" height="8"/>
  <rect x="56" y="224" width="8" height="8"/>
  <rect x="80" y="224" width="8" height="8"/>
  <rect x="104" y="224" width="16" height="8"/>
  <rect x="128" y="224" width="8" height="8"/>
  <rect x="152" y="224" width="16" height="8"/>
  <rect x="184" y="224" width="8" height="8"/>
  <rect x="208" y="224" width="16" height="8"/>
  <rect x="240" y="224" width="16" height="8"/>
  <rect x="264" y="224" width="24" height="8"/>
  <rect x="40" y="232" width="8" height="8"/>
  <rect x="88" y="232" width="24" height="8"/>
  <rect x="120" y="232" width="16" height="8"/>
  <rect x="144" y="232" width="8" height="8"/>
  <rect x="160" y="232" width="8" height="8"/>
  <rect x="176" y="232" width="8" height="8"/>
  <rect x="200" y="232" width="8" height="8"/>
  <rect x="216" y="232" width="64" height="8"/>
  <rect x="288" y="232" width="16" height="8"/>
  <rect x="104" y="240" width="24" height="8"/>
  <rect x="136" y="240" width="8" height="8"/>
  <rect x="168" y="240" width="8" height="8"/>
  <rect x="184" y="240" width="32" height="8"/>
  <rect x="224" y="240" width="16" height="8"/>
  <rect x="264" y="240" width="8" height="8"/>
  <rect x="280" y="240" width="8" height="8"/>
  <rect x="296" y="240" width="8" height="8"/>
  <rect x="40" y="248" width="56" height="8"/>
  <rect x="120" y="248" width="8" height="8"/>
  <rect x="152" y="248" width="16" height="8"/>
  <rect x="184" y="248" width="8" height="8"/>
  <rect x="200" y="248" width="16" height="8"/>
  <rect x="224" y="248" width="16" height="8"/>
  <rect x="248" y="248" width="8" height="8"/>
  <rect x="264" y="248" width="8" height="8"/>
  <rect x="280" y="248" width="16" height="8"/>
  <rect x="40" y="256" width="8" height="8"/>
  <rect x="88" y="256" width="8" height="8"/>
  <rect x="104" y="256" width="16" height="8"/>
  <rect x="144" y="256" width="8" height="8"/>
  <rect x="168" y="256" width="8" height="8"/>
  <rect x="192" y="256" width="8" height="8"/>
  <rect x="208" y="256" width="32" height="8"/>
  <rect x="264" y="256" width="24" height="8"/>
  <rect x="296" y="256" width="8" height="8"/>
  <rect x="40" y="264" width="8" height="8"/>
  <rect x="56" y="264" width="24" height="8"/>
  <rect x="88" y="264" width="8" height="8"/>
  <rect x="104" y="264" width="16" height="8"/>
  <rect x="184" y="264" width="8" height="8"/>
  <rect x="208" y="264" width="8" height="8"/>
  <rect x="232" y="264" width="48" height="8"/>
  <rect x="288" y="264" width="16" height="8"/>
  <rect x="40" y="272" width="8" height="8"/>
  <rect x="56" y="272" width="24" height="8"/>
  <rect x="88" y="272" width="8" height="8"/>
  <rect x="104" y="272" width="24" height="8"/>
  <rect x="136" y="272" width="8" height="8"/>
  <rect x="152" y="272" width="24" height="8"/>
  <rect x="200" y="272" width="8" height="8"/>
  <rect x="216" y="272" width="16" height="8"/>
  <rect x="240" y="272" width="8" height="8"/>
  <rect x="264" y="272" width="24" height="8"/>
  <rect x="296" y="272" width="8" height="8"/>
  <rect x="40" y="280" width="8" height="8"/>
  <rect x="56" y="280" width="24" height="8"/>
  <rect x="88" y="280" width="8" height="8"/>
  <rect x="104" y="280" width="24" height="8"/>
  <rect x="192" y="280" width="8" height="8"/>
  <rect x="216" y="280" width="16" height="8"/>
  <rect x="248" y="280" width="16" height="8"/>
  <rect x="280" y="280" width="8" height="8"/>
  <rect x="40" y="288" width="8" height="8"/>
  <rect x="88" y="288" width="8" height="8"/>
  <rect x="120" y="288" width="24" height="8"/>
  <rect x="168" y="288" width="8" height="8"/>
  <rect x="184" y="288" width="32" height="8"/>
  <rect x="224" y="288" width="8" height="8"/>
  <rect x="240" y="288" width="8" height="8"/>
  <rect x="264" y="288" width="24" height="8"/>
  <rect x="40" y="296" width="56" height="8"/>
  <rect x="104" y="296" width="8" height="8"/>
  <rect x="120" y="296" width="32" height="8"/>
  <rect x="176" y="296" width="32" height="8"/>
  <rect x="216" y="296" width="8" height="8"/>
  <rect x="232" y="296" width="8" height="8"/>
  <rect x="256" y="296" width="8" height="8"/>
  <rect x="288" y="296" width="8" height="8"/>
</g>
</svg>