<svg xmlns="http://www.w3.org/2000/svg" viewBox="0 0 1000 1000" width="1000" height="1000">
  <g transform="translate(110 100) scale(780.0 780.0) translate(-0.0 -0.0)">
<path d="M 0.13697056274847713 0.8969705627484772 L 0.1580177722626604 0.8938907881356762 L 0.1621257454743804 0.8738717772204122 L 0.17466002673437528 0.8622790743534229 L 0.1871696289971915 0.850661692489255 L 0.20791951107265283 0.8472845904377322 L 0.22852673683301258 0.8437648320711079 L 0.2408407661238134 0.8319518772349246 L 0.25312614386202015 0.8201102708461471 L 0.26538396403962317 0.8082411068967661 L 0.2776151983676288 0.7963453570977875 L 0.28982072389811314 0.7844238985012878 L 0.30200134229497444 0.7724775327711649 L 0.31415779379724196 0.7605070001464482 L 0.3187235381462654 0.7409457603684877 L 0.3234593079064938 0.7215545460017319 L 0.32837596884235787 0.7023442228106119 L 0.34075177633516546 0.6905930461764354 L 0.353116225455358 0.6788305111696437 L 0.3654695992300303 0.6670569008173319 L 0.3847512634822779 0.6622115809425954 L 0.4037910130905526 0.6571243464238861 L 0.4158754959768583 0.6450818451832075 L 0.427944188651848 0.633023553731213 L 0.43999746109191334 0.6209498420442944 L 0.45836761740943766 0.6151930142348345 L 0.46405917099509975 0.5967575836935125 L 0.48213820031028365 0.5907096288817122 L 0.499933426674645 0.5843778711190893 L 0.5116400421941286 0.5719575025115889 L 0.517670544593539 0.5538610207840152 L 0.5294832199605168 0.541546712024009 L 0.5412807777143369 0.5292172856508448 L 0.5582879031810039 0.5220974269905275 L 0.5699072607499904 0.5095898004325301 L 0.5815103650071262 0.49706592056268173 L 0.593097598486918 0.48452616991548947 L 0.600053838871671 0.4673554261732582 L 0.611767828149624 0.45494243132422724 L 0.6234690251885487 0.4425166442361678 L 0.6351577410130691 0.43007837593370407 L 0.6468342821654982 0.41762793295914896 L 0.6623083688392144 0.40897503550588127 L 0.6737947199590082 0.3963344024986908 L 0.6817938602583961 0.3802065586710944 L 0.6934246858231521 0.36771040010886624 L 0.7050448093114661 0.35520353947019623 L 0.7136957229869514 0.33972746901869727 L 0.7254702686921388 0.32737503059690076 L 0.7372364709039448 0.3150142486817226 L 0.7489945617983444 0.3026453554491382 L 0.7607447711245948 0.2902685806484043 L 0.7704181770458486 0.2758150024426741 L 0.7823354488545979 0.26360529012443923 L 0.7942468248628318 0.2513896820056891 L 0.8046336637930138 0.23764953680888695 L 0.8153868788139226 0.2242757677028115 L 0.8266681002431955 0.2114300050051001 L 0.8381516300591085 0.19878655069402917 L 0.8496448573394495 0.18615279384738587 L 0.8611477820842179 0.17352873446517036 L 0.8714288263110962 0.1596827945650644 L 0.8817292654668297 0.14585624959381394 L 0.8920490995514188 0.13204909955141877 Z"
          fill="black"
          stroke="black"
          stroke-width="0.006"
          stroke-linejoin="round"
          stroke-linecap="round" />
</g>
  <g transform="translate(690 690) scale(0.5232558139534884 0.5232558139534884) translate(-0.0 -0.0)">
<rect x="40" y="40" width="56" height="8"/>
  <rect x="104" y="40" width="8" height="8"/>
  <rect x="144" y="40" width="8" height="8"/>
  <rect x="176" y="40" width="16" height="8"/>
  <rect x="208" y="40" width="16" height="8"/>
  <rect x="248" y="40" width="56" height="8"/>
  <rect x="40" y="48" width="8" height="8"/>
  <rect x="88" y="48" width="8" height="8"/>
  <rect x="104" y="48" width="56" height="8"/>
  <rect x="168" y="48" width="8" height="8"/>
  <rect x="184" y="48" width="24" height="8"/>
  <rect x="232" y="48" width="8" height="8"/>
  <rect x="248" y="48" width="8" height="8"/>
  <rect x="296" y="48" width="8" height="8"/>
  <rect x="40" y="56" width="8" height="8"/>
  <rect x="56" y="56" width="24" height="8"/>
  <rect x="88" y="56" width="8" height="8"/>
  <rect x="104" y="56" width="8" height="8"/>
  <rect x="144" y="56" width="16" height="8"/>
  <rect x="200" y="56" width="16" height="8"/>
  <rect x="224" y="56" width="16" height="8"/>
  <rect x="248" y="56" width="8" height="8"/>
  <rect x="264" y="56" width="24" height="8"/>
  <rect x="296" y="56" width="8" height="8"/>
  <rect x="40" y="64" width="8" height="8"/>
  <rect x="56" y="64" width="24" height="8"/>
  <rect x="88" y="64" width="8" height="8"/>
  <rect x="112" y="64" width="8" height="8"/>
  <rect x="152" y="64" width="24" height="8"/>
  <rect x="184" y="64" width="24" height="8"/>
  <rect x="216" y="64" width="8" height="8"/>
  <rect x="232" y="64" width="8" height="8"/>
  <rect x="248" y="64" width="8" height="8"/>
  <rect x="264" y="64" width="24" height="8"/>
  <rect x="296" y="64" width="8" height="8"/>
  <rect x="40" y="72" width="8" height="8"/>
  <rect x="56" y="72" width="24" height="8"/>
  <rect x="88" y="72" width="8" height="8"/>
  <rect x="104" y="72" width="8" height="8"/>
  <rect x="120" y="72" width="8" height="8"/>
  <rect x="136" y="72" width="8" height="8"/>
  <rect x="160" y="72" width="24" height="8"/>
  <rect x="208" y="72" width="24" height="8"/>
  <rect x="248" y="72" width="8" height="8"/>
  <rect x="264" y="72" width="24" height="8"/>
  <rect x="296" y="72" width="8" height="8"/>
  <rect x="40" y="80" width="8" height="8"/>
  <rect x="88" y="80" width="8" height="8"/>
  <rect x="112" y="80" width="24" height="8"/>
  <rect x="152" y="80" width="32" height="8"/>
  <rect x="192" y="80" width="8" height="8"/>
  <rect x="232" y="80" width="8" height="8"/>
  <rect x="248" y="80" width="8" height="8"/>
  <rect x="296" y="80" width="8" height="8"/>
  <rect x="40" y="88" width="56" height="8"/>
  <rect x="104" y="88" width="8" height="8"/>
  <rect x="120" y="88" width="8" height="8"/>
  <rect x="136" y="88" width="8" height="8"/>
  <rect x="152" y="88" width="8" height="8"/>
  <rect x="168" y="88" width="8" height="8"/>
  <rect x="184" y="88" width="8" height="8"/>
  <rect x="200" y="88" width="8" height="8"/>
  <rect x="216" y="88" width="8" height="8"/>
  <rect x="232" y="88" width="8" height="8"/>
  <rect x="248" y="88" width="56" height="8"/>
  <rect x="136" y="96" width="16" height="8"/>
  <rect x="160" y="96" width="16" height="8"/>
  <rect x="184" y="96" width="8" height="8"/>
  <rect x="216" y="96" width="16" height="8"/>
  <rect x="40" y="104" width="8" height="8"/>
  <rect x="64" y="104" width="56" height="8"/>
  <rect x="152" y="104" width="8" height="8"/>
  <rect x="168" y="104" width="16" height="8"/>
  <rect x="224" y="104" width="8" height="8"/>
  <rect x="240" y="104" width="8" height="8"/>
  <rect x="264" y="104" width="8" height="8"/>
  <rect x="280" y="104" width="24" height="8"/>
  <rect x="56" y="112" width="32" height="8"/>
  <rect x="96" y="112" width="32" height="8"/>
  <rect x="136" y="112" width="64" height="8"/>
  <rect x="208" y="112" width="24" height="8"/>
  <rect x="264" y="112" width="24" height="8"/>
  <rect x="56" y="120" width="8" height="8"/>
  <rect x="88" y="120" width="16" height="8"/>
  <rect x="112" y="120" width="40" height="8"/>
  <rect x="160" y="120" width="16" height="8"/>
  <rect x="216" y="120" width="16" height="8"/>
  <rect x="240" y="120" width="8" height="8"/>
  <rect x="264" y="120" width="24" height="8"/>
  <rect x="296" y="120" width="8" height="8"/>
  <rect x="56" y="128" width="32" height="8"/>
  <rect x="96" y="128" width="8" height="8"/>
  <rect x="120" y="128" width="32" height="8"/>
  <rect x="160" y="128" width="8" height="8"/>
  <rect x="184" y="128" width="8" height="8"/>
  <rect x="208" y="128" width="24" height="8"/>
  <rect x="240" y="128" width="24" height="8"/>
  <rect x="280" y="128" width="8" height="8"/>
  <rect x="48" y="136" width="8" height="8"/>
  <rect x="64" y="136" width="8" height="8"/>
  <rect x="88" y="136" width="8" height="8"/>
  <rect x="112" y="136" width="8" height="8"/>
  <rect x="136" y="136" width="16" height="8"/>
  <rect x="176" y="136" width="8" height="8"/>
  <rect x="192" y="136" width="8" height="8"/>
  <rect x="208" y="136" width="8" height="8"/>
  <rect x="224" y="136" width="16" height="8"/>
  <rect x="248" y="136" width="8" height="8"/>
  <rect x="296" y="136" width="8" height="8"/>
  <rect x="56" y="144" width="8" height="8"/>
  <rect x="128" y="144" width="16" height="8"/>
  <rect x="152" y="144" width="8" height="8"/>
  <rect x="184" y="144" width="32" height="8"/>
  <rect x="232" y="144" width="16" height="8"/>
  <rect x="272" y="144" width="8" height="8"/>
  <rect x="40" y="152" width="24" height="8"/>
  <rect x="72" y="152" width="8" height="8"/>
  <rect x="88" y="152" width="16" height="8"/>
  <rect x="112" y="152" width="8" height="8"/>
  <rect x="128" y="152" width="16" height="8"/>
  <rect x="160" y="152" width="8" height="8"/>
  <rect x="184" y="152" width="40" height="8"/>
  <rect x="232" y="152" width="8" height="8"/>
  <rect x="248" y="152" width="24" height="8"/>
  <rect x="40" y="160" width="24" height="8"/>
  <rect x="72" y="160" width="8" height="8"/>
  <rect x="112" y="160" width="8" height="8"/>
  <rect x="128" y="160" width="8" height="8"/>
  <rect x="144" y="160" width="8" height="8"/>
  <rect x="168" y="160" width="8" height="8"/>
  <rect x="200" y="160" width="8" height="8"/>
  <rect x="232" y="160" width="16" height="8"/>
  <rect x="256" y="160" width="8" height="8"/>
  <rect x="272" y="160" width="16" height="8"/>
  <rect x="296" y="160" width="8" height="8"/>
  <rect x="40" y="168" width="16" height="8"/>
  <rect x="64" y="168" width="8" height="8"/>
  <rect x="88" y="168" width="24" height="8"/>
  <rect x="120" y="168" width="16" height="8"/>
  <rect x="152" y="168" width="16" height="8"/>
  <rect x="200" y="168" width="8" height="8"/>
  <rect x="216" y="168" width="8" height="8"/>
  <rect x="232" y="168" width="48" height="8"/>
  <rect x="40" y="176" width="8" height="8"/>
  <rect x="64" y="176" width="8" height="8"/>
  <rect x="80" y="176" width="8" height="8"/>
  <rect x="104" y="176" width="8" height="8"/>
  <rect x="120" y="176" width="8" height="8"/>
  <rect x="136" y="176" width="32" height="8"/>
  <rect x="176" y="176" width="8" height="8"/>
  <rect x="192" y="176" width="16" height="8"/>
  <rect x="216" y="176" width="8" height="8"/>
  <rect x="240" y="176" width="16" height="8"/>
  <rect x="264" y="176" width="8" height="8"/>
  <rect x="280" y="176" width="24" height="8"/>
  <rect x="40" y="184" width="8" height="8"/>
  <rect x="56" y="184" width="16" height="8"/>
  <rect x="88" y="184" width="16" height="8"/>
  <rect x="128" y="184" width="40" height="8"/>
  <rect x="176" y="184" width="72" height="8"/>
  <rect x="256" y="184" width="8" height="8"/>
  <rect x="272" y="184" width="16" height="8"/>
  <rect x="296" y="184" width="8" height="8"/>
  <rect x="48" y="192" width="16" height="8"/>
  <rect x="72" y="192" width="16" height="8"/>
  <rect x="96" y="192" width="72" height="8"/>
  <rect x="192" y="192" width="8" height="8"/>
  <rect x="216" y="192" width="16" height="8"/>
  <rect x="248" y="192" width="8" height="8"/>
  <rect x="264" y="192" width="24" height="8"/>
  <rect x="296" y="192" width="8" height="8"/>
  <rect x="40" y="200" width="24" height="8"/>
  <rect x="88" y="200" width="8" height="8"/>
  <rect x="104" y="200" width="8" height="8"/>
  <rect x="120" y="200" width="16" height="8"/>
  <rect x="144" y="200" width="8" height="8"/>
  <rect x="160" y="200" width="16" height="8"/>
  <rect x="184" y="200" width="16" height="8"/>
  <rect x="208" y="200" width="16" height="8"/>
  <rect x="256" y="200" width="8" height="8"/>
  <rect x="272" y="200" width="8" height="8"/>
  <rect x="288" y="200" width="16" height="8"/>
  <rect x="40" y="208" width="16" height="8"/>
  <rect x="80" y="208" width="8" height="8"/>
  <rect x="104" y="208" width="8" height="8"/>
  <rect x="120" y="208" width="8" height="8"/>
  <rect x="152" y="208" width="8" height="8"/>
  <rect x="224" y="208" width="16" height="8"/>
  <rect x="256" y="208" width="16" height="8"/>
  <rect x="40" y="216" width="8" height="8"/>
  <rect x="64" y="216" width="16" height="8"/>
  <rect x="88" y="216" width="8" height="8"/>
  <rect x="104" y="216" width="16" height="8"/>
  <rect x="128" y="216" width="8" height="8"/>
  <rect x="144" y="216" width="8" height="8"/>
  <rect x="184" y="216" width="24" height="8"/>
  <rect x="216" y="216" width="16" height="8"/>
  <rect x="248" y="216" width="8" height="8"/>
  <rect x="272" y="216" width="32" height="8"/>
  <rect x="40" y="224" width="8" height="8"/>
  <rect x="56" y="224" width="16" height="8"/>
  <rect x="104" y="224" width="8" height="8"/>
  <rect x="136" y="224" width="16" height="8"/>
  <rect x="160" y="224" width="8" height="8"/>
  <rect x="176" y="224" width="32" height="8"/>
  <rect x="224" y="224" width="8" height="8"/>
  <rect x="240" y="224" width="24" height="8"/>
  <rect x="280" y="224" width="24" height="8"/>
  <rect x="40" y="232" width="16" height="8"/>
  <rect x="64" y="232" width="8" height="8"/>
  <rect x="80" y="232" width="32" height="8"/>
  <rect x="120" y="232" width="16" height="8"/>
  <rect x="144" y="232" width="8" height="8"/>
  <rect x="168" y="232" width="8" height="8"/>
  <rect x="232" y="232" width="40" height="8"/>
  <rect x="288" y="232" width="8" height="8"/>
  <rect x="104" y="240" width="8" height="8"/>
  <rect x="120" y="240" width="8" height="8"/>
  <rect x="144" y="240" width="8" height="8"/>
  <rect x="160" y="240" width="32" height="8"/>
  <rect x="208" y="240" width="8" height="8"/>
  <rect x="224" y="240" width="16" height="8"/>
  <rect x="264" y="240" width="8" height="8"/>
  <rect x="280" y="240" width="16" height="8"/>
  <rect x="40" y="248" width="56" height="8"/>
  <rect x="104" y="248" width="8" height="8"/>
  <rect x="136" y="248" width="8" height="8"/>
  <rect x="160" y="248" width="24" height="8"/>
  <rect x="192" y="248" width="16" height="8"/>
  <rect x="224" y="248" width="16" height="8"/>
  <rect x="248" y="248" width="8" height="8"/>
  <rect x="264" y="248" width="8" height="8"/>
  <rect x="280" y="248" width="8" height="8"/>
  <rect x="40" y="256" width="8" height="8"/>
  <rect x="88" y="256" width="8" height="8"/>
  <rect x="104" y="256" width="8" height="8"/>
  <rect x="120" y="256" width="24" height="8"/>
  <rect x="160" y="256" width="8" height="8"/>
  <rect x="176" y="256" width="64" height="8"/>
  <rect x="264" y="256" width="24" height="8"/>
  <rect x="40" y="264" width="8" height="8"/>
  <rect x="56" y="264" width="24" height="8"/>
  <rect x="88" y="264" width="8" height="8"/>
  <rect x="104" y="264" width="8" height="8"/>
  <rect x="120" y="264" width="8" height="8"/>
  <rect x="136" y="264" width="8" height="8"/>
  <rect x="168" y="264" width="16" height="8"/>
  <rect x="208" y="264" width="64" height="8"/>
  <rect x="288" y="264" width="8" height="8"/>
  <rect x="40" y="272" width="8" height="8"/>
  <rect x="56" y="272" width="24" height="8"/>
  <rect x="88" y="272" width="8" height="8"/>
  <rect x="104" y="272" width="32" height="8"/>
  <rect x="152" y="272" width="8" height="8"/>
  <rect x="168" y="272" width="24" height="8"/>
  <rect x="208" y="272" width="16" height="8"/>
  <rect x="240" y="272" width="8" height="8"/>
  <rect x="256" y="272" width="8" height="8"/>
  <rect x="280" y="272" width="8" height="8"/>
  <rect x="296" y="272" width="8" height="8"/>
  <rect x="40" y="280" width="8" height="8"/>
  <rect x="56" y="280" width="24" height="8"/>
  <rect x="88" y="280" width="8" height="8"/>
  <rect x="112" y="280" width="24" height="8"/>
  <rect x="144" y="280" width="24" height="8"/>
  <rect x="176" y="280" width="8" height="8"/>
  <rect x="192" y="280" width="8" height="8"/>
  <rect x="240" y="280" width="8" height="8"/>
  <rect x="256" y="280" width="48" height="8"/>
  <rect x="40" y="288" width="8" height="8"/>
  <rect x="88" y="288" width="8" height="8"/>
  <rect x="112" y="288" width="8" height="8"/>
  <rect x="136" y="288" width="8" height="8"/>
  <rect x="184" y="288" width="24" height="8"/>
  <rect x="224" y="288" width="8" height="8"/>
  <rect x="248" y="288" width="56" height="8"/>
  <rect x="40" y="296" width="56" height="8"/>
  <rect x="104" y="296" width="8" height="8"/>
  <rect x="120" y="296" width="8" height="8"/>
  <rect x="136" y="296" width="8" height="8"/>
  <rect x="160" y="296" width="48" height="8"/>
  <rect x="232" y="296" width="16" height="8"/>
  <rect x="256" y="296" width="16" height="8"/>
</g>
</svg>