<svg xmlns="http://www.w3.org/2000/svg" viewBox="0 0 1000 1000" width="1000" height="1000">
  <g transform="translate(110 100) scale(780.0 780.0) translate(-0.0 -0.0)">
<path d="M 0.15394112549695427 0.9139411254969543 L 0.1580177722626604 0.8938907881356762 L 0.17895467646264251 0.8907007082086743 L 0.19139889290788245 0.87901794052693 L 0.212126378370534 0.8756184418625975 L 0.22444608526984614 0.8638111646349255 L 0.22852673683301258 0.8437648320711079 L 0.2408407661238134 0.8319518772349246 L 0.25312614386202015 0.8201102708461471 L 0.26538396403962317 0.8082411068967661 L 0.269698409002815 0.7884285677329738 L 0.28198568861986995 0.7765888632230447 L 0.30200134229497444 0.7724775327711649 L 0.3064976484093462 0.7528468547585525 L 0.32629076765120224 0.7485129898734245 L 0.3384009101039103 0.7364961481991483 L 0.3431178767205623 0.7170861306888163 L 0.3552873301560065 0.7051285999972763 L 0.37460028935261863 0.7003145750669043 L 0.37957313517000146 0.6811604367573031 L 0.3847512634822779 0.6622115809425954 L 0.3969676044416281 0.6503009377749616 L 0.4158754959768583 0.6450818451832075 L 0.4213609033893038 0.6264402684686688 L 0.43999746109191334 0.6209498420442944 L 0.45836761740943766 0.6151930142348345 L 0.47026140190558413 0.602959814603997 L 0.4882081037302305 0.596779532301659 L 0.499933426674645 0.5843778711190893 L 0.5058423942038469 0.5661598545213072 L 0.5233283807832819 0.5595188569737582 L 0.5349988635769959 0.547062355640488 L 0.5412807777143369 0.5292172856508448 L 0.5478392331700136 0.5116487569795373 L 0.5597566092787887 0.4994391489613283 L 0.5716620662922065 0.4872176218477621 L 0.5835558847355721 0.4749844561641436 L 0.5954383404318084 0.4627399277333957 L 0.602851581366896 0.4460261845414992 L 0.614871464576365 0.433919083623984 L 0.6310202239790808 0.4259408588997158 L 0.642859901430089 0.4136535522237398 L 0.6546895330096991 0.40135619967636593 L 0.6665093710557328 0.3890490535954154 L 0.6783196646286304 0.37673236304132873 L 0.6901206596592999 0.3644063739450141 L 0.6987803888621862 0.3489391190209163 L 0.7077781400624236 0.3338098860941695 L 0.7171188296078959 0.3190235915126578 L 0.732021835713742 0.3097996134915197 L 0.7417065196669277 0.2953573133177214 L 0.7517449945374524 0.28126880406126187 L 0.7621415800366209 0.2675384054334464 L 0.7766744379539734 0.25794427922381463 L 0.7908397291890641 0.24798258633192144 L 0.803114841763595 0.23613071477946818 L 0.8140540128016502 0.2229429016905391 L 0.825417127332022 0.21017903209392663 L 0.8369055058801489 0.19754042651506956 L 0.8484035818927037 0.1849115184006401 L 0.859911355369686 0.17229230775063845 L 0.8714288263110962 0.1596827945650644 L 0.8817292654668297 0.14585624959381394 L 0.8920490995514188 0.13204909955141877 Z"
          fill="black"
          stroke="black"
          stroke-width="0.006"
          stroke-linejoin="round"
          stroke-linecap="round" />
</g>
  <g transform="translate(690 690) scale(0.5232558139534884 0.5232558139534884) translate(-0.0 -0.0)">
<rect x="40" y="40" width="56" height="8"/>
  <rect x="112" y="40" width="24" height="8"/>
  <rect x="144" y="40" width="16" height="8"/>
  <rect x="168" y="40" width="8" height="8"/>
  <rect x="192" y="40" width="24" height="8"/>
  <rect x="224" y="40" width="8" height="8"/>
  <rect x="248" y="40" width="56" height="8"/>
  <rect x="40" y="48" width="8" height="8"/>
  <rect x="88" y="48" width="8" height="8"/>
  <rect x="128" y="48" width="16" height="8"/>
  <rect x="152" y="48" width="24" height="8"/>
  <rect x="208" y="48" width="16" height="8"/>
  <rect x="232" y="48" width="8" height="8"/>
  <rect x="248" y="48" width="8" height="8"/>
  <rect x="296" y="48" width="8" height="8"/>
  <rect x="40" y="56" width="8" height="8"/>
  <rect x="56" y="56" width="24" height="8"/>
  <rect x="88" y="56" width="8" height="8"/>
  <rect x="104" y="56" width="8" height="8"/>
  <rect x="120" y="56" width="8" height="8"/>
  <rect x="136" y="56" width="8" height="8"/>
  <rect x="168" y="56" width="8" height="8"/>
  <rect x="184" y="56" width="8" height="8"/>
  <rect x="208" y="56" width="8" height="8"/>
  <rect x="232" y="56" width="8" height="8"/>
  <rect x="248" y="56" width="8" height="8"/>
  <rect x="264" y="56" width="24" height="8"/>
  <rect x="296" y="56" width="8" height="8"/>
  <rect x="40" y="64" width="8" height="8"/>
  <rect x="56" y="64" width="24" height="8"/>
  <rect x="88" y="64" width="8" height="8"/>
  <rect x="104" y="64" width="24" height="8"/>
  <rect x="136" y="64" width="24" height="8"/>
  <rect x="176" y="64" width="8" height="8"/>
  <rect x="192" y="64" width="16" height="8"/>
  <rect x="232" y="64" width="8" height="8"/>
  <rect x="248" y="64" width="8" height="8"/>
  <rect x="264" y="64" width="24" height="8"/>
  <rect x="296" y="64" width="8" height="8"/>
  <rect x="40" y="72" width="8" height="8"/>
  <rect x="56" y="72" width="24" height="8"/>
  <rect x="88" y="72" width="8" height="8"/>
  <rect x="104" y="72" width="16" height="8"/>
  <rect x="136" y="72" width="8" height="8"/>
  <rect x="152" y="72" width="16" height="8"/>
  <rect x="184" y="72" width="24" height="8"/>
  <rect x="224" y="72" width="8" height="8"/>
  <rect x="248" y="72" width="8" height="8"/>
  <rect x="264" y="72" width="24" height="8"/>
  <rect x="296" y="72" width="8" height="8"/>
  <rect x="40" y="80" width="8" height="8"/>
  <rect x="88" y="80" width="8" height="8"/>
  <rect x="104" y="80" width="64" height="8"/>
  <rect x="216" y="80" width="8" height="8"/>
  <rect x="232" y="80" width="8" height="8"/>
  <rect x="248" y="80" width="8" height="8"/>
  <rect x="296" y="80" width="8" height="8"/>
  <rect x="40" y="88" width="56" height="8"/>
  <rect x="104" y="88" width="8" height="8"/>
  <rect x="120" y="88" width="8" height="8"/>
  <rect x="136" y="88" width="8" height="8"/>
  <rect x="152" y="88" width="8" height="8"/>
  <rect x="168" y="88" width="8" height="8"/>
  <rect x="184" y="88" width="8" height="8"/>
  <rect x="200" y="88" width="8" height="8"/>
  <rect x="216" y="88" width="8" height="8"/>
  <rect x="232" y="88" width="8" height="8"/>
  <rect x="248" y="88" width="56" height="8"/>
  <rect x="104" y="96" width="8" height="8"/>
  <rect x="120" y="96" width="16" height="8"/>
  <rect x="160" y="96" width="8" height="8"/>
  <rect x="208" y="96" width="32" height="8"/>
  <rect x="40" y="104" width="8" height="8"/>
  <rect x="56" y="104" width="40" height="8"/>
  <rect x="120" y="104" width="48" height="8"/>
  <rect x="176" y="104" width="8" height="8"/>
  <rect x="192" y="104" width="8" height="8"/>
  <rect x="216" y="104" width="8" height="8"/>
  <rect x="248" y="104" width="40" height="8"/>
  <rect x="64" y="112" width="24" height="8"/>
  <rect x="96" y="112" width="16" height="8"/>
  <rect x="136" y="112" width="16" height="8"/>
  <rect x="168" y="112" width="40" height="8"/>
  <rect x="224" y="112" width="8" height="8"/>
  <rect x="248" y="112" width="16" height="8"/>
  <rect x="272" y="112" width="16" height="8"/>
  <rect x="296" y="112" width="8" height="8"/>
  <rect x="56" y="120" width="16" height="8"/>
  <rect x="80" y="120" width="16" height="8"/>
  <rect x="112" y="120" width="8" height="8"/>
  <rect x="160" y="120" width="16" height="8"/>
  <rect x="216" y="120" width="8" height="8"/>
  <rect x="240" y="120" width="8" height="8"/>
  <rect x="264" y="120" width="8" height="8"/>
  <rect x="280" y="120" width="16" height="8"/>
  <rect x="40" y="128" width="24" height="8"/>
  <rect x="96" y="128" width="24" height="8"/>
  <rect x="128" y="128" width="16" height="8"/>
  <rect x="152" y="128" width="8" height="8"/>
  <rect x="200" y="128" width="32" height="8"/>
  <rect x="264" y="128" width="32" height="8"/>
  <rect x="56" y="136" width="16" height="8"/>
  <rect x="88" y="136" width="32" height="8"/>
  <rect x="160" y="136" width="24" height="8"/>
  <rect x="216" y="136" width="16" height="8"/>
  <rect x="240" y="136" width="8" height="8"/>
  <rect x="264" y="136" width="16" height="8"/>
  <rect x="288" y="136" width="8" height="8"/>
  <rect x="56" y="144" width="16" height="8"/>
  <rect x="80" y="144" width="8" height="8"/>
  <rect x="104" y="144" width="24" height="8"/>
  <rect x="144" y="144" width="8" height="8"/>
  <rect x="160" y="144" width="8" height="8"/>
  <rect x="184" y="144" width="48" height="8"/>
  <rect x="248" y="144" width="8" height="8"/>
  <rect x="288" y="144" width="16" height="8"/>
  <rect x="48" y="152" width="8" height="8"/>
  <rect x="64" y="152" width="48" height="8"/>
  <rect x="120" y="152" width="8" height="8"/>
  <rect x="136" y="152" width="56" height="8"/>
  <rect x="208" y="152" width="16" height="8"/>
  <rect x="240" y="152" width="16" height="8"/>
  <rect x="264" y="152" width="32" height="8"/>
  <rect x="40" y="160" width="8" height="8"/>
  <rect x="72" y="160" width="8" height="8"/>
  <rect x="104" y="160" width="8" height="8"/>
  <rect x="160" y="160" width="16" height="8"/>
  <rect x="184" y="160" width="40" height="8"/>
  <rect x="232" y="160" width="32" height="8"/>
  <rect x="272" y="160" width="16" height="8"/>
  <rect x="40" y="168" width="8" height="8"/>
  <rect x="88" y="168" width="8" height="8"/>
  <rect x="104" y="168" width="8" height="8"/>
  <rect x="120" y="168" width="24" height="8"/>
  <rect x="168" y="168" width="40" height="8"/>
  <rect x="216" y="168" width="8" height="8"/>
  <rect x="232" y="168" width="16" height="8"/>
  <rect x="256" y="168" width="16" height="8"/>
  <rect x="296" y="168" width="8" height="8"/>
  <rect x="80" y="176" width="8" height="8"/>
  <rect x="112" y="176" width="24" height="8"/>
  <rect x="152" y="176" width="8" height="8"/>
  <rect x="168" y="176" width="64" height="8"/>
  <rect x="240" y="176" width="24" height="8"/>
  <rect x="272" y="176" width="16" height="8"/>
  <rect x="296" y="176" width="8" height="8"/>
  <rect x="40" y="184" width="8" height="8"/>
  <rect x="56" y="184" width="8" height="8"/>
  <rect x="80" y="184" width="40" height="8"/>
  <rect x="128" y="184" width="8" height="8"/>
  <rect x="152" y="184" width="24" height="8"/>
  <rect x="200" y="184" width="24" height="8"/>
  <rect x="232" y="184" width="8" height="8"/>
  <rect x="256" y="184" width="16" height="8"/>
  <rect x="280" y="184" width="16" height="8"/>
  <rect x="48" y="192" width="8" height="8"/>
  <rect x="96" y="192" width="8" height="8"/>
  <rect x="120" y="192" width="8" height="8"/>
  <rect x="136" y="192" width="24" height="8"/>
  <rect x="168" y="192" width="8" height="8"/>
  <rect x="184" y="192" width="8" height="8"/>
  <rect x="208" y="192" width="40" height="8"/>
  <rect x="256" y="192" width="32" height="8"/>
  <rect x="296" y="192" width="8" height="8"/>
  <rect x="40" y="200" width="8" height="8"/>
  <rect x="56" y="200" width="8" height="8"/>
  <rect x="72" y="200" width="24" height="8"/>
  <rect x="112" y="200" width="16" height="8"/>
  <rect x="136" y="200" width="24" height="8"/>
  <rect x="168" y="200" width="32" height="8"/>
  <rect x="216" y="200" width="8" height="8"/>
  <rect x="232" y="200" width="16" height="8"/>
  <rect x="264" y="200" width="16" height="8"/>
  <rect x="40" y="208" width="8" height="8"/>
  <rect x="64" y="208" width="16" height="8"/>
  <rect x="96" y="208" width="24" height="8"/>
  <rect x="128" y="208" width="8" height="8"/>
  <rect x="176" y="208" width="8" height="8"/>
  <rect x="192" y="208" width="8" height="8"/>
  <rect x="208" y="208" width="8" height="8"/>
  <rect x="224" y="208" width="8" height="8"/>
  <rect x="248" y="208" width="8" height="8"/>
  <rect x="272" y="208" width="16" height="8"/>
  <rect x="296" y="208" width="8" height="8"/>
  <rect x="40" y="216" width="8" height="8"/>
  <rect x="80" y="216" width="16" height="8"/>
  <rect x="120" y="216" width="16" height="8"/>
  <rect x="144" y="216" width="24" height="8"/>
  <rect x="176" y="216" width="8" height="8"/>
  <rect x="208" y="216" width="16" height="8"/>
  <rect x="232" y="216" width="8" height="8"/>
  <rect x="248" y="216" width="8" height="8"/>
  <rect x="272" y="216" width="8" height="8"/>
  <rect x="288" y="216" width="8" height="8"/>
  <rect x="40" y="224" width="8" height="8"/>
  <rect x="56" y="224" width="16" height="8"/>
  <rect x="128" y="224" width="16" height="8"/>
  <rect x="152" y="224" width="24" height="8"/>
  <rect x="184" y="224" width="8" height="8"/>
  <rect x="200" y="224" width="16" height="8"/>
  <rect x="248" y="224" width="8" height="8"/>
  <rect x="264" y="224" width="40" height="8"/>
  <rect x="40" y="232" width="8" height="8"/>
  <rect x="56" y="232" width="8" height="8"/>
  <rect x="80" y="232" width="24" height="8"/>
  <rect x="112" y="232" width="24" height="8"/>
  <rect x="144" y="232" width="8" height="8"/>
  <rect x="160" y="232" width="8" height="8"/>
  <rect x="176" y="232" width="8" height="8"/>
  <rect x="232" y="232" width="40" height="8"/>
  <rect x="296" y="232" width="8" height="8"/>
  <rect x="104" y="240" width="16" height="8"/>
  <rect x="128" y="240" width="8" height="8"/>
  <rect x="152" y="240" width="8" height="8"/>
  <rect x="176" y="240" width="32" height="8"/>
  <rect x="224" y="240" width="16" height="8"/>
  <rect x="264" y="240" width="8" height="8"/>
  <rect x="280" y="240" width="24" height="8"/>
  <rect x="40" y="248" width="56" height="8"/>
  <rect x="112" y="248" width="8" height="8"/>
  <rect x="128" y="248" width="8" height="8"/>
  <rect x="160" y="248" width="24" height="8"/>
  <rect x="200" y="248" width="8" height="8"/>
  <rect x="216" y="248" width="24" height="8"/>
  <rect x="248" y="248" width="8" height="8"/>
  <rect x="264" y="248" width="8" height="8"/>
  <rect x="280" y="248" width="16" height="8"/>
  <rect x="40" y="256" width="8" height="8"/>
  <rect x="88" y="256" width="8" height="8"/>
  <rect x="104" y="256" width="16" height="8"/>
  <rect x="136" y="256" width="24" height="8"/>
  <rect x="168" y="256" width="8" height="8"/>
  <rect x="192" y="256" width="24" height="8"/>
  <rect x="224" y="256" width="16" height="8"/>
  <rect x="264" y="256" width="32" height="8"/>
  <rect x="40" y="264" width="8" height="8"/>
  <rect x="56" y="264" width="24" height="8"/>
  <rect x="88" y="264" width="8" height="8"/>
  <rect x="104" y="264" width="8" height="8"/>
  <rect x="128" y="264" width="8" height="8"/>
  <rect x="152" y="264" width="8" height="8"/>
  <rect x="176" y="264" width="8" height="8"/>
  <rect x="200" y="264" width="8" height="8"/>
  <rect x="216" y="264" width="8" height="8"/>
  <rect x="232" y="264" width="48" height="8"/>
  <rect x="288" y="264" width="8" height="8"/>
  <rect x="40" y="272" width="8" height="8"/>
  <rect x="56" y="272" width="24" height="8"/>
  <rect x="88" y="272" width="8" height="8"/>
  <rect x="104" y="272" width="24" height="8"/>
  <rect x="144" y="272" width="8" height="8"/>
  <rect x="168" y="272" width="40" height="8"/>
  <rect x="224" y="272" width="24" height="8"/>
  <rect x="264" y="272" width="16" height="8"/>
  <rect x="288" y="272" width="16" height="8"/>
  <rect x="40" y="280" width="8" height="8"/>
  <rect x="56" y="280" width="24" height="8"/>
  <rect x="88" y="280" width="8" height="8"/>
  <rect x="104" y="280" width="16" height="8"/>
  <rect x="160" y="280" width="16" height="8"/>
  <rect x="184" y="280" width="8" height="8"/>
  <rect x="200" y="280" width="8" height="8"/>
  <rect x="216" y="280" width="24" height="8"/>
  <rect x="248" y="280" width="16" height="8"/>
  <rect x="40" y="288" width="8" height="8"/>
  <rect x="88" y="288" width="8" height="8"/>
  <rect x="128" y="288" width="40" height="8"/>
  <rect x="208" y="288" width="8" height="8"/>
  <rect x="240" y="288" width="16" height="8"/>
  <rect x="264" y="288" width="8" height="8"/>
  <rect x="280" y="288" width="8" height="8"/>
  <rect x="40" y="296" width="56" height="8"/>
  <rect x="104" y="296" width="8" height="8"/>
  <rect x="120" y="296" width="24" height="8"/>
  <rect x="152" y="296" width="8" height="8"/>
  <rect x="176" y="296" width="8" height="8"/>
  <rect x="192" y="296" width="8" height="8"/>
  <rect x="216" y="296" width="24" height="8"/>
  <rect x="248" y="296" width="16" height="8"/>
  <rect x="288" y="296" width="8" height="8"/>
</g>
</svg>