<svg xmlns="http://www.w3.org/2000/svg" viewBox="0 0 1000 1000" width="1000" height="1000">
  <g transform="translate(110 100) scale(780.0 780.0) translate(-0.0 -0.0)">
<path d="M 0.875 0.0 L 0.8125 0.07142857142857142 L 0.8125 0.09523809523809523 L 0.8125 0.11904761904761903 L 0.8125 0.14285714285714285 L 0.75 0.21428571428571427 L 0.6875 0.2857142857142857 L 0.625 0.3571428571428571 L 0.5625 0.42857142857142855 L 0.5 0.5 L 0.4375 0.5714285714285714 L 0.375 0.6428571428571428 L 0.3125 0.7142857142857142 L 0.25 0.7857142857142857 L 0.125 0.8571428571428571 L 0.0875 0.9285714285714285" fill="black" />
</g>
  <g transform="translate(690 690) scale(0.5232558139534884 0.5232558139534884) translate(-0.0 -0.0)">
<rect x="40" y="40" width="56" height="8"/>
  <rect x="104" y="40" width="8" height="8"/>
  <rect x="120" y="40" width="16" height="8"/>
  <rect x="160" y="40" width="16" height="8"/>
  <rect x="224" y="40" width="8" height="8"/>
  <rect x="248" y="40" width="56" height="8"/>
  <rect x="40" y="48" width="8" height="8"/>
  <rect x="88" y="48" width="8" height="8"/>
  <rect x="112" y="48" width="8" height="8"/>
  <rect x="128" y="48" width="24" height="8"/>
  <rect x="168" y="48" width="8" height="8"/>
  <rect x="192" y="48" width="16" height="8"/>
  <rect x="216" y="48" width="8" height="8"/>
  <rect x="232" y="48" width="8" height="8"/>
  <rect x="248" y="48" width="8" height="8"/>
  <rect x="296" y="48" width="8" height="8"/>
  <rect x="40" y="56" width="8" height="8"/>
  <rect x="56" y="56" width="24" height="8"/>
  <rect x="88" y="56" width="8" height="8"/>
  <rect x="112" y="56" width="8" height="8"/>
  <rect x="128" y="56" width="8" height="8"/>
  <rect x="176" y="56" width="8" height="8"/>
  <rect x="208" y="56" width="24" height="8"/>
  <rect x="248" y="56" width="8" height="8"/>
  <rect x="264" y="56" width="24" height="8"/>
  <rect x="296" y="56" width="8" height="8"/>
  <rect x="40" y="64" width="8" height="8"/>
  <rect x="56" y="64" width="24" height="8"/>
  <rect x="88" y="64" width="8" height="8"/>
  <rect x="104" y="64" width="8" height="8"/>
  <rect x="128" y="64" width="8" height="8"/>
  <rect x="144" y="64" width="16" height="8"/>
  <rect x="168" y="64" width="8" height="8"/>
  <rect x="184" y="64" width="24" height="8"/>
  <rect x="216" y="64" width="16" height="8"/>
  <rect x="248" y="64" width="8" height="8"/>
  <rect x="264" y="64" width="24" height="8"/>
  <rect x="296" y="64" width="8" height="8"/>
  <rect x="40" y="72" width="8" height="8"/>
  <rect x="56" y="72" width="24" height="8"/>
  <rect x="88" y="72" width="8" height="8"/>
  <rect x="104" y="72" width="8" height="8"/>
  <rect x="120" y="72" width="8" height="8"/>
  <rect x="136" y="72" width="24" height="8"/>
  <rect x="184" y="72" width="8" height="8"/>
  <rect x="208" y="72" width="8" height="8"/>
  <rect x="224" y="72" width="8" height="8"/>
  <rect x="248" y="72" width="8" height="8"/>
  <rect x="264" y="72" width="24" height="8"/>
  <rect x="296" y="72" width="8" height="8"/>
  <rect x="40" y="80" width="8" height="8"/>
  <rect x="88" y="80" width="8" height="8"/>
  <rect x="104" y="80" width="8" height="8"/>
  <rect x="120" y="80" width="8" height="8"/>
  <rect x="192" y="80" width="32" height="8"/>
  <rect x="232" y="80" width="8" height="8"/>
  <rect x="248" y="80" width="8" height="8"/>
  <rect x="296" y="80" width="8" height="8"/>
  <rect x="40" y="88" width="56" height="8"/>
  <rect x="104" y="88" width="8" height="8"/>
  <rect x="120" y="88" width="8" height="8"/>
  <rect x="136" y="88" width="8" height="8"/>
  <rect x="152" y="88" width="8" height="8"/>
  <rect x="168" y="88" width="8" height="8"/>
  <rect x="184" y="88" width="8" height="8"/>
  <rect x="200" y="88" width="8" height="8"/>
  <rect x="216" y="88" width="8" height="8"/>
  <rect x="232" y="88" width="8" height="8"/>
  <rect x="248" y="88" width="56" height="8"/>
  <rect x="104" y="96" width="8" height="8"/>
  <rect x="128" y="96" width="8" height="8"/>
  <rect x="160" y="96" width="32" height="8"/>
  <rect x="208" y="96" width="8" height="8"/>
  <rect x="40" y="104" width="8" height="8"/>
  <rect x="72" y="104" width="8" height="8"/>
  <rect x="88" y="104" width="40" height="8"/>
  <rect x="136" y="104" width="8" height="8"/>
  <rect x="176" y="104" width="8" height="8"/>
  <rect x="200" y="104" width="24" height="8"/>
  <rect x="240" y="104" width="40" height="8"/>
  <rect x="296" y="104" width="8" height="8"/>
  <rect x="48" y="112" width="16" height="8"/>
  <rect x="72" y="112" width="16" height="8"/>
  <rect x="136" y="112" width="56" height="8"/>
  <rect x="208" y="112" width="8" height="8"/>
  <rect x="224" y="112" width="8" height="8"/>
  <rect x="240" y="112" width="8" height="8"/>
  <rect x="272" y="112" width="24" height="8"/>
  <rect x="40" y="120" width="8" height="8"/>
  <rect x="56" y="120" width="16" height="8"/>
  <rect x="88" y="120" width="8" height="8"/>
  <rect x="128" y="120" width="16" height="8"/>
  <rect x="152" y="120" width="16" height="8"/>
  <rect x="176" y="120" width="16" height="8"/>
  <rect x="224" y="120" width="24" height="8"/>
  <rect x="272" y="120" width="8" height="8"/>
  <rect x="288" y="120" width="8" height="8"/>
  <rect x="48" y="128" width="16" height="8"/>
  <rect x="80" y="128" width="8" height="8"/>
  <rect x="96" y="128" width="32" height="8"/>
  <rect x="152" y="128" width="8" height="8"/>
  <rect x="168" y="128" width="24" height="8"/>
  <rect x="200" y="128" width="16" height="8"/>
  <rect x="232" y="128" width="8" height="8"/>
  <rect x="288" y="128" width="8" height="8"/>
  <rect x="40" y="136" width="16" height="8"/>
  <rect x="64" y="136" width="16" height="8"/>
  <rect x="88" y="136" width="8" height="8"/>
  <rect x="112" y="136" width="16" height="8"/>
  <rect x="144" y="136" width="16" height="8"/>
  <rect x="168" y="136" width="16" height="8"/>
  <rect x="192" y="136" width="40" height="8"/>
  <rect x="248" y="136" width="32" height="8"/>
  <rect x="296" y="136" width="8" height="8"/>
  <rect x="56" y="144" width="16" height="8"/>
  <rect x="80" y="144" width="8" height="8"/>
  <rect x="104" y="144" width="8" height="8"/>
  <rect x="120" y="144" width="8" height="8"/>
  <rect x="152" y="144" width="8" height="8"/>
  <rect x="184" y="144" width="8" height="8"/>
  <rect x="216" y="144" width="16" height="8"/>
  <rect x="240" y="144" width="8" height="8"/>
  <rect x="256" y="144" width="8" height="8"/>
  <rect x="40" y="152" width="16" height="8"/>
  <rect x="64" y="152" width="8" height="8"/>
  <rect x="88" y="152" width="16" height="8"/>
  <rect x="144" y="152" width="24" height="8"/>
  <rect x="208" y="152" width="8" height="8"/>
  <rect x="224" y="152" width="32" height="8"/>
  <rect x="288" y="152" width="8" height="8"/>
  <rect x="56" y="160" width="8" height="8"/>
  <rect x="80" y="160" width="8" height="8"/>
  <rect x="96" y="160" width="16" height="8"/>
  <rect x="120" y="160" width="8" height="8"/>
  <rect x="160" y="160" width="8" height="8"/>
  <rect x="176" y="160" width="8" height="8"/>
  <rect x="192" y="160" width="24" height="8"/>
  <rect x="224" y="160" width="8" height="8"/>
  <rect x="240" y="160" width="32" height="8"/>
  <rect x="40" y="168" width="16" height="8"/>
  <rect x="64" y="168" width="8" height="8"/>
  <rect x="88" y="168" width="16" height="8"/>
  <rect x="112" y="168" width="16" height="8"/>
  <rect x="136" y="168" width="56" height="8"/>
  <rect x="208" y="168" width="16" height="8"/>
  <rect x="232" y="168" width="8" height="8"/>
  <rect x="248" y="168" width="8" height="8"/>
  <rect x="264" y="168" width="8" height="8"/>
  <rect x="288" y="168" width="8" height="8"/>
  <rect x="40" y="176" width="32" height="8"/>
  <rect x="80" y="176" width="8" height="8"/>
  <rect x="96" y="176" width="40" height="8"/>
  <rect x="160" y="176" width="32" height="8"/>
  <rect x="216" y="176" width="16" height="8"/>
  <rect x="272" y="176" width="24" height="8"/>
  <rect x="56" y="184" width="8" height="8"/>
  <rect x="88" y="184" width="40" height="8"/>
  <rect x="136" y="184" width="8" height="8"/>
  <rect x="160" y="184" width="8" height="8"/>
  <rect x="176" y="184" width="16" height="8"/>
  <rect x="200" y="184" width="16" height="8"/>
  <rect x="224" y="184" width="8" height="8"/>
  <rect x="256" y="184" width="8" height="8"/>
  <rect x="272" y="184" width="8" height="8"/>
  <rect x="288" y="184" width="8" height="8"/>
  <rect x="48" y="192" width="8" height="8"/>
  <rect x="96" y="192" width="8" height="8"/>
  <rect x="112" y="192" width="8" height="8"/>
  <rect x="128" y="192" width="8" height="8"/>
  <rect x="152" y="192" width="8" height="8"/>
  <rect x="176" y="192" width="8" height="8"/>
  <rect x="208" y="192" width="8" height="8"/>
  <rect x="240" y="192" width="8" height="8"/>
  <rect x="256" y="192" width="8" height="8"/>
  <rect x="296" y="192" width="8" height="8"/>
  <rect x="48" y="200" width="8" height="8"/>
  <rect x="64" y="200" width="8" height="8"/>
  <rect x="80" y="200" width="24" height="8"/>
  <rect x="112" y="200" width="8" height="8"/>
  <rect x="136" y="200" width="16" height="8"/>
  <rect x="160" y="200" width="32" height="8"/>
  <rect x="200" y="200" width="24" height="8"/>
  <rect x="232" y="200" width="8" height="8"/>
  <rect x="248" y="200" width="32" height="8"/>
  <rect x="288" y="200" width="16" height="8"/>
  <rect x="40" y="208" width="16" height="8"/>
  <rect x="72" y="208" width="16" height="8"/>
  <rect x="96" y="208" width="16" height="8"/>
  <rect x="136" y="208" width="16" height="8"/>
  <rect x="160" y="208" width="8" height="8"/>
  <rect x="176" y="208" width="8" height="8"/>
  <rect x="200" y="208" width="8" height="8"/>
  <rect x="224" y="208" width="8" height="8"/>
  <rect x="240" y="208" width="8" height="8"/>
  <rect x="256" y="208" width="8" height="8"/>
  <rect x="272" y="208" width="24" height="8"/>
  <rect x="56" y="216" width="8" height="8"/>
  <rect x="72" y="216" width="8" height="8"/>
  <rect x="88" y="216" width="8" height="8"/>
  <rect x="104" y="216" width="8" height="8"/>
  <rect x="144" y="216" width="32" height="8"/>
  <rect x="184" y="216" width="8" height="8"/>
  <rect x="208" y="216" width="8" height="8"/>
  <rect x="224" y="216" width="8" height="8"/>
  <rect x="248" y="216" width="8" height="8"/>
  <rect x="264" y="216" width="8" height="8"/>
  <rect x="280" y="216" width="16" height="8"/>
  <rect x="56" y="224" width="8" height="8"/>
  <rect x="72" y="224" width="16" height="8"/>
  <rect x="120" y="224" width="24" height="8"/>
  <rect x="152" y="224" width="16" height="8"/>
  <rect x="176" y="224" width="8" height="8"/>
  <rect x="200" y="224" width="40" height="8"/>
  <rect x="248" y="224" width="8" height="8"/>
  <rect x="288" y="224" width="16" height="8"/>
  <rect x="40" y="232" width="32" height="8"/>
  <rect x="80" y="232" width="16" height="8"/>
  <rect x="104" y="232" width="8" height="8"/>
  <rect x="120" y="232" width="8" height="8"/>
  <rect x="152" y="232" width="8" height="8"/>
  <rect x="176" y="232" width="8" height="8"/>
  <rect x="192" y="232" width="24" height="8"/>
  <rect x="232" y="232" width="40" height="8"/>
  <rect x="288" y="232" width="8" height="8"/>
  <rect x="104" y="240" width="8" height="8"/>
  <rect x="128" y="240" width="8" height="8"/>
  <rect x="160" y="240" width="8" height="8"/>
  <rect x="176" y="240" width="16" height="8"/>
  <rect x="208" y="240" width="8" height="8"/>
  <rect x="224" y="240" width="16" height="8"/>
  <rect x="264" y="240" width="8" height="8"/>
  <rect x="280" y="240" width="8" height="8"/>
  <rect x="40" y="248" width="56" height="8"/>
  <rect x="104" y="248" width="16" height="8"/>
  <rect x="136" y="248" width="32" height="8"/>
  <rect x="184" y="248" width="8" height="8"/>
  <rect x="200" y="248" width="8" height="8"/>
  <rect x="232" y="248" width="8" height="8"/>
  <rect x="248" y="248" width="8" height="8"/>
  <rect x="264" y="248" width="16" height="8"/>
  <rect x="288" y="248" width="8" height="8"/>
  <rect x="40" y="256" width="8" height="8"/>
  <rect x="88" y="256" width="8" height="8"/>
  <rect x="120" y="256" width="16" height="8"/>
  <rect x="144" y="256" width="8" height="8"/>
  <rect x="176" y="256" width="48" height="8"/>
  <rect x="232" y="256" width="8" height="8"/>
  <rect x="264" y="256" width="8" height="8"/>
  <rect x="288" y="256" width="8" height="8"/>
  <rect x="40" y="264" width="8" height="8"/>
  <rect x="56" y="264" width="24" height="8"/>
  <rect x="88" y="264" width="8" height="8"/>
  <rect x="104" y="264" width="8" height="8"/>
  <rect x="128" y="264" width="24" height="8"/>
  <rect x="160" y="264" width="8" height="8"/>
  <rect x="176" y="264" width="8" height="8"/>
  <rect x="192" y="264" width="8" height="8"/>
  <rect x="208" y="264" width="16" height="8"/>
  <rect x="232" y="264" width="48" height="8"/>
  <rect x="296" y="264" width="8" height="8"/>
  <rect x="40" y="272" width="8" height="8"/>
  <rect x="56" y="272" width="24" height="8"/>
  <rect x="88" y="272" width="8" height="8"/>
  <rect x="160" y="272" width="32" height="8"/>
  <rect x="208" y="272" width="8" height="8"/>
  <rect x="224" y="272" width="16" height="8"/>
  <rect x="248" y="272" width="32" height="8"/>
  <rect x="40" y="280" width="8" height="8"/>
  <rect x="56" y="280" width="24" height="8"/>
  <rect x="88" y="280" width="8" height="8"/>
  <rect x="112" y="280" width="32" height="8"/>
  <rect x="160" y="280" width="8" height="8"/>
  <rect x="176" y="280" width="8" height="8"/>
  <rect x="200" y="280" width="8" height="8"/>
  <rect x="248" y="280" width="40" height="8"/>
  <rect x="40" y="288" width="8" height="8"/>
  <rect x="88" y="288" width="8" height="8"/>
  <rect x="120" y="288" width="72" height="8"/>
  <rect x="208" y="288" width="48" height="8"/>
  <rect x="272" y="288" width="8" height="8"/>
  <rect x="40" y="296" width="56" height="8"/>
  <rect x="104" y="296" width="24" height="8"/>
  <rect x="136" y="296" width="16" height="8"/>
  <rect x="160" y="296" width="8" height="8"/>
  <rect x="176" y="296" width="8" height="8"/>
  <rect x="200" y="296" width="48" height="8"/>
  <rect x="296" y="296" width="8" height="8"/>
</g>
</svg>