<svg xmlns="http://www.w3.org/2000/svg" viewBox="0 0 1000 1000" width="1000" height="1000">
  <g transform="translate(110 100) scale(780.0 780.0) translate(-0.0 -0.0)">
<path d="M 0.16242640687119286 0.9224264068711928 L 0.17492469902813795 0.9107977149011538 L 0.17892469902813796 0.8900996749590935 L 0.18292469902813796 0.8694528741420688 L 0.19430012881814648 0.8577921923102101 L 0.22444608526984614 0.8638111646349255 L 0.23672956417292762 0.8519676594110229 L 0.24072956417292762 0.8313706082249569 L 0.2525498369328765 0.8195339639170035 L 0.26481292202163986 0.8076700648787828 L 0.2770497134129993 0.7957798721431579 L 0.2892610785210958 0.7838642531242704 L 0.3097507916199358 0.7802269820961263 L 0.3218179391851377 0.7681671455343441 L 0.333857997156139 0.7560802193783613 L 0.3458717112026186 0.7439669492978567 L 0.3578597845987667 0.7318280385670208 L 0.3698228839768475 0.7196641538181173 L 0.3817616439850388 0.7074759296993245 L 0.3861212054278452 0.6877085070151469 L 0.3981338027911366 0.675594120251454 L 0.4101270354074111 0.6634603687407445 L 0.4221013653756708 0.65130771458202 L 0.43405723925278195 0.6391366043321469 L 0.44599508947868277 0.6269474704310637 L 0.4511311086595131 0.6079565054849101 L 0.4631731380078877 0.5958715507063004 L 0.47520116783034433 0.5837725964017729 L 0.48721552053155287 0.5716599649759972 L 0.493004745082509 0.5533222053999693 L 0.5112044460909756 0.5473949222814518 L 0.5290892454164826 0.5411527374799747 L 0.5351423488496793 0.5230788567861873 L 0.552690401389402 0.5164999251989256 L 0.5644694117475608 0.5041519514301005 L 0.576234490695562 0.49179004625111766 L 0.593097598486918 0.48452616991548947 L 0.6046693373115335 0.47197092461312073 L 0.616225951540988 0.45940055471559127 L 0.6277678054946407 0.4468154245422597 L 0.6392952580470574 0.43421589296769236 L 0.6508086629009073 0.42160231369455814 L 0.6623083688392144 0.40897503550588127 L 0.6737947199590082 0.3963344024986908 L 0.6852680558881616 0.38368075430086007 L 0.6967287119870043 0.3710144262727184 L 0.708177019536106 0.35833574969483617 L 0.7164431722019107 0.3424749182336566 L 0.7250725811166987 0.32697734302146064 L 0.7368639969617875 0.3146417747395652 L 0.7512503843628306 0.3049011780136243 L 0.7604233505321968 0.28994716005600635 L 0.7744086791752977 0.27980550457212316 L 0.7859746701478566 0.2672445114176979 L 0.7975322385482507 0.25467509569110797 L 0.8074543332762202 0.24047020629209329 L 0.8177669966929805 0.2266558855818693 L 0.8288126252337785 0.21357452999568316 L 0.838863701018514 0.19949862165343468 L 0.8502654950628223 0.18677343157075874 L 0.8616776792475888 0.17405863162854118 L 0.8717807057346156 0.16003467398858384 L 0.8819045125025589 0.1460314966295431 L 0.8920490995514188 0.13204909955141877 Z"
          fill="black"
          stroke="black"
          stroke-width="0.006"
          stroke-linejoin="round"
          stroke-linecap="round" />
</g>
  <g transform="translate(690 690) scale(0.5232558139534884 0.5232558139534884) translate(-0.0 -0.0)">
<rect x="40" y="40" width="56" height="8"/>
  <rect x="112" y="40" width="16" height="8"/>
  <rect x="152" y="40" width="8" height="8"/>
  <rect x="168" y="40" width="8" height="8"/>
  <rect x="192" y="40" width="24" height="8"/>
  <rect x="224" y="40" width="8" height="8"/>
  <rect x="248" y="40" width="56" height="8"/>
  <rect x="40" y="48" width="8" height="8"/>
  <rect x="88" y="48" width="8" height="8"/>
  <rect x="136" y="48" width="8" height="8"/>
  <rect x="152" y="48" width="24" height="8"/>
  <rect x="208" y="48" width="16" height="8"/>
  <rect x="232" y="48" width="8" height="8"/>
  <rect x="248" y="48" width="8" height="8"/>
  <rect x="296" y="48" width="8" height="8"/>
  <rect x="40" y="56" width="8" height="8"/>
  <rect x="56" y="56" width="24" height="8"/>
  <rect x="88" y="56" width="8" height="8"/>
  <rect x="104" y="56" width="16" height="8"/>
  <rect x="136" y="56" width="8" height="8"/>
  <rect x="168" y="56" width="8" height="8"/>
  <rect x="184" y="56" width="8" height="8"/>
  <rect x="208" y="56" width="8" height="8"/>
  <rect x="232" y="56" width="8" height="8"/>
  <rect x="248" y="56" width="8" height="8"/>
  <rect x="264" y="56" width="24" height="8"/>
  <rect x="296" y="56" width="8" height="8"/>
  <rect x="40" y="64" width="8" height="8"/>
  <rect x="56" y="64" width="24" height="8"/>
  <rect x="88" y="64" width="8" height="8"/>
  <rect x="104" y="64" width="24" height="8"/>
  <rect x="168" y="64" width="16" height="8"/>
  <rect x="192" y="64" width="16" height="8"/>
  <rect x="232" y="64" width="8" height="8"/>
  <rect x="248" y="64" width="8" height="8"/>
  <rect x="264" y="64" width="24" height="8"/>
  <rect x="296" y="64" width="8" height="8"/>
  <rect x="40" y="72" width="8" height="8"/>
  <rect x="56" y="72" width="24" height="8"/>
  <rect x="88" y="72" width="8" height="8"/>
  <rect x="104" y="72" width="16" height="8"/>
  <rect x="128" y="72" width="8" height="8"/>
  <rect x="184" y="72" width="24" height="8"/>
  <rect x="224" y="72" width="8" height="8"/>
  <rect x="248" y="72" width="8" height="8"/>
  <rect x="264" y="72" width="24" height="8"/>
  <rect x="296" y="72" width="8" height="8"/>
  <rect x="40" y="80" width="8" height="8"/>
  <rect x="88" y="80" width="8" height="8"/>
  <rect x="104" y="80" width="8" height="8"/>
  <rect x="144" y="80" width="24" height="8"/>
  <rect x="216" y="80" width="8" height="8"/>
  <rect x="232" y="80" width="8" height="8"/>
  <rect x="248" y="80" width="8" height="8"/>
  <rect x="296" y="80" width="8" height="8"/>
  <rect x="40" y="88" width="56" height="8"/>
  <rect x="104" y="88" width="8" height="8"/>
  <rect x="120" y="88" width="8" height="8"/>
  <rect x="136" y="88" width="8" height="8"/>
  <rect x="152" y="88" width="8" height="8"/>
  <rect x="168" y="88" width="8" height="8"/>
  <rect x="184" y="88" width="8" height="8"/>
  <rect x="200" y="88" width="8" height="8"/>
  <rect x="216" y="88" width="8" height="8"/>
  <rect x="232" y="88" width="8" height="8"/>
  <rect x="248" y="88" width="56" height="8"/>
  <rect x="104" y="96" width="32" height="8"/>
  <rect x="160" y="96" width="8" height="8"/>
  <rect x="208" y="96" width="32" height="8"/>
  <rect x="40" y="104" width="8" height="8"/>
  <rect x="56" y="104" width="40" height="8"/>
  <rect x="112" y="104" width="8" height="8"/>
  <rect x="128" y="104" width="8" height="8"/>
  <rect x="144" y="104" width="16" height="8"/>
  <rect x="176" y="104" width="8" height="8"/>
  <rect x="192" y="104" width="8" height="8"/>
  <rect x="216" y="104" width="8" height="8"/>
  <rect x="248" y="104" width="40" height="8"/>
  <rect x="48" y="112" width="8" height="8"/>
  <rect x="64" y="112" width="24" height="8"/>
  <rect x="96" y="112" width="8" height="8"/>
  <rect x="112" y="112" width="8" height="8"/>
  <rect x="136" y="112" width="16" height="8"/>
  <rect x="168" y="112" width="40" height="8"/>
  <rect x="224" y="112" width="8" height="8"/>
  <rect x="248" y="112" width="16" height="8"/>
  <rect x="272" y="112" width="16" height="8"/>
  <rect x="296" y="112" width="8" height="8"/>
  <rect x="40" y="120" width="56" height="8"/>
  <rect x="104" y="120" width="8" height="8"/>
  <rect x="144" y="120" width="32" height="8"/>
  <rect x="216" y="120" width="8" height="8"/>
  <rect x="240" y="120" width="8" height="8"/>
  <rect x="264" y="120" width="8" height="8"/>
  <rect x="280" y="120" width="16" height="8"/>
  <rect x="40" y="128" width="8" height="8"/>
  <rect x="80" y="128" width="8" height="8"/>
  <rect x="112" y="128" width="16" height="8"/>
  <rect x="136" y="128" width="16" height="8"/>
  <rect x="200" y="128" width="32" height="8"/>
  <rect x="264" y="128" width="32" height="8"/>
  <rect x="48" y="136" width="8" height="8"/>
  <rect x="64" y="136" width="8" height="8"/>
  <rect x="88" y="136" width="8" height="8"/>
  <rect x="104" y="136" width="8" height="8"/>
  <rect x="128" y="136" width="8" height="8"/>
  <rect x="152" y="136" width="32" height="8"/>
  <rect x="216" y="136" width="16" height="8"/>
  <rect x="240" y="136" width="8" height="8"/>
  <rect x="264" y="136" width="16" height="8"/>
  <rect x="288" y="136" width="8" height="8"/>
  <rect x="40" y="144" width="24" height="8"/>
  <rect x="72" y="144" width="8" height="8"/>
  <rect x="96" y="144" width="16" height="8"/>
  <rect x="120" y="144" width="32" height="8"/>
  <rect x="184" y="144" width="48" height="8"/>
  <rect x="248" y="144" width="8" height="8"/>
  <rect x="288" y="144" width="16" height="8"/>
  <rect x="48" y="152" width="8" height="8"/>
  <rect x="64" y="152" width="8" height="8"/>
  <rect x="80" y="152" width="16" height="8"/>
  <rect x="112" y="152" width="32" height="8"/>
  <rect x="160" y="152" width="32" height="8"/>
  <rect x="208" y="152" width="16" height="8"/>
  <rect x="240" y="152" width="16" height="8"/>
  <rect x="264" y="152" width="32" height="8"/>
  <rect x="40" y="160" width="8" height="8"/>
  <rect x="56" y="160" width="24" height="8"/>
  <rect x="96" y="160" width="16" height="8"/>
  <rect x="120" y="160" width="8" height="8"/>
  <rect x="160" y="160" width="16" height="8"/>
  <rect x="184" y="160" width="40" height="8"/>
  <rect x="232" y="160" width="32" height="8"/>
  <rect x="272" y="160" width="16" height="8"/>
  <rect x="40" y="168" width="24" height="8"/>
  <rect x="80" y="168" width="24" height="8"/>
  <rect x="112" y="168" width="8" height="8"/>
  <rect x="128" y="168" width="16" height="8"/>
  <rect x="152" y="168" width="8" height="8"/>
  <rect x="168" y="168" width="40" height="8"/>
  <rect x="216" y="168" width="8" height="8"/>
  <rect x="232" y="168" width="16" height="8"/>
  <rect x="256" y="168" width="16" height="8"/>
  <rect x="296" y="168" width="8" height="8"/>
  <rect x="64" y="176" width="8" height="8"/>
  <rect x="120" y="176" width="24" height="8"/>
  <rect x="152" y="176" width="8" height="8"/>
  <rect x="168" y="176" width="64" height="8"/>
  <rect x="240" y="176" width="24" height="8"/>
  <rect x="272" y="176" width="16" height="8"/>
  <rect x="296" y="176" width="8" height="8"/>
  <rect x="56" y="184" width="24" height="8"/>
  <rect x="88" y="184" width="24" height="8"/>
  <rect x="120" y="184" width="8" height="8"/>
  <rect x="136" y="184" width="8" height="8"/>
  <rect x="152" y="184" width="24" height="8"/>
  <rect x="200" y="184" width="24" height="8"/>
  <rect x="232" y="184" width="8" height="8"/>
  <rect x="256" y="184" width="16" height="8"/>
  <rect x="280" y="184" width="16" height="8"/>
  <rect x="40" y="192" width="8" height="8"/>
  <rect x="56" y="192" width="8" height="8"/>
  <rect x="96" y="192" width="8" height="8"/>
  <rect x="112" y="192" width="16" height="8"/>
  <rect x="136" y="192" width="24" height="8"/>
  <rect x="168" y="192" width="8" height="8"/>
  <rect x="184" y="192" width="8" height="8"/>
  <rect x="208" y="192" width="40" height="8"/>
  <rect x="256" y="192" width="32" height="8"/>
  <rect x="296" y="192" width="8" height="8"/>
  <rect x="40" y="200" width="32" height="8"/>
  <rect x="80" y="200" width="16" height="8"/>
  <rect x="120" y="200" width="40" height="8"/>
  <rect x="168" y="200" width="32" height="8"/>
  <rect x="216" y="200" width="8" height="8"/>
  <rect x="232" y="200" width="16" height="8"/>
  <rect x="264" y="200" width="16" height="8"/>
  <rect x="40" y="208" width="8" height="8"/>
  <rect x="64" y="208" width="8" height="8"/>
  <rect x="80" y="208" width="8" height="8"/>
  <rect x="104" y="208" width="8" height="8"/>
  <rect x="120" y="208" width="16" height="8"/>
  <rect x="176" y="208" width="8" height="8"/>
  <rect x="192" y="208" width="8" height="8"/>
  <rect x="208" y="208" width="8" height="8"/>
  <rect x="224" y="208" width="8" height="8"/>
  <rect x="248" y="208" width="8" height="8"/>
  <rect x="272" y="208" width="16" height="8"/>
  <rect x="296" y="208" width="8" height="8"/>
  <rect x="40" y="216" width="8" height="8"/>
  <rect x="80" y="216" width="24" height="8"/>
  <rect x="120" y="216" width="8" height="8"/>
  <rect x="152" y="216" width="16" height="8"/>
  <rect x="176" y="216" width="8" height="8"/>
  <rect x="208" y="216" width="16" height="8"/>
  <rect x="232" y="216" width="8" height="8"/>
  <rect x="248" y="216" width="8" height="8"/>
  <rect x="272" y="216" width="8" height="8"/>
  <rect x="288" y="216" width="8" height="8"/>
  <rect x="40" y="224" width="8" height="8"/>
  <rect x="56" y="224" width="16" height="8"/>
  <rect x="96" y="224" width="16" height="8"/>
  <rect x="120" y="224" width="8" height="8"/>
  <rect x="136" y="224" width="8" height="8"/>
  <rect x="160" y="224" width="16" height="8"/>
  <rect x="184" y="224" width="8" height="8"/>
  <rect x="200" y="224" width="16" height="8"/>
  <rect x="248" y="224" width="8" height="8"/>
  <rect x="264" y="224" width="32" height="8"/>
  <rect x="40" y="232" width="8" height="8"/>
  <rect x="56" y="232" width="8" height="8"/>
  <rect x="80" y="232" width="16" height="8"/>
  <rect x="128" y="232" width="16" height="8"/>
  <rect x="152" y="232" width="16" height="8"/>
  <rect x="176" y="232" width="8" height="8"/>
  <rect x="232" y="232" width="40" height="8"/>
  <rect x="288" y="232" width="16" height="8"/>
  <rect x="104" y="240" width="32" height="8"/>
  <rect x="144" y="240" width="16" height="8"/>
  <rect x="176" y="240" width="32" height="8"/>
  <rect x="224" y="240" width="16" height="8"/>
  <rect x="264" y="240" width="8" height="8"/>
  <rect x="280" y="240" width="24" height="8"/>
  <rect x="40" y="248" width="56" height="8"/>
  <rect x="112" y="248" width="16" height="8"/>
  <rect x="160" y="248" width="24" height="8"/>
  <rect x="200" y="248" width="8" height="8"/>
  <rect x="216" y="248" width="24" height="8"/>
  <rect x="248" y="248" width="8" height="8"/>
  <rect x="264" y="248" width="8" height="8"/>
  <rect x="280" y="248" width="16" height="8"/>
  <rect x="40" y="256" width="8" height="8"/>
  <rect x="88" y="256" width="8" height="8"/>
  <rect x="104" y="256" width="8" height="8"/>
  <rect x="120" y="256" width="16" height="8"/>
  <rect x="144" y="256" width="8" height="8"/>
  <rect x="168" y="256" width="8" height="8"/>
  <rect x="192" y="256" width="24" height="8"/>
  <rect x="224" y="256" width="16" height="8"/>
  <rect x="264" y="256" width="32" height="8"/>
  <rect x="40" y="264" width="8" height="8"/>
  <rect x="56" y="264" width="24" height="8"/>
  <rect x="88" y="264" width="8" height="8"/>
  <rect x="104" y="264" width="32" height="8"/>
  <rect x="176" y="264" width="8" height="8"/>
  <rect x="200" y="264" width="8" height="8"/>
  <rect x="216" y="264" width="8" height="8"/>
  <rect x="232" y="264" width="48" height="8"/>
  <rect x="288" y="264" width="8" height="8"/>
  <rect x="40" y="272" width="8" height="8"/>
  <rect x="56" y="272" width="24" height="8"/>
  <rect x="88" y="272" width="8" height="8"/>
  <rect x="104" y="272" width="40" height="8"/>
  <rect x="168" y="272" width="40" height="8"/>
  <rect x="224" y="272" width="24" height="8"/>
  <rect x="264" y="272" width="16" height="8"/>
  <rect x="288" y="272" width="16" height="8"/>
  <rect x="40" y="280" width="8" height="8"/>
  <rect x="56" y="280" width="24" height="8"/>
  <rect x="88" y="280" width="8" height="8"/>
  <rect x="104" y="280" width="8" height="8"/>
  <rect x="152" y="280" width="24" height="8"/>
  <rect x="184" y="280" width="8" height="8"/>
  <rect x="200" y="280" width="8" height="8"/>
  <rect x="216" y="280" width="24" height="8"/>
  <rect x="248" y="280" width="16" height="8"/>
  <rect x="40" y="288" width="8" height="8"/>
  <rect x="88" y="288" width="8" height="8"/>
  <rect x="112" y="288" width="8" height="8"/>
  <rect x="152" y="288" width="16" height="8"/>
  <rect x="208" y="288" width="8" height="8"/>
  <rect x="240" y="288" width="16" height="8"/>
  <rect x="264" y="288" width="8" height="8"/>
  <rect x="280" y="288" width="8" height="8"/>
  <rect x="40" y="296" width="56" height="8"/>
  <rect x="104" y="296" width="8" height="8"/>
  <rect x="128" y="296" width="24" height="8"/>
  <rect x="176" y="296" width="8" height="8"/>
  <rect x="192" y="296" width="8" height="8"/>
  <rect x="216" y="296" width="24" height="8"/>
  <rect x="248" y="296" width="16" height="8"/>
  <rect x="288" y="296" width="8" height="8"/>
</g>
</svg>