<svg xmlns="http://www.w3.org/2000/svg" viewBox="0 0 1000 1000" width="1000" height="1000">
  <g transform="translate(110 100) scale(780.0 780.0) translate(-0.0 -0.0)">
<path d="M 0.15333503397022297 0.913335033970223 L 0.15733503397022297 0.8926831505095707 L 0.17835364321306174 0.8900996749590935 L 0.199768325994636 0.8873873736136836 L 0.203768325994636 0.8667053170864039 L 0.21559256337849259 0.854957642743572 L 0.22794082059444723 0.8431789158325426 L 0.24025949711384575 0.8313706082249569 L 0.24425949711384576 0.8108893599798493 L 0.2562472917518908 0.7991044346090337 L 0.2770497134129993 0.7957798721431579 L 0.2892610785210958 0.7838642531242704 L 0.3097507916199358 0.7802269820961263 L 0.3218179391851377 0.7681671455343441 L 0.3258179391851377 0.7479724734802148 L 0.3378672814540026 0.7359625195492406 L 0.3578597845987667 0.7318280385670208 L 0.3620359801442541 0.7118772499855239 L 0.36641588405842407 0.6921301697727098 L 0.3785657397457178 0.6801530413330195 L 0.3906990587306595 0.668159376190977 L 0.39550544544543 0.6488387787787634 L 0.41491766991550255 0.6441240191218517 L 0.43405723925278195 0.6391366043321469 L 0.4390747490324104 0.6200271299847914 L 0.4443468817064589 0.6011722785318558 L 0.4565278906037972 0.58922630330221 L 0.47520116783034433 0.5837725964017729 L 0.4935744736030989 0.5780189180475434 L 0.5054282764902555 0.5657457368077158 L 0.5233283807832819 0.5595188569737582 L 0.5349988635769959 0.547062355640488 L 0.5466519029709123 0.5345884109074203 L 0.5582879031810039 0.5220974269905275 L 0.5644694117475608 0.5041519514301005 L 0.576234490695562 0.49179004625111766 L 0.5879859661201255 0.479414537548697 L 0.5997241604116808 0.467025747713268 L 0.6114493907645265 0.45462399393912983 L 0.6154493907645265 0.43299791641553576 L 0.625996096152095 0.4209167310727299 L 0.6380338676799493 0.4088275184736001 L 0.6541453304504481 0.40081199711711485 L 0.6659889889912132 0.38852867153089576 L 0.6815457034276985 0.37995840184039686 L 0.6967287119870043 0.3710144262727184 L 0.7048210800097061 0.3549798101684362 L 0.7164431722019107 0.3424749182336566 L 0.7280552379324998 0.3299599998372617 L 0.7368639969617875 0.3146417747395652 L 0.7486475121730389 0.3022983058238326 L 0.7604233505321968 0.28994716005600635 L 0.7721917335478259 0.27758855894465145 L 0.7839528805404907 0.26522272181033196 L 0.795707008723018 0.25284986586587527 L 0.8074543332762202 0.24047020629209329 L 0.8163389259655458 0.2252278148544346 L 0.8274722971146641 0.21223420187656875 L 0.838863701018514 0.19949862165343468 L 0.8489355570841661 0.18544349359210258 L 0.8616776792475888 0.17405863162854118 L 0.8717807057346156 0.16003467398858384 L 0.8819045125025589 0.1460314966295431 L 0.8920490995514188 0.13204909955141877 Z"
          fill="black"
          stroke="black"
          stroke-width="0.006"
          stroke-linejoin="round"
          stroke-linecap="round" />
</g>
  <g transform="translate(690 690) scale(0.5232558139534884 0.5232558139534884) translate(-0.0 -0.0)">
<rect x="40" y="40" width="56" height="8"/>
  <rect x="112" y="40" width="8" height="8"/>
  <rect x="128" y="40" width="8" height="8"/>
  <rect x="144" y="40" width="16" height="8"/>
  <rect x="168" y="40" width="8" height="8"/>
  <rect x="192" y="40" width="24" height="8"/>
  <rect x="224" y="40" width="8" height="8"/>
  <rect x="248" y="40" width="56" height="8"/>
  <rect x="40" y="48" width="8" height="8"/>
  <rect x="88" y="48" width="8" height="8"/>
  <rect x="136" y="48" width="40" height="8"/>
  <rect x="208" y="48" width="16" height="8"/>
  <rect x="232" y="48" width="8" height="8"/>
  <rect x="248" y="48" width="8" height="8"/>
  <rect x="296" y="48" width="8" height="8"/>
  <rect x="40" y="56" width="8" height="8"/>
  <rect x="56" y="56" width="24" height="8"/>
  <rect x="88" y="56" width="8" height="8"/>
  <rect x="104" y="56" width="8" height="8"/>
  <rect x="136" y="56" width="16" height="8"/>
  <rect x="168" y="56" width="8" height="8"/>
  <rect x="184" y="56" width="8" height="8"/>
  <rect x="208" y="56" width="8" height="8"/>
  <rect x="232" y="56" width="8" height="8"/>
  <rect x="248" y="56" width="8" height="8"/>
  <rect x="264" y="56" width="24" height="8"/>
  <rect x="296" y="56" width="8" height="8"/>
  <rect x="40" y="64" width="8" height="8"/>
  <rect x="56" y="64" width="24" height="8"/>
  <rect x="88" y="64" width="8" height="8"/>
  <rect x="104" y="64" width="24" height="8"/>
  <rect x="152" y="64" width="8" height="8"/>
  <rect x="176" y="64" width="8" height="8"/>
  <rect x="192" y="64" width="16" height="8"/>
  <rect x="232" y="64" width="8" height="8"/>
  <rect x="248" y="64" width="8" height="8"/>
  <rect x="264" y="64" width="24" height="8"/>
  <rect x="296" y="64" width="8" height="8"/>
  <rect x="40" y="72" width="8" height="8"/>
  <rect x="56" y="72" width="24" height="8"/>
  <rect x="88" y="72" width="8" height="8"/>
  <rect x="104" y="72" width="8" height="8"/>
  <rect x="128" y="72" width="8" height="8"/>
  <rect x="160" y="72" width="8" height="8"/>
  <rect x="184" y="72" width="24" height="8"/>
  <rect x="224" y="72" width="8" height="8"/>
  <rect x="248" y="72" width="8" height="8"/>
  <rect x="264" y="72" width="24" height="8"/>
  <rect x="296" y="72" width="8" height="8"/>
  <rect x="40" y="80" width="8" height="8"/>
  <rect x="88" y="80" width="8" height="8"/>
  <rect x="104" y="80" width="32" height="8"/>
  <rect x="144" y="80" width="24" height="8"/>
  <rect x="216" y="80" width="8" height="8"/>
  <rect x="232" y="80" width="8" height="8"/>
  <rect x="248" y="80" width="8" height="8"/>
  <rect x="296" y="80" width="8" height="8"/>
  <rect x="40" y="88" width="56" height="8"/>
  <rect x="104" y="88" width="8" height="8"/>
  <rect x="120" y="88" width="8" height="8"/>
  <rect x="136" y="88" width="8" height="8"/>
  <rect x="152" y="88" width="8" height="8"/>
  <rect x="168" y="88" width="8" height="8"/>
  <rect x="184" y="88" width="8" height="8"/>
  <rect x="200" y="88" width="8" height="8"/>
  <rect x="216" y="88" width="8" height="8"/>
  <rect x="232" y="88" width="8" height="8"/>
  <rect x="248" y="88" width="56" height="8"/>
  <rect x="104" y="96" width="40" height="8"/>
  <rect x="160" y="96" width="8" height="8"/>
  <rect x="208" y="96" width="32" height="8"/>
  <rect x="40" y="104" width="8" height="8"/>
  <rect x="56" y="104" width="40" height="8"/>
  <rect x="120" y="104" width="8" height="8"/>
  <rect x="144" y="104" width="24" height="8"/>
  <rect x="176" y="104" width="8" height="8"/>
  <rect x="192" y="104" width="8" height="8"/>
  <rect x="216" y="104" width="8" height="8"/>
  <rect x="248" y="104" width="40" height="8"/>
  <rect x="40" y="112" width="40" height="8"/>
  <rect x="96" y="112" width="24" height="8"/>
  <rect x="128" y="112" width="16" height="8"/>
  <rect x="168" y="112" width="40" height="8"/>
  <rect x="224" y="112" width="8" height="8"/>
  <rect x="248" y="112" width="16" height="8"/>
  <rect x="272" y="112" width="16" height="8"/>
  <rect x="296" y="112" width="8" height="8"/>
  <rect x="40" y="120" width="16" height="8"/>
  <rect x="64" y="120" width="8" height="8"/>
  <rect x="88" y="120" width="16" height="8"/>
  <rect x="112" y="120" width="8" height="8"/>
  <rect x="128" y="120" width="8" height="8"/>
  <rect x="160" y="120" width="16" height="8"/>
  <rect x="216" y="120" width="8" height="8"/>
  <rect x="240" y="120" width="8" height="8"/>
  <rect x="264" y="120" width="8" height="8"/>
  <rect x="280" y="120" width="16" height="8"/>
  <rect x="40" y="128" width="16" height="8"/>
  <rect x="64" y="128" width="8" height="8"/>
  <rect x="104" y="128" width="8" height="8"/>
  <rect x="120" y="128" width="8" height="8"/>
  <rect x="152" y="128" width="8" height="8"/>
  <rect x="200" y="128" width="32" height="8"/>
  <rect x="264" y="128" width="32" height="8"/>
  <rect x="88" y="136" width="24" height="8"/>
  <rect x="120" y="136" width="24" height="8"/>
  <rect x="160" y="136" width="24" height="8"/>
  <rect x="216" y="136" width="16" height="8"/>
  <rect x="240" y="136" width="8" height="8"/>
  <rect x="264" y="136" width="16" height="8"/>
  <rect x="288" y="136" width="8" height="8"/>
  <rect x="40" y="144" width="32" height="8"/>
  <rect x="80" y="144" width="8" height="8"/>
  <rect x="96" y="144" width="24" height="8"/>
  <rect x="128" y="144" width="16" height="8"/>
  <rect x="152" y="144" width="8" height="8"/>
  <rect x="184" y="144" width="48" height="8"/>
  <rect x="248" y="144" width="8" height="8"/>
  <rect x="288" y="144" width="16" height="8"/>
  <rect x="40" y="152" width="24" height="8"/>
  <rect x="72" y="152" width="32" height="8"/>
  <rect x="112" y="152" width="8" height="8"/>
  <rect x="144" y="152" width="48" height="8"/>
  <rect x="208" y="152" width="16" height="8"/>
  <rect x="240" y="152" width="16" height="8"/>
  <rect x="264" y="152" width="32" height="8"/>
  <rect x="48" y="160" width="16" height="8"/>
  <rect x="80" y="160" width="8" height="8"/>
  <rect x="104" y="160" width="8" height="8"/>
  <rect x="120" y="160" width="8" height="8"/>
  <rect x="160" y="160" width="16" height="8"/>
  <rect x="184" y="160" width="40" height="8"/>
  <rect x="232" y="160" width="32" height="8"/>
  <rect x="272" y="160" width="16" height="8"/>
  <rect x="56" y="168" width="24" height="8"/>
  <rect x="88" y="168" width="16" height="8"/>
  <rect x="128" y="168" width="16" height="8"/>
  <rect x="168" y="168" width="40" height="8"/>
  <rect x="216" y="168" width="8" height="8"/>
  <rect x="232" y="168" width="16" height="8"/>
  <rect x="256" y="168" width="16" height="8"/>
  <rect x="296" y="168" width="8" height="8"/>
  <rect x="40" y="176" width="8" height="8"/>
  <rect x="80" y="176" width="8" height="8"/>
  <rect x="96" y="176" width="8" height="8"/>
  <rect x="120" y="176" width="8" height="8"/>
  <rect x="136" y="176" width="8" height="8"/>
  <rect x="168" y="176" width="64" height="8"/>
  <rect x="240" y="176" width="24" height="8"/>
  <rect x="272" y="176" width="16" height="8"/>
  <rect x="296" y="176" width="8" height="8"/>
  <rect x="40" y="184" width="8" height="8"/>
  <rect x="80" y="184" width="16" height="8"/>
  <rect x="120" y="184" width="16" height="8"/>
  <rect x="144" y="184" width="8" height="8"/>
  <rect x="160" y="184" width="16" height="8"/>
  <rect x="200" y="184" width="24" height="8"/>
  <rect x="232" y="184" width="8" height="8"/>
  <rect x="256" y="184" width="16" height="8"/>
  <rect x="280" y="184" width="16" height="8"/>
  <rect x="40" y="192" width="8" height="8"/>
  <rect x="64" y="192" width="16" height="8"/>
  <rect x="104" y="192" width="8" height="8"/>
  <rect x="120" y="192" width="24" height="8"/>
  <rect x="168" y="192" width="8" height="8"/>
  <rect x="184" y="192" width="8" height="8"/>
  <rect x="208" y="192" width="40" height="8"/>
  <rect x="256" y="192" width="32" height="8"/>
  <rect x="296" y="192" width="8" height="8"/>
  <rect x="48" y="200" width="8" height="8"/>
  <rect x="80" y="200" width="16" height="8"/>
  <rect x="104" y="200" width="32" height="8"/>
  <rect x="144" y="200" width="16" height="8"/>
  <rect x="168" y="200" width="32" height="8"/>
  <rect x="216" y="200" width="8" height="8"/>
  <rect x="232" y="200" width="16" height="8"/>
  <rect x="264" y="200" width="16" height="8"/>
  <rect x="40" y="208" width="8" height="8"/>
  <rect x="72" y="208" width="8" height="8"/>
  <rect x="120" y="208" width="8" height="8"/>
  <rect x="136" y="208" width="8" height="8"/>
  <rect x="152" y="208" width="8" height="8"/>
  <rect x="176" y="208" width="8" height="8"/>
  <rect x="192" y="208" width="8" height="8"/>
  <rect x="208" y="208" width="8" height="8"/>
  <rect x="224" y="208" width="8" height="8"/>
  <rect x="248" y="208" width="8" height="8"/>
  <rect x="272" y="208" width="16" height="8"/>
  <rect x="296" y="208" width="8" height="8"/>
  <rect x="40" y="216" width="8" height="8"/>
  <rect x="64" y="216" width="8" height="8"/>
  <rect x="88" y="216" width="16" height="8"/>
  <rect x="128" y="216" width="16" height="8"/>
  <rect x="152" y="216" width="16" height="8"/>
  <rect x="176" y="216" width="8" height="8"/>
  <rect x="208" y="216" width="16" height="8"/>
  <rect x="232" y="216" width="8" height="8"/>
  <rect x="248" y="216" width="8" height="8"/>
  <rect x="272" y="216" width="8" height="8"/>
  <rect x="288" y="216" width="8" height="8"/>
  <rect x="40" y="224" width="8" height="8"/>
  <rect x="64" y="224" width="16" height="8"/>
  <rect x="104" y="224" width="8" height="8"/>
  <rect x="120" y="224" width="8" height="8"/>
  <rect x="144" y="224" width="8" height="8"/>
  <rect x="160" y="224" width="16" height="8"/>
  <rect x="184" y="224" width="8" height="8"/>
  <rect x="200" y="224" width="16" height="8"/>
  <rect x="248" y="224" width="8" height="8"/>
  <rect x="264" y="224" width="24" height="8"/>
  <rect x="40" y="232" width="8" height="8"/>
  <rect x="56" y="232" width="64" height="8"/>
  <rect x="128" y="232" width="8" height="8"/>
  <rect x="152" y="232" width="16" height="8"/>
  <rect x="176" y="232" width="8" height="8"/>
  <rect x="232" y="232" width="40" height="8"/>
  <rect x="288" y="232" width="16" height="8"/>
  <rect x="104" y="240" width="16" height="8"/>
  <rect x="128" y="240" width="16" height="8"/>
  <rect x="176" y="240" width="32" height="8"/>
  <rect x="224" y="240" width="16" height="8"/>
  <rect x="264" y="240" width="8" height="8"/>
  <rect x="280" y="240" width="24" height="8"/>
  <rect x="40" y="248" width="56" height="8"/>
  <rect x="112" y="248" width="32" height="8"/>
  <rect x="160" y="248" width="24" height="8"/>
  <rect x="200" y="248" width="8" height="8"/>
  <rect x="216" y="248" width="24" height="8"/>
  <rect x="248" y="248" width="8" height="8"/>
  <rect x="264" y="248" width="8" height="8"/>
  <rect x="280" y="248" width="16" height="8"/>
  <rect x="40" y="256" width="8" height="8"/>
  <rect x="88" y="256" width="8" height="8"/>
  <rect x="104" y="256" width="16" height="8"/>
  <rect x="128" y="256" width="8" height="8"/>
  <rect x="168" y="256" width="8" height="8"/>
  <rect x="192" y="256" width="24" height="8"/>
  <rect x="224" y="256" width="16" height="8"/>
  <rect x="264" y="256" width="32" height="8"/>
  <rect x="40" y="264" width="8" height="8"/>
  <rect x="56" y="264" width="24" height="8"/>
  <rect x="88" y="264" width="8" height="8"/>
  <rect x="104" y="264" width="24" height="8"/>
  <rect x="136" y="264" width="24" height="8"/>
  <rect x="176" y="264" width="8" height="8"/>
  <rect x="200" y="264" width="8" height="8"/>
  <rect x="216" y="264" width="8" height="8"/>
  <rect x="232" y="264" width="48" height="8"/>
  <rect x="288" y="264" width="8" height="8"/>
  <rect x="40" y="272" width="8" height="8"/>
  <rect x="56" y="272" width="24" height="8"/>
  <rect x="88" y="272" width="8" height="8"/>
  <rect x="104" y="272" width="8" height="8"/>
  <rect x="144" y="272" width="16" height="8"/>
  <rect x="168" y="272" width="40" height="8"/>
  <rect x="224" y="272" width="24" height="8"/>
  <rect x="264" y="272" width="16" height="8"/>
  <rect x="288" y="272" width="16" height="8"/>
  <rect x="40" y="280" width="8" height="8"/>
  <rect x="56" y="280" width="24" height="8"/>
  <rect x="88" y="280" width="8" height="8"/>
  <rect x="104" y="280" width="24" height="8"/>
  <rect x="136" y="280" width="8" height="8"/>
  <rect x="160" y="280" width="16" height="8"/>
  <rect x="184" y="280" width="8" height="8"/>
  <rect x="200" y="280" width="8" height="8"/>
  <rect x="216" y="280" width="24" height="8"/>
  <rect x="248" y="280" width="16" height="8"/>
  <rect x="40" y="288" width="8" height="8"/>
  <rect x="88" y="288" width="8" height="8"/>
  <rect x="120" y="288" width="8" height="8"/>
  <rect x="136" y="288" width="8" height="8"/>
  <rect x="160" y="288" width="8" height="8"/>
  <rect x="208" y="288" width="8" height="8"/>
  <rect x="240" y="288" width="16" height="8"/>
  <rect x="264" y="288" width="8" height="8"/>
  <rect x="280" y="288" width="8" height="8"/>
  <rect x="40" y="296" width="56" height="8"/>
  <rect x="104" y="296" width="8" height="8"/>
  <rect x="128" y="296" width="16" height="8"/>
  <rect x="152" y="296" width="8" height="8"/>
  <rect x="176" y="296" width="8" height="8"/>
  <rect x="192" y="296" width="8" height="8"/>
  <rect x="216" y="296" width="24" height="8"/>
  <rect x="248" y="296" width="16" height="8"/>
  <rect x="288" y="296" width="8" height="8"/>
</g>
</svg>