<svg xmlns="http://www.w3.org/2000/svg" viewBox="0 0 1000 1000" width="1000" height="1000">
  <g transform="translate(110 100) scale(780.0 780.0) translate(-0.0 -0.0)">
<path d="M 0.1454558441227157 0.9054558441227157 L 0.16647123564539917 0.902344251518415 L 0.17895467646264251 0.8907007082086743 L 0.19139889290788245 0.87901794052693 L 0.212126378370534 0.8756184418625975 L 0.22444608526984614 0.8638111646349255 L 0.23672956417292762 0.8519676594110229 L 0.2489785322633603 0.8400896433744715 L 0.26119444087003063 0.8281785678541576 L 0.27337855229138897 0.8162356951485319 L 0.2776151983676288 0.7963453570977875 L 0.28982072389811314 0.7844238985012878 L 0.30200134229497444 0.7724775327711649 L 0.31415779379724196 0.7605070001464482 L 0.32629076765120224 0.7485129898734245 L 0.3384009101039103 0.7364961481991483 L 0.3431178767205623 0.7170861306888163 L 0.348019553245586 0.6978608230868558 L 0.3674389347201984 0.6931532204344841 L 0.37957313517000146 0.6811604367573031 L 0.3986294523951684 0.6760897698554857 L 0.4106144217394771 0.6639477550728106 L 0.42258027840634865 0.6517866276126979 L 0.4345274739143922 0.6396068389937573 L 0.4464564455084342 0.6274088264608152 L 0.4520356722532537 0.6088610690786507 L 0.46405917099509975 0.5967575836935125 L 0.48213820031028365 0.5907096288817122 L 0.4939984038078687 0.5784428482523131 L 0.5058423942038469 0.5661598545213072 L 0.517670544593539 0.5538610207840152 L 0.5294832199605168 0.541546712024009 L 0.5359096524577616 0.5238461603942695 L 0.5530635681755087 0.5168730919850324 L 0.5648319350143896 0.5045144746969292 L 0.5815103650071262 0.49706592056268173 L 0.5883267416112451 0.4797553130398165 L 0.600053838871671 0.4673554261732582 L 0.611767828149624 0.45494243132422724 L 0.6234690251885487 0.4425166442361678 L 0.6351577410130691 0.43007837593370407 L 0.642859901430089 0.4136535522237398 L 0.6546895330096991 0.40135619967636593 L 0.6665093710557328 0.3890490535954154 L 0.6783196646286304 0.37673236304132873 L 0.6934246858231521 0.36771040010886624 L 0.7050448093114661 0.35520353947019623 L 0.7136957229869514 0.33972746901869727 L 0.7282540817202199 0.33015884362498177 L 0.7398437884990463 0.31762156627682403 L 0.7489945617983444 0.3026453554491382 L 0.7607447711245948 0.2902685806484043 L 0.7724873262981555 0.277884151694981 L 0.7842224524881395 0.2654922937579808 L 0.7942468248628318 0.2513896820056891 L 0.8061524858224327 0.23916835883830576 L 0.816719744826195 0.22560863371508386 L 0.8279190731543689 0.21268097791627355 L 0.8393977542380682 0.20003267487298879 L 0.8496448573394495 0.18615279384738587 L 0.8611477820842179 0.17352873446517036 L 0.8714288263110962 0.1596827945650644 L 0.8817292654668297 0.14585624959381394 L 0.8920490995514188 0.13204909955141877 Z"
          fill="black"
          stroke="black"
          stroke-width="0.006"
          stroke-linejoin="round"
          stroke-linecap="round" />
</g>
  <g transform="translate(690 690) scale(0.5232558139534884 0.5232558139534884) translate(-0.0 -0.0)">
<rect x="40" y="40" width="56" height="8"/>
  <rect x="120" y="40" width="40" height="8"/>
  <rect x="168" y="40" width="40" height="8"/>
  <rect x="224" y="40" width="8" height="8"/>
  <rect x="248" y="40" width="56" height="8"/>
  <rect x="40" y="48" width="8" height="8"/>
  <rect x="88" y="48" width="8" height="8"/>
  <rect x="112" y="48" width="8" height="8"/>
  <rect x="136" y="48" width="40" height="8"/>
  <rect x="184" y="48" width="8" height="8"/>
  <rect x="216" y="48" width="8" height="8"/>
  <rect x="232" y="48" width="8" height="8"/>
  <rect x="248" y="48" width="8" height="8"/>
  <rect x="296" y="48" width="8" height="8"/>
  <rect x="40" y="56" width="8" height="8"/>
  <rect x="56" y="56" width="24" height="8"/>
  <rect x="88" y="56" width="8" height="8"/>
  <rect x="104" y="56" width="48" height="8"/>
  <rect x="168" y="56" width="8" height="8"/>
  <rect x="192" y="56" width="24" height="8"/>
  <rect x="224" y="56" width="16" height="8"/>
  <rect x="248" y="56" width="8" height="8"/>
  <rect x="264" y="56" width="24" height="8"/>
  <rect x="296" y="56" width="8" height="8"/>
  <rect x="40" y="64" width="8" height="8"/>
  <rect x="56" y="64" width="24" height="8"/>
  <rect x="88" y="64" width="8" height="8"/>
  <rect x="104" y="64" width="8" height="8"/>
  <rect x="152" y="64" width="8" height="8"/>
  <rect x="168" y="64" width="16" height="8"/>
  <rect x="192" y="64" width="8" height="8"/>
  <rect x="216" y="64" width="8" height="8"/>
  <rect x="232" y="64" width="8" height="8"/>
  <rect x="248" y="64" width="8" height="8"/>
  <rect x="264" y="64" width="24" height="8"/>
  <rect x="296" y="64" width="8" height="8"/>
  <rect x="40" y="72" width="8" height="8"/>
  <rect x="56" y="72" width="24" height="8"/>
  <rect x="88" y="72" width="8" height="8"/>
  <rect x="104" y="72" width="24" height="8"/>
  <rect x="136" y="72" width="8" height="8"/>
  <rect x="160" y="72" width="8" height="8"/>
  <rect x="192" y="72" width="24" height="8"/>
  <rect x="224" y="72" width="16" height="8"/>
  <rect x="248" y="72" width="8" height="8"/>
  <rect x="264" y="72" width="24" height="8"/>
  <rect x="296" y="72" width="8" height="8"/>
  <rect x="40" y="80" width="8" height="8"/>
  <rect x="88" y="80" width="8" height="8"/>
  <rect x="104" y="80" width="16" height="8"/>
  <rect x="128" y="80" width="24" height="8"/>
  <rect x="160" y="80" width="16" height="8"/>
  <rect x="208" y="80" width="16" height="8"/>
  <rect x="232" y="80" width="8" height="8"/>
  <rect x="248" y="80" width="8" height="8"/>
  <rect x="296" y="80" width="8" height="8"/>
  <rect x="40" y="88" width="56" height="8"/>
  <rect x="104" y="88" width="8" height="8"/>
  <rect x="120" y="88" width="8" height="8"/>
  <rect x="136" y="88" width="8" height="8"/>
  <rect x="152" y="88" width="8" height="8"/>
  <rect x="168" y="88" width="8" height="8"/>
  <rect x="184" y="88" width="8" height="8"/>
  <rect x="200" y="88" width="8" height="8"/>
  <rect x="216" y="88" width="8" height="8"/>
  <rect x="232" y="88" width="8" height="8"/>
  <rect x="248" y="88" width="56" height="8"/>
  <rect x="104" y="96" width="16" height="8"/>
  <rect x="152" y="96" width="16" height="8"/>
  <rect x="184" y="96" width="40" height="8"/>
  <rect x="40" y="104" width="8" height="8"/>
  <rect x="56" y="104" width="40" height="8"/>
  <rect x="112" y="104" width="16" height="8"/>
  <rect x="144" y="104" width="24" height="8"/>
  <rect x="176" y="104" width="8" height="8"/>
  <rect x="192" y="104" width="8" height="8"/>
  <rect x="216" y="104" width="16" height="8"/>
  <rect x="248" y="104" width="40" height="8"/>
  <rect x="40" y="112" width="8" height="8"/>
  <rect x="56" y="112" width="24" height="8"/>
  <rect x="136" y="112" width="8" height="8"/>
  <rect x="152" y="112" width="8" height="8"/>
  <rect x="184" y="112" width="24" height="8"/>
  <rect x="224" y="112" width="8" height="8"/>
  <rect x="248" y="112" width="16" height="8"/>
  <rect x="272" y="112" width="16" height="8"/>
  <rect x="296" y="112" width="8" height="8"/>
  <rect x="72" y="120" width="8" height="8"/>
  <rect x="88" y="120" width="16" height="8"/>
  <rect x="112" y="120" width="32" height="8"/>
  <rect x="160" y="120" width="16" height="8"/>
  <rect x="200" y="120" width="16" height="8"/>
  <rect x="240" y="120" width="16" height="8"/>
  <rect x="264" y="120" width="8" height="8"/>
  <rect x="280" y="120" width="16" height="8"/>
  <rect x="56" y="128" width="32" height="8"/>
  <rect x="96" y="128" width="16" height="8"/>
  <rect x="152" y="128" width="8" height="8"/>
  <rect x="168" y="128" width="8" height="8"/>
  <rect x="184" y="128" width="8" height="8"/>
  <rect x="208" y="128" width="8" height="8"/>
  <rect x="240" y="128" width="16" height="8"/>
  <rect x="264" y="128" width="24" height="8"/>
  <rect x="296" y="128" width="8" height="8"/>
  <rect x="40" y="136" width="56" height="8"/>
  <rect x="112" y="136" width="8" height="8"/>
  <rect x="128" y="136" width="8" height="8"/>
  <rect x="176" y="136" width="16" height="8"/>
  <rect x="216" y="136" width="8" height="8"/>
  <rect x="232" y="136" width="16" height="8"/>
  <rect x="256" y="136" width="24" height="8"/>
  <rect x="288" y="136" width="16" height="8"/>
  <rect x="40" y="144" width="8" height="8"/>
  <rect x="56" y="144" width="8" height="8"/>
  <rect x="120" y="144" width="16" height="8"/>
  <rect x="144" y="144" width="32" height="8"/>
  <rect x="192" y="144" width="16" height="8"/>
  <rect x="216" y="144" width="16" height="8"/>
  <rect x="248" y="144" width="8" height="8"/>
  <rect x="272" y="144" width="32" height="8"/>
  <rect x="72" y="152" width="8" height="8"/>
  <rect x="88" y="152" width="8" height="8"/>
  <rect x="104" y="152" width="32" height="8"/>
  <rect x="144" y="152" width="16" height="8"/>
  <rect x="184" y="152" width="8" height="8"/>
  <rect x="200" y="152" width="16" height="8"/>
  <rect x="240" y="152" width="16" height="8"/>
  <rect x="264" y="152" width="8" height="8"/>
  <rect x="280" y="152" width="16" height="8"/>
  <rect x="40" y="160" width="8" height="8"/>
  <rect x="64" y="160" width="8" height="8"/>
  <rect x="96" y="160" width="8" height="8"/>
  <rect x="112" y="160" width="8" height="8"/>
  <rect x="144" y="160" width="8" height="8"/>
  <rect x="168" y="160" width="8" height="8"/>
  <rect x="200" y="160" width="32" height="8"/>
  <rect x="240" y="160" width="24" height="8"/>
  <rect x="272" y="160" width="16" height="8"/>
  <rect x="40" y="168" width="8" height="8"/>
  <rect x="64" y="168" width="40" height="8"/>
  <rect x="176" y="168" width="8" height="8"/>
  <rect x="216" y="168" width="32" height="8"/>
  <rect x="256" y="168" width="16" height="8"/>
  <rect x="296" y="168" width="8" height="8"/>
  <rect x="40" y="176" width="48" height="8"/>
  <rect x="96" y="176" width="16" height="8"/>
  <rect x="120" y="176" width="16" height="8"/>
  <rect x="144" y="176" width="8" height="8"/>
  <rect x="168" y="176" width="16" height="8"/>
  <rect x="192" y="176" width="24" height="8"/>
  <rect x="224" y="176" width="8" height="8"/>
  <rect x="240" y="176" width="24" height="8"/>
  <rect x="272" y="176" width="16" height="8"/>
  <rect x="296" y="176" width="8" height="8"/>
  <rect x="40" y="184" width="8" height="8"/>
  <rect x="64" y="184" width="32" height="8"/>
  <rect x="104" y="184" width="8" height="8"/>
  <rect x="120" y="184" width="8" height="8"/>
  <rect x="144" y="184" width="8" height="8"/>
  <rect x="160" y="184" width="16" height="8"/>
  <rect x="208" y="184" width="16" height="8"/>
  <rect x="232" y="184" width="40" height="8"/>
  <rect x="280" y="184" width="16" height="8"/>
  <rect x="40" y="192" width="8" height="8"/>
  <rect x="56" y="192" width="8" height="8"/>
  <rect x="112" y="192" width="16" height="8"/>
  <rect x="144" y="192" width="16" height="8"/>
  <rect x="200" y="192" width="16" height="8"/>
  <rect x="224" y="192" width="8" height="8"/>
  <rect x="248" y="192" width="48" height="8"/>
  <rect x="40" y="200" width="8" height="8"/>
  <rect x="72" y="200" width="32" height="8"/>
  <rect x="128" y="200" width="16" height="8"/>
  <rect x="160" y="200" width="32" height="8"/>
  <rect x="200" y="200" width="8" height="8"/>
  <rect x="216" y="200" width="8" height="8"/>
  <rect x="232" y="200" width="16" height="8"/>
  <rect x="256" y="200" width="24" height="8"/>
  <rect x="40" y="208" width="8" height="8"/>
  <rect x="72" y="208" width="8" height="8"/>
  <rect x="112" y="208" width="8" height="8"/>
  <rect x="128" y="208" width="24" height="8"/>
  <rect x="160" y="208" width="8" height="8"/>
  <rect x="192" y="208" width="24" height="8"/>
  <rect x="224" y="208" width="8" height="8"/>
  <rect x="240" y="208" width="16" height="8"/>
  <rect x="280" y="208" width="8" height="8"/>
  <rect x="296" y="208" width="8" height="8"/>
  <rect x="40" y="216" width="8" height="8"/>
  <rect x="64" y="216" width="8" height="8"/>
  <rect x="80" y="216" width="16" height="8"/>
  <rect x="120" y="216" width="72" height="8"/>
  <rect x="200" y="216" width="8" height="8"/>
  <rect x="216" y="216" width="8" height="8"/>
  <rect x="232" y="216" width="8" height="8"/>
  <rect x="256" y="216" width="8" height="8"/>
  <rect x="272" y="216" width="24" height="8"/>
  <rect x="40" y="224" width="8" height="8"/>
  <rect x="56" y="224" width="8" height="8"/>
  <rect x="72" y="224" width="8" height="8"/>
  <rect x="112" y="224" width="8" height="8"/>
  <rect x="144" y="224" width="24" height="8"/>
  <rect x="184" y="224" width="72" height="8"/>
  <rect x="272" y="224" width="16" height="8"/>
  <rect x="40" y="232" width="8" height="8"/>
  <rect x="72" y="232" width="40" height="8"/>
  <rect x="120" y="232" width="8" height="8"/>
  <rect x="160" y="232" width="8" height="8"/>
  <rect x="176" y="232" width="8" height="8"/>
  <rect x="192" y="232" width="16" height="8"/>
  <rect x="216" y="232" width="8" height="8"/>
  <rect x="232" y="232" width="48" height="8"/>
  <rect x="296" y="232" width="8" height="8"/>
  <rect x="104" y="240" width="24" height="8"/>
  <rect x="136" y="240" width="8" height="8"/>
  <rect x="168" y="240" width="8" height="8"/>
  <rect x="184" y="240" width="24" height="8"/>
  <rect x="224" y="240" width="16" height="8"/>
  <rect x="264" y="240" width="8" height="8"/>
  <rect x="280" y="240" width="8" height="8"/>
  <rect x="296" y="240" width="8" height="8"/>
  <rect x="40" y="248" width="56" height="8"/>
  <rect x="112" y="248" width="56" height="8"/>
  <rect x="200" y="248" width="40" height="8"/>
  <rect x="248" y="248" width="8" height="8"/>
  <rect x="264" y="248" width="8" height="8"/>
  <rect x="280" y="248" width="16" height="8"/>
  <rect x="40" y="256" width="8" height="8"/>
  <rect x="88" y="256" width="8" height="8"/>
  <rect x="104" y="256" width="16" height="8"/>
  <rect x="168" y="256" width="8" height="8"/>
  <rect x="184" y="256" width="16" height="8"/>
  <rect x="208" y="256" width="32" height="8"/>
  <rect x="264" y="256" width="24" height="8"/>
  <rect x="40" y="264" width="8" height="8"/>
  <rect x="56" y="264" width="24" height="8"/>
  <rect x="88" y="264" width="8" height="8"/>
  <rect x="104" y="264" width="40" height="8"/>
  <rect x="184" y="264" width="8" height="8"/>
  <rect x="200" y="264" width="8" height="8"/>
  <rect x="216" y="264" width="8" height="8"/>
  <rect x="232" y="264" width="48" height="8"/>
  <rect x="288" y="264" width="8" height="8"/>
  <rect x="40" y="272" width="8" height="8"/>
  <rect x="56" y="272" width="24" height="8"/>
  <rect x="88" y="272" width="8" height="8"/>
  <rect x="104" y="272" width="16" height="8"/>
  <rect x="144" y="272" width="32" height="8"/>
  <rect x="184" y="272" width="16" height="8"/>
  <rect x="224" y="272" width="8" height="8"/>
  <rect x="240" y="272" width="8" height="8"/>
  <rect x="264" y="272" width="8" height="8"/>
  <rect x="280" y="272" width="24" height="8"/>
  <rect x="40" y="280" width="8" height="8"/>
  <rect x="56" y="280" width="24" height="8"/>
  <rect x="88" y="280" width="8" height="8"/>
  <rect x="104" y="280" width="24" height="8"/>
  <rect x="136" y="280" width="24" height="8"/>
  <rect x="216" y="280" width="16" height="8"/>
  <rect x="248" y="280" width="16" height="8"/>
  <rect x="40" y="288" width="8" height="8"/>
  <rect x="88" y="288" width="8" height="8"/>
  <rect x="128" y="288" width="8" height="8"/>
  <rect x="144" y="288" width="8" height="8"/>
  <rect x="168" y="288" width="8" height="8"/>
  <rect x="184" y="288" width="8" height="8"/>
  <rect x="200" y="288" width="16" height="8"/>
  <rect x="224" y="288" width="8" height="8"/>
  <rect x="240" y="288" width="8" height="8"/>
  <rect x="264" y="288" width="24" height="8"/>
  <rect x="40" y="296" width="56" height="8"/>
  <rect x="104" y="296" width="24" height="8"/>
  <rect x="136" y="296" width="24" height="8"/>
  <rect x="176" y="296" width="32" height="8"/>
  <rect x="216" y="296" width="24" height="8"/>
  <rect x="256" y="296" width="8" height="8"/>
  <rect x="288" y="296" width="8" height="8"/>
</g>
</svg>