<svg xmlns="http://www.w3.org/2000/svg" viewBox="0 0 1000 1000" width="1000" height="1000">
  <g transform="translate(110 100) scale(780.0 780.0) translate(-0.0 -0.0)">
<path d="M 0.13697056274847713 0.8969705627484772 L 0.14956430887992161 0.8854373247529375 L 0.17054021096851146 0.8822862427145433 L 0.17466002673437528 0.8622790743534229 L 0.19548854545497232 0.8589806089470359 L 0.1996562239740562 0.8390213033391356 L 0.22852673683301258 0.8437648320711079 L 0.2408407661238134 0.8319518772349246 L 0.25312614386202015 0.8201102708461471 L 0.26538396403962317 0.8082411068967661 L 0.2776151983676288 0.7963453570977875 L 0.28982072389811314 0.7844238985012878 L 0.3097507916199358 0.7802269820961263 L 0.3218179391851377 0.7681671455343441 L 0.32629076765120224 0.7485129898734245 L 0.3384009101039103 0.7364961481991483 L 0.3504888306596645 0.7244570846279186 L 0.362555107066427 0.7123963769076969 L 0.37460028935261863 0.7003145750669043 L 0.38662490313998704 0.6882122047272886 L 0.3986294523951684 0.6760897698554857 L 0.4106144217394771 0.6639477550728106 L 0.429285060835839 0.6584914100421883 L 0.44111075917693643 0.6461901242563014 L 0.4464564455084342 0.6274088264608152 L 0.45836761740943766 0.6151930142348345 L 0.47026140190558413 0.602959814603997 L 0.48213820031028365 0.5907096288817122 L 0.48806338094109236 0.5725078253855368 L 0.49206338094109237 0.5487669105504623 L 0.5063548722140531 0.5425453484045293 L 0.5184519327275589 0.530515424791051 L 0.5305385272011861 0.5184750351376941 L 0.5426148981645185 0.5064244219740421 L 0.5546812835431878 0.4943638232257274 L 0.5716620662922065 0.4872176218477621 L 0.5835558847355721 0.4749844561641436 L 0.600053838871671 0.4673554261732582 L 0.611767828149624 0.45494243132422724 L 0.6277678054946407 0.4468154245422597 L 0.6392952580470574 0.43421589296769236 L 0.6468342821654982 0.41762793295914896 L 0.6546895330096991 0.40135619967636593 L 0.6701520455073705 0.3926917280470531 L 0.6817938602583961 0.3802065586710944 L 0.6934246858231521 0.36771040010886624 L 0.7050448093114661 0.35520353947019623 L 0.7166545144492152 0.3426862604809612 L 0.7282540817202199 0.33015884362498177 L 0.7346291533088435 0.31240693108662115 L 0.7465652144212055 0.3002160080719993 L 0.7584948269778092 0.2880186365016187 L 0.7683490277935416 0.27374585319036715 L 0.7785614415875148 0.2598312828573562 L 0.792543277025948 0.24968613416880528 L 0.803114841763595 0.23613071477946818 L 0.8153868788139226 0.2242757677028115 L 0.8266681002431955 0.2114300050051001 L 0.8381516300591085 0.19878655069402917 L 0.8496448573394495 0.18615279384738587 L 0.859911355369686 0.17229230775063845 L 0.8714288263110962 0.1596827945650644 L 0.8817292654668297 0.14585624959381394 L 0.8920490995514188 0.13204909955141877 Z"
          fill="black"
          stroke="black"
          stroke-width="0.006"
          stroke-linejoin="round"
          stroke-linecap="round" />
</g>
  <g transform="translate(690 690) scale(0.5232558139534884 0.5232558139534884) translate(-0.0 -0.0)">
<rect x="40" y="40" width="56" height="8"/>
  <rect x="112" y="40" width="16" height="8"/>
  <rect x="152" y="40" width="8" height="8"/>
  <rect x="168" y="40" width="8" height="8"/>
  <rect x="192" y="40" width="24" height="8"/>
  <rect x="224" y="40" width="8" height="8"/>
  <rect x="248" y="40" width="56" height="8"/>
  <rect x="40" y="48" width="8" height="8"/>
  <rect x="88" y="48" width="8" height="8"/>
  <rect x="136" y="48" width="16" height="8"/>
  <rect x="160" y="48" width="16" height="8"/>
  <rect x="208" y="48" width="16" height="8"/>
  <rect x="232" y="48" width="8" height="8"/>
  <rect x="248" y="48" width="8" height="8"/>
  <rect x="296" y="48" width="8" height="8"/>
  <rect x="40" y="56" width="8" height="8"/>
  <rect x="56" y="56" width="24" height="8"/>
  <rect x="88" y="56" width="8" height="8"/>
  <rect x="104" y="56" width="16" height="8"/>
  <rect x="136" y="56" width="8" height="8"/>
  <rect x="152" y="56" width="8" height="8"/>
  <rect x="168" y="56" width="8" height="8"/>
  <rect x="184" y="56" width="8" height="8"/>
  <rect x="208" y="56" width="8" height="8"/>
  <rect x="232" y="56" width="8" height="8"/>
  <rect x="248" y="56" width="8" height="8"/>
  <rect x="264" y="56" width="24" height="8"/>
  <rect x="296" y="56" width="8" height="8"/>
  <rect x="40" y="64" width="8" height="8"/>
  <rect x="56" y="64" width="24" height="8"/>
  <rect x="88" y="64" width="8" height="8"/>
  <rect x="104" y="64" width="16" height="8"/>
  <rect x="136" y="64" width="8" height="8"/>
  <rect x="168" y="64" width="16" height="8"/>
  <rect x="192" y="64" width="16" height="8"/>
  <rect x="232" y="64" width="8" height="8"/>
  <rect x="248" y="64" width="8" height="8"/>
  <rect x="264" y="64" width="24" height="8"/>
  <rect x="296" y="64" width="8" height="8"/>
  <rect x="40" y="72" width="8" height="8"/>
  <rect x="56" y="72" width="24" height="8"/>
  <rect x="88" y="72" width="8" height="8"/>
  <rect x="104" y="72" width="16" height="8"/>
  <rect x="136" y="72" width="8" height="8"/>
  <rect x="184" y="72" width="24" height="8"/>
  <rect x="224" y="72" width="8" height="8"/>
  <rect x="248" y="72" width="8" height="8"/>
  <rect x="264" y="72" width="24" height="8"/>
  <rect x="296" y="72" width="8" height="8"/>
  <rect x="40" y="80" width="8" height="8"/>
  <rect x="88" y="80" width="8" height="8"/>
  <rect x="104" y="80" width="8" height="8"/>
  <rect x="128" y="80" width="8" height="8"/>
  <rect x="144" y="80" width="32" height="8"/>
  <rect x="216" y="80" width="8" height="8"/>
  <rect x="232" y="80" width="8" height="8"/>
  <rect x="248" y="80" width="8" height="8"/>
  <rect x="296" y="80" width="8" height="8"/>
  <rect x="40" y="88" width="56" height="8"/>
  <rect x="104" y="88" width="8" height="8"/>
  <rect x="120" y="88" width="8" height="8"/>
  <rect x="136" y="88" width="8" height="8"/>
  <rect x="152" y="88" width="8" height="8"/>
  <rect x="168" y="88" width="8" height="8"/>
  <rect x="184" y="88" width="8" height="8"/>
  <rect x="200" y="88" width="8" height="8"/>
  <rect x="216" y="88" width="8" height="8"/>
  <rect x="232" y="88" width="8" height="8"/>
  <rect x="248" y="88" width="56" height="8"/>
  <rect x="104" y="96" width="24" height="8"/>
  <rect x="160" y="96" width="16" height="8"/>
  <rect x="208" y="96" width="32" height="8"/>
  <rect x="40" y="104" width="8" height="8"/>
  <rect x="56" y="104" width="40" height="8"/>
  <rect x="112" y="104" width="8" height="8"/>
  <rect x="144" y="104" width="24" height="8"/>
  <rect x="176" y="104" width="8" height="8"/>
  <rect x="192" y="104" width="8" height="8"/>
  <rect x="216" y="104" width="8" height="8"/>
  <rect x="248" y="104" width="40" height="8"/>
  <rect x="48" y="112" width="8" height="8"/>
  <rect x="64" y="112" width="8" height="8"/>
  <rect x="80" y="112" width="8" height="8"/>
  <rect x="96" y="112" width="8" height="8"/>
  <rect x="112" y="112" width="8" height="8"/>
  <rect x="136" y="112" width="16" height="8"/>
  <rect x="168" y="112" width="40" height="8"/>
  <rect x="224" y="112" width="8" height="8"/>
  <rect x="248" y="112" width="16" height="8"/>
  <rect x="272" y="112" width="16" height="8"/>
  <rect x="296" y="112" width="8" height="8"/>
  <rect x="40" y="120" width="32" height="8"/>
  <rect x="88" y="120" width="8" height="8"/>
  <rect x="104" y="120" width="24" height="8"/>
  <rect x="144" y="120" width="32" height="8"/>
  <rect x="216" y="120" width="8" height="8"/>
  <rect x="240" y="120" width="8" height="8"/>
  <rect x="264" y="120" width="8" height="8"/>
  <rect x="280" y="120" width="16" height="8"/>
  <rect x="80" y="128" width="8" height="8"/>
  <rect x="136" y="128" width="16" height="8"/>
  <rect x="200" y="128" width="32" height="8"/>
  <rect x="264" y="128" width="32" height="8"/>
  <rect x="40" y="136" width="8" height="8"/>
  <rect x="64" y="136" width="8" height="8"/>
  <rect x="88" y="136" width="8" height="8"/>
  <rect x="112" y="136" width="8" height="8"/>
  <rect x="128" y="136" width="16" height="8"/>
  <rect x="152" y="136" width="32" height="8"/>
  <rect x="216" y="136" width="16" height="8"/>
  <rect x="240" y="136" width="8" height="8"/>
  <rect x="264" y="136" width="16" height="8"/>
  <rect x="288" y="136" width="8" height="8"/>
  <rect x="40" y="144" width="8" height="8"/>
  <rect x="56" y="144" width="8" height="8"/>
  <rect x="72" y="144" width="16" height="8"/>
  <rect x="96" y="144" width="8" height="8"/>
  <rect x="120" y="144" width="32" height="8"/>
  <rect x="184" y="144" width="48" height="8"/>
  <rect x="248" y="144" width="8" height="8"/>
  <rect x="288" y="144" width="16" height="8"/>
  <rect x="48" y="152" width="8" height="8"/>
  <rect x="64" y="152" width="8" height="8"/>
  <rect x="80" y="152" width="16" height="8"/>
  <rect x="112" y="152" width="32" height="8"/>
  <rect x="160" y="152" width="32" height="8"/>
  <rect x="208" y="152" width="16" height="8"/>
  <rect x="240" y="152" width="16" height="8"/>
  <rect x="264" y="152" width="32" height="8"/>
  <rect x="40" y="160" width="8" height="8"/>
  <rect x="56" y="160" width="24" height="8"/>
  <rect x="96" y="160" width="16" height="8"/>
  <rect x="120" y="160" width="16" height="8"/>
  <rect x="160" y="160" width="16" height="8"/>
  <rect x="184" y="160" width="40" height="8"/>
  <rect x="232" y="160" width="32" height="8"/>
  <rect x="272" y="160" width="16" height="8"/>
  <rect x="40" y="168" width="16" height="8"/>
  <rect x="80" y="168" width="16" height="8"/>
  <rect x="112" y="168" width="8" height="8"/>
  <rect x="136" y="168" width="8" height="8"/>
  <rect x="152" y="168" width="8" height="8"/>
  <rect x="168" y="168" width="40" height="8"/>
  <rect x="216" y="168" width="8" height="8"/>
  <rect x="232" y="168" width="16" height="8"/>
  <rect x="256" y="168" width="16" height="8"/>
  <rect x="296" y="168" width="8" height="8"/>
  <rect x="40" y="176" width="8" height="8"/>
  <rect x="64" y="176" width="16" height="8"/>
  <rect x="112" y="176" width="32" height="8"/>
  <rect x="152" y="176" width="8" height="8"/>
  <rect x="168" y="176" width="64" height="8"/>
  <rect x="240" y="176" width="24" height="8"/>
  <rect x="272" y="176" width="16" height="8"/>
  <rect x="296" y="176" width="8" height="8"/>
  <rect x="40" y="184" width="8" height="8"/>
  <rect x="56" y="184" width="64" height="8"/>
  <rect x="136" y="184" width="8" height="8"/>
  <rect x="160" y="184" width="16" height="8"/>
  <rect x="200" y="184" width="24" height="8"/>
  <rect x="232" y="184" width="8" height="8"/>
  <rect x="256" y="184" width="16" height="8"/>
  <rect x="280" y="184" width="16" height="8"/>
  <rect x="40" y="192" width="8" height="8"/>
  <rect x="56" y="192" width="8" height="8"/>
  <rect x="96" y="192" width="8" height="8"/>
  <rect x="112" y="192" width="8" height="8"/>
  <rect x="136" y="192" width="8" height="8"/>
  <rect x="152" y="192" width="8" height="8"/>
  <rect x="168" y="192" width="8" height="8"/>
  <rect x="184" y="192" width="8" height="8"/>
  <rect x="208" y="192" width="40" height="8"/>
  <rect x="256" y="192" width="32" height="8"/>
  <rect x="296" y="192" width="8" height="8"/>
  <rect x="40" y="200" width="8" height="8"/>
  <rect x="56" y="200" width="8" height="8"/>
  <rect x="80" y="200" width="16" height="8"/>
  <rect x="104" y="200" width="8" height="8"/>
  <rect x="128" y="200" width="8" height="8"/>
  <rect x="144" y="200" width="16" height="8"/>
  <rect x="168" y="200" width="32" height="8"/>
  <rect x="216" y="200" width="8" height="8"/>
  <rect x="232" y="200" width="16" height="8"/>
  <rect x="264" y="200" width="16" height="8"/>
  <rect x="40" y="208" width="8" height="8"/>
  <rect x="64" y="208" width="8" height="8"/>
  <rect x="80" y="208" width="8" height="8"/>
  <rect x="104" y="208" width="8" height="8"/>
  <rect x="120" y="208" width="16" height="8"/>
  <rect x="176" y="208" width="8" height="8"/>
  <rect x="192" y="208" width="8" height="8"/>
  <rect x="208" y="208" width="8" height="8"/>
  <rect x="224" y="208" width="8" height="8"/>
  <rect x="248" y="208" width="8" height="8"/>
  <rect x="272" y="208" width="16" height="8"/>
  <rect x="296" y="208" width="8" height="8"/>
  <rect x="40" y="216" width="8" height="8"/>
  <rect x="80" y="216" width="16" height="8"/>
  <rect x="120" y="216" width="16" height="8"/>
  <rect x="152" y="216" width="16" height="8"/>
  <rect x="176" y="216" width="8" height="8"/>
  <rect x="208" y="216" width="16" height="8"/>
  <rect x="232" y="216" width="8" height="8"/>
  <rect x="248" y="216" width="8" height="8"/>
  <rect x="272" y="216" width="8" height="8"/>
  <rect x="288" y="216" width="8" height="8"/>
  <rect x="40" y="224" width="8" height="8"/>
  <rect x="64" y="224" width="8" height="8"/>
  <rect x="120" y="224" width="8" height="8"/>
  <rect x="136" y="224" width="8" height="8"/>
  <rect x="160" y="224" width="16" height="8"/>
  <rect x="184" y="224" width="8" height="8"/>
  <rect x="200" y="224" width="16" height="8"/>
  <rect x="248" y="224" width="8" height="8"/>
  <rect x="264" y="224" width="32" height="8"/>
  <rect x="40" y="232" width="8" height="8"/>
  <rect x="56" y="232" width="8" height="8"/>
  <rect x="80" y="232" width="16" height="8"/>
  <rect x="136" y="232" width="8" height="8"/>
  <rect x="152" y="232" width="16" height="8"/>
  <rect x="176" y="232" width="8" height="8"/>
  <rect x="232" y="232" width="40" height="8"/>
  <rect x="288" y="232" width="16" height="8"/>
  <rect x="104" y="240" width="8" height="8"/>
  <rect x="120" y="240" width="16" height="8"/>
  <rect x="152" y="240" width="8" height="8"/>
  <rect x="176" y="240" width="32" height="8"/>
  <rect x="224" y="240" width="16" height="8"/>
  <rect x="264" y="240" width="8" height="8"/>
  <rect x="280" y="240" width="24" height="8"/>
  <rect x="40" y="248" width="56" height="8"/>
  <rect x="152" y="248" width="32" height="8"/>
  <rect x="200" y="248" width="8" height="8"/>
  <rect x="216" y="248" width="24" height="8"/>
  <rect x="248" y="248" width="8" height="8"/>
  <rect x="264" y="248" width="8" height="8"/>
  <rect x="280" y="248" width="16" height="8"/>
  <rect x="40" y="256" width="8" height="8"/>
  <rect x="88" y="256" width="8" height="8"/>
  <rect x="104" y="256" width="32" height="8"/>
  <rect x="144" y="256" width="16" height="8"/>
  <rect x="168" y="256" width="8" height="8"/>
  <rect x="192" y="256" width="24" height="8"/>
  <rect x="224" y="256" width="16" height="8"/>
  <rect x="264" y="256" width="32" height="8"/>
  <rect x="40" y="264" width="8" height="8"/>
  <rect x="56" y="264" width="24" height="8"/>
  <rect x="88" y="264" width="8" height="8"/>
  <rect x="104" y="264" width="16" height="8"/>
  <rect x="128" y="264" width="8" height="8"/>
  <rect x="144" y="264" width="16" height="8"/>
  <rect x="176" y="264" width="8" height="8"/>
  <rect x="200" y="264" width="8" height="8"/>
  <rect x="216" y="264" width="8" height="8"/>
  <rect x="232" y="264" width="48" height="8"/>
  <rect x="288" y="264" width="8" height="8"/>
  <rect x="40" y="272" width="8" height="8"/>
  <rect x="56" y="272" width="24" height="8"/>
  <rect x="88" y="272" width="8" height="8"/>
  <rect x="104" y="272" width="40" height="8"/>
  <rect x="168" y="272" width="40" height="8"/>
  <rect x="224" y="272" width="24" height="8"/>
  <rect x="264" y="272" width="16" height="8"/>
  <rect x="288" y="272" width="16" height="8"/>
  <rect x="40" y="280" width="8" height="8"/>
  <rect x="56" y="280" width="24" height="8"/>
  <rect x="88" y="280" width="8" height="8"/>
  <rect x="104" y="280" width="8" height="8"/>
  <rect x="128" y="280" width="16" height="8"/>
  <rect x="152" y="280" width="24" height="8"/>
  <rect x="184" y="280" width="8" height="8"/>
  <rect x="200" y="280" width="8" height="8"/>
  <rect x="216" y="280" width="24" height="8"/>
  <rect x="248" y="280" width="16" height="8"/>
  <rect x="40" y="288" width="8" height="8"/>
  <rect x="88" y="288" width="8" height="8"/>
  <rect x="112" y="288" width="8" height="8"/>
  <rect x="152" y="288" width="16" height="8"/>
  <rect x="208" y="288" width="8" height="8"/>
  <rect x="240" y="288" width="16" height="8"/>
  <rect x="264" y="288" width="8" height="8"/>
  <rect x="280" y="288" width="8" height="8"/>
  <rect x="40" y="296" width="56" height="8"/>
  <rect x="104" y="296" width="8" height="8"/>
  <rect x="128" y="296" width="24" height="8"/>
  <rect x="176" y="296" width="8" height="8"/>
  <rect x="192" y="296" width="8" height="8"/>
  <rect x="216" y="296" width="24" height="8"/>
  <rect x="248" y="296" width="16" height="8"/>
  <rect x="288" y="296" width="8" height="8"/>
</g>
</svg>