<svg xmlns="http://www.w3.org/2000/svg" viewBox="0 0 1000 1000" width="1000" height="1000">
  <g transform="translate(110 100) scale(780.0 780.0) translate(-0.0 -0.0)">
<path d="M 0.15333503397022297 0.913335033970223 L 0.15733503397022297 0.8926831505095707 L 0.16133503397022297 0.8720686774716698 L 0.16533503397022298 0.851518374670454 L 0.16933503397022298 0.8310528179816288 L 0.1801784758130784 0.8195435551781577 L 0.201574589859006 0.8168126850971014 L 0.21410239166530204 0.8052135027764131 L 0.2352606290585683 0.8022447560426953 L 0.2476816614821417 0.7905388043392846 L 0.2685674390935559 0.7872975978237146 L 0.2808663978658352 0.7754695724690098 L 0.293144828780733 0.7636210192569235 L 0.3136106405552494 0.7599598469044557 L 0.32575025125799245 0.7479724734802148 L 0.3378672814540026 0.7359625195492406 L 0.34996233394972864 0.7239305879179827 L 0.3620359801442541 0.7118772499855239 L 0.37408876402173147 0.6998030497360171 L 0.3861212054278452 0.6877085070151469 L 0.40556854685161364 0.683028864311931 L 0.4174378303884016 0.6707711637217351 L 0.4221013653756708 0.65130771458202 L 0.44111075917693643 0.6461901242563014 L 0.44599508947868277 0.6269474704310637 L 0.45791533561256736 0.6147407324379643 L 0.4764636328160685 0.6091620455144813 L 0.48170463578028744 0.590276064351716 L 0.4935744736030989 0.5780189180475434 L 0.4992165107863822 0.5595339711038425 L 0.5172664134371288 0.5534568896276051 L 0.5231796272559694 0.5352431193194616 L 0.5293875717890628 0.5173240797255707 L 0.541495397806198 0.5053049216157218 L 0.5590315627451313 0.49871410242767106 L 0.5709586163839979 0.48651417193955354 L 0.5828743337533331 0.47430290518190454 L 0.5898338066119754 0.45713539391356256 L 0.6018962692116037 0.44507087238620696 L 0.6139502973679167 0.43299791641553576 L 0.625996096152095 0.4209167310727299 L 0.6380338676799493 0.4088275184736001 L 0.6541453304504481 0.40081199711711485 L 0.6659889889912132 0.38852867153089576 L 0.6741009985067721 0.37251369691947045 L 0.6861086278889079 0.3603943421746221 L 0.6981092009569061 0.3482679311156363 L 0.7101029047827737 0.3361346508145197 L 0.7220899243008976 0.3239946862056596 L 0.7368639969617875 0.3146417747395652 L 0.7486475121730389 0.3022983058238326 L 0.7628340049751814 0.2923578144989909 L 0.7721917335478259 0.27758855894465145 L 0.7839528805404907 0.26522272181033196 L 0.7938817788977853 0.25102463604064257 L 0.8058270239589858 0.23884289697485886 L 0.8163389259655458 0.2252278148544346 L 0.8274722971146641 0.21223420187656875 L 0.838863701018514 0.19949862165343468 L 0.8502654950628223 0.18677343157075874 L 0.8603529363391617 0.17273388872011414 L 0.8717807057346156 0.16003467398858384 L 0.8819045125025589 0.1460314966295431 L 0.8920490995514188 0.13204909955141877 Z"
          fill="black"
          stroke="black"
          stroke-width="0.006"
          stroke-linejoin="round"
          stroke-linecap="round" />
</g>
  <g transform="translate(690 690) scale(0.5232558139534884 0.5232558139534884) translate(-0.0 -0.0)">
<rect x="40" y="40" width="56" height="8"/>
  <rect x="112" y="40" width="16" height="8"/>
  <rect x="136" y="40" width="8" height="8"/>
  <rect x="160" y="40" width="8" height="8"/>
  <rect x="176" y="40" width="24" height="8"/>
  <rect x="208" y="40" width="24" height="8"/>
  <rect x="248" y="40" width="56" height="8"/>
  <rect x="40" y="48" width="8" height="8"/>
  <rect x="88" y="48" width="8" height="8"/>
  <rect x="112" y="48" width="8" height="8"/>
  <rect x="128" y="48" width="8" height="8"/>
  <rect x="160" y="48" width="8" height="8"/>
  <rect x="176" y="48" width="8" height="8"/>
  <rect x="224" y="48" width="8" height="8"/>
  <rect x="248" y="48" width="8" height="8"/>
  <rect x="296" y="48" width="8" height="8"/>
  <rect x="40" y="56" width="8" height="8"/>
  <rect x="56" y="56" width="24" height="8"/>
  <rect x="88" y="56" width="8" height="8"/>
  <rect x="112" y="56" width="8" height="8"/>
  <rect x="136" y="56" width="8" height="8"/>
  <rect x="152" y="56" width="16" height="8"/>
  <rect x="176" y="56" width="8" height="8"/>
  <rect x="192" y="56" width="16" height="8"/>
  <rect x="216" y="56" width="8" height="8"/>
  <rect x="232" y="56" width="8" height="8"/>
  <rect x="248" y="56" width="8" height="8"/>
  <rect x="264" y="56" width="24" height="8"/>
  <rect x="296" y="56" width="8" height="8"/>
  <rect x="40" y="64" width="8" height="8"/>
  <rect x="56" y="64" width="24" height="8"/>
  <rect x="88" y="64" width="8" height="8"/>
  <rect x="112" y="64" width="24" height="8"/>
  <rect x="144" y="64" width="8" height="8"/>
  <rect x="184" y="64" width="8" height="8"/>
  <rect x="216" y="64" width="16" height="8"/>
  <rect x="248" y="64" width="8" height="8"/>
  <rect x="264" y="64" width="24" height="8"/>
  <rect x="296" y="64" width="8" height="8"/>
  <rect x="40" y="72" width="8" height="8"/>
  <rect x="56" y="72" width="24" height="8"/>
  <rect x="88" y="72" width="8" height="8"/>
  <rect x="112" y="72" width="24" height="8"/>
  <rect x="144" y="72" width="8" height="8"/>
  <rect x="168" y="72" width="8" height="8"/>
  <rect x="224" y="72" width="16" height="8"/>
  <rect x="248" y="72" width="8" height="8"/>
  <rect x="264" y="72" width="24" height="8"/>
  <rect x="296" y="72" width="8" height="8"/>
  <rect x="40" y="80" width="8" height="8"/>
  <rect x="88" y="80" width="8" height="8"/>
  <rect x="104" y="80" width="8" height="8"/>
  <rect x="120" y="80" width="24" height="8"/>
  <rect x="152" y="80" width="8" height="8"/>
  <rect x="184" y="80" width="40" height="8"/>
  <rect x="248" y="80" width="8" height="8"/>
  <rect x="296" y="80" width="8" height="8"/>
  <rect x="40" y="88" width="56" height="8"/>
  <rect x="104" y="88" width="8" height="8"/>
  <rect x="120" y="88" width="8" height="8"/>
  <rect x="136" y="88" width="8" height="8"/>
  <rect x="152" y="88" width="8" height="8"/>
  <rect x="168" y="88" width="8" height="8"/>
  <rect x="184" y="88" width="8" height="8"/>
  <rect x="200" y="88" width="8" height="8"/>
  <rect x="216" y="88" width="8" height="8"/>
  <rect x="232" y="88" width="8" height="8"/>
  <rect x="248" y="88" width="56" height="8"/>
  <rect x="112" y="96" width="32" height="8"/>
  <rect x="152" y="96" width="8" height="8"/>
  <rect x="176" y="96" width="8" height="8"/>
  <rect x="192" y="96" width="24" height="8"/>
  <rect x="224" y="96" width="16" height="8"/>
  <rect x="40" y="104" width="8" height="8"/>
  <rect x="64" y="104" width="8" height="8"/>
  <rect x="80" y="104" width="16" height="8"/>
  <rect x="104" y="104" width="32" height="8"/>
  <rect x="144" y="104" width="32" height="8"/>
  <rect x="192" y="104" width="8" height="8"/>
  <rect x="208" y="104" width="8" height="8"/>
  <rect x="240" y="104" width="8" height="8"/>
  <rect x="256" y="104" width="8" height="8"/>
  <rect x="40" y="112" width="16" height="8"/>
  <rect x="64" y="112" width="16" height="8"/>
  <rect x="96" y="112" width="24" height="8"/>
  <rect x="152" y="112" width="8" height="8"/>
  <rect x="176" y="112" width="8" height="8"/>
  <rect x="200" y="112" width="8" height="8"/>
  <rect x="232" y="112" width="32" height="8"/>
  <rect x="288" y="112" width="16" height="8"/>
  <rect x="64" y="120" width="8" height="8"/>
  <rect x="88" y="120" width="16" height="8"/>
  <rect x="120" y="120" width="8" height="8"/>
  <rect x="136" y="120" width="8" height="8"/>
  <rect x="168" y="120" width="8" height="8"/>
  <rect x="192" y="120" width="8" height="8"/>
  <rect x="256" y="120" width="16" height="8"/>
  <rect x="280" y="120" width="8" height="8"/>
  <rect x="296" y="120" width="8" height="8"/>
  <rect x="48" y="128" width="8" height="8"/>
  <rect x="80" y="128" width="8" height="8"/>
  <rect x="104" y="128" width="24" height="8"/>
  <rect x="152" y="128" width="8" height="8"/>
  <rect x="168" y="128" width="8" height="8"/>
  <rect x="192" y="128" width="24" height="8"/>
  <rect x="232" y="128" width="8" height="8"/>
  <rect x="264" y="128" width="16" height="8"/>
  <rect x="288" y="128" width="8" height="8"/>
  <rect x="48" y="136" width="8" height="8"/>
  <rect x="88" y="136" width="16" height="8"/>
  <rect x="120" y="136" width="16" height="8"/>
  <rect x="160" y="136" width="8" height="8"/>
  <rect x="176" y="136" width="16" height="8"/>
  <rect x="200" y="136" width="16" height="8"/>
  <rect x="232" y="136" width="24" height="8"/>
  <rect x="272" y="136" width="8" height="8"/>
  <rect x="288" y="136" width="8" height="8"/>
  <rect x="48" y="144" width="24" height="8"/>
  <rect x="80" y="144" width="8" height="8"/>
  <rect x="96" y="144" width="24" height="8"/>
  <rect x="128" y="144" width="16" height="8"/>
  <rect x="160" y="144" width="48" height="8"/>
  <rect x="232" y="144" width="8" height="8"/>
  <rect x="248" y="144" width="8" height="8"/>
  <rect x="264" y="144" width="8" height="8"/>
  <rect x="288" y="144" width="16" height="8"/>
  <rect x="40" y="152" width="8" height="8"/>
  <rect x="72" y="152" width="24" height="8"/>
  <rect x="104" y="152" width="8" height="8"/>
  <rect x="120" y="152" width="24" height="8"/>
  <rect x="176" y="152" width="16" height="8"/>
  <rect x="200" y="152" width="8" height="8"/>
  <rect x="216" y="152" width="16" height="8"/>
  <rect x="240" y="152" width="24" height="8"/>
  <rect x="272" y="152" width="24" height="8"/>
  <rect x="40" y="160" width="8" height="8"/>
  <rect x="56" y="160" width="8" height="8"/>
  <rect x="72" y="160" width="8" height="8"/>
  <rect x="112" y="160" width="8" height="8"/>
  <rect x="128" y="160" width="16" height="8"/>
  <rect x="160" y="160" width="8" height="8"/>
  <rect x="176" y="160" width="48" height="8"/>
  <rect x="232" y="160" width="8" height="8"/>
  <rect x="248" y="160" width="16" height="8"/>
  <rect x="288" y="160" width="8" height="8"/>
  <rect x="56" y="168" width="16" height="8"/>
  <rect x="88" y="168" width="24" height="8"/>
  <rect x="144" y="168" width="8" height="8"/>
  <rect x="176" y="168" width="8" height="8"/>
  <rect x="192" y="168" width="48" height="8"/>
  <rect x="248" y="168" width="8" height="8"/>
  <rect x="264" y="168" width="8" height="8"/>
  <rect x="288" y="168" width="8" height="8"/>
  <rect x="40" y="176" width="8" height="8"/>
  <rect x="72" y="176" width="8" height="8"/>
  <rect x="96" y="176" width="8" height="8"/>
  <rect x="120" y="176" width="8" height="8"/>
  <rect x="136" y="176" width="8" height="8"/>
  <rect x="168" y="176" width="24" height="8"/>
  <rect x="208" y="176" width="8" height="8"/>
  <rect x="224" y="176" width="16" height="8"/>
  <rect x="256" y="176" width="8" height="8"/>
  <rect x="272" y="176" width="8" height="8"/>
  <rect x="288" y="176" width="8" height="8"/>
  <rect x="40" y="184" width="16" height="8"/>
  <rect x="64" y="184" width="8" height="8"/>
  <rect x="80" y="184" width="40" height="8"/>
  <rect x="128" y="184" width="32" height="8"/>
  <rect x="200" y="184" width="8" height="8"/>
  <rect x="232" y="184" width="16" height="8"/>
  <rect x="280" y="184" width="24" height="8"/>
  <rect x="48" y="192" width="8" height="8"/>
  <rect x="64" y="192" width="16" height="8"/>
  <rect x="96" y="192" width="32" height="8"/>
  <rect x="136" y="192" width="8" height="8"/>
  <rect x="168" y="192" width="24" height="8"/>
  <rect x="200" y="192" width="24" height="8"/>
  <rect x="232" y="192" width="8" height="8"/>
  <rect x="248" y="192" width="16" height="8"/>
  <rect x="288" y="192" width="8" height="8"/>
  <rect x="56" y="200" width="8" height="8"/>
  <rect x="88" y="200" width="16" height="8"/>
  <rect x="112" y="200" width="8" height="8"/>
  <rect x="152" y="200" width="8" height="8"/>
  <rect x="168" y="200" width="8" height="8"/>
  <rect x="184" y="200" width="8" height="8"/>
  <rect x="200" y="200" width="16" height="8"/>
  <rect x="224" y="200" width="24" height="8"/>
  <rect x="80" y="208" width="8" height="8"/>
  <rect x="96" y="208" width="8" height="8"/>
  <rect x="112" y="208" width="24" height="8"/>
  <rect x="160" y="208" width="32" height="8"/>
  <rect x="200" y="208" width="16" height="8"/>
  <rect x="232" y="208" width="8" height="8"/>
  <rect x="248" y="208" width="8" height="8"/>
  <rect x="272" y="208" width="8" height="8"/>
  <rect x="288" y="208" width="16" height="8"/>
  <rect x="40" y="216" width="16" height="8"/>
  <rect x="64" y="216" width="8" height="8"/>
  <rect x="88" y="216" width="8" height="8"/>
  <rect x="112" y="216" width="8" height="8"/>
  <rect x="136" y="216" width="8" height="8"/>
  <rect x="160" y="216" width="8" height="8"/>
  <rect x="176" y="216" width="24" height="8"/>
  <rect x="208" y="216" width="16" height="8"/>
  <rect x="232" y="216" width="24" height="8"/>
  <rect x="272" y="216" width="16" height="8"/>
  <rect x="296" y="216" width="8" height="8"/>
  <rect x="48" y="224" width="16" height="8"/>
  <rect x="104" y="224" width="16" height="8"/>
  <rect x="144" y="224" width="8" height="8"/>
  <rect x="168" y="224" width="8" height="8"/>
  <rect x="208" y="224" width="24" height="8"/>
  <rect x="272" y="224" width="8" height="8"/>
  <rect x="296" y="224" width="8" height="8"/>
  <rect x="40" y="232" width="8" height="8"/>
  <rect x="56" y="232" width="8" height="8"/>
  <rect x="72" y="232" width="40" height="8"/>
  <rect x="136" y="232" width="8" height="8"/>
  <rect x="152" y="232" width="32" height="8"/>
  <rect x="192" y="232" width="8" height="8"/>
  <rect x="208" y="232" width="8" height="8"/>
  <rect x="232" y="232" width="48" height="8"/>
  <rect x="104" y="240" width="8" height="8"/>
  <rect x="120" y="240" width="40" height="8"/>
  <rect x="192" y="240" width="16" height="8"/>
  <rect x="216" y="240" width="8" height="8"/>
  <rect x="232" y="240" width="8" height="8"/>
  <rect x="264" y="240" width="16" height="8"/>
  <rect x="296" y="240" width="8" height="8"/>
  <rect x="40" y="248" width="56" height="8"/>
  <rect x="112" y="248" width="24" height="8"/>
  <rect x="168" y="248" width="24" height="8"/>
  <rect x="200" y="248" width="8" height="8"/>
  <rect x="232" y="248" width="8" height="8"/>
  <rect x="248" y="248" width="8" height="8"/>
  <rect x="264" y="248" width="32" height="8"/>
  <rect x="40" y="256" width="8" height="8"/>
  <rect x="88" y="256" width="8" height="8"/>
  <rect x="104" y="256" width="40" height="8"/>
  <rect x="152" y="256" width="8" height="8"/>
  <rect x="168" y="256" width="16" height="8"/>
  <rect x="208" y="256" width="16" height="8"/>
  <rect x="232" y="256" width="8" height="8"/>
  <rect x="264" y="256" width="8" height="8"/>
  <rect x="288" y="256" width="8" height="8"/>
  <rect x="40" y="264" width="8" height="8"/>
  <rect x="56" y="264" width="24" height="8"/>
  <rect x="88" y="264" width="8" height="8"/>
  <rect x="120" y="264" width="8" height="8"/>
  <rect x="136" y="264" width="32" height="8"/>
  <rect x="176" y="264" width="24" height="8"/>
  <rect x="208" y="264" width="16" height="8"/>
  <rect x="232" y="264" width="48" height="8"/>
  <rect x="296" y="264" width="8" height="8"/>
  <rect x="40" y="272" width="8" height="8"/>
  <rect x="56" y="272" width="24" height="8"/>
  <rect x="88" y="272" width="8" height="8"/>
  <rect x="104" y="272" width="8" height="8"/>
  <rect x="120" y="272" width="8" height="8"/>
  <rect x="144" y="272" width="8" height="8"/>
  <rect x="160" y="272" width="8" height="8"/>
  <rect x="184" y="272" width="8" height="8"/>
  <rect x="200" y="272" width="8" height="8"/>
  <rect x="224" y="272" width="16" height="8"/>
  <rect x="248" y="272" width="8" height="8"/>
  <rect x="264" y="272" width="8" height="8"/>
  <rect x="40" y="280" width="8" height="8"/>
  <rect x="56" y="280" width="24" height="8"/>
  <rect x="88" y="280" width="8" height="8"/>
  <rect x="112" y="280" width="16" height="8"/>
  <rect x="136" y="280" width="24" height="8"/>
  <rect x="200" y="280" width="16" height="8"/>
  <rect x="224" y="280" width="8" height="8"/>
  <rect x="264" y="280" width="8" height="8"/>
  <rect x="296" y="280" width="8" height="8"/>
  <rect x="40" y="288" width="8" height="8"/>
  <rect x="88" y="288" width="8" height="8"/>
  <rect x="112" y="288" width="8" height="8"/>
  <rect x="136" y="288" width="48" height="8"/>
  <rect x="200" y="288" width="24" height="8"/>
  <rect x="232" y="288" width="16" height="8"/>
  <rect x="40" y="296" width="56" height="8"/>
  <rect x="104" y="296" width="8" height="8"/>
  <rect x="136" y="296" width="8" height="8"/>
  <rect x="168" y="296" width="8" height="8"/>
  <rect x="184" y="296" width="32" height="8"/>
  <rect x="232" y="296" width="8" height="8"/>
  <rect x="264" y="296" width="16" height="8"/>
  <rect x="288" y="296" width="8" height="8"/>
</g>
</svg>