<svg xmlns="http://www.w3.org/2000/svg" viewBox="0 0 344 344" width="344" height="344" shape-rendering="crispEdges">
  <rect x="40" y="40" width="56" height="8"/>
  <rect x="112" y="40" width="16" height="8"/>
  <rect x="136" y="40" width="8" height="8"/>
  <rect x="160" y="40" width="8" height="8"/>
  <rect x="176" y="40" width="24" height="8"/>
  <rect x="208" y="40" width="24" height="8"/>
  <rect x="248" y="40" width="56" height="8"/>
  <rect x="40" y="48" width="8" height="8"/>
  <rect x="88" y="48" width="8" height="8"/>
  <rect x="112" y="48" width="8" height="8"/>
  <rect x="128" y="48" width="8" height="8"/>
  <rect x="160" y="48" width="8" height="8"/>
  <rect x="176" y="48" width="8" height="8"/>
  <rect x="224" y="48" width="8" height="8"/>
  <rect x="248" y="48" width="8" height="8"/>
  <rect x="296" y="48" width="8" height="8"/>
  <rect x="40" y="56" width="8" height="8"/>
  <rect x="56" y="56" width="24" height="8"/>
  <rect x="88" y="56" width="8" height="8"/>
  <rect x="112" y="56" width="8" height="8"/>
  <rect x="136" y="56" width="8" height="8"/>
  <rect x="152" y="56" width="16" height="8"/>
  <rect x="176" y="56" width="8" height="8"/>
  <rect x="192" y="56" width="16" height="8"/>
  <rect x="216" y="56" width="8" height="8"/>
  <rect x="232" y="56" width="8" height="8"/>
  <rect x="248" y="56" width="8" height="8"/>
  <rect x="264" y="56" width="24" height="8"/>
  <rect x="296" y="56" width="8" height="8"/>
  <rect x="40" y="64" width="8" height="8"/>
  <rect x="56" y="64" width="24" height="8"/>
  <rect x="88" y="64" width="8" height="8"/>
  <rect x="112" y="64" width="24" height="8"/>
  <rect x="144" y="64" width="8" height="8"/>
  <rect x="184" y="64" width="8" height="8"/>
  <rect x="216" y="64" width="16" height="8"/>
  <rect x="248" y="64" width="8" height="8"/>
  <rect x="264" y="64" width="24" height="8"/>
  <rect x="296" y="64" width="8" height="8"/>
  <rect x="40" y="72" width="8" height="8"/>
  <rect x="56" y="72" width="24" height="8"/>
  <rect x="88" y="72" width="8" height="8"/>
  <rect x="112" y="72" width="24" height="8"/>
  <rect x="144" y="72" width="8" height="8"/>
  <rect x="168" y="72" width="8" height="8"/>
  <rect x="224" y="72" width="16" height="8"/>
  <rect x="248" y="72" width="8" height="8"/>
  <rect x="264" y="72" width="24" height="8"/>
  <rect x="296" y="72" width="8" height="8"/>
  <rect x="40" y="80" width="8" height="8"/>
  <rect x="88" y="80" width="8" height="8"/>
  <rect x="104" y="80" width="8" height="8"/>
  <rect x="120" y="80" width="24" height="8"/>
  <rect x="152" y="80" width="8" height="8"/>
  <rect x="184" y="80" width="40" height="8"/>
  <rect x="248" y="80" width="8" height="8"/>
  <rect x="296" y="80" width="8" height="8"/>
  <rect x="40" y="88" width="56" height="8"/>
  <rect x="104" y="88" width="8" height="8"/>
  <rect x="120" y="88" width="8" height="8"/>
  <rect x="136" y="88" width="8" height="8"/>
  <rect x="152" y="88" width="8" height="8"/>
  <rect x="168" y="88" width="8" height="8"/>
  <rect x="184" y="88" width="8" height="8"/>
  <rect x="200" y="88" width="8" height="8"/>
  <rect x="216" y="88" width="8" height="8"/>
  <rect x="232" y="88" width="8" height="8"/>
  <rect x="248" y="88" width="56" height="8"/>
  <rect x="112" y="96" width="32" height="8"/>
  <rect x="152" y="96" width="8" height="8"/>
  <rect x="176" y="96" width="8" height="8"/>
  <rect x="192" y="96" width="24" height="8"/>
  <rect x="224" y="96" width="16" height="8"/>
  <rect x="40" y="104" width="8" height="8"/>
  <rect x="64" y="104" width="8" height="8"/>
  <rect x="80" y="104" width="16" height="8"/>
  <rect x="104" y="104" width="32" height="8"/>
  <rect x="144" y="104" width="32" height="8"/>
  <rect x="192" y="104" width="8" height="8"/>
  <rect x="208" y="104" width="8" height="8"/>
  <rect x="240" y="104" width="8" height="8"/>
  <rect x="256" y="104" width="8" height="8"/>
  <rect x="40" y="112" width="16" height="8"/>
  <rect x="64" y="112" width="16" height="8"/>
  <rect x="96" y="112" width="24" height="8"/>
  <rect x="152" y="112" width="8" height="8"/>
  <rect x="176" y="112" width="8" height="8"/>
  <rect x="200" y="112" width="8" height="8"/>
  <rect x="232" y="112" width="32" height="8"/>
  <rect x="288" y="112" width="16" height="8"/>
  <rect x="64" y="120" width="8" height="8"/>
  <rect x="88" y="120" width="16" height="8"/>
  <rect x="120" y="120" width="8" height="8"/>
  <rect x="136" y="120" width="8" height="8"/>
  <rect x="168" y="120" width="8" height="8"/>
  <rect x="192" y="120" width="8" height="8"/>
  <rect x="256" y="120" width="16" height="8"/>
  <rect x="280" y="120" width="8" height="8"/>
  <rect x="296" y="120" width="8" height="8"/>
  <rect x="48" y="128" width="8" height="8"/>
  <rect x="80" y="128" width="8" height="8"/>
  <rect x="104" y="128" width="24" height="8"/>
  <rect x="152" y="128" width="8" height="8"/>
  <rect x="168" y="128" width="8" height="8"/>
  <rect x="192" y="128" width="24" height="8"/>
  <rect x="232" y="128" width="8" height="8"/>
  <rect x="264" y="128" width="16" height="8"/>
  <rect x="288" y="128" width="8" height="8"/>
  <rect x="48" y="136" width="8" height="8"/>
  <rect x="88" y="136" width="16" height="8"/>
  <rect x="120" y="136" width="16" height="8"/>
  <rect x="160" y="136" width="8" height="8"/>
  <rect x="176" y="136" width="16" height="8"/>
  <rect x="200" y="136" width="16" height="8"/>
  <rect x="232" y="136" width="24" height="8"/>
  <rect x="272" y="136" width="8" height="8"/>
  <rect x="288" y="136" width="8" height="8"/>
  <rect x="48" y="144" width="24" height="8"/>
  <rect x="80" y="144" width="8" height="8"/>
  <rect x="96" y="144" width="24" height="8"/>
  <rect x="128" y="144" width="16" height="8"/>
  <rect x="160" y="144" width="48" height="8"/>
  <rect x="232" y="144" width="8" height="8"/>
  <rect x="248" y="144" width="8" height="8"/>
  <rect x="264" y="144" width="8" height="8"/>
  <rect x="288" y="144" width="16" height="8"/>
  <rect x="40" y="152" width="8" height="8"/>
  <rect x="72" y="152" width="24" height="8"/>
  <rect x="104" y="152" width="8" height="8"/>
  <rect x="120" y="152" width="24" height="8"/>
  <rect x="176" y="152" width="16" height="8"/>
  <rect x="200" y="152" width="8" height="8"/>
  <rect x="216" y="152" width="16" height="8"/>
  <rect x="240" y="152" width="24" height="8"/>
  <rect x="272" y="152" width="24" height="8"/>
  <rect x="40" y="160" width="8" height="8"/>
  <rect x="56" y="160" width="8" height="8"/>
  <rect x="72" y="160" width="8" height="8"/>
  <rect x="112" y="160" width="8" height="8"/>
  <rect x="128" y="160" width="16" height="8"/>
  <rect x="160" y="160" width="8" height="8"/>
  <rect x="176" y="160" width="48" height="8"/>
  <rect x="232" y="160" width="8" height="8"/>
  <rect x="248" y="160" width="16" height="8"/>
  <rect x="288" y="160" width="8" height="8"/>
  <rect x="56" y="168" width="16" height="8"/>
  <rect x="88" y="168" width="24" height="8"/>
  <rect x="144" y="168" width="8" height="8"/>
  <rect x="176" y="168" width="8" height="8"/>
  <rect x="192" y="168" width="48" height="8"/>
  <rect x="248" y="168" width="8" height="8"/>
  <rect x="264" y="168" width="8" height="8"/>
  <rect x="288" y="168" width="8" height="8"/>
  <rect x="40" y="176" width="8" height="8"/>
  <rect x="72" y="176" width="8" height="8"/>
  <rect x="96" y="176" width="8" height="8"/>
  <rect x="120" y="176" width="8" height="8"/>
  <rect x="136" y="176" width="8" height="8"/>
  <rect x="168" y="176" width="24" height="8"/>
  <rect x="208" y="176" width="8" height="8"/>
  <rect x="224" y="176" width="16" height="8"/>
  <rect x="256" y="176" width="8" height="8"/>
  <rect x="272" y="176" width="8" height="8"/>
  <rect x="288" y="176" width="8" height="8"/>
  <rect x="40" y="184" width="16" height="8"/>
  <rect x="64" y="184" width="8" height="8"/>
  <rect x="80" y="184" width="40" height="8"/>
  <rect x="128" y="184" width="32" height="8"/>
  <rect x="200" y="184" width="8" height="8"/>
  <rect x="232" y="184" width="16" height="8"/>
  <rect x="280" y="184" width="24" height="8"/>
  <rect x="48" y="192" width="8" height="8"/>
  <rect x="64" y="192" width="16" height="8"/>
  <rect x="96" y="192" width="32" height="8"/>
  <rect x="136" y="192" width="8" height="8"/>
  <rect x="168" y="192" width="24" height="8"/>
  <rect x="200" y="192" width="24" height="8"/>
  <rect x="232" y="192" width="8" height="8"/>
  <rect x="248" y="192" width="16" height="8"/>
  <rect x="288" y="192" width="8" height="8"/>
  <rect x="56" y="200" width="8" height="8"/>
  <rect x="88" y="200" width="16" height="8"/>
  <rect x="112" y="200" width="8" height="8"/>
  <rect x="152" y="200" width="8" height="8"/>
  <rect x="168" y="200" width="8" height="8"/>
  <rect x="184" y="200" width="8" height="8"/>
  <rect x="200" y="200" width="16" height="8"/>
  <rect x="224" y="200" width="24" height="8"/>
  <rect x="80" y="208" width="8" height="8"/>
  <rect x="96" y="208" width="8" height="8"/>
  <rect x="112" y="208" width="24" height="8"/>
  <rect x="160" y="208" width="32" height="8"/>
  <rect x="200" y="208" width="16" height="8"/>
  <rect x="232" y="208" width="8" height="8"/>
  <rect x="248" y="208" width="8" height="8"/>
  <rect x="272" y="208" width="8" height="8"/>
  <rect x="288" y="208" width="16" height="8"/>
  <rect x="40" y="216" width="16" height="8"/>
  <rect x="64" y="216" width="8" height="8"/>
  <rect x="88" y="216" width="8" height="8"/>
  <rect x="112" y="216" width="8" height="8"/>
  <rect x="136" y="216" width="8" height="8"/>
  <rect x="160" y="216" width="8" height="8"/>
  <rect x="176" y="216" width="24" height="8"/>
  <rect x="208" y="216" width="16" height="8"/>
  <rect x="232" y="216" width="24" height="8"/>
  <rect x="272" y="216" width="16" height="8"/>
  <rect x="296" y="216" width="8" height="8"/>
  <rect x="48" y="224" width="16" height="8"/>
  <rect x="104" y="224" width="16" height="8"/>
  <rect x="144" y="224" width="8" height="8"/>
  <rect x="168" y="224" width="8" height="8"/>
  <rect x="208" y="224" width="24" height="8"/>
  <rect x="272" y="224" width="8" height="8"/>
  <rect x="296" y="224" width="8" height="8"/>
  <rect x="40" y="232" width="8" height="8"/>
  <rect x="56" y="232" width="8" height="8"/>
  <rect x="72" y="232" width="40" height="8"/>
  <rect x="136" y="232" width="8" height="8"/>
  <rect x="152" y="232" width="32" height="8"/>
  <rect x="192" y="232" width="8" height="8"/>
  <rect x="208" y="232" width="8" height="8"/>
  <rect x="232" y="232" width="48" height="8"/>
  <rect x="104" y="240" width="8" height="8"/>
  <rect x="120" y="240" width="40" height="8"/>
  <rect x="192" y="240" width="16" height="8"/>
  <rect x="216" y="240" width="8" height="8"/>
  <rect x="232" y="240" width="8" height="8"/>
  <rect x="264" y="240" width="16" height="8"/>
  <rect x="296" y="240" width="8" height="8"/>
  <rect x="40" y="248" width="56" height="8"/>
  <rect x="112" y="248" width="24" height="8"/>
  <rect x="168" y="248" width="24" height="8"/>
  <rect x="200" y="248" width="8" height="8"/>
  <rect x="232" y="248" width="8" height="8"/>
  <rect x="248" y="248" width="8" height="8"/>
  <rect x="264" y="248" width="32" height="8"/>
  <rect x="40" y="256" width="8" height="8"/>
  <rect x="88" y="256" width="8" height="8"/>
  <rect x="104" y="256" width="40" height="8"/>
  <rect x="152" y="256" width="8" height="8"/>
  <rect x="168" y="256" width="16" height="8"/>
  <rect x="208" y="256" width="16" height="8"/>
  <rect x="232" y="256" width="8" height="8"/>
  <rect x="264" y="256" width="8" height="8"/>
  <rect x="288" y="256" width="8" height="8"/>
  <rect x="40" y="264" width="8" height="8"/>
  <rect x="56" y="264" width="24" height="8"/>
  <rect x="88" y="264" width="8" height="8"/>
  <rect x="120" y="264" width="8" height="8"/>
  <rect x="136" y="264" width="32" height="8"/>
  <rect x="176" y="264" width="24" height="8"/>
  <rect x="208" y="264" width="16" height="8"/>
  <rect x="232" y="264" width="48" height="8"/>
  <rect x="296" y="264" width="8" height="8"/>
  <rect x="40" y="272" width="8" height="8"/>
  <rect x="56" y="272" width="24" height="8"/>
  <rect x="88" y="272" width="8" height="8"/>
  <rect x="104" y="272" width="8" height="8"/>
  <rect x="120" y="272" width="8" height="8"/>
  <rect x="144" y="272" width="8" height="8"/>
  <rect x="160" y="272" width="8" height="8"/>
  <rect x="184" y="272" width="8" height="8"/>
  <rect x="200" y="272" width="8" height="8"/>
  <rect x="224" y="272" width="16" height="8"/>
  <rect x="248" y="272" width="8" height="8"/>
  <rect x="264" y="272" width="8" height="8"/>
  <rect x="40" y="280" width="8" height="8"/>
  <rect x="56" y="280" width="24" height="8"/>
  <rect x="88" y="280" width="8" height="8"/>
  <rect x="112" y="280" width="16" height="8"/>
  <rect x="136" y="280" width="24" height="8"/>
  <rect x="200" y="280" width="16" height="8"/>
  <rect x="224" y="280" width="8" height="8"/>
  <rect x="264" y="280" width="8" height="8"/>
  <rect x="296" y="280" width="8" height="8"/>
  <rect x="40" y="288" width="8" height="8"/>
  <rect x="88" y="288" width="8" height="8"/>
  <rect x="112" y="288" width="8" height="8"/>
  <rect x="136" y="288" width="48" height="8"/>
  <rect x="200" y="288" width="24" height="8"/>
  <rect x="232" y="288" width="16" height="8"/>
  <rect x="40" y="296" width="56" height="8"/>
  <rect x="104" y="296" width="8" height="8"/>
  <rect x="136" y="296" width="8" height="8"/>
  <rect x="168" y="296" width="8" height="8"/>
  <rect x="184" y="296" width="32" height="8"/>
  <rect x="232" y="296" width="8" height="8"/>
  <rect x="264" y="296" width="16" height="8"/>
  <rect x="288" y="296" width="8" height="8"/>
</svg>