<svg xmlns="http://www.w3.org/2000/svg" viewBox="0 0 1000 1000" width="1000" height="1000">
  <g transform="translate(110 100) scale(780.0 780.0) translate(-0.0 -0.0)">
<path d="M 0.15333503397022297 0.913335033970223 L 0.15733503397022297 0.8926831505095707 L 0.16133503397022297 0.8720686774716698 L 0.16533503397022298 0.851518374670454 L 0.17647387926575897 0.8399659427578225 L 0.1978855195957855 0.8372505989608648 L 0.2191520770159668 0.8343901722540621 L 0.23154046196433117 0.8226515730754423 L 0.2525498369328765 0.8195339639170035 L 0.25654983693287653 0.7991044346090337 L 0.2685674390935559 0.7872975978237146 L 0.2725674390935559 0.7670748918137493 L 0.2848418473611316 0.7553180378373221 L 0.30540334192536106 0.7517525482745674 L 0.32575025125799245 0.7479724734802148 L 0.3378672814540026 0.7359625195492406 L 0.34996233394972864 0.7239305879179827 L 0.3620359801442541 0.7118772499855239 L 0.37408876402173147 0.6998030497360171 L 0.3861212054278452 0.6877085070151469 L 0.3981338027911366 0.675594120251454 L 0.4028162404264205 0.6561495737597539 L 0.41491766991550255 0.6441240191218517 L 0.43405723925278195 0.6391366043321469 L 0.44599508947868277 0.6269474704310637 L 0.46469956256562156 0.6215249593910185 L 0.4764636328160685 0.6091620455144813 L 0.48170463578028744 0.590276064351716 L 0.4935744736030989 0.5780189180475434 L 0.4992165107863822 0.5595339711038425 L 0.5172664134371288 0.5534568896276051 L 0.5290892454164826 0.5411527374799747 L 0.5351423488496793 0.5230788567861873 L 0.5470928995977999 0.5109024234073237 L 0.5590315627451313 0.49871410242767106 L 0.5709586163839979 0.48651417193955354 L 0.5828743337533331 0.47430290518190454 L 0.5997241604116808 0.467025747713268 L 0.616225951540988 0.45940055471559127 L 0.6277678054946407 0.4468154245422597 L 0.63486220408207 0.4297828390027049 L 0.6465503978272547 0.41734404862090546 L 0.6582268496448312 0.40489351631149806 L 0.6659889889912132 0.38852867153089576 L 0.6778233509672352 0.37623604937993366 L 0.6931886839543056 0.36747439824001965 L 0.708177019536106 0.35833574969483617 L 0.7196133059114792 0.3456450519432251 L 0.7310378947483008 0.3329426566530628 L 0.7396575515279676 0.31743532930574536 L 0.7486475121730389 0.3022983058238326 L 0.7604233505321968 0.28994716005600635 L 0.7699747879203542 0.27537161331717974 L 0.7819310909331247 0.26320093220296603 L 0.7920565490725526 0.2491994062154099 L 0.8025724053245169 0.23558827834039003 L 0.8134827845106763 0.22237167339956523 L 0.8234513127573209 0.20821321751922547 L 0.8335231688229728 0.1941580894578935 L 0.8449457431481977 0.18145367965613407 L 0.8563787076138806 0.168759659994833 L 0.8704611578964178 0.1587151261503859 L 0.8819045125025589 0.1460314966295431 L 0.8920490995514188 0.13204909955141877 Z"
          fill="black"
          stroke="black"
          stroke-width="0.006"
          stroke-linejoin="round"
          stroke-linecap="round" />
</g>
  <g transform="translate(690 690) scale(0.5232558139534884 0.5232558139534884) translate(-0.0 -0.0)">
<rect x="40" y="40" width="56" height="8"/>
  <rect x="112" y="40" width="16" height="8"/>
  <rect x="152" y="40" width="8" height="8"/>
  <rect x="168" y="40" width="8" height="8"/>
  <rect x="192" y="40" width="24" height="8"/>
  <rect x="224" y="40" width="8" height="8"/>
  <rect x="248" y="40" width="56" height="8"/>
  <rect x="40" y="48" width="8" height="8"/>
  <rect x="88" y="48" width="8" height="8"/>
  <rect x="136" y="48" width="8" height="8"/>
  <rect x="152" y="48" width="24" height="8"/>
  <rect x="208" y="48" width="16" height="8"/>
  <rect x="232" y="48" width="8" height="8"/>
  <rect x="248" y="48" width="8" height="8"/>
  <rect x="296" y="48" width="8" height="8"/>
  <rect x="40" y="56" width="8" height="8"/>
  <rect x="56" y="56" width="24" height="8"/>
  <rect x="88" y="56" width="8" height="8"/>
  <rect x="104" y="56" width="8" height="8"/>
  <rect x="120" y="56" width="8" height="8"/>
  <rect x="136" y="56" width="8" height="8"/>
  <rect x="168" y="56" width="8" height="8"/>
  <rect x="184" y="56" width="8" height="8"/>
  <rect x="208" y="56" width="8" height="8"/>
  <rect x="232" y="56" width="8" height="8"/>
  <rect x="248" y="56" width="8" height="8"/>
  <rect x="264" y="56" width="24" height="8"/>
  <rect x="296" y="56" width="8" height="8"/>
  <rect x="40" y="64" width="8" height="8"/>
  <rect x="56" y="64" width="24" height="8"/>
  <rect x="88" y="64" width="8" height="8"/>
  <rect x="104" y="64" width="16" height="8"/>
  <rect x="136" y="64" width="8" height="8"/>
  <rect x="168" y="64" width="16" height="8"/>
  <rect x="192" y="64" width="16" height="8"/>
  <rect x="232" y="64" width="8" height="8"/>
  <rect x="248" y="64" width="8" height="8"/>
  <rect x="264" y="64" width="24" height="8"/>
  <rect x="296" y="64" width="8" height="8"/>
  <rect x="40" y="72" width="8" height="8"/>
  <rect x="56" y="72" width="24" height="8"/>
  <rect x="88" y="72" width="8" height="8"/>
  <rect x="104" y="72" width="16" height="8"/>
  <rect x="184" y="72" width="24" height="8"/>
  <rect x="224" y="72" width="8" height="8"/>
  <rect x="248" y="72" width="8" height="8"/>
  <rect x="264" y="72" width="24" height="8"/>
  <rect x="296" y="72" width="8" height="8"/>
  <rect x="40" y="80" width="8" height="8"/>
  <rect x="88" y="80" width="8" height="8"/>
  <rect x="104" y="80" width="8" height="8"/>
  <rect x="128" y="80" width="8" height="8"/>
  <rect x="144" y="80" width="24" height="8"/>
  <rect x="216" y="80" width="8" height="8"/>
  <rect x="232" y="80" width="8" height="8"/>
  <rect x="248" y="80" width="8" height="8"/>
  <rect x="296" y="80" width="8" height="8"/>
  <rect x="40" y="88" width="56" height="8"/>
  <rect x="104" y="88" width="8" height="8"/>
  <rect x="120" y="88" width="8" height="8"/>
  <rect x="136" y="88" width="8" height="8"/>
  <rect x="152" y="88" width="8" height="8"/>
  <rect x="168" y="88" width="8" height="8"/>
  <rect x="184" y="88" width="8" height="8"/>
  <rect x="200" y="88" width="8" height="8"/>
  <rect x="216" y="88" width="8" height="8"/>
  <rect x="232" y="88" width="8" height="8"/>
  <rect x="248" y="88" width="56" height="8"/>
  <rect x="104" y="96" width="24" height="8"/>
  <rect x="160" y="96" width="16" height="8"/>
  <rect x="208" y="96" width="32" height="8"/>
  <rect x="40" y="104" width="8" height="8"/>
  <rect x="56" y="104" width="40" height="8"/>
  <rect x="112" y="104" width="8" height="8"/>
  <rect x="144" y="104" width="24" height="8"/>
  <rect x="176" y="104" width="8" height="8"/>
  <rect x="192" y="104" width="8" height="8"/>
  <rect x="216" y="104" width="8" height="8"/>
  <rect x="248" y="104" width="40" height="8"/>
  <rect x="40" y="112" width="16" height="8"/>
  <rect x="64" y="112" width="8" height="8"/>
  <rect x="80" y="112" width="8" height="8"/>
  <rect x="96" y="112" width="8" height="8"/>
  <rect x="136" y="112" width="16" height="8"/>
  <rect x="168" y="112" width="40" height="8"/>
  <rect x="224" y="112" width="8" height="8"/>
  <rect x="248" y="112" width="16" height="8"/>
  <rect x="272" y="112" width="16" height="8"/>
  <rect x="296" y="112" width="8" height="8"/>
  <rect x="48" y="120" width="48" height="8"/>
  <rect x="104" y="120" width="8" height="8"/>
  <rect x="144" y="120" width="32" height="8"/>
  <rect x="216" y="120" width="8" height="8"/>
  <rect x="240" y="120" width="8" height="8"/>
  <rect x="264" y="120" width="8" height="8"/>
  <rect x="280" y="120" width="16" height="8"/>
  <rect x="48" y="128" width="8" height="8"/>
  <rect x="112" y="128" width="8" height="8"/>
  <rect x="136" y="128" width="16" height="8"/>
  <rect x="200" y="128" width="32" height="8"/>
  <rect x="264" y="128" width="32" height="8"/>
  <rect x="40" y="136" width="8" height="8"/>
  <rect x="64" y="136" width="16" height="8"/>
  <rect x="88" y="136" width="8" height="8"/>
  <rect x="120" y="136" width="24" height="8"/>
  <rect x="152" y="136" width="32" height="8"/>
  <rect x="216" y="136" width="16" height="8"/>
  <rect x="240" y="136" width="8" height="8"/>
  <rect x="264" y="136" width="16" height="8"/>
  <rect x="288" y="136" width="8" height="8"/>
  <rect x="40" y="144" width="8" height="8"/>
  <rect x="64" y="144" width="16" height="8"/>
  <rect x="96" y="144" width="8" height="8"/>
  <rect x="128" y="144" width="24" height="8"/>
  <rect x="184" y="144" width="48" height="8"/>
  <rect x="248" y="144" width="8" height="8"/>
  <rect x="288" y="144" width="16" height="8"/>
  <rect x="48" y="152" width="8" height="8"/>
  <rect x="80" y="152" width="16" height="8"/>
  <rect x="104" y="152" width="40" height="8"/>
  <rect x="160" y="152" width="32" height="8"/>
  <rect x="208" y="152" width="16" height="8"/>
  <rect x="240" y="152" width="16" height="8"/>
  <rect x="264" y="152" width="32" height="8"/>
  <rect x="40" y="160" width="8" height="8"/>
  <rect x="64" y="160" width="16" height="8"/>
  <rect x="96" y="160" width="16" height="8"/>
  <rect x="120" y="160" width="8" height="8"/>
  <rect x="136" y="160" width="8" height="8"/>
  <rect x="160" y="160" width="16" height="8"/>
  <rect x="184" y="160" width="40" height="8"/>
  <rect x="232" y="160" width="32" height="8"/>
  <rect x="272" y="160" width="16" height="8"/>
  <rect x="40" y="168" width="16" height="8"/>
  <rect x="80" y="168" width="24" height="8"/>
  <rect x="112" y="168" width="8" height="8"/>
  <rect x="136" y="168" width="8" height="8"/>
  <rect x="152" y="168" width="8" height="8"/>
  <rect x="168" y="168" width="40" height="8"/>
  <rect x="216" y="168" width="8" height="8"/>
  <rect x="232" y="168" width="16" height="8"/>
  <rect x="256" y="168" width="16" height="8"/>
  <rect x="296" y="168" width="8" height="8"/>
  <rect x="64" y="176" width="16" height="8"/>
  <rect x="112" y="176" width="32" height="8"/>
  <rect x="152" y="176" width="8" height="8"/>
  <rect x="168" y="176" width="64" height="8"/>
  <rect x="240" y="176" width="24" height="8"/>
  <rect x="272" y="176" width="16" height="8"/>
  <rect x="296" y="176" width="8" height="8"/>
  <rect x="40" y="184" width="32" height="8"/>
  <rect x="88" y="184" width="32" height="8"/>
  <rect x="136" y="184" width="16" height="8"/>
  <rect x="160" y="184" width="16" height="8"/>
  <rect x="200" y="184" width="24" height="8"/>
  <rect x="232" y="184" width="8" height="8"/>
  <rect x="256" y="184" width="16" height="8"/>
  <rect x="280" y="184" width="16" height="8"/>
  <rect x="56" y="192" width="8" height="8"/>
  <rect x="80" y="192" width="8" height="8"/>
  <rect x="96" y="192" width="8" height="8"/>
  <rect x="120" y="192" width="8" height="8"/>
  <rect x="136" y="192" width="8" height="8"/>
  <rect x="152" y="192" width="8" height="8"/>
  <rect x="168" y="192" width="8" height="8"/>
  <rect x="184" y="192" width="8" height="8"/>
  <rect x="208" y="192" width="40" height="8"/>
  <rect x="256" y="192" width="32" height="8"/>
  <rect x="296" y="192" width="8" height="8"/>
  <rect x="56" y="200" width="8" height="8"/>
  <rect x="72" y="200" width="8" height="8"/>
  <rect x="88" y="200" width="8" height="8"/>
  <rect x="104" y="200" width="16" height="8"/>
  <rect x="128" y="200" width="32" height="8"/>
  <rect x="168" y="200" width="32" height="8"/>
  <rect x="216" y="200" width="8" height="8"/>
  <rect x="232" y="200" width="16" height="8"/>
  <rect x="264" y="200" width="16" height="8"/>
  <rect x="40" y="208" width="8" height="8"/>
  <rect x="64" y="208" width="8" height="8"/>
  <rect x="80" y="208" width="8" height="8"/>
  <rect x="120" y="208" width="8" height="8"/>
  <rect x="136" y="208" width="8" height="8"/>
  <rect x="176" y="208" width="8" height="8"/>
  <rect x="192" y="208" width="8" height="8"/>
  <rect x="208" y="208" width="8" height="8"/>
  <rect x="224" y="208" width="8" height="8"/>
  <rect x="248" y="208" width="8" height="8"/>
  <rect x="272" y="208" width="16" height="8"/>
  <rect x="296" y="208" width="8" height="8"/>
  <rect x="40" y="216" width="8" height="8"/>
  <rect x="56" y="216" width="16" height="8"/>
  <rect x="80" y="216" width="16" height="8"/>
  <rect x="120" y="216" width="8" height="8"/>
  <rect x="136" y="216" width="8" height="8"/>
  <rect x="152" y="216" width="16" height="8"/>
  <rect x="176" y="216" width="8" height="8"/>
  <rect x="208" y="216" width="16" height="8"/>
  <rect x="232" y="216" width="8" height="8"/>
  <rect x="248" y="216" width="8" height="8"/>
  <rect x="272" y="216" width="8" height="8"/>
  <rect x="288" y="216" width="8" height="8"/>
  <rect x="40" y="224" width="8" height="8"/>
  <rect x="64" y="224" width="8" height="8"/>
  <rect x="120" y="224" width="24" height="8"/>
  <rect x="160" y="224" width="16" height="8"/>
  <rect x="184" y="224" width="8" height="8"/>
  <rect x="200" y="224" width="16" height="8"/>
  <rect x="248" y="224" width="8" height="8"/>
  <rect x="264" y="224" width="32" height="8"/>
  <rect x="40" y="232" width="8" height="8"/>
  <rect x="80" y="232" width="16" height="8"/>
  <rect x="136" y="232" width="8" height="8"/>
  <rect x="152" y="232" width="16" height="8"/>
  <rect x="176" y="232" width="8" height="8"/>
  <rect x="232" y="232" width="40" height="8"/>
  <rect x="288" y="232" width="16" height="8"/>
  <rect x="104" y="240" width="8" height="8"/>
  <rect x="120" y="240" width="16" height="8"/>
  <rect x="144" y="240" width="16" height="8"/>
  <rect x="176" y="240" width="32" height="8"/>
  <rect x="224" y="240" width="16" height="8"/>
  <rect x="264" y="240" width="8" height="8"/>
  <rect x="280" y="240" width="24" height="8"/>
  <rect x="40" y="248" width="56" height="8"/>
  <rect x="120" y="248" width="8" height="8"/>
  <rect x="152" y="248" width="32" height="8"/>
  <rect x="200" y="248" width="8" height="8"/>
  <rect x="216" y="248" width="24" height="8"/>
  <rect x="248" y="248" width="8" height="8"/>
  <rect x="264" y="248" width="8" height="8"/>
  <rect x="280" y="248" width="16" height="8"/>
  <rect x="40" y="256" width="8" height="8"/>
  <rect x="88" y="256" width="8" height="8"/>
  <rect x="104" y="256" width="8" height="8"/>
  <rect x="128" y="256" width="8" height="8"/>
  <rect x="152" y="256" width="8" height="8"/>
  <rect x="168" y="256" width="8" height="8"/>
  <rect x="192" y="256" width="24" height="8"/>
  <rect x="224" y="256" width="16" height="8"/>
  <rect x="264" y="256" width="32" height="8"/>
  <rect x="40" y="264" width="8" height="8"/>
  <rect x="56" y="264" width="24" height="8"/>
  <rect x="88" y="264" width="8" height="8"/>
  <rect x="104" y="264" width="8" height="8"/>
  <rect x="120" y="264" width="16" height="8"/>
  <rect x="144" y="264" width="8" height="8"/>
  <rect x="176" y="264" width="8" height="8"/>
  <rect x="200" y="264" width="8" height="8"/>
  <rect x="216" y="264" width="8" height="8"/>
  <rect x="232" y="264" width="48" height="8"/>
  <rect x="288" y="264" width="8" height="8"/>
  <rect x="40" y="272" width="8" height="8"/>
  <rect x="56" y="272" width="24" height="8"/>
  <rect x="88" y="272" width="8" height="8"/>
  <rect x="104" y="272" width="16" height="8"/>
  <rect x="128" y="272" width="16" height="8"/>
  <rect x="168" y="272" width="40" height="8"/>
  <rect x="224" y="272" width="24" height="8"/>
  <rect x="264" y="272" width="16" height="8"/>
  <rect x="288" y="272" width="16" height="8"/>
  <rect x="40" y="280" width="8" height="8"/>
  <rect x="56" y="280" width="24" height="8"/>
  <rect x="88" y="280" width="8" height="8"/>
  <rect x="104" y="280" width="8" height="8"/>
  <rect x="128" y="280" width="16" height="8"/>
  <rect x="152" y="280" width="24" height="8"/>
  <rect x="184" y="280" width="8" height="8"/>
  <rect x="200" y="280" width="8" height="8"/>
  <rect x="216" y="280" width="24" height="8"/>
  <rect x="248" y="280" width="16" height="8"/>
  <rect x="40" y="288" width="8" height="8"/>
  <rect x="88" y="288" width="8" height="8"/>
  <rect x="112" y="288" width="8" height="8"/>
  <rect x="128" y="288" width="16" height="8"/>
  <rect x="152" y="288" width="16" height="8"/>
  <rect x="208" y="288" width="8" height="8"/>
  <rect x="240" y="288" width="16" height="8"/>
  <rect x="264" y="288" width="8" height="8"/>
  <rect x="280" y="288" width="8" height="8"/>
  <rect x="40" y="296" width="56" height="8"/>
  <rect x="104" y="296" width="8" height="8"/>
  <rect x="128" y="296" width="24" height="8"/>
  <rect x="176" y="296" width="8" height="8"/>
  <rect x="192" y="296" width="8" height="8"/>
  <rect x="216" y="296" width="24" height="8"/>
  <rect x="248" y="296" width="16" height="8"/>
  <rect x="288" y="296" width="8" height="8"/>
</g>
</svg>