<svg xmlns="http://www.w3.org/2000/svg"
     width="180.0"
     height="180.0"
     viewBox="0 0 180.0 180.0">
  <path d="M 157.58035714285717 0.0 L 157.58035714285717 2.142857142857143 L 157.58035714285717 4.285714285714286 L 157.58035714285717 6.428571428571429 L 157.58035714285717 8.571428571428571 L 157.58035714285717 10.714285714285714 L 157.58035714285717 12.857142857142858 L 157.58035714285717 15.000000000000002 L 157.58035714285717 17.142857142857142 L 157.58035714285717 19.28571428571429 L 145.92857142857144 25.714285714285715 L 134.27678571428572 32.142857142857146 L 110.97321428571428 38.57142857142858 L 99.32142857142857 45.0 L 87.66964285714285 51.42857142857143 L 76.01785714285714 57.85714285714286 L 64.36607142857142 64.28571428571429 L 52.71428571428571 70.71428571428572 L 60.482142857142854 72.85714285714286 L 68.25 75.0 L 76.01785714285714 77.14285714285715 L 83.78571428571429 79.2857142857143 L 91.55357142857143 81.42857142857143 L 99.32142857142857 83.57142857142858 L 76.01785714285714 90.0 L 52.71428571428571 96.42857142857144 L 29.410714285714278 102.85714285714286 L 37.178571428571416 105.0 L 44.94642857142856 107.14285714285717 L 52.71428571428571 109.28571428571429 L 60.482142857142854 111.42857142857143 L 68.25 113.57142857142858 L 76.01785714285714 115.71428571428572 L 83.78571428571429 117.85714285714288 L 91.55357142857143 120.00000000000001 L 99.32142857142857 122.14285714285715 L 76.01785714285714 128.57142857142858 L 76.01785714285714 130.71428571428572 L 76.01785714285714 132.85714285714286 L 76.01785714285714 135.0 L 52.71428571428571 141.42857142857144 L 29.410714285714278 147.8571428571429 L 37.178571428571416 150.0 L 44.94642857142856 152.14285714285717 L 52.71428571428571 154.2857142857143 L 60.482142857142854 156.42857142857144 L 68.25 158.5714285714286 L 76.01785714285714 160.71428571428572 L 52.71428571428571 167.14285714285717 L 29.410714285714278 173.57142857142858 L 22.419642857142847 180.0"
        fill="none"
        stroke="#c8c5bd"
        stroke-width="1.5"
        stroke-linecap="round"
        stroke-linejoin="round"/>
</svg>
