<svg xmlns="http://www.w3.org/2000/svg" viewBox="0 0 1000 1000" width="1000" height="1000">
  <g transform="translate(110 100) scale(780.0 780.0) translate(-0.0 -0.0)">
<path d="M 0.13515228816828315 0.8951522881682832 L 0.15681013463655485 0.8926831505095707 L 0.17835364321306174 0.8900996749590935 L 0.199768325994636 0.8873873736136836 L 0.203768325994636 0.8667053170864039 L 0.21559256337849259 0.854957642743572 L 0.22794082059444723 0.8431789158325426 L 0.23194082059444723 0.8226515730754423 L 0.2439052329957224 0.8108893599798493 L 0.2479052329957224 0.7905388043392846 L 0.2600851647741125 0.7788153235042712 L 0.2808663978658352 0.7754695724690098 L 0.293144828780733 0.7636210192569235 L 0.30540334192536106 0.7517525482745674 L 0.3176425053598459 0.7398647275820681 L 0.3218584219567706 0.7199536600520087 L 0.34206488330069057 0.7160331372689446 L 0.3542490763116607 0.7040903461529305 L 0.37408876402173147 0.6998030497360171 L 0.3861212054278452 0.6877085070151469 L 0.3981338027911366 0.675594120251454 L 0.4101270354074111 0.6634603687407445 L 0.41491766991550255 0.6441240191218517 L 0.43405723925278195 0.6391366043321469 L 0.45291542992495515 0.6338678108773361 L 0.46469956256562156 0.6215249593910185 L 0.4764636328160685 0.6091620455144813 L 0.4882081037302305 0.596779532301659 L 0.499933426674645 0.5843778711190893 L 0.5116400421941286 0.5719575025115889 L 0.5233283807832819 0.5595188569737582 L 0.5349988635769959 0.547062355640488 L 0.5408971259102958 0.5288336338468038 L 0.552690401389402 0.5164999251989256 L 0.5590315627451313 0.49871410242767106 L 0.576234490695562 0.49179004625111766 L 0.593097598486918 0.48452616991548947 L 0.5997241604116808 0.467025747713268 L 0.616225951540988 0.45940055471559127 L 0.6277678054946407 0.4468154245422597 L 0.63486220408207 0.4297828390027049 L 0.6465503978272547 0.41734404862090546 L 0.6582268496448312 0.40489351631149806 L 0.6698918544751107 0.3924315370147933 L 0.6815457034276985 0.37995840184039686 L 0.6931886839543056 0.36747439824001965 L 0.7048210800097061 0.3549798101684362 L 0.7164431722019107 0.3424749182336566 L 0.7280552379324998 0.3299599998372617 L 0.7396575515279676 0.31743532930574536 L 0.7512503843628306 0.3049011780136243 L 0.7628340049751814 0.2923578144989909 L 0.7744086791752977 0.27980550457212316 L 0.7859746701478566 0.2672445114176979 L 0.795707008723018 0.25284986586587527 L 0.8058270239589858 0.23884289697485886 L 0.814910855238111 0.22379974412699993 L 0.8274722971146641 0.21223420187656875 L 0.8375285679696287 0.19816348860454938 L 0.84760561910551 0.18411355561344642 L 0.8590281934307347 0.1714091458116871 L 0.8704611578964178 0.1587151261503859 L 0.8819045125025589 0.1460314966295431 L 0.8920490995514188 0.13204909955141877 Z"
          fill="black"
          stroke="black"
          stroke-width="0.006"
          stroke-linejoin="round"
          stroke-linecap="round" />
</g>
  <g transform="translate(690 690) scale(0.5232558139534884 0.5232558139534884) translate(-0.0 -0.0)">
<rect x="40" y="40" width="56" height="8"/>
  <rect x="104" y="40" width="24" height="8"/>
  <rect x="152" y="40" width="8" height="8"/>
  <rect x="168" y="40" width="8" height="8"/>
  <rect x="192" y="40" width="24" height="8"/>
  <rect x="224" y="40" width="8" height="8"/>
  <rect x="248" y="40" width="56" height="8"/>
  <rect x="40" y="48" width="8" height="8"/>
  <rect x="88" y="48" width="8" height="8"/>
  <rect x="104" y="48" width="8" height="8"/>
  <rect x="128" y="48" width="8" height="8"/>
  <rect x="144" y="48" width="16" height="8"/>
  <rect x="168" y="48" width="24" height="8"/>
  <rect x="200" y="48" width="8" height="8"/>
  <rect x="216" y="48" width="16" height="8"/>
  <rect x="248" y="48" width="8" height="8"/>
  <rect x="296" y="48" width="8" height="8"/>
  <rect x="40" y="56" width="8" height="8"/>
  <rect x="56" y="56" width="24" height="8"/>
  <rect x="88" y="56" width="8" height="8"/>
  <rect x="120" y="56" width="8" height="8"/>
  <rect x="144" y="56" width="8" height="8"/>
  <rect x="160" y="56" width="8" height="8"/>
  <rect x="192" y="56" width="8" height="8"/>
  <rect x="216" y="56" width="8" height="8"/>
  <rect x="248" y="56" width="8" height="8"/>
  <rect x="264" y="56" width="24" height="8"/>
  <rect x="296" y="56" width="8" height="8"/>
  <rect x="40" y="64" width="8" height="8"/>
  <rect x="56" y="64" width="24" height="8"/>
  <rect x="88" y="64" width="8" height="8"/>
  <rect x="104" y="64" width="24" height="8"/>
  <rect x="136" y="64" width="8" height="8"/>
  <rect x="168" y="64" width="16" height="8"/>
  <rect x="192" y="64" width="16" height="8"/>
  <rect x="232" y="64" width="8" height="8"/>
  <rect x="248" y="64" width="8" height="8"/>
  <rect x="264" y="64" width="24" height="8"/>
  <rect x="296" y="64" width="8" height="8"/>
  <rect x="40" y="72" width="8" height="8"/>
  <rect x="56" y="72" width="24" height="8"/>
  <rect x="88" y="72" width="8" height="8"/>
  <rect x="120" y="72" width="16" height="8"/>
  <rect x="152" y="72" width="16" height="8"/>
  <rect x="176" y="72" width="8" height="8"/>
  <rect x="192" y="72" width="8" height="8"/>
  <rect x="208" y="72" width="8" height="8"/>
  <rect x="232" y="72" width="8" height="8"/>
  <rect x="248" y="72" width="8" height="8"/>
  <rect x="264" y="72" width="24" height="8"/>
  <rect x="296" y="72" width="8" height="8"/>
  <rect x="40" y="80" width="8" height="8"/>
  <rect x="88" y="80" width="8" height="8"/>
  <rect x="112" y="80" width="32" height="8"/>
  <rect x="152" y="80" width="8" height="8"/>
  <rect x="168" y="80" width="8" height="8"/>
  <rect x="184" y="80" width="16" height="8"/>
  <rect x="208" y="80" width="8" height="8"/>
  <rect x="248" y="80" width="8" height="8"/>
  <rect x="296" y="80" width="8" height="8"/>
  <rect x="40" y="88" width="56" height="8"/>
  <rect x="104" y="88" width="8" height="8"/>
  <rect x="120" y="88" width="8" height="8"/>
  <rect x="136" y="88" width="8" height="8"/>
  <rect x="152" y="88" width="8" height="8"/>
  <rect x="168" y="88" width="8" height="8"/>
  <rect x="184" y="88" width="8" height="8"/>
  <rect x="200" y="88" width="8" height="8"/>
  <rect x="216" y="88" width="8" height="8"/>
  <rect x="232" y="88" width="8" height="8"/>
  <rect x="248" y="88" width="56" height="8"/>
  <rect x="104" y="96" width="8" height="8"/>
  <rect x="120" y="96" width="8" height="8"/>
  <rect x="152" y="96" width="40" height="8"/>
  <rect x="200" y="96" width="8" height="8"/>
  <rect x="216" y="96" width="8" height="8"/>
  <rect x="40" y="104" width="8" height="8"/>
  <rect x="56" y="104" width="16" height="8"/>
  <rect x="80" y="104" width="24" height="8"/>
  <rect x="120" y="104" width="8" height="8"/>
  <rect x="136" y="104" width="8" height="8"/>
  <rect x="152" y="104" width="8" height="8"/>
  <rect x="168" y="104" width="24" height="8"/>
  <rect x="208" y="104" width="8" height="8"/>
  <rect x="232" y="104" width="8" height="8"/>
  <rect x="248" y="104" width="8" height="8"/>
  <rect x="272" y="104" width="8" height="8"/>
  <rect x="288" y="104" width="16" height="8"/>
  <rect x="40" y="112" width="16" height="8"/>
  <rect x="64" y="112" width="24" height="8"/>
  <rect x="96" y="112" width="8" height="8"/>
  <rect x="112" y="112" width="8" height="8"/>
  <rect x="136" y="112" width="16" height="8"/>
  <rect x="168" y="112" width="40" height="8"/>
  <rect x="224" y="112" width="8" height="8"/>
  <rect x="248" y="112" width="16" height="8"/>
  <rect x="272" y="112" width="16" height="8"/>
  <rect x="296" y="112" width="8" height="8"/>
  <rect x="48" y="120" width="8" height="8"/>
  <rect x="72" y="120" width="24" height="8"/>
  <rect x="120" y="120" width="32" height="8"/>
  <rect x="168" y="120" width="24" height="8"/>
  <rect x="200" y="120" width="80" height="8"/>
  <rect x="288" y="120" width="16" height="8"/>
  <rect x="48" y="128" width="8" height="8"/>
  <rect x="64" y="128" width="8" height="8"/>
  <rect x="80" y="128" width="8" height="8"/>
  <rect x="96" y="128" width="8" height="8"/>
  <rect x="112" y="128" width="16" height="8"/>
  <rect x="160" y="128" width="16" height="8"/>
  <rect x="184" y="128" width="24" height="8"/>
  <rect x="224" y="128" width="24" height="8"/>
  <rect x="256" y="128" width="8" height="8"/>
  <rect x="272" y="128" width="8" height="8"/>
  <rect x="64" y="136" width="8" height="8"/>
  <rect x="80" y="136" width="16" height="8"/>
  <rect x="104" y="136" width="8" height="8"/>
  <rect x="128" y="136" width="8" height="8"/>
  <rect x="152" y="136" width="32" height="8"/>
  <rect x="216" y="136" width="16" height="8"/>
  <rect x="240" y="136" width="8" height="8"/>
  <rect x="264" y="136" width="16" height="8"/>
  <rect x="288" y="136" width="8" height="8"/>
  <rect x="72" y="144" width="16" height="8"/>
  <rect x="96" y="144" width="24" height="8"/>
  <rect x="128" y="144" width="40" height="8"/>
  <rect x="176" y="144" width="8" height="8"/>
  <rect x="192" y="144" width="8" height="8"/>
  <rect x="216" y="144" width="8" height="8"/>
  <rect x="232" y="144" width="8" height="8"/>
  <rect x="256" y="144" width="8" height="8"/>
  <rect x="272" y="144" width="24" height="8"/>
  <rect x="40" y="152" width="8" height="8"/>
  <rect x="56" y="152" width="8" height="8"/>
  <rect x="72" y="152" width="32" height="8"/>
  <rect x="128" y="152" width="8" height="8"/>
  <rect x="144" y="152" width="8" height="8"/>
  <rect x="176" y="152" width="8" height="8"/>
  <rect x="192" y="152" width="8" height="8"/>
  <rect x="232" y="152" width="8" height="8"/>
  <rect x="248" y="152" width="16" height="8"/>
  <rect x="272" y="152" width="8" height="8"/>
  <rect x="40" y="160" width="8" height="8"/>
  <rect x="72" y="160" width="8" height="8"/>
  <rect x="96" y="160" width="8" height="8"/>
  <rect x="120" y="160" width="16" height="8"/>
  <rect x="160" y="160" width="16" height="8"/>
  <rect x="184" y="160" width="40" height="8"/>
  <rect x="232" y="160" width="32" height="8"/>
  <rect x="272" y="160" width="16" height="8"/>
  <rect x="48" y="168" width="24" height="8"/>
  <rect x="88" y="168" width="24" height="8"/>
  <rect x="128" y="168" width="8" height="8"/>
  <rect x="160" y="168" width="16" height="8"/>
  <rect x="192" y="168" width="8" height="8"/>
  <rect x="208" y="168" width="24" height="8"/>
  <rect x="240" y="168" width="16" height="8"/>
  <rect x="264" y="168" width="24" height="8"/>
  <rect x="48" y="176" width="8" height="8"/>
  <rect x="72" y="176" width="8" height="8"/>
  <rect x="96" y="176" width="8" height="8"/>
  <rect x="112" y="176" width="8" height="8"/>
  <rect x="128" y="176" width="8" height="8"/>
  <rect x="144" y="176" width="24" height="8"/>
  <rect x="176" y="176" width="8" height="8"/>
  <rect x="200" y="176" width="8" height="8"/>
  <rect x="224" y="176" width="16" height="8"/>
  <rect x="248" y="176" width="8" height="8"/>
  <rect x="264" y="176" width="16" height="8"/>
  <rect x="288" y="176" width="16" height="8"/>
  <rect x="48" y="184" width="32" height="8"/>
  <rect x="88" y="184" width="32" height="8"/>
  <rect x="136" y="184" width="8" height="8"/>
  <rect x="152" y="184" width="24" height="8"/>
  <rect x="200" y="184" width="24" height="8"/>
  <rect x="232" y="184" width="8" height="8"/>
  <rect x="256" y="184" width="16" height="8"/>
  <rect x="280" y="184" width="16" height="8"/>
  <rect x="40" y="192" width="16" height="8"/>
  <rect x="64" y="192" width="24" height="8"/>
  <rect x="96" y="192" width="16" height="8"/>
  <rect x="128" y="192" width="8" height="8"/>
  <rect x="144" y="192" width="40" height="8"/>
  <rect x="200" y="192" width="8" height="8"/>
  <rect x="216" y="192" width="8" height="8"/>
  <rect x="240" y="192" width="16" height="8"/>
  <rect x="264" y="192" width="8" height="8"/>
  <rect x="48" y="200" width="16" height="8"/>
  <rect x="72" y="200" width="8" height="8"/>
  <rect x="88" y="200" width="16" height="8"/>
  <rect x="120" y="200" width="16" height="8"/>
  <rect x="144" y="200" width="24" height="8"/>
  <rect x="176" y="200" width="8" height="8"/>
  <rect x="208" y="200" width="8" height="8"/>
  <rect x="256" y="200" width="8" height="8"/>
  <rect x="272" y="200" width="24" height="8"/>
  <rect x="40" y="208" width="8" height="8"/>
  <rect x="56" y="208" width="8" height="8"/>
  <rect x="136" y="208" width="8" height="8"/>
  <rect x="176" y="208" width="8" height="8"/>
  <rect x="192" y="208" width="8" height="8"/>
  <rect x="208" y="208" width="8" height="8"/>
  <rect x="224" y="208" width="8" height="8"/>
  <rect x="248" y="208" width="8" height="8"/>
  <rect x="272" y="208" width="16" height="8"/>
  <rect x="296" y="208" width="8" height="8"/>
  <rect x="88" y="216" width="56" height="8"/>
  <rect x="184" y="216" width="8" height="8"/>
  <rect x="200" y="216" width="8" height="8"/>
  <rect x="216" y="216" width="16" height="8"/>
  <rect x="256" y="216" width="8" height="8"/>
  <rect x="280" y="216" width="24" height="8"/>
  <rect x="48" y="224" width="16" height="8"/>
  <rect x="72" y="224" width="8" height="8"/>
  <rect x="104" y="224" width="16" height="8"/>
  <rect x="128" y="224" width="24" height="8"/>
  <rect x="192" y="224" width="16" height="8"/>
  <rect x="216" y="224" width="8" height="8"/>
  <rect x="232" y="224" width="32" height="8"/>
  <rect x="272" y="224" width="8" height="8"/>
  <rect x="40" y="232" width="8" height="8"/>
  <rect x="56" y="232" width="8" height="8"/>
  <rect x="80" y="232" width="24" height="8"/>
  <rect x="136" y="232" width="8" height="8"/>
  <rect x="152" y="232" width="16" height="8"/>
  <rect x="176" y="232" width="8" height="8"/>
  <rect x="232" y="232" width="40" height="8"/>
  <rect x="288" y="232" width="16" height="8"/>
  <rect x="104" y="240" width="8" height="8"/>
  <rect x="120" y="240" width="8" height="8"/>
  <rect x="136" y="240" width="8" height="8"/>
  <rect x="160" y="240" width="8" height="8"/>
  <rect x="192" y="240" width="8" height="8"/>
  <rect x="208" y="240" width="8" height="8"/>
  <rect x="232" y="240" width="8" height="8"/>
  <rect x="264" y="240" width="16" height="8"/>
  <rect x="288" y="240" width="8" height="8"/>
  <rect x="40" y="248" width="56" height="8"/>
  <rect x="104" y="248" width="8" height="8"/>
  <rect x="120" y="248" width="8" height="8"/>
  <rect x="136" y="248" width="8" height="8"/>
  <rect x="152" y="248" width="8" height="8"/>
  <rect x="176" y="248" width="40" height="8"/>
  <rect x="224" y="248" width="16" height="8"/>
  <rect x="248" y="248" width="8" height="8"/>
  <rect x="264" y="248" width="8" height="8"/>
  <rect x="40" y="256" width="8" height="8"/>
  <rect x="88" y="256" width="8" height="8"/>
  <rect x="104" y="256" width="8" height="8"/>
  <rect x="120" y="256" width="16" height="8"/>
  <rect x="144" y="256" width="16" height="8"/>
  <rect x="168" y="256" width="8" height="8"/>
  <rect x="192" y="256" width="24" height="8"/>
  <rect x="224" y="256" width="16" height="8"/>
  <rect x="264" y="256" width="32" height="8"/>
  <rect x="40" y="264" width="8" height="8"/>
  <rect x="56" y="264" width="24" height="8"/>
  <rect x="88" y="264" width="8" height="8"/>
  <rect x="112" y="264" width="8" height="8"/>
  <rect x="144" y="264" width="8" height="8"/>
  <rect x="160" y="264" width="8" height="8"/>
  <rect x="184" y="264" width="8" height="8"/>
  <rect x="208" y="264" width="64" height="8"/>
  <rect x="280" y="264" width="24" height="8"/>
  <rect x="40" y="272" width="8" height="8"/>
  <rect x="56" y="272" width="24" height="8"/>
  <rect x="88" y="272" width="8" height="8"/>
  <rect x="104" y="272" width="8" height="8"/>
  <rect x="120" y="272" width="16" height="8"/>
  <rect x="144" y="272" width="8" height="8"/>
  <rect x="160" y="272" width="8" height="8"/>
  <rect x="176" y="272" width="8" height="8"/>
  <rect x="200" y="272" width="32" height="8"/>
  <rect x="256" y="272" width="8" height="8"/>
  <rect x="272" y="272" width="16" height="8"/>
  <rect x="296" y="272" width="8" height="8"/>
  <rect x="40" y="280" width="8" height="8"/>
  <rect x="56" y="280" width="24" height="8"/>
  <rect x="88" y="280" width="8" height="8"/>
  <rect x="104" y="280" width="8" height="8"/>
  <rect x="128" y="280" width="8" height="8"/>
  <rect x="152" y="280" width="24" height="8"/>
  <rect x="184" y="280" width="8" height="8"/>
  <rect x="200" y="280" width="8" height="8"/>
  <rect x="216" y="280" width="24" height="8"/>
  <rect x="248" y="280" width="16" height="8"/>
  <rect x="40" y="288" width="8" height="8"/>
  <rect x="88" y="288" width="8" height="8"/>
  <rect x="136" y="288" width="8" height="8"/>
  <rect x="176" y="288" width="16" height="8"/>
  <rect x="200" y="288" width="8" height="8"/>
  <rect x="224" y="288" width="24" height="8"/>
  <rect x="256" y="288" width="24" height="8"/>
  <rect x="296" y="288" width="8" height="8"/>
  <rect x="40" y="296" width="56" height="8"/>
  <rect x="104" y="296" width="24" height="8"/>
  <rect x="160" y="296" width="32" height="8"/>
  <rect x="208" y="296" width="8" height="8"/>
  <rect x="224" y="296" width="8" height="8"/>
  <rect x="240" y="296" width="16" height="8"/>
  <rect x="264" y="296" width="8" height="8"/>
  <rect x="280" y="296" width="8" height="8"/>
</g>
</svg>