<svg xmlns="http://www.w3.org/2000/svg" viewBox="0 0 1000 1000" width="1000" height="1000">
  <g transform="translate(110 100) scale(780.0 780.0) translate(-0.0 -0.0)">
<path d="M 0.14424366106925304 0.904243661069253 L 0.14824366106925305 0.8836258683137791 L 0.16933814446934986 0.8810841762153816 L 0.1818338265230212 0.8694528741420688 L 0.19430012881814648 0.8577921923102101 L 0.1983001288181465 0.8372505989608648 L 0.2191520770159668 0.8343901722540621 L 0.22315207701596682 0.8139325379259278 L 0.2439052329957224 0.8108893599798493 L 0.26481292202163986 0.8076700648787828 L 0.2770497134129993 0.7957798721431579 L 0.2892610785210958 0.7838642531242704 L 0.3014478102003344 0.7719240006765249 L 0.3054478102003344 0.7517525482745674 L 0.32575025125799245 0.7479724734802148 L 0.3378672814540026 0.7359625195492406 L 0.34996233394972864 0.7239305879179827 L 0.3620359801442541 0.7118772499855239 L 0.37408876402173147 0.6998030497360171 L 0.3861212054278452 0.6877085070151469 L 0.3981338027911366 0.675594120251454 L 0.4101270354074111 0.6634603687407445 L 0.4221013653756708 0.65130771458202 L 0.43405723925278195 0.6391366043321469 L 0.44599508947868277 0.6269474704310637 L 0.46469956256562156 0.6215249593910185 L 0.4764636328160685 0.6091620455144813 L 0.4882081037302305 0.596779532301659 L 0.499933426674645 0.5843778711190893 L 0.5116400421941286 0.5719575025115889 L 0.5172664134371288 0.5534568896276051 L 0.5290892454164826 0.5411527374799747 L 0.5466519029709123 0.5345884109074203 L 0.552690401389402 0.5164999251989256 L 0.5699072607499904 0.5095898004325301 L 0.576234490695562 0.49179004625111766 L 0.5879859661201255 0.479414537548697 L 0.6046693373115335 0.47197092461312073 L 0.616225951540988 0.45940055471559127 L 0.6277678054946407 0.4468154245422597 L 0.6392952580470574 0.43421589296769236 L 0.6508086629009073 0.42160231369455814 L 0.6623083688392144 0.40897503550588127 L 0.6737947199590082 0.3963344024986908 L 0.6852680558881616 0.38368075430086007 L 0.6931886839543056 0.36747439824001965 L 0.708177019536106 0.35833574969483617 L 0.7164431722019107 0.3424749182336566 L 0.7250725811166987 0.32697734302146064 L 0.7396575515279676 0.31743532930574536 L 0.7512503843628306 0.3049011780136243 L 0.7628340049751814 0.2923578144989909 L 0.7744086791752977 0.27980550457212316 L 0.7859746701478566 0.2672445114176979 L 0.795707008723018 0.25284986586587527 L 0.8074543332762202 0.24047020629209329 L 0.8191950674204151 0.228083956309304 L 0.830152953352893 0.21491485811479757 L 0.8415339671162846 0.20216888775120526 L 0.8515954330414784 0.18810336954941492 L 0.8616776792475888 0.17405863162854118 L 0.8717807057346156 0.16003467398858384 L 0.8819045125025589 0.1460314966295431 L 0.8920490995514188 0.13204909955141877 Z"
          fill="black"
          stroke="black"
          stroke-width="0.006"
          stroke-linejoin="round"
          stroke-linecap="round" />
</g>
  <g transform="translate(690 690) scale(0.5232558139534884 0.5232558139534884) translate(-0.0 -0.0)">
<rect x="40" y="40" width="56" height="8"/>
  <rect x="128" y="40" width="8" height="8"/>
  <rect x="144" y="40" width="16" height="8"/>
  <rect x="168" y="40" width="40" height="8"/>
  <rect x="224" y="40" width="8" height="8"/>
  <rect x="248" y="40" width="56" height="8"/>
  <rect x="40" y="48" width="8" height="8"/>
  <rect x="88" y="48" width="8" height="8"/>
  <rect x="120" y="48" width="8" height="8"/>
  <rect x="136" y="48" width="48" height="8"/>
  <rect x="216" y="48" width="8" height="8"/>
  <rect x="232" y="48" width="8" height="8"/>
  <rect x="248" y="48" width="8" height="8"/>
  <rect x="296" y="48" width="8" height="8"/>
  <rect x="40" y="56" width="8" height="8"/>
  <rect x="56" y="56" width="24" height="8"/>
  <rect x="88" y="56" width="8" height="8"/>
  <rect x="104" y="56" width="24" height="8"/>
  <rect x="144" y="56" width="8" height="8"/>
  <rect x="168" y="56" width="40" height="8"/>
  <rect x="224" y="56" width="16" height="8"/>
  <rect x="248" y="56" width="8" height="8"/>
  <rect x="264" y="56" width="24" height="8"/>
  <rect x="296" y="56" width="8" height="8"/>
  <rect x="40" y="64" width="8" height="8"/>
  <rect x="56" y="64" width="24" height="8"/>
  <rect x="88" y="64" width="8" height="8"/>
  <rect x="104" y="64" width="8" height="8"/>
  <rect x="120" y="64" width="8" height="8"/>
  <rect x="152" y="64" width="8" height="8"/>
  <rect x="168" y="64" width="8" height="8"/>
  <rect x="192" y="64" width="32" height="8"/>
  <rect x="232" y="64" width="8" height="8"/>
  <rect x="248" y="64" width="8" height="8"/>
  <rect x="264" y="64" width="24" height="8"/>
  <rect x="296" y="64" width="8" height="8"/>
  <rect x="40" y="72" width="8" height="8"/>
  <rect x="56" y="72" width="24" height="8"/>
  <rect x="88" y="72" width="8" height="8"/>
  <rect x="104" y="72" width="24" height="8"/>
  <rect x="136" y="72" width="8" height="8"/>
  <rect x="160" y="72" width="8" height="8"/>
  <rect x="184" y="72" width="8" height="8"/>
  <rect x="208" y="72" width="8" height="8"/>
  <rect x="232" y="72" width="8" height="8"/>
  <rect x="248" y="72" width="8" height="8"/>
  <rect x="264" y="72" width="24" height="8"/>
  <rect x="296" y="72" width="8" height="8"/>
  <rect x="40" y="80" width="8" height="8"/>
  <rect x="88" y="80" width="8" height="8"/>
  <rect x="104" y="80" width="8" height="8"/>
  <rect x="128" y="80" width="8" height="8"/>
  <rect x="152" y="80" width="24" height="8"/>
  <rect x="200" y="80" width="24" height="8"/>
  <rect x="232" y="80" width="8" height="8"/>
  <rect x="248" y="80" width="8" height="8"/>
  <rect x="296" y="80" width="8" height="8"/>
  <rect x="40" y="88" width="56" height="8"/>
  <rect x="104" y="88" width="8" height="8"/>
  <rect x="120" y="88" width="8" height="8"/>
  <rect x="136" y="88" width="8" height="8"/>
  <rect x="152" y="88" width="8" height="8"/>
  <rect x="168" y="88" width="8" height="8"/>
  <rect x="184" y="88" width="8" height="8"/>
  <rect x="200" y="88" width="8" height="8"/>
  <rect x="216" y="88" width="8" height="8"/>
  <rect x="232" y="88" width="8" height="8"/>
  <rect x="248" y="88" width="56" height="8"/>
  <rect x="104" y="96" width="8" height="8"/>
  <rect x="152" y="96" width="16" height="8"/>
  <rect x="184" y="96" width="8" height="8"/>
  <rect x="208" y="96" width="16" height="8"/>
  <rect x="232" y="96" width="8" height="8"/>
  <rect x="40" y="104" width="8" height="8"/>
  <rect x="56" y="104" width="40" height="8"/>
  <rect x="112" y="104" width="16" height="8"/>
  <rect x="136" y="104" width="32" height="8"/>
  <rect x="176" y="104" width="8" height="8"/>
  <rect x="216" y="104" width="16" height="8"/>
  <rect x="248" y="104" width="40" height="8"/>
  <rect x="40" y="112" width="24" height="8"/>
  <rect x="96" y="112" width="8" height="8"/>
  <rect x="128" y="112" width="16" height="8"/>
  <rect x="184" y="112" width="32" height="8"/>
  <rect x="224" y="112" width="8" height="8"/>
  <rect x="248" y="112" width="16" height="8"/>
  <rect x="272" y="112" width="16" height="8"/>
  <rect x="296" y="112" width="8" height="8"/>
  <rect x="56" y="120" width="8" height="8"/>
  <rect x="72" y="120" width="8" height="8"/>
  <rect x="88" y="120" width="8" height="8"/>
  <rect x="104" y="120" width="16" height="8"/>
  <rect x="128" y="120" width="16" height="8"/>
  <rect x="160" y="120" width="16" height="8"/>
  <rect x="184" y="120" width="8" height="8"/>
  <rect x="200" y="120" width="16" height="8"/>
  <rect x="240" y="120" width="16" height="8"/>
  <rect x="264" y="120" width="8" height="8"/>
  <rect x="280" y="120" width="8" height="8"/>
  <rect x="40" y="128" width="16" height="8"/>
  <rect x="64" y="128" width="16" height="8"/>
  <rect x="112" y="128" width="8" height="8"/>
  <rect x="128" y="128" width="8" height="8"/>
  <rect x="152" y="128" width="8" height="8"/>
  <rect x="168" y="128" width="8" height="8"/>
  <rect x="208" y="128" width="16" height="8"/>
  <rect x="240" y="128" width="16" height="8"/>
  <rect x="264" y="128" width="24" height="8"/>
  <rect x="40" y="136" width="8" height="8"/>
  <rect x="72" y="136" width="40" height="8"/>
  <rect x="120" y="136" width="8" height="8"/>
  <rect x="136" y="136" width="8" height="8"/>
  <rect x="184" y="136" width="8" height="8"/>
  <rect x="208" y="136" width="8" height="8"/>
  <rect x="240" y="136" width="8" height="8"/>
  <rect x="264" y="136" width="16" height="8"/>
  <rect x="288" y="136" width="8" height="8"/>
  <rect x="40" y="144" width="16" height="8"/>
  <rect x="64" y="144" width="8" height="8"/>
  <rect x="80" y="144" width="8" height="8"/>
  <rect x="104" y="144" width="24" height="8"/>
  <rect x="136" y="144" width="8" height="8"/>
  <rect x="152" y="144" width="24" height="8"/>
  <rect x="200" y="144" width="8" height="8"/>
  <rect x="216" y="144" width="24" height="8"/>
  <rect x="248" y="144" width="16" height="8"/>
  <rect x="272" y="144" width="8" height="8"/>
  <rect x="288" y="144" width="16" height="8"/>
  <rect x="56" y="152" width="8" height="8"/>
  <rect x="88" y="152" width="24" height="8"/>
  <rect x="128" y="152" width="24" height="8"/>
  <rect x="184" y="152" width="16" height="8"/>
  <rect x="208" y="152" width="8" height="8"/>
  <rect x="232" y="152" width="32" height="8"/>
  <rect x="288" y="152" width="8" height="8"/>
  <rect x="64" y="160" width="24" height="8"/>
  <rect x="136" y="160" width="24" height="8"/>
  <rect x="168" y="160" width="8" height="8"/>
  <rect x="192" y="160" width="64" height="8"/>
  <rect x="264" y="160" width="24" height="8"/>
  <rect x="48" y="168" width="8" height="8"/>
  <rect x="72" y="168" width="24" height="8"/>
  <rect x="104" y="168" width="8" height="8"/>
  <rect x="176" y="168" width="8" height="8"/>
  <rect x="192" y="168" width="8" height="8"/>
  <rect x="216" y="168" width="8" height="8"/>
  <rect x="232" y="168" width="16" height="8"/>
  <rect x="256" y="168" width="16" height="8"/>
  <rect x="296" y="168" width="8" height="8"/>
  <rect x="40" y="176" width="8" height="8"/>
  <rect x="72" y="176" width="8" height="8"/>
  <rect x="96" y="176" width="24" height="8"/>
  <rect x="144" y="176" width="8" height="8"/>
  <rect x="168" y="176" width="16" height="8"/>
  <rect x="192" y="176" width="16" height="8"/>
  <rect x="224" y="176" width="8" height="8"/>
  <rect x="240" y="176" width="24" height="8"/>
  <rect x="272" y="176" width="32" height="8"/>
  <rect x="40" y="184" width="32" height="8"/>
  <rect x="88" y="184" width="16" height="8"/>
  <rect x="120" y="184" width="8" height="8"/>
  <rect x="136" y="184" width="8" height="8"/>
  <rect x="152" y="184" width="32" height="8"/>
  <rect x="216" y="184" width="8" height="8"/>
  <rect x="232" y="184" width="8" height="8"/>
  <rect x="248" y="184" width="24" height="8"/>
  <rect x="280" y="184" width="16" height="8"/>
  <rect x="80" y="192" width="8" height="8"/>
  <rect x="96" y="192" width="16" height="8"/>
  <rect x="136" y="192" width="8" height="8"/>
  <rect x="152" y="192" width="8" height="8"/>
  <rect x="176" y="192" width="16" height="8"/>
  <rect x="200" y="192" width="8" height="8"/>
  <rect x="224" y="192" width="8" height="8"/>
  <rect x="240" y="192" width="8" height="8"/>
  <rect x="256" y="192" width="40" height="8"/>
  <rect x="64" y="200" width="16" height="8"/>
  <rect x="88" y="200" width="16" height="8"/>
  <rect x="120" y="200" width="8" height="8"/>
  <rect x="144" y="200" width="8" height="8"/>
  <rect x="160" y="200" width="16" height="8"/>
  <rect x="200" y="200" width="24" height="8"/>
  <rect x="240" y="200" width="8" height="8"/>
  <rect x="256" y="200" width="24" height="8"/>
  <rect x="296" y="200" width="8" height="8"/>
  <rect x="40" y="208" width="8" height="8"/>
  <rect x="64" y="208" width="24" height="8"/>
  <rect x="128" y="208" width="8" height="8"/>
  <rect x="160" y="208" width="8" height="8"/>
  <rect x="184" y="208" width="8" height="8"/>
  <rect x="208" y="208" width="8" height="8"/>
  <rect x="224" y="208" width="16" height="8"/>
  <rect x="248" y="208" width="8" height="8"/>
  <rect x="296" y="208" width="8" height="8"/>
  <rect x="40" y="216" width="8" height="8"/>
  <rect x="72" y="216" width="8" height="8"/>
  <rect x="88" y="216" width="40" height="8"/>
  <rect x="152" y="216" width="40" height="8"/>
  <rect x="200" y="216" width="8" height="8"/>
  <rect x="216" y="216" width="8" height="8"/>
  <rect x="280" y="216" width="16" height="8"/>
  <rect x="40" y="224" width="8" height="8"/>
  <rect x="80" y="224" width="8" height="8"/>
  <rect x="96" y="224" width="24" height="8"/>
  <rect x="128" y="224" width="8" height="8"/>
  <rect x="152" y="224" width="16" height="8"/>
  <rect x="184" y="224" width="8" height="8"/>
  <rect x="208" y="224" width="16" height="8"/>
  <rect x="240" y="224" width="16" height="8"/>
  <rect x="264" y="224" width="24" height="8"/>
  <rect x="40" y="232" width="8" height="8"/>
  <rect x="88" y="232" width="8" height="8"/>
  <rect x="104" y="232" width="8" height="8"/>
  <rect x="120" y="232" width="16" height="8"/>
  <rect x="144" y="232" width="8" height="8"/>
  <rect x="160" y="232" width="8" height="8"/>
  <rect x="176" y="232" width="8" height="8"/>
  <rect x="200" y="232" width="8" height="8"/>
  <rect x="216" y="232" width="64" height="8"/>
  <rect x="288" y="232" width="16" height="8"/>
  <rect x="104" y="240" width="8" height="8"/>
  <rect x="120" y="240" width="8" height="8"/>
  <rect x="136" y="240" width="16" height="8"/>
  <rect x="168" y="240" width="8" height="8"/>
  <rect x="184" y="240" width="32" height="8"/>
  <rect x="224" y="240" width="16" height="8"/>
  <rect x="264" y="240" width="8" height="8"/>
  <rect x="280" y="240" width="8" height="8"/>
  <rect x="296" y="240" width="8" height="8"/>
  <rect x="40" y="248" width="56" height="8"/>
  <rect x="152" y="248" width="16" height="8"/>
  <rect x="184" y="248" width="8" height="8"/>
  <rect x="200" y="248" width="16" height="8"/>
  <rect x="224" y="248" width="16" height="8"/>
  <rect x="248" y="248" width="8" height="8"/>
  <rect x="264" y="248" width="8" height="8"/>
  <rect x="280" y="248" width="16" height="8"/>
  <rect x="40" y="256" width="8" height="8"/>
  <rect x="88" y="256" width="8" height="8"/>
  <rect x="104" y="256" width="24" height="8"/>
  <rect x="152" y="256" width="8" height="8"/>
  <rect x="168" y="256" width="8" height="8"/>
  <rect x="192" y="256" width="8" height="8"/>
  <rect x="208" y="256" width="32" height="8"/>
  <rect x="264" y="256" width="24" height="8"/>
  <rect x="296" y="256" width="8" height="8"/>
  <rect x="40" y="264" width="8" height="8"/>
  <rect x="56" y="264" width="24" height="8"/>
  <rect x="88" y="264" width="8" height="8"/>
  <rect x="104" y="264" width="8" height="8"/>
  <rect x="120" y="264" width="8" height="8"/>
  <rect x="136" y="264" width="16" height="8"/>
  <rect x="184" y="264" width="8" height="8"/>
  <rect x="208" y="264" width="8" height="8"/>
  <rect x="232" y="264" width="48" height="8"/>
  <rect x="288" y="264" width="16" height="8"/>
  <rect x="40" y="272" width="8" height="8"/>
  <rect x="56" y="272" width="24" height="8"/>
  <rect x="88" y="272" width="8" height="8"/>
  <rect x="104" y="272" width="16" height="8"/>
  <rect x="128" y="272" width="16" height="8"/>
  <rect x="160" y="272" width="16" height="8"/>
  <rect x="200" y="272" width="8" height="8"/>
  <rect x="216" y="272" width="16" height="8"/>
  <rect x="240" y="272" width="8" height="8"/>
  <rect x="264" y="272" width="24" height="8"/>
  <rect x="296" y="272" width="8" height="8"/>
  <rect x="40" y="280" width="8" height="8"/>
  <rect x="56" y="280" width="24" height="8"/>
  <rect x="88" y="280" width="8" height="8"/>
  <rect x="104" y="280" width="40" height="8"/>
  <rect x="192" y="280" width="8" height="8"/>
  <rect x="216" y="280" width="16" height="8"/>
  <rect x="248" y="280" width="16" height="8"/>
  <rect x="280" y="280" width="8" height="8"/>
  <rect x="40" y="288" width="8" height="8"/>
  <rect x="88" y="288" width="8" height="8"/>
  <rect x="120" y="288" width="8" height="8"/>
  <rect x="168" y="288" width="8" height="8"/>
  <rect x="184" y="288" width="32" height="8"/>
  <rect x="224" y="288" width="8" height="8"/>
  <rect x="240" y="288" width="8" height="8"/>
  <rect x="264" y="288" width="24" height="8"/>
  <rect x="40" y="296" width="56" height="8"/>
  <rect x="104" y="296" width="8" height="8"/>
  <rect x="120" y="296" width="8" height="8"/>
  <rect x="136" y="296" width="16" height="8"/>
  <rect x="176" y="296" width="32" height="8"/>
  <rect x="216" y="296" width="8" height="8"/>
  <rect x="232" y="296" width="8" height="8"/>
  <rect x="256" y="296" width="8" height="8"/>
  <rect x="288" y="296" width="8" height="8"/>
</g>
</svg>