<svg xmlns="http://www.w3.org/2000/svg" viewBox="0 0 1000 1000" width="1000" height="1000">
  <g transform="translate(110 100) scale(780.0 780.0) translate(-0.0 -0.0)">
<path d="M 0.1454558441227157 0.9054558441227157 L 0.16647123564539917 0.902344251518415 L 0.17895467646264251 0.8907007082086743 L 0.18302945982112886 0.8706485074401765 L 0.19548854545497232 0.8589806089470359 L 0.2161827981712495 0.8555478775363289 L 0.22852673683301258 0.8437648320711079 L 0.2408407661238134 0.8319518772349246 L 0.25312614386202015 0.8201102708461471 L 0.26538396403962317 0.8082411068967661 L 0.269698409002815 0.7884285677329738 L 0.28198568861986995 0.7765888632230447 L 0.2942518929700132 0.7647280834462037 L 0.3064976484093462 0.7528468547585525 L 0.3187235381462654 0.7409457603684877 L 0.3309301090052021 0.7290253471004401 L 0.3504888306596645 0.7244570846279186 L 0.362555107066427 0.7123963769076969 L 0.37460028935261863 0.7003145750669043 L 0.38662490313998704 0.6882122047272886 L 0.3986294523951684 0.6760897698554857 L 0.4106144217394771 0.6639477550728106 L 0.42258027840634865 0.6517866276126979 L 0.44111075917693643 0.6461901242563014 L 0.45291542992495515 0.6338678108773361 L 0.46469956256562156 0.6215249593910185 L 0.4764636328160685 0.6091620455144813 L 0.4882081037302305 0.596779532301659 L 0.499933426674645 0.5843778711190893 L 0.5058423942038469 0.5661598545213072 L 0.5233283807832819 0.5595188569737582 L 0.5294832199605168 0.541546712024009 L 0.5412807777143369 0.5292172856508448 L 0.5530635681755087 0.5168730919850324 L 0.5648319350143896 0.5045144746969292 L 0.5765862156496663 0.4921417712052219 L 0.5883267416112451 0.4797553130398165 L 0.5954383404318084 0.4627399277333957 L 0.60730970475826 0.45048430793286326 L 0.6191702448824569 0.43821786393007595 L 0.6310202239790808 0.4259408588997158 L 0.642859901430089 0.4136535522237398 L 0.6508801150949415 0.3975467817616083 L 0.6628666966040951 0.38540637914377773 L 0.6817938602583961 0.3802065586710944 L 0.6934246858231521 0.36771040010886624 L 0.7050448093114661 0.35520353947019623 L 0.7166545144492152 0.3426862604809612 L 0.7282540817202199 0.33015884362498177 L 0.7372364709039448 0.3150142486817226 L 0.7489945617983444 0.3026453554491382 L 0.7607447711245948 0.2902685806484043 L 0.7704181770458486 0.2758150024426741 L 0.7823354488545979 0.26360529012443923 L 0.7942468248628318 0.2513896820056891 L 0.803114841763595 0.23613071477946818 L 0.8153868788139226 0.2242757677028115 L 0.8279190731543689 0.21268097791627355 L 0.8393977542380682 0.20003267487298879 L 0.8508861327861952 0.18739406929413163 L 0.8611477820842179 0.17352873446517036 L 0.8714288263110962 0.1596827945650644 L 0.8817292654668297 0.14585624959381394 L 0.8920490995514188 0.13204909955141877 Z"
          fill="black"
          stroke="black"
          stroke-width="0.006"
          stroke-linejoin="round"
          stroke-linecap="round" />
</g>
  <g transform="translate(690 690) scale(0.5232558139534884 0.5232558139534884) translate(-0.0 -0.0)">
<rect x="40" y="40" width="56" height="8"/>
  <rect x="104" y="40" width="16" height="8"/>
  <rect x="128" y="40" width="8" height="8"/>
  <rect x="160" y="40" width="32" height="8"/>
  <rect x="208" y="40" width="8" height="8"/>
  <rect x="224" y="40" width="8" height="8"/>
  <rect x="248" y="40" width="56" height="8"/>
  <rect x="40" y="48" width="8" height="8"/>
  <rect x="88" y="48" width="8" height="8"/>
  <rect x="112" y="48" width="8" height="8"/>
  <rect x="136" y="48" width="8" height="8"/>
  <rect x="168" y="48" width="16" height="8"/>
  <rect x="192" y="48" width="32" height="8"/>
  <rect x="232" y="48" width="8" height="8"/>
  <rect x="248" y="48" width="8" height="8"/>
  <rect x="296" y="48" width="8" height="8"/>
  <rect x="40" y="56" width="8" height="8"/>
  <rect x="56" y="56" width="24" height="8"/>
  <rect x="88" y="56" width="8" height="8"/>
  <rect x="128" y="56" width="24" height="8"/>
  <rect x="192" y="56" width="16" height="8"/>
  <rect x="216" y="56" width="8" height="8"/>
  <rect x="248" y="56" width="8" height="8"/>
  <rect x="264" y="56" width="24" height="8"/>
  <rect x="296" y="56" width="8" height="8"/>
  <rect x="40" y="64" width="8" height="8"/>
  <rect x="56" y="64" width="24" height="8"/>
  <rect x="88" y="64" width="8" height="8"/>
  <rect x="104" y="64" width="8" height="8"/>
  <rect x="120" y="64" width="24" height="8"/>
  <rect x="152" y="64" width="8" height="8"/>
  <rect x="176" y="64" width="40" height="8"/>
  <rect x="224" y="64" width="8" height="8"/>
  <rect x="248" y="64" width="8" height="8"/>
  <rect x="264" y="64" width="24" height="8"/>
  <rect x="296" y="64" width="8" height="8"/>
  <rect x="40" y="72" width="8" height="8"/>
  <rect x="56" y="72" width="24" height="8"/>
  <rect x="88" y="72" width="8" height="8"/>
  <rect x="104" y="72" width="8" height="8"/>
  <rect x="128" y="72" width="8" height="8"/>
  <rect x="144" y="72" width="16" height="8"/>
  <rect x="184" y="72" width="24" height="8"/>
  <rect x="232" y="72" width="8" height="8"/>
  <rect x="248" y="72" width="8" height="8"/>
  <rect x="264" y="72" width="24" height="8"/>
  <rect x="296" y="72" width="8" height="8"/>
  <rect x="40" y="80" width="8" height="8"/>
  <rect x="88" y="80" width="8" height="8"/>
  <rect x="104" y="80" width="16" height="8"/>
  <rect x="144" y="80" width="8" height="8"/>
  <rect x="168" y="80" width="8" height="8"/>
  <rect x="192" y="80" width="8" height="8"/>
  <rect x="216" y="80" width="8" height="8"/>
  <rect x="232" y="80" width="8" height="8"/>
  <rect x="248" y="80" width="8" height="8"/>
  <rect x="296" y="80" width="8" height="8"/>
  <rect x="40" y="88" width="56" height="8"/>
  <rect x="104" y="88" width="8" height="8"/>
  <rect x="120" y="88" width="8" height="8"/>
  <rect x="136" y="88" width="8" height="8"/>
  <rect x="152" y="88" width="8" height="8"/>
  <rect x="168" y="88" width="8" height="8"/>
  <rect x="184" y="88" width="8" height="8"/>
  <rect x="200" y="88" width="8" height="8"/>
  <rect x="216" y="88" width="8" height="8"/>
  <rect x="232" y="88" width="8" height="8"/>
  <rect x="248" y="88" width="56" height="8"/>
  <rect x="104" y="96" width="8" height="8"/>
  <rect x="120" y="96" width="8" height="8"/>
  <rect x="152" y="96" width="32" height="8"/>
  <rect x="208" y="96" width="8" height="8"/>
  <rect x="224" y="96" width="16" height="8"/>
  <rect x="40" y="104" width="8" height="8"/>
  <rect x="72" y="104" width="8" height="8"/>
  <rect x="88" y="104" width="24" height="8"/>
  <rect x="120" y="104" width="24" height="8"/>
  <rect x="176" y="104" width="8" height="8"/>
  <rect x="192" y="104" width="32" height="8"/>
  <rect x="240" y="104" width="40" height="8"/>
  <rect x="296" y="104" width="8" height="8"/>
  <rect x="64" y="112" width="16" height="8"/>
  <rect x="104" y="112" width="16" height="8"/>
  <rect x="128" y="112" width="40" height="8"/>
  <rect x="184" y="112" width="8" height="8"/>
  <rect x="224" y="112" width="8" height="8"/>
  <rect x="240" y="112" width="8" height="8"/>
  <rect x="272" y="112" width="24" height="8"/>
  <rect x="40" y="120" width="8" height="8"/>
  <rect x="56" y="120" width="8" height="8"/>
  <rect x="72" y="120" width="24" height="8"/>
  <rect x="104" y="120" width="16" height="8"/>
  <rect x="160" y="120" width="8" height="8"/>
  <rect x="176" y="120" width="8" height="8"/>
  <rect x="200" y="120" width="56" height="8"/>
  <rect x="272" y="120" width="8" height="8"/>
  <rect x="40" y="128" width="16" height="8"/>
  <rect x="64" y="128" width="24" height="8"/>
  <rect x="136" y="128" width="8" height="8"/>
  <rect x="152" y="128" width="8" height="8"/>
  <rect x="176" y="128" width="16" height="8"/>
  <rect x="208" y="128" width="8" height="8"/>
  <rect x="224" y="128" width="32" height="8"/>
  <rect x="56" y="136" width="8" height="8"/>
  <rect x="72" y="136" width="24" height="8"/>
  <rect x="104" y="136" width="8" height="8"/>
  <rect x="120" y="136" width="8" height="8"/>
  <rect x="144" y="136" width="24" height="8"/>
  <rect x="184" y="136" width="24" height="8"/>
  <rect x="248" y="136" width="32" height="8"/>
  <rect x="296" y="136" width="8" height="8"/>
  <rect x="40" y="144" width="32" height="8"/>
  <rect x="96" y="144" width="8" height="8"/>
  <rect x="128" y="144" width="24" height="8"/>
  <rect x="168" y="144" width="8" height="8"/>
  <rect x="192" y="144" width="8" height="8"/>
  <rect x="208" y="144" width="40" height="8"/>
  <rect x="272" y="144" width="8" height="8"/>
  <rect x="40" y="152" width="8" height="8"/>
  <rect x="56" y="152" width="40" height="8"/>
  <rect x="120" y="152" width="8" height="8"/>
  <rect x="136" y="152" width="16" height="8"/>
  <rect x="168" y="152" width="16" height="8"/>
  <rect x="192" y="152" width="8" height="8"/>
  <rect x="208" y="152" width="88" height="8"/>
  <rect x="40" y="160" width="8" height="8"/>
  <rect x="120" y="160" width="16" height="8"/>
  <rect x="144" y="160" width="16" height="8"/>
  <rect x="176" y="160" width="40" height="8"/>
  <rect x="224" y="160" width="32" height="8"/>
  <rect x="56" y="168" width="48" height="8"/>
  <rect x="112" y="168" width="8" height="8"/>
  <rect x="128" y="168" width="8" height="8"/>
  <rect x="144" y="168" width="24" height="8"/>
  <rect x="176" y="168" width="8" height="8"/>
  <rect x="200" y="168" width="24" height="8"/>
  <rect x="232" y="168" width="8" height="8"/>
  <rect x="248" y="168" width="8" height="8"/>
  <rect x="264" y="168" width="8" height="8"/>
  <rect x="288" y="168" width="8" height="8"/>
  <rect x="48" y="176" width="32" height="8"/>
  <rect x="112" y="176" width="8" height="8"/>
  <rect x="152" y="176" width="32" height="8"/>
  <rect x="208" y="176" width="8" height="8"/>
  <rect x="224" y="176" width="8" height="8"/>
  <rect x="272" y="176" width="16" height="8"/>
  <rect x="40" y="184" width="8" height="8"/>
  <rect x="56" y="184" width="16" height="8"/>
  <rect x="80" y="184" width="24" height="8"/>
  <rect x="120" y="184" width="16" height="8"/>
  <rect x="152" y="184" width="16" height="8"/>
  <rect x="184" y="184" width="8" height="8"/>
  <rect x="224" y="184" width="8" height="8"/>
  <rect x="248" y="184" width="16" height="8"/>
  <rect x="272" y="184" width="8" height="8"/>
  <rect x="288" y="184" width="8" height="8"/>
  <rect x="40" y="192" width="8" height="8"/>
  <rect x="72" y="192" width="16" height="8"/>
  <rect x="96" y="192" width="40" height="8"/>
  <rect x="152" y="192" width="8" height="8"/>
  <rect x="168" y="192" width="8" height="8"/>
  <rect x="200" y="192" width="8" height="8"/>
  <rect x="216" y="192" width="8" height="8"/>
  <rect x="232" y="192" width="16" height="8"/>
  <rect x="256" y="192" width="8" height="8"/>
  <rect x="288" y="192" width="8" height="8"/>
  <rect x="40" y="200" width="24" height="8"/>
  <rect x="72" y="200" width="24" height="8"/>
  <rect x="120" y="200" width="8" height="8"/>
  <rect x="144" y="200" width="16" height="8"/>
  <rect x="168" y="200" width="8" height="8"/>
  <rect x="192" y="200" width="8" height="8"/>
  <rect x="216" y="200" width="8" height="8"/>
  <rect x="248" y="200" width="8" height="8"/>
  <rect x="264" y="200" width="16" height="8"/>
  <rect x="288" y="200" width="8" height="8"/>
  <rect x="40" y="208" width="24" height="8"/>
  <rect x="72" y="208" width="8" height="8"/>
  <rect x="112" y="208" width="16" height="8"/>
  <rect x="136" y="208" width="16" height="8"/>
  <rect x="184" y="208" width="24" height="8"/>
  <rect x="224" y="208" width="24" height="8"/>
  <rect x="256" y="208" width="8" height="8"/>
  <rect x="288" y="208" width="8" height="8"/>
  <rect x="64" y="216" width="8" height="8"/>
  <rect x="80" y="216" width="40" height="8"/>
  <rect x="128" y="216" width="8" height="8"/>
  <rect x="152" y="216" width="16" height="8"/>
  <rect x="200" y="216" width="8" height="8"/>
  <rect x="224" y="216" width="16" height="8"/>
  <rect x="264" y="216" width="16" height="8"/>
  <rect x="288" y="216" width="8" height="8"/>
  <rect x="64" y="224" width="16" height="8"/>
  <rect x="112" y="224" width="16" height="8"/>
  <rect x="152" y="224" width="32" height="8"/>
  <rect x="208" y="224" width="8" height="8"/>
  <rect x="224" y="224" width="32" height="8"/>
  <rect x="40" y="232" width="32" height="8"/>
  <rect x="88" y="232" width="16" height="8"/>
  <rect x="112" y="232" width="24" height="8"/>
  <rect x="152" y="232" width="8" height="8"/>
  <rect x="176" y="232" width="8" height="8"/>
  <rect x="192" y="232" width="8" height="8"/>
  <rect x="208" y="232" width="72" height="8"/>
  <rect x="104" y="240" width="24" height="8"/>
  <rect x="136" y="240" width="8" height="8"/>
  <rect x="152" y="240" width="24" height="8"/>
  <rect x="184" y="240" width="8" height="8"/>
  <rect x="224" y="240" width="16" height="8"/>
  <rect x="264" y="240" width="8" height="8"/>
  <rect x="280" y="240" width="16" height="8"/>
  <rect x="40" y="248" width="56" height="8"/>
  <rect x="104" y="248" width="40" height="8"/>
  <rect x="152" y="248" width="32" height="8"/>
  <rect x="200" y="248" width="24" height="8"/>
  <rect x="232" y="248" width="8" height="8"/>
  <rect x="248" y="248" width="8" height="8"/>
  <rect x="264" y="248" width="16" height="8"/>
  <rect x="288" y="248" width="8" height="8"/>
  <rect x="40" y="256" width="8" height="8"/>
  <rect x="88" y="256" width="8" height="8"/>
  <rect x="112" y="256" width="8" height="8"/>
  <rect x="128" y="256" width="16" height="8"/>
  <rect x="176" y="256" width="24" height="8"/>
  <rect x="208" y="256" width="8" height="8"/>
  <rect x="232" y="256" width="8" height="8"/>
  <rect x="264" y="256" width="8" height="8"/>
  <rect x="296" y="256" width="8" height="8"/>
  <rect x="40" y="264" width="8" height="8"/>
  <rect x="56" y="264" width="24" height="8"/>
  <rect x="88" y="264" width="8" height="8"/>
  <rect x="104" y="264" width="8" height="8"/>
  <rect x="136" y="264" width="8" height="8"/>
  <rect x="152" y="264" width="16" height="8"/>
  <rect x="184" y="264" width="24" height="8"/>
  <rect x="232" y="264" width="48" height="8"/>
  <rect x="40" y="272" width="8" height="8"/>
  <rect x="56" y="272" width="24" height="8"/>
  <rect x="88" y="272" width="8" height="8"/>
  <rect x="120" y="272" width="40" height="8"/>
  <rect x="168" y="272" width="8" height="8"/>
  <rect x="192" y="272" width="8" height="8"/>
  <rect x="208" y="272" width="24" height="8"/>
  <rect x="248" y="272" width="48" height="8"/>
  <rect x="40" y="280" width="8" height="8"/>
  <rect x="56" y="280" width="24" height="8"/>
  <rect x="88" y="280" width="8" height="8"/>
  <rect x="112" y="280" width="8" height="8"/>
  <rect x="128" y="280" width="16" height="8"/>
  <rect x="168" y="280" width="32" height="8"/>
  <rect x="232" y="280" width="8" height="8"/>
  <rect x="248" y="280" width="32" height="8"/>
  <rect x="40" y="288" width="8" height="8"/>
  <rect x="88" y="288" width="8" height="8"/>
  <rect x="176" y="288" width="8" height="8"/>
  <rect x="192" y="288" width="32" height="8"/>
  <rect x="232" y="288" width="16" height="8"/>
  <rect x="40" y="296" width="56" height="8"/>
  <rect x="104" y="296" width="40" height="8"/>
  <rect x="152" y="296" width="16" height="8"/>
  <rect x="176" y="296" width="16" height="8"/>
  <rect x="208" y="296" width="16" height="8"/>
  <rect x="232" y="296" width="24" height="8"/>
  <rect x="296" y="296" width="8" height="8"/>
</g>
</svg>