<svg xmlns="http://www.w3.org/2000/svg" viewBox="0 0 1000 1000" width="1000" height="1000">
  <rect width="100%" height="100%" fill="white"/>
  <svg x="110" y="100" width="780" height="780" xmlns="http://www.w3.org/2000/svg"
     viewBox="0 0 1 1"
     fill="none"
     stroke="black"
     stroke-width="0.01">
    <path d="M 0.875 0.0 L 0.75 0.07142857142857142 L 0.75 0.09523809523809523 L 0.75 0.11904761904761903 L 0.75 0.14285714285714285 L 0.75 0.16666666666666666 L 0.75 0.19047619047619047 L 0.75 0.21428571428571427 L 0.6875 0.2857142857142857 L 0.625 0.3571428571428571 L 0.5625 0.42857142857142855 L 0.5 0.5 L 0.4375 0.5714285714285714 L 0.375 0.6428571428571428 L 0.3125 0.7142857142857142 L 0.25 0.7857142857142857 L 0.125 0.8571428571428571 L 0.0875 0.9285714285714285" />
</svg>
  <svg x="690" y="690" width="180" height="180" xmlns="http://www.w3.org/2000/svg" viewBox="0 0 344 344" width="344" height="344" shape-rendering="crispEdges">
  <rect width="100%" height="100%" fill="white"/>
  <rect x="40" y="40" width="56" height="8"/>
  <rect x="104" y="40" width="16" height="8"/>
  <rect x="128" y="40" width="32" height="8"/>
  <rect x="176" y="40" width="16" height="8"/>
  <rect x="216" y="40" width="8" height="8"/>
  <rect x="248" y="40" width="56" height="8"/>
  <rect x="40" y="48" width="8" height="8"/>
  <rect x="88" y="48" width="8" height="8"/>
  <rect x="104" y="48" width="16" height="8"/>
  <rect x="144" y="48" width="16" height="8"/>
  <rect x="184" y="48" width="40" height="8"/>
  <rect x="232" y="48" width="8" height="8"/>
  <rect x="248" y="48" width="8" height="8"/>
  <rect x="296" y="48" width="8" height="8"/>
  <rect x="40" y="56" width="8" height="8"/>
  <rect x="56" y="56" width="24" height="8"/>
  <rect x="88" y="56" width="8" height="8"/>
  <rect x="104" y="56" width="56" height="8"/>
  <rect x="208" y="56" width="8" height="8"/>
  <rect x="224" y="56" width="16" height="8"/>
  <rect x="248" y="56" width="8" height="8"/>
  <rect x="264" y="56" width="24" height="8"/>
  <rect x="296" y="56" width="8" height="8"/>
  <rect x="40" y="64" width="8" height="8"/>
  <rect x="56" y="64" width="24" height="8"/>
  <rect x="88" y="64" width="8" height="8"/>
  <rect x="112" y="64" width="8" height="8"/>
  <rect x="128" y="64" width="8" height="8"/>
  <rect x="152" y="64" width="24" height="8"/>
  <rect x="184" y="64" width="8" height="8"/>
  <rect x="200" y="64" width="8" height="8"/>
  <rect x="216" y="64" width="8" height="8"/>
  <rect x="232" y="64" width="8" height="8"/>
  <rect x="248" y="64" width="8" height="8"/>
  <rect x="264" y="64" width="24" height="8"/>
  <rect x="296" y="64" width="8" height="8"/>
  <rect x="40" y="72" width="8" height="8"/>
  <rect x="56" y="72" width="24" height="8"/>
  <rect x="88" y="72" width="8" height="8"/>
  <rect x="104" y="72" width="24" height="8"/>
  <rect x="160" y="72" width="24" height="8"/>
  <rect x="224" y="72" width="16" height="8"/>
  <rect x="248" y="72" width="8" height="8"/>
  <rect x="264" y="72" width="24" height="8"/>
  <rect x="296" y="72" width="8" height="8"/>
  <rect x="40" y="80" width="8" height="8"/>
  <rect x="88" y="80" width="8" height="8"/>
  <rect x="128" y="80" width="16" height="8"/>
  <rect x="152" y="80" width="32" height="8"/>
  <rect x="192" y="80" width="8" height="8"/>
  <rect x="208" y="80" width="8" height="8"/>
  <rect x="232" y="80" width="8" height="8"/>
  <rect x="248" y="80" width="8" height="8"/>
  <rect x="296" y="80" width="8" height="8"/>
  <rect x="40" y="88" width="56" height="8"/>
  <rect x="104" y="88" width="8" height="8"/>
  <rect x="120" y="88" width="8" height="8"/>
  <rect x="136" y="88" width="8" height="8"/>
  <rect x="152" y="88" width="8" height="8"/>
  <rect x="168" y="88" width="8" height="8"/>
  <rect x="184" y="88" width="8" height="8"/>
  <rect x="200" y="88" width="8" height="8"/>
  <rect x="216" y="88" width="8" height="8"/>
  <rect x="232" y="88" width="8" height="8"/>
  <rect x="248" y="88" width="56" height="8"/>
  <rect x="112" y="96" width="8" height="8"/>
  <rect x="136" y="96" width="40" height="8"/>
  <rect x="216" y="96" width="8" height="8"/>
  <rect x="40" y="104" width="8" height="8"/>
  <rect x="64" y="104" width="48" height="8"/>
  <rect x="120" y="104" width="24" height="8"/>
  <rect x="152" y="104" width="8" height="8"/>
  <rect x="168" y="104" width="16" height="8"/>
  <rect x="200" y="104" width="8" height="8"/>
  <rect x="224" y="104" width="8" height="8"/>
  <rect x="240" y="104" width="8" height="8"/>
  <rect x="264" y="104" width="8" height="8"/>
  <rect x="280" y="104" width="24" height="8"/>
  <rect x="56" y="112" width="8" height="8"/>
  <rect x="72" y="112" width="16" height="8"/>
  <rect x="136" y="112" width="32" height="8"/>
  <rect x="176" y="112" width="24" height="8"/>
  <rect x="208" y="112" width="24" height="8"/>
  <rect x="264" y="112" width="24" height="8"/>
  <rect x="40" y="120" width="16" height="8"/>
  <rect x="72" y="120" width="8" height="8"/>
  <rect x="88" y="120" width="8" height="8"/>
  <rect x="112" y="120" width="16" height="8"/>
  <rect x="136" y="120" width="16" height="8"/>
  <rect x="160" y="120" width="16" height="8"/>
  <rect x="216" y="120" width="32" height="8"/>
  <rect x="264" y="120" width="24" height="8"/>
  <rect x="296" y="120" width="8" height="8"/>
  <rect x="40" y="128" width="8" height="8"/>
  <rect x="56" y="128" width="32" height="8"/>
  <rect x="96" y="128" width="56" height="8"/>
  <rect x="168" y="128" width="8" height="8"/>
  <rect x="184" y="128" width="8" height="8"/>
  <rect x="200" y="128" width="32" height="8"/>
  <rect x="248" y="128" width="16" height="8"/>
  <rect x="280" y="128" width="8" height="8"/>
  <rect x="40" y="136" width="32" height="8"/>
  <rect x="80" y="136" width="56" height="8"/>
  <rect x="144" y="136" width="8" height="8"/>
  <rect x="160" y="136" width="8" height="8"/>
  <rect x="176" y="136" width="8" height="8"/>
  <rect x="192" y="136" width="8" height="8"/>
  <rect x="208" y="136" width="8" height="8"/>
  <rect x="224" y="136" width="16" height="8"/>
  <rect x="248" y="136" width="16" height="8"/>
  <rect x="296" y="136" width="8" height="8"/>
  <rect x="40" y="144" width="24" height="8"/>
  <rect x="96" y="144" width="16" height="8"/>
  <rect x="152" y="144" width="8" height="8"/>
  <rect x="176" y="144" width="40" height="8"/>
  <rect x="232" y="144" width="16" height="8"/>
  <rect x="256" y="144" width="8" height="8"/>
  <rect x="272" y="144" width="8" height="8"/>
  <rect x="56" y="152" width="16" height="8"/>
  <rect x="88" y="152" width="16" height="8"/>
  <rect x="120" y="152" width="24" height="8"/>
  <rect x="152" y="152" width="16" height="8"/>
  <rect x="184" y="152" width="32" height="8"/>
  <rect x="232" y="152" width="8" height="8"/>
  <rect x="248" y="152" width="8" height="8"/>
  <rect x="264" y="152" width="8" height="8"/>
  <rect x="48" y="160" width="8" height="8"/>
  <rect x="96" y="160" width="16" height="8"/>
  <rect x="120" y="160" width="16" height="8"/>
  <rect x="144" y="160" width="8" height="8"/>
  <rect x="168" y="160" width="8" height="8"/>
  <rect x="200" y="160" width="8" height="8"/>
  <rect x="216" y="160" width="8" height="8"/>
  <rect x="232" y="160" width="16" height="8"/>
  <rect x="256" y="160" width="32" height="8"/>
  <rect x="296" y="160" width="8" height="8"/>
  <rect x="48" y="168" width="48" height="8"/>
  <rect x="104" y="168" width="32" height="8"/>
  <rect x="152" y="168" width="16" height="8"/>
  <rect x="200" y="168" width="8" height="8"/>
  <rect x="224" y="168" width="8" height="8"/>
  <rect x="240" y="168" width="40" height="8"/>
  <rect x="40" y="176" width="16" height="8"/>
  <rect x="64" y="176" width="16" height="8"/>
  <rect x="104" y="176" width="8" height="8"/>
  <rect x="128" y="176" width="8" height="8"/>
  <rect x="160" y="176" width="8" height="8"/>
  <rect x="176" y="176" width="32" height="8"/>
  <rect x="216" y="176" width="8" height="8"/>
  <rect x="248" y="176" width="8" height="8"/>
  <rect x="264" y="176" width="8" height="8"/>
  <rect x="280" y="176" width="8" height="8"/>
  <rect x="296" y="176" width="8" height="8"/>
  <rect x="80" y="184" width="16" height="8"/>
  <rect x="104" y="184" width="16" height="8"/>
  <rect x="136" y="184" width="112" height="8"/>
  <rect x="256" y="184" width="8" height="8"/>
  <rect x="272" y="184" width="16" height="8"/>
  <rect x="296" y="184" width="8" height="8"/>
  <rect x="96" y="192" width="8" height="8"/>
  <rect x="136" y="192" width="24" height="8"/>
  <rect x="168" y="192" width="8" height="8"/>
  <rect x="216" y="192" width="16" height="8"/>
  <rect x="248" y="192" width="8" height="8"/>
  <rect x="264" y="192" width="32" height="8"/>
  <rect x="72" y="200" width="40" height="8"/>
  <rect x="136" y="200" width="8" height="8"/>
  <rect x="160" y="200" width="16" height="8"/>
  <rect x="184" y="200" width="16" height="8"/>
  <rect x="208" y="200" width="24" height="8"/>
  <rect x="272" y="200" width="8" height="8"/>
  <rect x="288" y="200" width="8" height="8"/>
  <rect x="40" y="208" width="8" height="8"/>
  <rect x="56" y="208" width="8" height="8"/>
  <rect x="72" y="208" width="8" height="8"/>
  <rect x="96" y="208" width="40" height="8"/>
  <rect x="152" y="208" width="8" height="8"/>
  <rect x="208" y="208" width="8" height="8"/>
  <rect x="232" y="208" width="16" height="8"/>
  <rect x="256" y="208" width="16" height="8"/>
  <rect x="280" y="208" width="8" height="8"/>
  <rect x="40" y="216" width="8" height="8"/>
  <rect x="64" y="216" width="8" height="8"/>
  <rect x="80" y="216" width="16" height="8"/>
  <rect x="104" y="216" width="8" height="8"/>
  <rect x="120" y="216" width="8" height="8"/>
  <rect x="136" y="216" width="8" height="8"/>
  <rect x="192" y="216" width="16" height="8"/>
  <rect x="216" y="216" width="16" height="8"/>
  <rect x="248" y="216" width="8" height="8"/>
  <rect x="264" y="216" width="8" height="8"/>
  <rect x="288" y="216" width="16" height="8"/>
  <rect x="40" y="224" width="8" height="8"/>
  <rect x="56" y="224" width="24" height="8"/>
  <rect x="104" y="224" width="16" height="8"/>
  <rect x="128" y="224" width="40" height="8"/>
  <rect x="176" y="224" width="8" height="8"/>
  <rect x="192" y="224" width="16" height="8"/>
  <rect x="216" y="224" width="8" height="8"/>
  <rect x="240" y="224" width="24" height="8"/>
  <rect x="280" y="224" width="8" height="8"/>
  <rect x="296" y="224" width="8" height="8"/>
  <rect x="40" y="232" width="24" height="8"/>
  <rect x="72" y="232" width="8" height="8"/>
  <rect x="88" y="232" width="8" height="8"/>
  <rect x="136" y="232" width="24" height="8"/>
  <rect x="232" y="232" width="48" height="8"/>
  <rect x="288" y="232" width="8" height="8"/>
  <rect x="104" y="240" width="40" height="8"/>
  <rect x="160" y="240" width="32" height="8"/>
  <rect x="208" y="240" width="16" height="8"/>
  <rect x="232" y="240" width="8" height="8"/>
  <rect x="264" y="240" width="8" height="8"/>
  <rect x="280" y="240" width="8" height="8"/>
  <rect x="40" y="248" width="56" height="8"/>
  <rect x="104" y="248" width="8" height="8"/>
  <rect x="120" y="248" width="16" height="8"/>
  <rect x="144" y="248" width="24" height="8"/>
  <rect x="176" y="248" width="8" height="8"/>
  <rect x="192" y="248" width="16" height="8"/>
  <rect x="224" y="248" width="16" height="8"/>
  <rect x="248" y="248" width="8" height="8"/>
  <rect x="264" y="248" width="8" height="8"/>
  <rect x="280" y="248" width="8" height="8"/>
  <rect x="40" y="256" width="8" height="8"/>
  <rect x="88" y="256" width="8" height="8"/>
  <rect x="104" y="256" width="16" height="8"/>
  <rect x="136" y="256" width="8" height="8"/>
  <rect x="152" y="256" width="48" height="8"/>
  <rect x="208" y="256" width="32" height="8"/>
  <rect x="264" y="256" width="40" height="8"/>
  <rect x="40" y="264" width="8" height="8"/>
  <rect x="56" y="264" width="24" height="8"/>
  <rect x="88" y="264" width="8" height="8"/>
  <rect x="104" y="264" width="8" height="8"/>
  <rect x="136" y="264" width="16" height="8"/>
  <rect x="160" y="264" width="24" height="8"/>
  <rect x="192" y="264" width="8" height="8"/>
  <rect x="208" y="264" width="64" height="8"/>
  <rect x="296" y="264" width="8" height="8"/>
  <rect x="40" y="272" width="8" height="8"/>
  <rect x="56" y="272" width="24" height="8"/>
  <rect x="88" y="272" width="8" height="8"/>
  <rect x="104" y="272" width="16" height="8"/>
  <rect x="144" y="272" width="8" height="8"/>
  <rect x="168" y="272" width="8" height="8"/>
  <rect x="184" y="272" width="8" height="8"/>
  <rect x="216" y="272" width="8" height="8"/>
  <rect x="240" y="272" width="8" height="8"/>
  <rect x="256" y="272" width="8" height="8"/>
  <rect x="296" y="272" width="8" height="8"/>
  <rect x="40" y="280" width="8" height="8"/>
  <rect x="56" y="280" width="24" height="8"/>
  <rect x="88" y="280" width="8" height="8"/>
  <rect x="136" y="280" width="8" height="8"/>
  <rect x="160" y="280" width="8" height="8"/>
  <rect x="192" y="280" width="8" height="8"/>
  <rect x="216" y="280" width="8" height="8"/>
  <rect x="240" y="280" width="8" height="8"/>
  <rect x="256" y="280" width="16" height="8"/>
  <rect x="288" y="280" width="16" height="8"/>
  <rect x="40" y="288" width="8" height="8"/>
  <rect x="88" y="288" width="8" height="8"/>
  <rect x="112" y="288" width="8" height="8"/>
  <rect x="136" y="288" width="8" height="8"/>
  <rect x="152" y="288" width="8" height="8"/>
  <rect x="184" y="288" width="24" height="8"/>
  <rect x="216" y="288" width="8" height="8"/>
  <rect x="248" y="288" width="24" height="8"/>
  <rect x="280" y="288" width="24" height="8"/>
  <rect x="40" y="296" width="56" height="8"/>
  <rect x="104" y="296" width="16" height="8"/>
  <rect x="128" y="296" width="8" height="8"/>
  <rect x="160" y="296" width="8" height="8"/>
  <rect x="176" y="296" width="8" height="8"/>
  <rect x="192" y="296" width="8" height="8"/>
  <rect x="232" y="296" width="16" height="8"/>
  <rect x="256" y="296" width="16" height="8"/>
</svg>
</svg>