<svg xmlns="http://www.w3.org/2000/svg" viewBox="0 0 1000 1000" width="1000" height="1000">
  <g transform="translate(110 100) scale(780.0 780.0) translate(-0.0 -0.0)">
<path d="M 0.1454558441227157 0.9054558441227157 L 0.1580177722626604 0.8938907881356762 L 0.17054021096851146 0.8822862427145433 L 0.17466002673437528 0.8622790743534229 L 0.1871696289971915 0.850661692489255 L 0.20791951107265283 0.8472845904377322 L 0.22032390949309755 0.8355620047311928 L 0.23270299998426644 0.8238141110953776 L 0.24505784685400964 0.8120419738381366 L 0.26538396403962317 0.8082411068967661 L 0.2776151983676288 0.7963453570977875 L 0.28982072389811314 0.7844238985012878 L 0.30200134229497444 0.7724775327711649 L 0.31415779379724196 0.7605070001464482 L 0.32629076765120224 0.7485129898734245 L 0.3384009101039103 0.7364961481991483 L 0.3431178767205623 0.7170861306888163 L 0.3552873301560065 0.7051285999972763 L 0.3602775800877782 0.6859918658020638 L 0.37957313517000146 0.6811604367573031 L 0.39169035793872314 0.6691506753990406 L 0.3969676044416281 0.6503009377749616 L 0.4158754959768583 0.6450818451832075 L 0.427944188651848 0.633023553731213 L 0.43353847667539247 0.6144908576277734 L 0.4520356722532537 0.6088610690786507 L 0.47026140190558413 0.602959814603997 L 0.48213820031028365 0.5907096288817122 L 0.4939984038078687 0.5784428482523131 L 0.5000447462135653 0.5603622065310256 L 0.512012708403796 0.5482031845942723 L 0.5294832199605168 0.541546712024009 L 0.5359096524577616 0.5238461603942695 L 0.5530635681755087 0.5168730919850324 L 0.5699072607499904 0.5095898004325301 L 0.5765862156496663 0.4921417712052219 L 0.5883267416112451 0.4797553130398165 L 0.5954383404318084 0.4627399277333957 L 0.602851581366896 0.4460261845414992 L 0.6191702448824569 0.43821786393007595 L 0.6351577410130691 0.43007837593370407 L 0.642859901430089 0.4136535522237398 L 0.6508801150949415 0.3975467817616083 L 0.6628666966040951 0.38540637914377773 L 0.6748454689988647 0.3732581674115631 L 0.6835126073315955 0.3577983216173097 L 0.6987803888621862 0.3489391190209163 L 0.7077781400624236 0.3338098860941695 L 0.7171188296078959 0.3190235915126578 L 0.7268072005235391 0.3045849783013168 L 0.7417065196669277 0.2953573133177214 L 0.7562448828310235 0.2857686923548331 L 0.7683490277935416 0.27374585319036715 L 0.7804484452210564 0.2617182864908977 L 0.7908397291890641 0.24798258633192144 L 0.8015960197341763 0.23461189275004937 L 0.8140540128016502 0.2229429016905391 L 0.8241661544208485 0.20892805918275317 L 0.8344132575222297 0.19504817815715036 L 0.8459210309992121 0.1824289675071486 L 0.8611477820842179 0.17352873446517036 L 0.8714288263110962 0.1596827945650644 L 0.8817292654668297 0.14585624959381394 L 0.8920490995514188 0.13204909955141877 Z"
          fill="black"
          stroke="black"
          stroke-width="0.006"
          stroke-linejoin="round"
          stroke-linecap="round" />
</g>
  <g transform="translate(690 690) scale(0.5232558139534884 0.5232558139534884) translate(-0.0 -0.0)">
<rect x="40" y="40" width="56" height="8"/>
  <rect x="136" y="40" width="8" height="8"/>
  <rect x="152" y="40" width="8" height="8"/>
  <rect x="168" y="40" width="40" height="8"/>
  <rect x="224" y="40" width="8" height="8"/>
  <rect x="248" y="40" width="56" height="8"/>
  <rect x="40" y="48" width="8" height="8"/>
  <rect x="88" y="48" width="8" height="8"/>
  <rect x="112" y="48" width="16" height="8"/>
  <rect x="136" y="48" width="8" height="8"/>
  <rect x="160" y="48" width="16" height="8"/>
  <rect x="184" y="48" width="8" height="8"/>
  <rect x="216" y="48" width="8" height="8"/>
  <rect x="232" y="48" width="8" height="8"/>
  <rect x="248" y="48" width="8" height="8"/>
  <rect x="296" y="48" width="8" height="8"/>
  <rect x="40" y="56" width="8" height="8"/>
  <rect x="56" y="56" width="24" height="8"/>
  <rect x="88" y="56" width="8" height="8"/>
  <rect x="104" y="56" width="40" height="8"/>
  <rect x="152" y="56" width="8" height="8"/>
  <rect x="168" y="56" width="8" height="8"/>
  <rect x="192" y="56" width="24" height="8"/>
  <rect x="224" y="56" width="16" height="8"/>
  <rect x="248" y="56" width="8" height="8"/>
  <rect x="264" y="56" width="24" height="8"/>
  <rect x="296" y="56" width="8" height="8"/>
  <rect x="40" y="64" width="8" height="8"/>
  <rect x="56" y="64" width="24" height="8"/>
  <rect x="88" y="64" width="8" height="8"/>
  <rect x="104" y="64" width="8" height="8"/>
  <rect x="136" y="64" width="8" height="8"/>
  <rect x="176" y="64" width="8" height="8"/>
  <rect x="192" y="64" width="8" height="8"/>
  <rect x="216" y="64" width="8" height="8"/>
  <rect x="232" y="64" width="8" height="8"/>
  <rect x="248" y="64" width="8" height="8"/>
  <rect x="264" y="64" width="24" height="8"/>
  <rect x="296" y="64" width="8" height="8"/>
  <rect x="40" y="72" width="8" height="8"/>
  <rect x="56" y="72" width="24" height="8"/>
  <rect x="88" y="72" width="8" height="8"/>
  <rect x="104" y="72" width="8" height="8"/>
  <rect x="152" y="72" width="24" height="8"/>
  <rect x="192" y="72" width="24" height="8"/>
  <rect x="224" y="72" width="16" height="8"/>
  <rect x="248" y="72" width="8" height="8"/>
  <rect x="264" y="72" width="24" height="8"/>
  <rect x="296" y="72" width="8" height="8"/>
  <rect x="40" y="80" width="8" height="8"/>
  <rect x="88" y="80" width="8" height="8"/>
  <rect x="104" y="80" width="8" height="8"/>
  <rect x="120" y="80" width="16" height="8"/>
  <rect x="144" y="80" width="8" height="8"/>
  <rect x="208" y="80" width="16" height="8"/>
  <rect x="232" y="80" width="8" height="8"/>
  <rect x="248" y="80" width="8" height="8"/>
  <rect x="296" y="80" width="8" height="8"/>
  <rect x="40" y="88" width="56" height="8"/>
  <rect x="104" y="88" width="8" height="8"/>
  <rect x="120" y="88" width="8" height="8"/>
  <rect x="136" y="88" width="8" height="8"/>
  <rect x="152" y="88" width="8" height="8"/>
  <rect x="168" y="88" width="8" height="8"/>
  <rect x="184" y="88" width="8" height="8"/>
  <rect x="200" y="88" width="8" height="8"/>
  <rect x="216" y="88" width="8" height="8"/>
  <rect x="232" y="88" width="8" height="8"/>
  <rect x="248" y="88" width="56" height="8"/>
  <rect x="104" y="96" width="16" height="8"/>
  <rect x="128" y="96" width="16" height="8"/>
  <rect x="152" y="96" width="8" height="8"/>
  <rect x="168" y="96" width="8" height="8"/>
  <rect x="184" y="96" width="40" height="8"/>
  <rect x="40" y="104" width="8" height="8"/>
  <rect x="56" y="104" width="40" height="8"/>
  <rect x="128" y="104" width="8" height="8"/>
  <rect x="144" y="104" width="16" height="8"/>
  <rect x="176" y="104" width="8" height="8"/>
  <rect x="192" y="104" width="8" height="8"/>
  <rect x="216" y="104" width="16" height="8"/>
  <rect x="248" y="104" width="40" height="8"/>
  <rect x="64" y="112" width="8" height="8"/>
  <rect x="80" y="112" width="8" height="8"/>
  <rect x="104" y="112" width="8" height="8"/>
  <rect x="128" y="112" width="32" height="8"/>
  <rect x="184" y="112" width="24" height="8"/>
  <rect x="224" y="112" width="8" height="8"/>
  <rect x="248" y="112" width="16" height="8"/>
  <rect x="272" y="112" width="16" height="8"/>
  <rect x="296" y="112" width="8" height="8"/>
  <rect x="56" y="120" width="8" height="8"/>
  <rect x="72" y="120" width="8" height="8"/>
  <rect x="88" y="120" width="8" height="8"/>
  <rect x="104" y="120" width="16" height="8"/>
  <rect x="136" y="120" width="40" height="8"/>
  <rect x="200" y="120" width="16" height="8"/>
  <rect x="240" y="120" width="16" height="8"/>
  <rect x="264" y="120" width="8" height="8"/>
  <rect x="280" y="120" width="16" height="8"/>
  <rect x="56" y="128" width="8" height="8"/>
  <rect x="72" y="128" width="8" height="8"/>
  <rect x="96" y="128" width="8" height="8"/>
  <rect x="112" y="128" width="16" height="8"/>
  <rect x="136" y="128" width="16" height="8"/>
  <rect x="168" y="128" width="8" height="8"/>
  <rect x="184" y="128" width="8" height="8"/>
  <rect x="208" y="128" width="8" height="8"/>
  <rect x="240" y="128" width="16" height="8"/>
  <rect x="264" y="128" width="24" height="8"/>
  <rect x="296" y="128" width="8" height="8"/>
  <rect x="48" y="136" width="16" height="8"/>
  <rect x="72" y="136" width="32" height="8"/>
  <rect x="112" y="136" width="24" height="8"/>
  <rect x="152" y="136" width="8" height="8"/>
  <rect x="168" y="136" width="24" height="8"/>
  <rect x="216" y="136" width="8" height="8"/>
  <rect x="232" y="136" width="16" height="8"/>
  <rect x="256" y="136" width="24" height="8"/>
  <rect x="288" y="136" width="16" height="8"/>
  <rect x="40" y="144" width="8" height="8"/>
  <rect x="64" y="144" width="16" height="8"/>
  <rect x="96" y="144" width="8" height="8"/>
  <rect x="112" y="144" width="32" height="8"/>
  <rect x="160" y="144" width="8" height="8"/>
  <rect x="192" y="144" width="16" height="8"/>
  <rect x="216" y="144" width="16" height="8"/>
  <rect x="248" y="144" width="8" height="8"/>
  <rect x="272" y="144" width="32" height="8"/>
  <rect x="40" y="152" width="8" height="8"/>
  <rect x="88" y="152" width="16" height="8"/>
  <rect x="112" y="152" width="8" height="8"/>
  <rect x="160" y="152" width="16" height="8"/>
  <rect x="184" y="152" width="8" height="8"/>
  <rect x="200" y="152" width="16" height="8"/>
  <rect x="240" y="152" width="16" height="8"/>
  <rect x="264" y="152" width="8" height="8"/>
  <rect x="280" y="152" width="16" height="8"/>
  <rect x="48" y="160" width="16" height="8"/>
  <rect x="72" y="160" width="16" height="8"/>
  <rect x="104" y="160" width="16" height="8"/>
  <rect x="128" y="160" width="24" height="8"/>
  <rect x="160" y="160" width="8" height="8"/>
  <rect x="200" y="160" width="32" height="8"/>
  <rect x="240" y="160" width="24" height="8"/>
  <rect x="272" y="160" width="16" height="8"/>
  <rect x="48" y="168" width="16" height="8"/>
  <rect x="88" y="168" width="16" height="8"/>
  <rect x="112" y="168" width="8" height="8"/>
  <rect x="152" y="168" width="16" height="8"/>
  <rect x="176" y="168" width="8" height="8"/>
  <rect x="216" y="168" width="32" height="8"/>
  <rect x="256" y="168" width="16" height="8"/>
  <rect x="296" y="168" width="8" height="8"/>
  <rect x="48" y="176" width="16" height="8"/>
  <rect x="72" y="176" width="8" height="8"/>
  <rect x="104" y="176" width="24" height="8"/>
  <rect x="144" y="176" width="16" height="8"/>
  <rect x="168" y="176" width="16" height="8"/>
  <rect x="192" y="176" width="24" height="8"/>
  <rect x="224" y="176" width="8" height="8"/>
  <rect x="240" y="176" width="24" height="8"/>
  <rect x="272" y="176" width="16" height="8"/>
  <rect x="296" y="176" width="8" height="8"/>
  <rect x="40" y="184" width="24" height="8"/>
  <rect x="80" y="184" width="24" height="8"/>
  <rect x="120" y="184" width="32" height="8"/>
  <rect x="160" y="184" width="16" height="8"/>
  <rect x="208" y="184" width="16" height="8"/>
  <rect x="232" y="184" width="40" height="8"/>
  <rect x="280" y="184" width="16" height="8"/>
  <rect x="40" y="192" width="16" height="8"/>
  <rect x="64" y="192" width="8" height="8"/>
  <rect x="80" y="192" width="8" height="8"/>
  <rect x="96" y="192" width="16" height="8"/>
  <rect x="120" y="192" width="16" height="8"/>
  <rect x="152" y="192" width="8" height="8"/>
  <rect x="200" y="192" width="16" height="8"/>
  <rect x="224" y="192" width="8" height="8"/>
  <rect x="248" y="192" width="48" height="8"/>
  <rect x="40" y="200" width="32" height="8"/>
  <rect x="88" y="200" width="16" height="8"/>
  <rect x="112" y="200" width="56" height="8"/>
  <rect x="176" y="200" width="16" height="8"/>
  <rect x="200" y="200" width="8" height="8"/>
  <rect x="216" y="200" width="8" height="8"/>
  <rect x="232" y="200" width="16" height="8"/>
  <rect x="256" y="200" width="24" height="8"/>
  <rect x="40" y="208" width="16" height="8"/>
  <rect x="96" y="208" width="8" height="8"/>
  <rect x="112" y="208" width="8" height="8"/>
  <rect x="128" y="208" width="8" height="8"/>
  <rect x="144" y="208" width="8" height="8"/>
  <rect x="160" y="208" width="16" height="8"/>
  <rect x="192" y="208" width="24" height="8"/>
  <rect x="224" y="208" width="8" height="8"/>
  <rect x="240" y="208" width="16" height="8"/>
  <rect x="280" y="208" width="8" height="8"/>
  <rect x="296" y="208" width="8" height="8"/>
  <rect x="40" y="216" width="8" height="8"/>
  <rect x="64" y="216" width="8" height="8"/>
  <rect x="88" y="216" width="8" height="8"/>
  <rect x="104" y="216" width="8" height="8"/>
  <rect x="128" y="216" width="8" height="8"/>
  <rect x="144" y="216" width="16" height="8"/>
  <rect x="176" y="216" width="16" height="8"/>
  <rect x="200" y="216" width="8" height="8"/>
  <rect x="216" y="216" width="8" height="8"/>
  <rect x="232" y="216" width="8" height="8"/>
  <rect x="256" y="216" width="8" height="8"/>
  <rect x="272" y="216" width="24" height="8"/>
  <rect x="40" y="224" width="8" height="8"/>
  <rect x="56" y="224" width="16" height="8"/>
  <rect x="96" y="224" width="8" height="8"/>
  <rect x="112" y="224" width="8" height="8"/>
  <rect x="152" y="224" width="8" height="8"/>
  <rect x="168" y="224" width="8" height="8"/>
  <rect x="184" y="224" width="72" height="8"/>
  <rect x="272" y="224" width="24" height="8"/>
  <rect x="40" y="232" width="8" height="8"/>
  <rect x="56" y="232" width="16" height="8"/>
  <rect x="80" y="232" width="16" height="8"/>
  <rect x="112" y="232" width="32" height="8"/>
  <rect x="176" y="232" width="8" height="8"/>
  <rect x="192" y="232" width="16" height="8"/>
  <rect x="216" y="232" width="8" height="8"/>
  <rect x="232" y="232" width="48" height="8"/>
  <rect x="296" y="232" width="8" height="8"/>
  <rect x="104" y="240" width="8" height="8"/>
  <rect x="144" y="240" width="16" height="8"/>
  <rect x="168" y="240" width="8" height="8"/>
  <rect x="184" y="240" width="24" height="8"/>
  <rect x="224" y="240" width="16" height="8"/>
  <rect x="264" y="240" width="8" height="8"/>
  <rect x="280" y="240" width="8" height="8"/>
  <rect x="296" y="240" width="8" height="8"/>
  <rect x="40" y="248" width="56" height="8"/>
  <rect x="112" y="248" width="16" height="8"/>
  <rect x="160" y="248" width="8" height="8"/>
  <rect x="176" y="248" width="8" height="8"/>
  <rect x="200" y="248" width="40" height="8"/>
  <rect x="248" y="248" width="8" height="8"/>
  <rect x="264" y="248" width="8" height="8"/>
  <rect x="280" y="248" width="16" height="8"/>
  <rect x="40" y="256" width="8" height="8"/>
  <rect x="88" y="256" width="8" height="8"/>
  <rect x="104" y="256" width="16" height="8"/>
  <rect x="168" y="256" width="8" height="8"/>
  <rect x="184" y="256" width="16" height="8"/>
  <rect x="208" y="256" width="32" height="8"/>
  <rect x="264" y="256" width="24" height="8"/>
  <rect x="40" y="264" width="8" height="8"/>
  <rect x="56" y="264" width="24" height="8"/>
  <rect x="88" y="264" width="8" height="8"/>
  <rect x="104" y="264" width="24" height="8"/>
  <rect x="144" y="264" width="16" height="8"/>
  <rect x="176" y="264" width="16" height="8"/>
  <rect x="200" y="264" width="8" height="8"/>
  <rect x="216" y="264" width="8" height="8"/>
  <rect x="232" y="264" width="48" height="8"/>
  <rect x="288" y="264" width="8" height="8"/>
  <rect x="40" y="272" width="8" height="8"/>
  <rect x="56" y="272" width="24" height="8"/>
  <rect x="88" y="272" width="8" height="8"/>
  <rect x="104" y="272" width="8" height="8"/>
  <rect x="128" y="272" width="8" height="8"/>
  <rect x="152" y="272" width="16" height="8"/>
  <rect x="192" y="272" width="8" height="8"/>
  <rect x="224" y="272" width="8" height="8"/>
  <rect x="240" y="272" width="8" height="8"/>
  <rect x="264" y="272" width="8" height="8"/>
  <rect x="280" y="272" width="24" height="8"/>
  <rect x="40" y="280" width="8" height="8"/>
  <rect x="56" y="280" width="24" height="8"/>
  <rect x="88" y="280" width="8" height="8"/>
  <rect x="104" y="280" width="8" height="8"/>
  <rect x="128" y="280" width="8" height="8"/>
  <rect x="144" y="280" width="8" height="8"/>
  <rect x="160" y="280" width="8" height="8"/>
  <rect x="216" y="280" width="16" height="8"/>
  <rect x="248" y="280" width="16" height="8"/>
  <rect x="40" y="288" width="8" height="8"/>
  <rect x="88" y="288" width="8" height="8"/>
  <rect x="112" y="288" width="56" height="8"/>
  <rect x="184" y="288" width="8" height="8"/>
  <rect x="200" y="288" width="16" height="8"/>
  <rect x="224" y="288" width="8" height="8"/>
  <rect x="240" y="288" width="8" height="8"/>
  <rect x="264" y="288" width="24" height="8"/>
  <rect x="40" y="296" width="56" height="8"/>
  <rect x="104" y="296" width="24" height="8"/>
  <rect x="136" y="296" width="8" height="8"/>
  <rect x="176" y="296" width="32" height="8"/>
  <rect x="216" y="296" width="24" height="8"/>
  <rect x="256" y="296" width="8" height="8"/>
  <rect x="288" y="296" width="8" height="8"/>
</g>
</svg>