<svg xmlns="http://www.w3.org/2000/svg" viewBox="0 0 1000 1000" width="1000" height="1000">
  <g transform="translate(110 100) scale(780.0 780.0) translate(-0.0 -0.0)">
<path d="M 0.14424366106925304 0.904243661069253 L 0.1658674168323464 0.9017404327053622 L 0.17835364321306174 0.8900996749590935 L 0.199768325994636 0.8873873736136836 L 0.212126378370534 0.8756184418625975 L 0.22444608526984614 0.8638111646349255 L 0.23672956417292762 0.8519676594110229 L 0.2489785322633603 0.8400896433744715 L 0.2529785322633603 0.8195339639170035 L 0.26481292202163986 0.8076700648787828 L 0.2770497134129993 0.7957798721431579 L 0.2892610785210958 0.7838642531242704 L 0.3014478102003344 0.7719240006765249 L 0.3136106405552494 0.7599598469044557 L 0.32575025125799245 0.7479724734802148 L 0.3378672814540026 0.7359625195492406 L 0.34206488330069057 0.7160331372689446 L 0.3620359801442541 0.7118772499855239 L 0.37408876402173147 0.6998030497360171 L 0.3861212054278452 0.6877085070151469 L 0.3906990587306595 0.668159376190977 L 0.4101270354074111 0.6634603687407445 L 0.429285060835839 0.6584914100421883 L 0.44111075917693643 0.6461901242563014 L 0.45291542992495515 0.6338678108773361 L 0.46469956256562156 0.6215249593910185 L 0.4764636328160685 0.6091620455144813 L 0.48170463578028744 0.590276064351716 L 0.4935744736030989 0.5780189180475434 L 0.5116400421941286 0.5719575025115889 L 0.5233283807832819 0.5595188569737582 L 0.5290892454164826 0.5411527374799747 L 0.5408971259102958 0.5288336338468038 L 0.552690401389402 0.5164999251989256 L 0.5699072607499904 0.5095898004325301 L 0.5815103650071262 0.49706592056268173 L 0.593097598486918 0.48452616991548947 L 0.5997241604116808 0.467025747713268 L 0.6114493907645265 0.45462399393912983 L 0.618556133410158 0.4376037524577771 L 0.63486220408207 0.4297828390027049 L 0.6465503978272547 0.41734404862090546 L 0.6541453304504481 0.40081199711711485 L 0.6698918544751107 0.3924315370147933 L 0.6815457034276985 0.37995840184039686 L 0.6967287119870043 0.3710144262727184 L 0.708177019536106 0.35833574969483617 L 0.7164431722019107 0.3424749182336566 L 0.7280552379324998 0.3299599998372617 L 0.7424511060941478 0.3202288838719255 L 0.7538532565526223 0.30750405020341604 L 0.765244659418166 0.2947684689419755 L 0.7766256248027693 0.2820224501995948 L 0.7839528805404907 0.26522272181033196 L 0.795707008723018 0.25284986586587527 L 0.8041997146417513 0.23721558765762443 L 0.814910855238111 0.22379974412699993 L 0.8261319689955496 0.21089387375745433 L 0.8375285679696287 0.19816348860454938 L 0.84760561910551 0.18411355561344642 L 0.8603529363391617 0.17273388872011414 L 0.8717807057346156 0.16003467398858384 L 0.8819045125025589 0.1460314966295431 L 0.8920490995514188 0.13204909955141877 Z"
          fill="black"
          stroke="black"
          stroke-width="0.006"
          stroke-linejoin="round"
          stroke-linecap="round" />
</g>
  <g transform="translate(690 690) scale(0.5232558139534884 0.5232558139534884) translate(-0.0 -0.0)">
<rect x="40" y="40" width="56" height="8"/>
  <rect x="112" y="40" width="8" height="8"/>
  <rect x="136" y="40" width="8" height="8"/>
  <rect x="152" y="40" width="8" height="8"/>
  <rect x="168" y="40" width="40" height="8"/>
  <rect x="224" y="40" width="8" height="8"/>
  <rect x="248" y="40" width="56" height="8"/>
  <rect x="40" y="48" width="8" height="8"/>
  <rect x="88" y="48" width="8" height="8"/>
  <rect x="136" y="48" width="8" height="8"/>
  <rect x="160" y="48" width="16" height="8"/>
  <rect x="184" y="48" width="8" height="8"/>
  <rect x="216" y="48" width="8" height="8"/>
  <rect x="232" y="48" width="8" height="8"/>
  <rect x="248" y="48" width="8" height="8"/>
  <rect x="296" y="48" width="8" height="8"/>
  <rect x="40" y="56" width="8" height="8"/>
  <rect x="56" y="56" width="24" height="8"/>
  <rect x="88" y="56" width="8" height="8"/>
  <rect x="104" y="56" width="8" height="8"/>
  <rect x="120" y="56" width="24" height="8"/>
  <rect x="152" y="56" width="8" height="8"/>
  <rect x="168" y="56" width="8" height="8"/>
  <rect x="192" y="56" width="24" height="8"/>
  <rect x="224" y="56" width="16" height="8"/>
  <rect x="248" y="56" width="8" height="8"/>
  <rect x="264" y="56" width="24" height="8"/>
  <rect x="296" y="56" width="8" height="8"/>
  <rect x="40" y="64" width="8" height="8"/>
  <rect x="56" y="64" width="24" height="8"/>
  <rect x="88" y="64" width="8" height="8"/>
  <rect x="104" y="64" width="8" height="8"/>
  <rect x="120" y="64" width="8" height="8"/>
  <rect x="136" y="64" width="8" height="8"/>
  <rect x="176" y="64" width="8" height="8"/>
  <rect x="192" y="64" width="8" height="8"/>
  <rect x="216" y="64" width="8" height="8"/>
  <rect x="232" y="64" width="8" height="8"/>
  <rect x="248" y="64" width="8" height="8"/>
  <rect x="264" y="64" width="24" height="8"/>
  <rect x="296" y="64" width="8" height="8"/>
  <rect x="40" y="72" width="8" height="8"/>
  <rect x="56" y="72" width="24" height="8"/>
  <rect x="88" y="72" width="8" height="8"/>
  <rect x="104" y="72" width="8" height="8"/>
  <rect x="136" y="72" width="8" height="8"/>
  <rect x="152" y="72" width="24" height="8"/>
  <rect x="192" y="72" width="24" height="8"/>
  <rect x="224" y="72" width="16" height="8"/>
  <rect x="248" y="72" width="8" height="8"/>
  <rect x="264" y="72" width="24" height="8"/>
  <rect x="296" y="72" width="8" height="8"/>
  <rect x="40" y="80" width="8" height="8"/>
  <rect x="88" y="80" width="8" height="8"/>
  <rect x="104" y="80" width="8" height="8"/>
  <rect x="120" y="80" width="16" height="8"/>
  <rect x="144" y="80" width="8" height="8"/>
  <rect x="208" y="80" width="16" height="8"/>
  <rect x="232" y="80" width="8" height="8"/>
  <rect x="248" y="80" width="8" height="8"/>
  <rect x="296" y="80" width="8" height="8"/>
  <rect x="40" y="88" width="56" height="8"/>
  <rect x="104" y="88" width="8" height="8"/>
  <rect x="120" y="88" width="8" height="8"/>
  <rect x="136" y="88" width="8" height="8"/>
  <rect x="152" y="88" width="8" height="8"/>
  <rect x="168" y="88" width="8" height="8"/>
  <rect x="184" y="88" width="8" height="8"/>
  <rect x="200" y="88" width="8" height="8"/>
  <rect x="216" y="88" width="8" height="8"/>
  <rect x="232" y="88" width="8" height="8"/>
  <rect x="248" y="88" width="56" height="8"/>
  <rect x="104" y="96" width="16" height="8"/>
  <rect x="152" y="96" width="8" height="8"/>
  <rect x="168" y="96" width="8" height="8"/>
  <rect x="184" y="96" width="40" height="8"/>
  <rect x="40" y="104" width="8" height="8"/>
  <rect x="56" y="104" width="40" height="8"/>
  <rect x="144" y="104" width="16" height="8"/>
  <rect x="176" y="104" width="8" height="8"/>
  <rect x="192" y="104" width="8" height="8"/>
  <rect x="216" y="104" width="16" height="8"/>
  <rect x="248" y="104" width="40" height="8"/>
  <rect x="40" y="112" width="8" height="8"/>
  <rect x="64" y="112" width="24" height="8"/>
  <rect x="104" y="112" width="16" height="8"/>
  <rect x="128" y="112" width="32" height="8"/>
  <rect x="184" y="112" width="24" height="8"/>
  <rect x="224" y="112" width="8" height="8"/>
  <rect x="248" y="112" width="16" height="8"/>
  <rect x="272" y="112" width="16" height="8"/>
  <rect x="296" y="112" width="8" height="8"/>
  <rect x="56" y="120" width="8" height="8"/>
  <rect x="88" y="120" width="8" height="8"/>
  <rect x="104" y="120" width="16" height="8"/>
  <rect x="136" y="120" width="40" height="8"/>
  <rect x="200" y="120" width="16" height="8"/>
  <rect x="240" y="120" width="16" height="8"/>
  <rect x="264" y="120" width="8" height="8"/>
  <rect x="280" y="120" width="16" height="8"/>
  <rect x="40" y="128" width="24" height="8"/>
  <rect x="72" y="128" width="8" height="8"/>
  <rect x="96" y="128" width="8" height="8"/>
  <rect x="120" y="128" width="8" height="8"/>
  <rect x="136" y="128" width="16" height="8"/>
  <rect x="168" y="128" width="8" height="8"/>
  <rect x="184" y="128" width="8" height="8"/>
  <rect x="208" y="128" width="8" height="8"/>
  <rect x="240" y="128" width="16" height="8"/>
  <rect x="264" y="128" width="24" height="8"/>
  <rect x="296" y="128" width="8" height="8"/>
  <rect x="48" y="136" width="88" height="8"/>
  <rect x="152" y="136" width="8" height="8"/>
  <rect x="168" y="136" width="24" height="8"/>
  <rect x="216" y="136" width="8" height="8"/>
  <rect x="232" y="136" width="16" height="8"/>
  <rect x="256" y="136" width="24" height="8"/>
  <rect x="288" y="136" width="16" height="8"/>
  <rect x="40" y="144" width="8" height="8"/>
  <rect x="64" y="144" width="24" height="8"/>
  <rect x="96" y="144" width="8" height="8"/>
  <rect x="112" y="144" width="8" height="8"/>
  <rect x="128" y="144" width="16" height="8"/>
  <rect x="160" y="144" width="8" height="8"/>
  <rect x="192" y="144" width="16" height="8"/>
  <rect x="216" y="144" width="16" height="8"/>
  <rect x="248" y="144" width="8" height="8"/>
  <rect x="272" y="144" width="32" height="8"/>
  <rect x="40" y="152" width="8" height="8"/>
  <rect x="64" y="152" width="8" height="8"/>
  <rect x="88" y="152" width="8" height="8"/>
  <rect x="104" y="152" width="16" height="8"/>
  <rect x="128" y="152" width="8" height="8"/>
  <rect x="160" y="152" width="16" height="8"/>
  <rect x="184" y="152" width="8" height="8"/>
  <rect x="200" y="152" width="16" height="8"/>
  <rect x="240" y="152" width="16" height="8"/>
  <rect x="264" y="152" width="8" height="8"/>
  <rect x="280" y="152" width="16" height="8"/>
  <rect x="48" y="160" width="8" height="8"/>
  <rect x="64" y="160" width="24" height="8"/>
  <rect x="96" y="160" width="24" height="8"/>
  <rect x="128" y="160" width="8" height="8"/>
  <rect x="144" y="160" width="8" height="8"/>
  <rect x="160" y="160" width="8" height="8"/>
  <rect x="200" y="160" width="32" height="8"/>
  <rect x="240" y="160" width="24" height="8"/>
  <rect x="272" y="160" width="16" height="8"/>
  <rect x="48" y="168" width="16" height="8"/>
  <rect x="88" y="168" width="8" height="8"/>
  <rect x="112" y="168" width="8" height="8"/>
  <rect x="152" y="168" width="16" height="8"/>
  <rect x="176" y="168" width="8" height="8"/>
  <rect x="216" y="168" width="32" height="8"/>
  <rect x="256" y="168" width="16" height="8"/>
  <rect x="296" y="168" width="8" height="8"/>
  <rect x="40" y="176" width="24" height="8"/>
  <rect x="72" y="176" width="8" height="8"/>
  <rect x="104" y="176" width="24" height="8"/>
  <rect x="152" y="176" width="8" height="8"/>
  <rect x="168" y="176" width="16" height="8"/>
  <rect x="192" y="176" width="24" height="8"/>
  <rect x="224" y="176" width="8" height="8"/>
  <rect x="240" y="176" width="24" height="8"/>
  <rect x="272" y="176" width="16" height="8"/>
  <rect x="296" y="176" width="8" height="8"/>
  <rect x="40" y="184" width="8" height="8"/>
  <rect x="56" y="184" width="8" height="8"/>
  <rect x="72" y="184" width="8" height="8"/>
  <rect x="88" y="184" width="16" height="8"/>
  <rect x="128" y="184" width="48" height="8"/>
  <rect x="208" y="184" width="16" height="8"/>
  <rect x="232" y="184" width="40" height="8"/>
  <rect x="280" y="184" width="16" height="8"/>
  <rect x="40" y="192" width="16" height="8"/>
  <rect x="64" y="192" width="24" height="8"/>
  <rect x="96" y="192" width="24" height="8"/>
  <rect x="128" y="192" width="8" height="8"/>
  <rect x="144" y="192" width="8" height="8"/>
  <rect x="200" y="192" width="16" height="8"/>
  <rect x="224" y="192" width="8" height="8"/>
  <rect x="248" y="192" width="48" height="8"/>
  <rect x="56" y="200" width="8" height="8"/>
  <rect x="72" y="200" width="8" height="8"/>
  <rect x="88" y="200" width="48" height="8"/>
  <rect x="144" y="200" width="24" height="8"/>
  <rect x="176" y="200" width="16" height="8"/>
  <rect x="200" y="200" width="8" height="8"/>
  <rect x="216" y="200" width="8" height="8"/>
  <rect x="232" y="200" width="16" height="8"/>
  <rect x="256" y="200" width="24" height="8"/>
  <rect x="40" y="208" width="8" height="8"/>
  <rect x="56" y="208" width="16" height="8"/>
  <rect x="80" y="208" width="8" height="8"/>
  <rect x="104" y="208" width="32" height="8"/>
  <rect x="144" y="208" width="8" height="8"/>
  <rect x="160" y="208" width="16" height="8"/>
  <rect x="192" y="208" width="24" height="8"/>
  <rect x="224" y="208" width="8" height="8"/>
  <rect x="240" y="208" width="16" height="8"/>
  <rect x="280" y="208" width="8" height="8"/>
  <rect x="296" y="208" width="8" height="8"/>
  <rect x="40" y="216" width="8" height="8"/>
  <rect x="64" y="216" width="8" height="8"/>
  <rect x="88" y="216" width="24" height="8"/>
  <rect x="144" y="216" width="16" height="8"/>
  <rect x="176" y="216" width="16" height="8"/>
  <rect x="200" y="216" width="8" height="8"/>
  <rect x="216" y="216" width="8" height="8"/>
  <rect x="232" y="216" width="8" height="8"/>
  <rect x="256" y="216" width="8" height="8"/>
  <rect x="272" y="216" width="24" height="8"/>
  <rect x="40" y="224" width="8" height="8"/>
  <rect x="64" y="224" width="8" height="8"/>
  <rect x="96" y="224" width="8" height="8"/>
  <rect x="112" y="224" width="8" height="8"/>
  <rect x="136" y="224" width="8" height="8"/>
  <rect x="152" y="224" width="8" height="8"/>
  <rect x="168" y="224" width="8" height="8"/>
  <rect x="184" y="224" width="72" height="8"/>
  <rect x="272" y="224" width="24" height="8"/>
  <rect x="40" y="232" width="8" height="8"/>
  <rect x="56" y="232" width="16" height="8"/>
  <rect x="80" y="232" width="16" height="8"/>
  <rect x="112" y="232" width="16" height="8"/>
  <rect x="136" y="232" width="8" height="8"/>
  <rect x="176" y="232" width="8" height="8"/>
  <rect x="192" y="232" width="16" height="8"/>
  <rect x="216" y="232" width="8" height="8"/>
  <rect x="232" y="232" width="48" height="8"/>
  <rect x="296" y="232" width="8" height="8"/>
  <rect x="104" y="240" width="16" height="8"/>
  <rect x="152" y="240" width="8" height="8"/>
  <rect x="168" y="240" width="8" height="8"/>
  <rect x="184" y="240" width="24" height="8"/>
  <rect x="224" y="240" width="16" height="8"/>
  <rect x="264" y="240" width="8" height="8"/>
  <rect x="280" y="240" width="8" height="8"/>
  <rect x="296" y="240" width="8" height="8"/>
  <rect x="40" y="248" width="56" height="8"/>
  <rect x="144" y="248" width="8" height="8"/>
  <rect x="160" y="248" width="8" height="8"/>
  <rect x="200" y="248" width="40" height="8"/>
  <rect x="248" y="248" width="8" height="8"/>
  <rect x="264" y="248" width="8" height="8"/>
  <rect x="280" y="248" width="16" height="8"/>
  <rect x="40" y="256" width="8" height="8"/>
  <rect x="88" y="256" width="8" height="8"/>
  <rect x="104" y="256" width="24" height="8"/>
  <rect x="152" y="256" width="8" height="8"/>
  <rect x="168" y="256" width="8" height="8"/>
  <rect x="192" y="256" width="8" height="8"/>
  <rect x="208" y="256" width="32" height="8"/>
  <rect x="264" y="256" width="24" height="8"/>
  <rect x="40" y="264" width="8" height="8"/>
  <rect x="56" y="264" width="24" height="8"/>
  <rect x="88" y="264" width="8" height="8"/>
  <rect x="104" y="264" width="24" height="8"/>
  <rect x="144" y="264" width="16" height="8"/>
  <rect x="176" y="264" width="16" height="8"/>
  <rect x="200" y="264" width="8" height="8"/>
  <rect x="216" y="264" width="8" height="8"/>
  <rect x="232" y="264" width="48" height="8"/>
  <rect x="288" y="264" width="8" height="8"/>
  <rect x="40" y="272" width="8" height="8"/>
  <rect x="56" y="272" width="24" height="8"/>
  <rect x="88" y="272" width="8" height="8"/>
  <rect x="104" y="272" width="8" height="8"/>
  <rect x="128" y="272" width="16" height="8"/>
  <rect x="152" y="272" width="16" height="8"/>
  <rect x="192" y="272" width="8" height="8"/>
  <rect x="224" y="272" width="8" height="8"/>
  <rect x="240" y="272" width="8" height="8"/>
  <rect x="264" y="272" width="8" height="8"/>
  <rect x="280" y="272" width="24" height="8"/>
  <rect x="40" y="280" width="8" height="8"/>
  <rect x="56" y="280" width="24" height="8"/>
  <rect x="88" y="280" width="8" height="8"/>
  <rect x="104" y="280" width="8" height="8"/>
  <rect x="128" y="280" width="24" height="8"/>
  <rect x="160" y="280" width="16" height="8"/>
  <rect x="216" y="280" width="16" height="8"/>
  <rect x="248" y="280" width="16" height="8"/>
  <rect x="40" y="288" width="8" height="8"/>
  <rect x="88" y="288" width="8" height="8"/>
  <rect x="112" y="288" width="24" height="8"/>
  <rect x="144" y="288" width="32" height="8"/>
  <rect x="184" y="288" width="8" height="8"/>
  <rect x="200" y="288" width="16" height="8"/>
  <rect x="224" y="288" width="8" height="8"/>
  <rect x="240" y="288" width="8" height="8"/>
  <rect x="264" y="288" width="24" height="8"/>
  <rect x="40" y="296" width="56" height="8"/>
  <rect x="104" y="296" width="24" height="8"/>
  <rect x="136" y="296" width="8" height="8"/>
  <rect x="160" y="296" width="8" height="8"/>
  <rect x="176" y="296" width="32" height="8"/>
  <rect x="216" y="296" width="24" height="8"/>
  <rect x="256" y="296" width="8" height="8"/>
  <rect x="288" y="296" width="8" height="8"/>
</g>
</svg>