<svg xmlns="http://www.w3.org/2000/svg" viewBox="0 0 1000 1000" width="1000" height="1000">
  <g transform="translate(110 100) scale(780.0 780.0) translate(-0.0 -0.0)">
<path d="M 0.1454558441227157 0.9054558441227157 L 0.14956430887992161 0.8854373247529375 L 0.17054021096851146 0.8822862427145433 L 0.18302945982112886 0.8706485074401765 L 0.19548854545497232 0.8589806089470359 L 0.2161827981712495 0.8555478775363289 L 0.22852673683301258 0.8437648320711079 L 0.2408407661238134 0.8319518772349246 L 0.25312614386202015 0.8201102708461471 L 0.26538396403962317 0.8082411068967661 L 0.2776151983676288 0.7963453570977875 L 0.28982072389811314 0.7844238985012878 L 0.30200134229497444 0.7724775327711649 L 0.31415779379724196 0.7605070001464482 L 0.32629076765120224 0.7485129898734245 L 0.3384009101039103 0.7364961481991483 L 0.3504888306596645 0.7244570846279186 L 0.3698228839768475 0.7196641538181173 L 0.3817616439850388 0.7074759296993245 L 0.3936766711099726 0.6952639726972742 L 0.3986294523951684 0.6760897698554857 L 0.4174378303884016 0.6707711637217351 L 0.42258027840634865 0.6517866276126979 L 0.4345274739143922 0.6396068389937573 L 0.4464564455084342 0.6274088264608152 L 0.46469956256562156 0.6215249593910185 L 0.47026140190558413 0.602959814603997 L 0.48213820031028365 0.5907096288817122 L 0.4939984038078687 0.5784428482523131 L 0.5058423942038469 0.5661598545213072 L 0.517670544593539 0.5538610207840152 L 0.5294832199605168 0.541546712024009 L 0.5412807777143369 0.5292172856508448 L 0.5530635681755087 0.5168730919850324 L 0.5648319350143896 0.5045144746969292 L 0.5765862156496663 0.4921417712052219 L 0.5883267416112451 0.4797553130398165 L 0.5954383404318084 0.4627399277333957 L 0.602851581366896 0.4460261845414992 L 0.6191702448824569 0.43821786393007595 L 0.6268827069450924 0.42180334186572743 L 0.642859901430089 0.4136535522237398 L 0.6546895330096991 0.40135619967636593 L 0.6665093710557328 0.3890490535954154 L 0.6783196646286304 0.37673236304132873 L 0.6868166334954477 0.36110234778116185 L 0.7019125990868261 0.3520713292455563 L 0.7136957229869514 0.33972746901869727 L 0.7254702686921388 0.32737503059690076 L 0.7346291533088435 0.31240693108662115 L 0.7441358670440666 0.2977866606948603 L 0.753994938684238 0.2835187482080475 L 0.7662798785412347 0.27167670393806026 L 0.7766744379539734 0.25794427922381463 L 0.7874326335152965 0.24457549065815373 L 0.8000771977047575 0.23309307072063057 L 0.8127211467893779 0.22161003567826673 L 0.8241661544208485 0.20892805918275317 L 0.8356593817011894 0.19629430233610995 L 0.8508861327861952 0.18739406929413163 L 0.8611477820842179 0.17352873446517036 L 0.8714288263110962 0.1596827945650644 L 0.8817292654668297 0.14585624959381394 L 0.8920490995514188 0.13204909955141877 Z"
          fill="black"
          stroke="black"
          stroke-width="0.006"
          stroke-linejoin="round"
          stroke-linecap="round" />
</g>
  <g transform="translate(690 690) scale(0.5232558139534884 0.5232558139534884) translate(-0.0 -0.0)">
<rect x="40" y="40" width="56" height="8"/>
  <rect x="112" y="40" width="8" height="8"/>
  <rect x="128" y="40" width="32" height="8"/>
  <rect x="168" y="40" width="40" height="8"/>
  <rect x="224" y="40" width="8" height="8"/>
  <rect x="248" y="40" width="56" height="8"/>
  <rect x="40" y="48" width="8" height="8"/>
  <rect x="88" y="48" width="8" height="8"/>
  <rect x="112" y="48" width="8" height="8"/>
  <rect x="144" y="48" width="32" height="8"/>
  <rect x="184" y="48" width="8" height="8"/>
  <rect x="216" y="48" width="8" height="8"/>
  <rect x="232" y="48" width="8" height="8"/>
  <rect x="248" y="48" width="8" height="8"/>
  <rect x="296" y="48" width="8" height="8"/>
  <rect x="40" y="56" width="8" height="8"/>
  <rect x="56" y="56" width="24" height="8"/>
  <rect x="88" y="56" width="8" height="8"/>
  <rect x="104" y="56" width="8" height="8"/>
  <rect x="120" y="56" width="32" height="8"/>
  <rect x="168" y="56" width="8" height="8"/>
  <rect x="192" y="56" width="24" height="8"/>
  <rect x="224" y="56" width="16" height="8"/>
  <rect x="248" y="56" width="8" height="8"/>
  <rect x="264" y="56" width="24" height="8"/>
  <rect x="296" y="56" width="8" height="8"/>
  <rect x="40" y="64" width="8" height="8"/>
  <rect x="56" y="64" width="24" height="8"/>
  <rect x="88" y="64" width="8" height="8"/>
  <rect x="104" y="64" width="8" height="8"/>
  <rect x="152" y="64" width="8" height="8"/>
  <rect x="168" y="64" width="16" height="8"/>
  <rect x="192" y="64" width="8" height="8"/>
  <rect x="216" y="64" width="8" height="8"/>
  <rect x="232" y="64" width="8" height="8"/>
  <rect x="248" y="64" width="8" height="8"/>
  <rect x="264" y="64" width="24" height="8"/>
  <rect x="296" y="64" width="8" height="8"/>
  <rect x="40" y="72" width="8" height="8"/>
  <rect x="56" y="72" width="24" height="8"/>
  <rect x="88" y="72" width="8" height="8"/>
  <rect x="104" y="72" width="8" height="8"/>
  <rect x="160" y="72" width="8" height="8"/>
  <rect x="192" y="72" width="24" height="8"/>
  <rect x="224" y="72" width="16" height="8"/>
  <rect x="248" y="72" width="8" height="8"/>
  <rect x="264" y="72" width="24" height="8"/>
  <rect x="296" y="72" width="8" height="8"/>
  <rect x="40" y="80" width="8" height="8"/>
  <rect x="88" y="80" width="8" height="8"/>
  <rect x="104" y="80" width="8" height="8"/>
  <rect x="120" y="80" width="32" height="8"/>
  <rect x="160" y="80" width="16" height="8"/>
  <rect x="208" y="80" width="16" height="8"/>
  <rect x="232" y="80" width="8" height="8"/>
  <rect x="248" y="80" width="8" height="8"/>
  <rect x="296" y="80" width="8" height="8"/>
  <rect x="40" y="88" width="56" height="8"/>
  <rect x="104" y="88" width="8" height="8"/>
  <rect x="120" y="88" width="8" height="8"/>
  <rect x="136" y="88" width="8" height="8"/>
  <rect x="152" y="88" width="8" height="8"/>
  <rect x="168" y="88" width="8" height="8"/>
  <rect x="184" y="88" width="8" height="8"/>
  <rect x="200" y="88" width="8" height="8"/>
  <rect x="216" y="88" width="8" height="8"/>
  <rect x="232" y="88" width="8" height="8"/>
  <rect x="248" y="88" width="56" height="8"/>
  <rect x="104" y="96" width="8" height="8"/>
  <rect x="128" y="96" width="8" height="8"/>
  <rect x="152" y="96" width="16" height="8"/>
  <rect x="184" y="96" width="40" height="8"/>
  <rect x="40" y="104" width="8" height="8"/>
  <rect x="56" y="104" width="40" height="8"/>
  <rect x="120" y="104" width="48" height="8"/>
  <rect x="176" y="104" width="8" height="8"/>
  <rect x="192" y="104" width="8" height="8"/>
  <rect x="216" y="104" width="16" height="8"/>
  <rect x="248" y="104" width="40" height="8"/>
  <rect x="40" y="112" width="48" height="8"/>
  <rect x="96" y="112" width="32" height="8"/>
  <rect x="136" y="112" width="8" height="8"/>
  <rect x="152" y="112" width="8" height="8"/>
  <rect x="184" y="112" width="24" height="8"/>
  <rect x="224" y="112" width="8" height="8"/>
  <rect x="248" y="112" width="16" height="8"/>
  <rect x="272" y="112" width="16" height="8"/>
  <rect x="296" y="112" width="8" height="8"/>
  <rect x="40" y="120" width="8" height="8"/>
  <rect x="72" y="120" width="8" height="8"/>
  <rect x="88" y="120" width="8" height="8"/>
  <rect x="112" y="120" width="32" height="8"/>
  <rect x="160" y="120" width="16" height="8"/>
  <rect x="200" y="120" width="16" height="8"/>
  <rect x="240" y="120" width="16" height="8"/>
  <rect x="264" y="120" width="8" height="8"/>
  <rect x="280" y="120" width="16" height="8"/>
  <rect x="40" y="128" width="48" height="8"/>
  <rect x="96" y="128" width="32" height="8"/>
  <rect x="152" y="128" width="8" height="8"/>
  <rect x="168" y="128" width="8" height="8"/>
  <rect x="184" y="128" width="8" height="8"/>
  <rect x="208" y="128" width="8" height="8"/>
  <rect x="240" y="128" width="16" height="8"/>
  <rect x="264" y="128" width="24" height="8"/>
  <rect x="296" y="128" width="8" height="8"/>
  <rect x="48" y="136" width="8" height="8"/>
  <rect x="64" y="136" width="16" height="8"/>
  <rect x="88" y="136" width="16" height="8"/>
  <rect x="112" y="136" width="8" height="8"/>
  <rect x="176" y="136" width="16" height="8"/>
  <rect x="216" y="136" width="8" height="8"/>
  <rect x="232" y="136" width="16" height="8"/>
  <rect x="256" y="136" width="24" height="8"/>
  <rect x="288" y="136" width="16" height="8"/>
  <rect x="40" y="144" width="8" height="8"/>
  <rect x="64" y="144" width="16" height="8"/>
  <rect x="96" y="144" width="8" height="8"/>
  <rect x="136" y="144" width="8" height="8"/>
  <rect x="152" y="144" width="24" height="8"/>
  <rect x="192" y="144" width="16" height="8"/>
  <rect x="216" y="144" width="16" height="8"/>
  <rect x="248" y="144" width="8" height="8"/>
  <rect x="272" y="144" width="32" height="8"/>
  <rect x="48" y="152" width="16" height="8"/>
  <rect x="72" y="152" width="8" height="8"/>
  <rect x="88" y="152" width="8" height="8"/>
  <rect x="104" y="152" width="8" height="8"/>
  <rect x="120" y="152" width="16" height="8"/>
  <rect x="184" y="152" width="8" height="8"/>
  <rect x="200" y="152" width="16" height="8"/>
  <rect x="240" y="152" width="16" height="8"/>
  <rect x="264" y="152" width="8" height="8"/>
  <rect x="280" y="152" width="16" height="8"/>
  <rect x="40" y="160" width="40" height="8"/>
  <rect x="136" y="160" width="8" height="8"/>
  <rect x="152" y="160" width="8" height="8"/>
  <rect x="168" y="160" width="8" height="8"/>
  <rect x="200" y="160" width="32" height="8"/>
  <rect x="240" y="160" width="24" height="8"/>
  <rect x="272" y="160" width="16" height="8"/>
  <rect x="48" y="168" width="8" height="8"/>
  <rect x="64" y="168" width="8" height="8"/>
  <rect x="80" y="168" width="24" height="8"/>
  <rect x="112" y="168" width="8" height="8"/>
  <rect x="136" y="168" width="16" height="8"/>
  <rect x="176" y="168" width="8" height="8"/>
  <rect x="216" y="168" width="32" height="8"/>
  <rect x="256" y="168" width="16" height="8"/>
  <rect x="296" y="168" width="8" height="8"/>
  <rect x="64" y="176" width="16" height="8"/>
  <rect x="96" y="176" width="8" height="8"/>
  <rect x="120" y="176" width="8" height="8"/>
  <rect x="144" y="176" width="8" height="8"/>
  <rect x="168" y="176" width="16" height="8"/>
  <rect x="192" y="176" width="24" height="8"/>
  <rect x="224" y="176" width="8" height="8"/>
  <rect x="240" y="176" width="24" height="8"/>
  <rect x="272" y="176" width="16" height="8"/>
  <rect x="296" y="176" width="8" height="8"/>
  <rect x="40" y="184" width="16" height="8"/>
  <rect x="72" y="184" width="40" height="8"/>
  <rect x="128" y="184" width="8" height="8"/>
  <rect x="160" y="184" width="16" height="8"/>
  <rect x="208" y="184" width="16" height="8"/>
  <rect x="232" y="184" width="40" height="8"/>
  <rect x="280" y="184" width="16" height="8"/>
  <rect x="40" y="192" width="8" height="8"/>
  <rect x="64" y="192" width="16" height="8"/>
  <rect x="112" y="192" width="48" height="8"/>
  <rect x="200" y="192" width="16" height="8"/>
  <rect x="224" y="192" width="8" height="8"/>
  <rect x="248" y="192" width="48" height="8"/>
  <rect x="40" y="200" width="16" height="8"/>
  <rect x="64" y="200" width="8" height="8"/>
  <rect x="80" y="200" width="16" height="8"/>
  <rect x="112" y="200" width="24" height="8"/>
  <rect x="144" y="200" width="24" height="8"/>
  <rect x="184" y="200" width="8" height="8"/>
  <rect x="200" y="200" width="8" height="8"/>
  <rect x="216" y="200" width="8" height="8"/>
  <rect x="232" y="200" width="16" height="8"/>
  <rect x="256" y="200" width="24" height="8"/>
  <rect x="40" y="208" width="8" height="8"/>
  <rect x="72" y="208" width="16" height="8"/>
  <rect x="104" y="208" width="8" height="8"/>
  <rect x="120" y="208" width="8" height="8"/>
  <rect x="136" y="208" width="32" height="8"/>
  <rect x="192" y="208" width="24" height="8"/>
  <rect x="224" y="208" width="8" height="8"/>
  <rect x="240" y="208" width="16" height="8"/>
  <rect x="280" y="208" width="8" height="8"/>
  <rect x="296" y="208" width="8" height="8"/>
  <rect x="40" y="216" width="8" height="8"/>
  <rect x="64" y="216" width="8" height="8"/>
  <rect x="88" y="216" width="8" height="8"/>
  <rect x="112" y="216" width="8" height="8"/>
  <rect x="160" y="216" width="32" height="8"/>
  <rect x="200" y="216" width="8" height="8"/>
  <rect x="216" y="216" width="8" height="8"/>
  <rect x="232" y="216" width="8" height="8"/>
  <rect x="256" y="216" width="8" height="8"/>
  <rect x="272" y="216" width="24" height="8"/>
  <rect x="40" y="224" width="8" height="8"/>
  <rect x="56" y="224" width="8" height="8"/>
  <rect x="80" y="224" width="8" height="8"/>
  <rect x="104" y="224" width="48" height="8"/>
  <rect x="160" y="224" width="16" height="8"/>
  <rect x="184" y="224" width="72" height="8"/>
  <rect x="272" y="224" width="32" height="8"/>
  <rect x="40" y="232" width="8" height="8"/>
  <rect x="64" y="232" width="16" height="8"/>
  <rect x="88" y="232" width="8" height="8"/>
  <rect x="104" y="232" width="16" height="8"/>
  <rect x="144" y="232" width="16" height="8"/>
  <rect x="176" y="232" width="8" height="8"/>
  <rect x="192" y="232" width="16" height="8"/>
  <rect x="216" y="232" width="8" height="8"/>
  <rect x="232" y="232" width="48" height="8"/>
  <rect x="288" y="232" width="8" height="8"/>
  <rect x="104" y="240" width="24" height="8"/>
  <rect x="136" y="240" width="24" height="8"/>
  <rect x="168" y="240" width="8" height="8"/>
  <rect x="184" y="240" width="24" height="8"/>
  <rect x="224" y="240" width="16" height="8"/>
  <rect x="264" y="240" width="8" height="8"/>
  <rect x="280" y="240" width="8" height="8"/>
  <rect x="296" y="240" width="8" height="8"/>
  <rect x="40" y="248" width="56" height="8"/>
  <rect x="112" y="248" width="8" height="8"/>
  <rect x="136" y="248" width="8" height="8"/>
  <rect x="152" y="248" width="16" height="8"/>
  <rect x="184" y="248" width="8" height="8"/>
  <rect x="200" y="248" width="40" height="8"/>
  <rect x="248" y="248" width="8" height="8"/>
  <rect x="264" y="248" width="8" height="8"/>
  <rect x="280" y="248" width="16" height="8"/>
  <rect x="40" y="256" width="8" height="8"/>
  <rect x="88" y="256" width="8" height="8"/>
  <rect x="104" y="256" width="8" height="8"/>
  <rect x="120" y="256" width="24" height="8"/>
  <rect x="152" y="256" width="8" height="8"/>
  <rect x="168" y="256" width="8" height="8"/>
  <rect x="184" y="256" width="16" height="8"/>
  <rect x="208" y="256" width="32" height="8"/>
  <rect x="264" y="256" width="24" height="8"/>
  <rect x="40" y="264" width="8" height="8"/>
  <rect x="56" y="264" width="24" height="8"/>
  <rect x="88" y="264" width="8" height="8"/>
  <rect x="104" y="264" width="16" height="8"/>
  <rect x="128" y="264" width="8" height="8"/>
  <rect x="144" y="264" width="16" height="8"/>
  <rect x="184" y="264" width="8" height="8"/>
  <rect x="200" y="264" width="8" height="8"/>
  <rect x="216" y="264" width="8" height="8"/>
  <rect x="232" y="264" width="48" height="8"/>
  <rect x="288" y="264" width="8" height="8"/>
  <rect x="40" y="272" width="8" height="8"/>
  <rect x="56" y="272" width="24" height="8"/>
  <rect x="88" y="272" width="8" height="8"/>
  <rect x="104" y="272" width="32" height="8"/>
  <rect x="152" y="272" width="8" height="8"/>
  <rect x="168" y="272" width="8" height="8"/>
  <rect x="184" y="272" width="16" height="8"/>
  <rect x="224" y="272" width="8" height="8"/>
  <rect x="240" y="272" width="8" height="8"/>
  <rect x="264" y="272" width="8" height="8"/>
  <rect x="280" y="272" width="24" height="8"/>
  <rect x="40" y="280" width="8" height="8"/>
  <rect x="56" y="280" width="24" height="8"/>
  <rect x="88" y="280" width="8" height="8"/>
  <rect x="104" y="280" width="16" height="8"/>
  <rect x="160" y="280" width="8" height="8"/>
  <rect x="216" y="280" width="16" height="8"/>
  <rect x="248" y="280" width="16" height="8"/>
  <rect x="40" y="288" width="8" height="8"/>
  <rect x="88" y="288" width="8" height="8"/>
  <rect x="112" y="288" width="8" height="8"/>
  <rect x="128" y="288" width="8" height="8"/>
  <rect x="144" y="288" width="8" height="8"/>
  <rect x="160" y="288" width="16" height="8"/>
  <rect x="184" y="288" width="8" height="8"/>
  <rect x="200" y="288" width="16" height="8"/>
  <rect x="224" y="288" width="8" height="8"/>
  <rect x="240" y="288" width="8" height="8"/>
  <rect x="264" y="288" width="24" height="8"/>
  <rect x="40" y="296" width="56" height="8"/>
  <rect x="104" y="296" width="8" height="8"/>
  <rect x="128" y="296" width="16" height="8"/>
  <rect x="176" y="296" width="32" height="8"/>
  <rect x="216" y="296" width="24" height="8"/>
  <rect x="256" y="296" width="8" height="8"/>
  <rect x="288" y="296" width="8" height="8"/>
</g>
</svg>