<svg xmlns="http://www.w3.org/2000/svg" viewBox="0 0 1000 1000" width="1000" height="1000">
  <g transform="translate(110 100) scale(780.0 780.0) translate(-0.0 -0.0)">
<path d="M 0.1454558441227157 0.9054558441227157 L 0.16647123564539917 0.902344251518415 L 0.17895467646264251 0.8907007082086743 L 0.18302945982112886 0.8706485074401765 L 0.19548854545497232 0.8589806089470359 L 0.1996562239740562 0.8390213033391356 L 0.21212108215318248 0.8273591773912778 L 0.22456523384471952 0.8156763449558306 L 0.23698954984599913 0.8039736768301261 L 0.24939478753609154 0.7922519303932345 L 0.2776151983676288 0.7963453570977875 L 0.28982072389811314 0.7844238985012878 L 0.3097507916199358 0.7802269820961263 L 0.3218179391851377 0.7681671455343441 L 0.333857997156139 0.7560802193783613 L 0.337857997156139 0.7290253471004401 L 0.341857997156139 0.7097151767497142 L 0.3552873301560065 0.7051285999972763 L 0.3674389347201984 0.6931532204344841 L 0.37957313517000146 0.6811604367573031 L 0.39169035793872314 0.6691506753990406 L 0.4037910130905526 0.6571243464238861 L 0.4158754959768583 0.6450818451832075 L 0.427944188651848 0.633023553731213 L 0.43999746109191334 0.6209498420442944 L 0.4520356722532537 0.6088610690786507 L 0.4560356722532537 0.5843531218725437 L 0.4600356722532537 0.5664300152019248 L 0.4761933352075397 0.5606377796519841 L 0.49424709822328367 0.5545645585407439 L 0.512012708403796 0.5482031845942723 L 0.5239675763440379 0.53603106840753 L 0.5359096524577616 0.5238461603942695 L 0.5530635681755087 0.5168730919850324 L 0.5648319350143896 0.5045144746969292 L 0.5765862156496663 0.4921417712052219 L 0.5883267416112451 0.4797553130398165 L 0.600053838871671 0.4673554261732582 L 0.611767828149624 0.45494243132422724 L 0.6191702448824569 0.43821786393007595 L 0.6310202239790808 0.4259408588997158 L 0.642859901430089 0.4136535522237398 L 0.6584989509244568 0.40516561759112363 L 0.6701520455073705 0.3926917280470531 L 0.6783196646286304 0.37673236304132873 L 0.6934246858231521 0.36771040010886624 L 0.7050448093114661 0.35520353947019623 L 0.7196133059114792 0.3456450519432251 L 0.7310378947483008 0.3329426566530628 L 0.7424511060941478 0.3202288838719255 L 0.7514239091754834 0.3050747028262771 L 0.7629947152713804 0.29251852479518986 L 0.7724873262981555 0.277884151694981 L 0.7823354488545979 0.26360529012443923 L 0.7942468248628318 0.2513896820056891 L 0.8046336637930138 0.23764953680888695 L 0.8153868788139226 0.2242757677028115 L 0.8266681002431955 0.2114300050051001 L 0.8381516300591085 0.19878655069402917 L 0.8496448573394495 0.18615279384738587 L 0.8611477820842179 0.17352873446517036 L 0.8714288263110962 0.1596827945650644 L 0.8817292654668297 0.14585624959381394 L 0.8920490995514188 0.13204909955141877 Z"
          fill="black"
          stroke="black"
          stroke-width="0.006"
          stroke-linejoin="round"
          stroke-linecap="round" />
</g>
  <g transform="translate(690 690) scale(0.5232558139534884 0.5232558139534884) translate(-0.0 -0.0)">
<rect x="40" y="40" width="56" height="8"/>
  <rect x="104" y="40" width="48" height="8"/>
  <rect x="184" y="40" width="8" height="8"/>
  <rect x="216" y="40" width="8" height="8"/>
  <rect x="248" y="40" width="56" height="8"/>
  <rect x="40" y="48" width="8" height="8"/>
  <rect x="88" y="48" width="8" height="8"/>
  <rect x="104" y="48" width="8" height="8"/>
  <rect x="120" y="48" width="8" height="8"/>
  <rect x="136" y="48" width="24" height="8"/>
  <rect x="168" y="48" width="8" height="8"/>
  <rect x="184" y="48" width="40" height="8"/>
  <rect x="232" y="48" width="8" height="8"/>
  <rect x="248" y="48" width="8" height="8"/>
  <rect x="296" y="48" width="8" height="8"/>
  <rect x="40" y="56" width="8" height="8"/>
  <rect x="56" y="56" width="24" height="8"/>
  <rect x="88" y="56" width="8" height="8"/>
  <rect x="104" y="56" width="16" height="8"/>
  <rect x="128" y="56" width="32" height="8"/>
  <rect x="200" y="56" width="40" height="8"/>
  <rect x="248" y="56" width="8" height="8"/>
  <rect x="264" y="56" width="24" height="8"/>
  <rect x="296" y="56" width="8" height="8"/>
  <rect x="40" y="64" width="8" height="8"/>
  <rect x="56" y="64" width="24" height="8"/>
  <rect x="88" y="64" width="8" height="8"/>
  <rect x="152" y="64" width="32" height="8"/>
  <rect x="192" y="64" width="24" height="8"/>
  <rect x="232" y="64" width="8" height="8"/>
  <rect x="248" y="64" width="8" height="8"/>
  <rect x="264" y="64" width="24" height="8"/>
  <rect x="296" y="64" width="8" height="8"/>
  <rect x="40" y="72" width="8" height="8"/>
  <rect x="56" y="72" width="24" height="8"/>
  <rect x="88" y="72" width="8" height="8"/>
  <rect x="104" y="72" width="8" height="8"/>
  <rect x="128" y="72" width="8" height="8"/>
  <rect x="160" y="72" width="24" height="8"/>
  <rect x="192" y="72" width="8" height="8"/>
  <rect x="208" y="72" width="8" height="8"/>
  <rect x="232" y="72" width="8" height="8"/>
  <rect x="248" y="72" width="8" height="8"/>
  <rect x="264" y="72" width="24" height="8"/>
  <rect x="296" y="72" width="8" height="8"/>
  <rect x="40" y="80" width="8" height="8"/>
  <rect x="88" y="80" width="8" height="8"/>
  <rect x="112" y="80" width="8" height="8"/>
  <rect x="128" y="80" width="24" height="8"/>
  <rect x="160" y="80" width="24" height="8"/>
  <rect x="224" y="80" width="16" height="8"/>
  <rect x="248" y="80" width="8" height="8"/>
  <rect x="296" y="80" width="8" height="8"/>
  <rect x="40" y="88" width="56" height="8"/>
  <rect x="104" y="88" width="8" height="8"/>
  <rect x="120" y="88" width="8" height="8"/>
  <rect x="136" y="88" width="8" height="8"/>
  <rect x="152" y="88" width="8" height="8"/>
  <rect x="168" y="88" width="8" height="8"/>
  <rect x="184" y="88" width="8" height="8"/>
  <rect x="200" y="88" width="8" height="8"/>
  <rect x="216" y="88" width="8" height="8"/>
  <rect x="232" y="88" width="8" height="8"/>
  <rect x="248" y="88" width="56" height="8"/>
  <rect x="128" y="96" width="24" height="8"/>
  <rect x="160" y="96" width="16" height="8"/>
  <rect x="184" y="96" width="8" height="8"/>
  <rect x="216" y="96" width="8" height="8"/>
  <rect x="40" y="104" width="8" height="8"/>
  <rect x="64" y="104" width="48" height="8"/>
  <rect x="120" y="104" width="16" height="8"/>
  <rect x="152" y="104" width="8" height="8"/>
  <rect x="168" y="104" width="16" height="8"/>
  <rect x="224" y="104" width="8" height="8"/>
  <rect x="240" y="104" width="8" height="8"/>
  <rect x="264" y="104" width="8" height="8"/>
  <rect x="280" y="104" width="24" height="8"/>
  <rect x="40" y="112" width="8" height="8"/>
  <rect x="56" y="112" width="8" height="8"/>
  <rect x="72" y="112" width="16" height="8"/>
  <rect x="112" y="112" width="40" height="8"/>
  <rect x="160" y="112" width="16" height="8"/>
  <rect x="184" y="112" width="16" height="8"/>
  <rect x="208" y="112" width="24" height="8"/>
  <rect x="264" y="112" width="24" height="8"/>
  <rect x="48" y="120" width="8" height="8"/>
  <rect x="88" y="120" width="8" height="8"/>
  <rect x="128" y="120" width="24" height="8"/>
  <rect x="160" y="120" width="24" height="8"/>
  <rect x="208" y="120" width="8" height="8"/>
  <rect x="224" y="120" width="8" height="8"/>
  <rect x="240" y="120" width="8" height="8"/>
  <rect x="264" y="120" width="40" height="8"/>
  <rect x="56" y="128" width="32" height="8"/>
  <rect x="96" y="128" width="8" height="8"/>
  <rect x="128" y="128" width="24" height="8"/>
  <rect x="160" y="128" width="8" height="8"/>
  <rect x="176" y="128" width="16" height="8"/>
  <rect x="216" y="128" width="16" height="8"/>
  <rect x="240" y="128" width="24" height="8"/>
  <rect x="280" y="128" width="8" height="8"/>
  <rect x="296" y="128" width="8" height="8"/>
  <rect x="40" y="136" width="16" height="8"/>
  <rect x="64" y="136" width="8" height="8"/>
  <rect x="88" y="136" width="8" height="8"/>
  <rect x="112" y="136" width="8" height="8"/>
  <rect x="136" y="136" width="16" height="8"/>
  <rect x="184" y="136" width="24" height="8"/>
  <rect x="224" y="136" width="16" height="8"/>
  <rect x="248" y="136" width="16" height="8"/>
  <rect x="40" y="144" width="24" height="8"/>
  <rect x="72" y="144" width="16" height="8"/>
  <rect x="120" y="144" width="40" height="8"/>
  <rect x="208" y="144" width="24" height="8"/>
  <rect x="240" y="144" width="8" height="8"/>
  <rect x="256" y="144" width="8" height="8"/>
  <rect x="272" y="144" width="16" height="8"/>
  <rect x="40" y="152" width="40" height="8"/>
  <rect x="88" y="152" width="8" height="8"/>
  <rect x="104" y="152" width="24" height="8"/>
  <rect x="136" y="152" width="16" height="8"/>
  <rect x="160" y="152" width="8" height="8"/>
  <rect x="184" y="152" width="40" height="8"/>
  <rect x="248" y="152" width="8" height="8"/>
  <rect x="280" y="152" width="8" height="8"/>
  <rect x="48" y="160" width="8" height="8"/>
  <rect x="64" y="160" width="8" height="8"/>
  <rect x="80" y="160" width="8" height="8"/>
  <rect x="96" y="160" width="8" height="8"/>
  <rect x="120" y="160" width="40" height="8"/>
  <rect x="168" y="160" width="8" height="8"/>
  <rect x="224" y="160" width="8" height="8"/>
  <rect x="240" y="160" width="8" height="8"/>
  <rect x="264" y="160" width="24" height="8"/>
  <rect x="296" y="160" width="8" height="8"/>
  <rect x="48" y="168" width="8" height="8"/>
  <rect x="80" y="168" width="16" height="8"/>
  <rect x="104" y="168" width="16" height="8"/>
  <rect x="128" y="168" width="8" height="8"/>
  <rect x="160" y="168" width="8" height="8"/>
  <rect x="200" y="168" width="8" height="8"/>
  <rect x="216" y="168" width="8" height="8"/>
  <rect x="232" y="168" width="48" height="8"/>
  <rect x="40" y="176" width="48" height="8"/>
  <rect x="104" y="176" width="8" height="8"/>
  <rect x="128" y="176" width="8" height="8"/>
  <rect x="152" y="176" width="16" height="8"/>
  <rect x="192" y="176" width="16" height="8"/>
  <rect x="216" y="176" width="8" height="8"/>
  <rect x="240" y="176" width="16" height="8"/>
  <rect x="264" y="176" width="8" height="8"/>
  <rect x="280" y="176" width="8" height="8"/>
  <rect x="296" y="176" width="8" height="8"/>
  <rect x="48" y="184" width="8" height="8"/>
  <rect x="88" y="184" width="8" height="8"/>
  <rect x="104" y="184" width="8" height="8"/>
  <rect x="136" y="184" width="32" height="8"/>
  <rect x="176" y="184" width="8" height="8"/>
  <rect x="192" y="184" width="24" height="8"/>
  <rect x="224" y="184" width="16" height="8"/>
  <rect x="256" y="184" width="8" height="8"/>
  <rect x="272" y="184" width="16" height="8"/>
  <rect x="296" y="184" width="8" height="8"/>
  <rect x="56" y="192" width="8" height="8"/>
  <rect x="80" y="192" width="8" height="8"/>
  <rect x="112" y="192" width="24" height="8"/>
  <rect x="152" y="192" width="16" height="8"/>
  <rect x="192" y="192" width="8" height="8"/>
  <rect x="224" y="192" width="8" height="8"/>
  <rect x="240" y="192" width="8" height="8"/>
  <rect x="264" y="192" width="24" height="8"/>
  <rect x="296" y="192" width="8" height="8"/>
  <rect x="56" y="200" width="16" height="8"/>
  <rect x="80" y="200" width="16" height="8"/>
  <rect x="128" y="200" width="8" height="8"/>
  <rect x="144" y="200" width="8" height="8"/>
  <rect x="160" y="200" width="48" height="8"/>
  <rect x="232" y="200" width="8" height="8"/>
  <rect x="256" y="200" width="8" height="8"/>
  <rect x="272" y="200" width="8" height="8"/>
  <rect x="288" y="200" width="8" height="8"/>
  <rect x="40" y="208" width="16" height="8"/>
  <rect x="72" y="208" width="16" height="8"/>
  <rect x="104" y="208" width="8" height="8"/>
  <rect x="120" y="208" width="8" height="8"/>
  <rect x="136" y="208" width="16" height="8"/>
  <rect x="192" y="208" width="8" height="8"/>
  <rect x="216" y="208" width="16" height="8"/>
  <rect x="240" y="208" width="8" height="8"/>
  <rect x="256" y="208" width="16" height="8"/>
  <rect x="280" y="208" width="8" height="8"/>
  <rect x="40" y="216" width="8" height="8"/>
  <rect x="56" y="216" width="8" height="8"/>
  <rect x="80" y="216" width="16" height="8"/>
  <rect x="104" y="216" width="8" height="8"/>
  <rect x="128" y="216" width="24" height="8"/>
  <rect x="184" y="216" width="8" height="8"/>
  <rect x="216" y="216" width="24" height="8"/>
  <rect x="248" y="216" width="16" height="8"/>
  <rect x="280" y="216" width="24" height="8"/>
  <rect x="40" y="224" width="8" height="8"/>
  <rect x="64" y="224" width="24" height="8"/>
  <rect x="96" y="224" width="8" height="8"/>
  <rect x="120" y="224" width="8" height="8"/>
  <rect x="136" y="224" width="8" height="8"/>
  <rect x="152" y="224" width="16" height="8"/>
  <rect x="176" y="224" width="32" height="8"/>
  <rect x="232" y="224" width="40" height="8"/>
  <rect x="280" y="224" width="16" height="8"/>
  <rect x="40" y="232" width="16" height="8"/>
  <rect x="64" y="232" width="16" height="8"/>
  <rect x="88" y="232" width="8" height="8"/>
  <rect x="104" y="232" width="16" height="8"/>
  <rect x="128" y="232" width="32" height="8"/>
  <rect x="168" y="232" width="8" height="8"/>
  <rect x="224" y="232" width="48" height="8"/>
  <rect x="288" y="232" width="8" height="8"/>
  <rect x="104" y="240" width="8" height="8"/>
  <rect x="144" y="240" width="8" height="8"/>
  <rect x="160" y="240" width="16" height="8"/>
  <rect x="184" y="240" width="8" height="8"/>
  <rect x="208" y="240" width="8" height="8"/>
  <rect x="224" y="240" width="16" height="8"/>
  <rect x="264" y="240" width="8" height="8"/>
  <rect x="280" y="240" width="16" height="8"/>
  <rect x="40" y="248" width="56" height="8"/>
  <rect x="104" y="248" width="24" height="8"/>
  <rect x="160" y="248" width="16" height="8"/>
  <rect x="192" y="248" width="24" height="8"/>
  <rect x="224" y="248" width="16" height="8"/>
  <rect x="248" y="248" width="8" height="8"/>
  <rect x="264" y="248" width="8" height="8"/>
  <rect x="280" y="248" width="8" height="8"/>
  <rect x="40" y="256" width="8" height="8"/>
  <rect x="88" y="256" width="8" height="8"/>
  <rect x="104" y="256" width="8" height="8"/>
  <rect x="120" y="256" width="8" height="8"/>
  <rect x="144" y="256" width="24" height="8"/>
  <rect x="184" y="256" width="24" height="8"/>
  <rect x="224" y="256" width="16" height="8"/>
  <rect x="264" y="256" width="24" height="8"/>
  <rect x="296" y="256" width="8" height="8"/>
  <rect x="40" y="264" width="8" height="8"/>
  <rect x="56" y="264" width="24" height="8"/>
  <rect x="88" y="264" width="8" height="8"/>
  <rect x="104" y="264" width="16" height="8"/>
  <rect x="128" y="264" width="24" height="8"/>
  <rect x="184" y="264" width="8" height="8"/>
  <rect x="216" y="264" width="56" height="8"/>
  <rect x="288" y="264" width="16" height="8"/>
  <rect x="40" y="272" width="8" height="8"/>
  <rect x="56" y="272" width="24" height="8"/>
  <rect x="88" y="272" width="8" height="8"/>
  <rect x="104" y="272" width="32" height="8"/>
  <rect x="168" y="272" width="16" height="8"/>
  <rect x="192" y="272" width="8" height="8"/>
  <rect x="208" y="272" width="16" height="8"/>
  <rect x="240" y="272" width="8" height="8"/>
  <rect x="256" y="272" width="8" height="8"/>
  <rect x="272" y="272" width="32" height="8"/>
  <rect x="40" y="280" width="8" height="8"/>
  <rect x="56" y="280" width="24" height="8"/>
  <rect x="88" y="280" width="8" height="8"/>
  <rect x="120" y="280" width="16" height="8"/>
  <rect x="152" y="280" width="32" height="8"/>
  <rect x="192" y="280" width="16" height="8"/>
  <rect x="240" y="280" width="8" height="8"/>
  <rect x="256" y="280" width="24" height="8"/>
  <rect x="288" y="280" width="16" height="8"/>
  <rect x="40" y="288" width="8" height="8"/>
  <rect x="88" y="288" width="8" height="8"/>
  <rect x="120" y="288" width="8" height="8"/>
  <rect x="136" y="288" width="8" height="8"/>
  <rect x="160" y="288" width="8" height="8"/>
  <rect x="184" y="288" width="16" height="8"/>
  <rect x="224" y="288" width="8" height="8"/>
  <rect x="248" y="288" width="56" height="8"/>
  <rect x="40" y="296" width="56" height="8"/>
  <rect x="104" y="296" width="16" height="8"/>
  <rect x="128" y="296" width="24" height="8"/>
  <rect x="160" y="296" width="32" height="8"/>
  <rect x="200" y="296" width="8" height="8"/>
  <rect x="224" y="296" width="24" height="8"/>
  <rect x="256" y="296" width="16" height="8"/>
</g>
</svg>