<svg xmlns="http://www.w3.org/2000/svg" viewBox="0 0 1000 1000" width="1000" height="1000">
  <g transform="translate(110 100) scale(780.0 780.0) translate(-0.0 -0.0)">
<path d="M 0.15394112549695427 0.9139411254969543 L 0.16647123564539917 0.902344251518415 L 0.17895467646264251 0.8907007082086743 L 0.199768325994636 0.8873873736136836 L 0.212126378370534 0.8756184418625975 L 0.22444608526984614 0.8638111646349255 L 0.23672956417292762 0.8519676594110229 L 0.2489785322633603 0.8400896433744715 L 0.25312614386202015 0.8201102708461471 L 0.26538396403962317 0.8082411068967661 L 0.2776151983676288 0.7963453570977875 L 0.28982072389811314 0.7844238985012878 L 0.30200134229497444 0.7724775327711649 L 0.31415779379724196 0.7605070001464482 L 0.3187235381462654 0.7409457603684877 L 0.3309301090052021 0.7290253471004401 L 0.3431178767205623 0.7170861306888163 L 0.348019553245586 0.6978608230868558 L 0.3602775800877782 0.6859918658020638 L 0.3725213672000159 0.6741086687873175 L 0.3847512634822779 0.6622115809425954 L 0.4037910130905526 0.6571243464238861 L 0.40917071354736795 0.6383770627537172 L 0.4213609033893038 0.6264402684686688 L 0.42707949225887154 0.6080318732112525 L 0.4393717819408858 0.5961971787662828 L 0.4516547091741309 0.5843531218725437 L 0.4699983934703899 0.5785698220418185 L 0.48212835807431603 0.5665728025187604 L 0.5000447462135653 0.5603622065310256 L 0.512012708403796 0.5482031845942723 L 0.5239675763440379 0.53603106840753 L 0.5305385272011861 0.5184750351376941 L 0.5426148981645185 0.5064244219740421 L 0.5597566092787887 0.4994391489613283 L 0.5716620662922065 0.4872176218477621 L 0.5835558847355721 0.4749844561641436 L 0.600053838871671 0.4673554261732582 L 0.611767828149624 0.45494243132422724 L 0.6191702448824569 0.43821786393007595 L 0.6351577410130691 0.43007837593370407 L 0.6468342821654982 0.41762793295914896 L 0.6546895330096991 0.40135619967636593 L 0.6665093710557328 0.3890490535954154 L 0.6817938602583961 0.3802065586710944 L 0.6901206596592999 0.3644063739450141 L 0.6987803888621862 0.3489391190209163 L 0.7107369315246874 0.33676867755643336 L 0.7226864556640579 0.3245912175688198 L 0.7398437884990463 0.31762156627682403 L 0.7489945617983444 0.3026453554491382 L 0.7629947152713804 0.29251852479518986 L 0.7724873262981555 0.277884151694981 L 0.7842224524881395 0.2654922937579808 L 0.7942468248628318 0.2513896820056891 L 0.8046336637930138 0.23764953680888695 L 0.8153868788139226 0.2242757677028115 L 0.8266681002431955 0.2114300050051001 L 0.8381516300591085 0.19878655069402917 L 0.8496448573394495 0.18615279384738587 L 0.8611477820842179 0.17352873446517036 L 0.8714288263110962 0.1596827945650644 L 0.8817292654668297 0.14585624959381394 L 0.8920490995514188 0.13204909955141877 Z"
          fill="black"
          stroke="black"
          stroke-width="0.006"
          stroke-linejoin="round"
          stroke-linecap="round" />
</g>
  <g transform="translate(690 690) scale(0.5232558139534884 0.5232558139534884) translate(-0.0 -0.0)">
<rect x="40" y="40" width="56" height="8"/>
  <rect x="120" y="40" width="8" height="8"/>
  <rect x="152" y="40" width="8" height="8"/>
  <rect x="168" y="40" width="8" height="8"/>
  <rect x="192" y="40" width="24" height="8"/>
  <rect x="224" y="40" width="8" height="8"/>
  <rect x="248" y="40" width="56" height="8"/>
  <rect x="40" y="48" width="8" height="8"/>
  <rect x="88" y="48" width="8" height="8"/>
  <rect x="112" y="48" width="8" height="8"/>
  <rect x="136" y="48" width="8" height="8"/>
  <rect x="160" y="48" width="16" height="8"/>
  <rect x="208" y="48" width="16" height="8"/>
  <rect x="232" y="48" width="8" height="8"/>
  <rect x="248" y="48" width="8" height="8"/>
  <rect x="296" y="48" width="8" height="8"/>
  <rect x="40" y="56" width="8" height="8"/>
  <rect x="56" y="56" width="24" height="8"/>
  <rect x="88" y="56" width="8" height="8"/>
  <rect x="104" y="56" width="24" height="8"/>
  <rect x="136" y="56" width="8" height="8"/>
  <rect x="152" y="56" width="8" height="8"/>
  <rect x="168" y="56" width="8" height="8"/>
  <rect x="184" y="56" width="8" height="8"/>
  <rect x="208" y="56" width="8" height="8"/>
  <rect x="232" y="56" width="8" height="8"/>
  <rect x="248" y="56" width="8" height="8"/>
  <rect x="264" y="56" width="24" height="8"/>
  <rect x="296" y="56" width="8" height="8"/>
  <rect x="40" y="64" width="8" height="8"/>
  <rect x="56" y="64" width="24" height="8"/>
  <rect x="88" y="64" width="8" height="8"/>
  <rect x="104" y="64" width="8" height="8"/>
  <rect x="168" y="64" width="16" height="8"/>
  <rect x="192" y="64" width="16" height="8"/>
  <rect x="232" y="64" width="8" height="8"/>
  <rect x="248" y="64" width="8" height="8"/>
  <rect x="264" y="64" width="24" height="8"/>
  <rect x="296" y="64" width="8" height="8"/>
  <rect x="40" y="72" width="8" height="8"/>
  <rect x="56" y="72" width="24" height="8"/>
  <rect x="88" y="72" width="8" height="8"/>
  <rect x="104" y="72" width="16" height="8"/>
  <rect x="136" y="72" width="8" height="8"/>
  <rect x="184" y="72" width="24" height="8"/>
  <rect x="224" y="72" width="8" height="8"/>
  <rect x="248" y="72" width="8" height="8"/>
  <rect x="264" y="72" width="24" height="8"/>
  <rect x="296" y="72" width="8" height="8"/>
  <rect x="40" y="80" width="8" height="8"/>
  <rect x="88" y="80" width="8" height="8"/>
  <rect x="104" y="80" width="8" height="8"/>
  <rect x="128" y="80" width="40" height="8"/>
  <rect x="216" y="80" width="8" height="8"/>
  <rect x="232" y="80" width="8" height="8"/>
  <rect x="248" y="80" width="8" height="8"/>
  <rect x="296" y="80" width="8" height="8"/>
  <rect x="40" y="88" width="56" height="8"/>
  <rect x="104" y="88" width="8" height="8"/>
  <rect x="120" y="88" width="8" height="8"/>
  <rect x="136" y="88" width="8" height="8"/>
  <rect x="152" y="88" width="8" height="8"/>
  <rect x="168" y="88" width="8" height="8"/>
  <rect x="184" y="88" width="8" height="8"/>
  <rect x="200" y="88" width="8" height="8"/>
  <rect x="216" y="88" width="8" height="8"/>
  <rect x="232" y="88" width="8" height="8"/>
  <rect x="248" y="88" width="56" height="8"/>
  <rect x="104" y="96" width="32" height="8"/>
  <rect x="160" y="96" width="16" height="8"/>
  <rect x="208" y="96" width="32" height="8"/>
  <rect x="40" y="104" width="8" height="8"/>
  <rect x="56" y="104" width="40" height="8"/>
  <rect x="112" y="104" width="8" height="8"/>
  <rect x="128" y="104" width="8" height="8"/>
  <rect x="144" y="104" width="24" height="8"/>
  <rect x="176" y="104" width="8" height="8"/>
  <rect x="192" y="104" width="8" height="8"/>
  <rect x="216" y="104" width="8" height="8"/>
  <rect x="248" y="104" width="40" height="8"/>
  <rect x="48" y="112" width="8" height="8"/>
  <rect x="64" y="112" width="8" height="8"/>
  <rect x="80" y="112" width="8" height="8"/>
  <rect x="96" y="112" width="8" height="8"/>
  <rect x="112" y="112" width="8" height="8"/>
  <rect x="136" y="112" width="16" height="8"/>
  <rect x="168" y="112" width="40" height="8"/>
  <rect x="224" y="112" width="8" height="8"/>
  <rect x="248" y="112" width="16" height="8"/>
  <rect x="272" y="112" width="16" height="8"/>
  <rect x="296" y="112" width="8" height="8"/>
  <rect x="56" y="120" width="40" height="8"/>
  <rect x="104" y="120" width="24" height="8"/>
  <rect x="144" y="120" width="32" height="8"/>
  <rect x="216" y="120" width="8" height="8"/>
  <rect x="240" y="120" width="8" height="8"/>
  <rect x="264" y="120" width="8" height="8"/>
  <rect x="280" y="120" width="16" height="8"/>
  <rect x="48" y="128" width="8" height="8"/>
  <rect x="72" y="128" width="16" height="8"/>
  <rect x="120" y="128" width="8" height="8"/>
  <rect x="136" y="128" width="16" height="8"/>
  <rect x="200" y="128" width="32" height="8"/>
  <rect x="264" y="128" width="32" height="8"/>
  <rect x="40" y="136" width="8" height="8"/>
  <rect x="64" y="136" width="8" height="8"/>
  <rect x="88" y="136" width="8" height="8"/>
  <rect x="104" y="136" width="8" height="8"/>
  <rect x="120" y="136" width="16" height="8"/>
  <rect x="152" y="136" width="32" height="8"/>
  <rect x="216" y="136" width="16" height="8"/>
  <rect x="240" y="136" width="8" height="8"/>
  <rect x="264" y="136" width="16" height="8"/>
  <rect x="288" y="136" width="8" height="8"/>
  <rect x="40" y="144" width="16" height="8"/>
  <rect x="72" y="144" width="16" height="8"/>
  <rect x="96" y="144" width="16" height="8"/>
  <rect x="128" y="144" width="8" height="8"/>
  <rect x="144" y="144" width="8" height="8"/>
  <rect x="184" y="144" width="48" height="8"/>
  <rect x="248" y="144" width="8" height="8"/>
  <rect x="288" y="144" width="16" height="8"/>
  <rect x="48" y="152" width="8" height="8"/>
  <rect x="64" y="152" width="8" height="8"/>
  <rect x="80" y="152" width="16" height="8"/>
  <rect x="112" y="152" width="16" height="8"/>
  <rect x="136" y="152" width="8" height="8"/>
  <rect x="160" y="152" width="32" height="8"/>
  <rect x="208" y="152" width="16" height="8"/>
  <rect x="240" y="152" width="16" height="8"/>
  <rect x="264" y="152" width="32" height="8"/>
  <rect x="40" y="160" width="8" height="8"/>
  <rect x="72" y="160" width="8" height="8"/>
  <rect x="104" y="160" width="8" height="8"/>
  <rect x="120" y="160" width="24" height="8"/>
  <rect x="160" y="160" width="16" height="8"/>
  <rect x="184" y="160" width="40" height="8"/>
  <rect x="232" y="160" width="32" height="8"/>
  <rect x="272" y="160" width="16" height="8"/>
  <rect x="40" y="168" width="24" height="8"/>
  <rect x="80" y="168" width="16" height="8"/>
  <rect x="112" y="168" width="8" height="8"/>
  <rect x="128" y="168" width="16" height="8"/>
  <rect x="152" y="168" width="8" height="8"/>
  <rect x="168" y="168" width="40" height="8"/>
  <rect x="216" y="168" width="8" height="8"/>
  <rect x="232" y="168" width="16" height="8"/>
  <rect x="256" y="168" width="16" height="8"/>
  <rect x="296" y="168" width="8" height="8"/>
  <rect x="64" y="176" width="8" height="8"/>
  <rect x="120" y="176" width="24" height="8"/>
  <rect x="152" y="176" width="8" height="8"/>
  <rect x="168" y="176" width="64" height="8"/>
  <rect x="240" y="176" width="24" height="8"/>
  <rect x="272" y="176" width="16" height="8"/>
  <rect x="296" y="176" width="8" height="8"/>
  <rect x="56" y="184" width="16" height="8"/>
  <rect x="80" y="184" width="32" height="8"/>
  <rect x="120" y="184" width="8" height="8"/>
  <rect x="136" y="184" width="40" height="8"/>
  <rect x="200" y="184" width="24" height="8"/>
  <rect x="232" y="184" width="8" height="8"/>
  <rect x="256" y="184" width="16" height="8"/>
  <rect x="280" y="184" width="16" height="8"/>
  <rect x="40" y="192" width="24" height="8"/>
  <rect x="72" y="192" width="16" height="8"/>
  <rect x="96" y="192" width="8" height="8"/>
  <rect x="112" y="192" width="16" height="8"/>
  <rect x="136" y="192" width="16" height="8"/>
  <rect x="168" y="192" width="8" height="8"/>
  <rect x="184" y="192" width="8" height="8"/>
  <rect x="208" y="192" width="40" height="8"/>
  <rect x="256" y="192" width="32" height="8"/>
  <rect x="296" y="192" width="8" height="8"/>
  <rect x="40" y="200" width="32" height="8"/>
  <rect x="88" y="200" width="8" height="8"/>
  <rect x="120" y="200" width="16" height="8"/>
  <rect x="144" y="200" width="8" height="8"/>
  <rect x="168" y="200" width="32" height="8"/>
  <rect x="216" y="200" width="8" height="8"/>
  <rect x="232" y="200" width="16" height="8"/>
  <rect x="264" y="200" width="16" height="8"/>
  <rect x="40" y="208" width="8" height="8"/>
  <rect x="56" y="208" width="16" height="8"/>
  <rect x="96" y="208" width="16" height="8"/>
  <rect x="120" y="208" width="24" height="8"/>
  <rect x="152" y="208" width="8" height="8"/>
  <rect x="176" y="208" width="8" height="8"/>
  <rect x="192" y="208" width="8" height="8"/>
  <rect x="208" y="208" width="8" height="8"/>
  <rect x="224" y="208" width="8" height="8"/>
  <rect x="248" y="208" width="8" height="8"/>
  <rect x="272" y="208" width="16" height="8"/>
  <rect x="296" y="208" width="8" height="8"/>
  <rect x="40" y="216" width="8" height="8"/>
  <rect x="56" y="216" width="8" height="8"/>
  <rect x="80" y="216" width="24" height="8"/>
  <rect x="120" y="216" width="16" height="8"/>
  <rect x="152" y="216" width="16" height="8"/>
  <rect x="176" y="216" width="8" height="8"/>
  <rect x="208" y="216" width="16" height="8"/>
  <rect x="232" y="216" width="8" height="8"/>
  <rect x="248" y="216" width="8" height="8"/>
  <rect x="272" y="216" width="8" height="8"/>
  <rect x="288" y="216" width="8" height="8"/>
  <rect x="40" y="224" width="8" height="8"/>
  <rect x="64" y="224" width="8" height="8"/>
  <rect x="104" y="224" width="8" height="8"/>
  <rect x="120" y="224" width="16" height="8"/>
  <rect x="160" y="224" width="16" height="8"/>
  <rect x="184" y="224" width="8" height="8"/>
  <rect x="200" y="224" width="16" height="8"/>
  <rect x="248" y="224" width="8" height="8"/>
  <rect x="264" y="224" width="32" height="8"/>
  <rect x="40" y="232" width="8" height="8"/>
  <rect x="80" y="232" width="16" height="8"/>
  <rect x="128" y="232" width="16" height="8"/>
  <rect x="152" y="232" width="16" height="8"/>
  <rect x="176" y="232" width="8" height="8"/>
  <rect x="232" y="232" width="40" height="8"/>
  <rect x="288" y="232" width="16" height="8"/>
  <rect x="104" y="240" width="8" height="8"/>
  <rect x="120" y="240" width="16" height="8"/>
  <rect x="144" y="240" width="16" height="8"/>
  <rect x="176" y="240" width="32" height="8"/>
  <rect x="224" y="240" width="16" height="8"/>
  <rect x="264" y="240" width="8" height="8"/>
  <rect x="280" y="240" width="24" height="8"/>
  <rect x="40" y="248" width="56" height="8"/>
  <rect x="112" y="248" width="8" height="8"/>
  <rect x="144" y="248" width="8" height="8"/>
  <rect x="160" y="248" width="24" height="8"/>
  <rect x="200" y="248" width="8" height="8"/>
  <rect x="216" y="248" width="24" height="8"/>
  <rect x="248" y="248" width="8" height="8"/>
  <rect x="264" y="248" width="8" height="8"/>
  <rect x="280" y="248" width="16" height="8"/>
  <rect x="40" y="256" width="8" height="8"/>
  <rect x="88" y="256" width="8" height="8"/>
  <rect x="104" y="256" width="16" height="8"/>
  <rect x="128" y="256" width="8" height="8"/>
  <rect x="152" y="256" width="8" height="8"/>
  <rect x="168" y="256" width="8" height="8"/>
  <rect x="192" y="256" width="24" height="8"/>
  <rect x="224" y="256" width="16" height="8"/>
  <rect x="264" y="256" width="32" height="8"/>
  <rect x="40" y="264" width="8" height="8"/>
  <rect x="56" y="264" width="24" height="8"/>
  <rect x="88" y="264" width="8" height="8"/>
  <rect x="104" y="264" width="40" height="8"/>
  <rect x="176" y="264" width="8" height="8"/>
  <rect x="200" y="264" width="8" height="8"/>
  <rect x="216" y="264" width="8" height="8"/>
  <rect x="232" y="264" width="48" height="8"/>
  <rect x="288" y="264" width="8" height="8"/>
  <rect x="40" y="272" width="8" height="8"/>
  <rect x="56" y="272" width="24" height="8"/>
  <rect x="88" y="272" width="8" height="8"/>
  <rect x="104" y="272" width="40" height="8"/>
  <rect x="168" y="272" width="40" height="8"/>
  <rect x="224" y="272" width="24" height="8"/>
  <rect x="264" y="272" width="16" height="8"/>
  <rect x="288" y="272" width="16" height="8"/>
  <rect x="40" y="280" width="8" height="8"/>
  <rect x="56" y="280" width="24" height="8"/>
  <rect x="88" y="280" width="8" height="8"/>
  <rect x="104" y="280" width="8" height="8"/>
  <rect x="136" y="280" width="8" height="8"/>
  <rect x="152" y="280" width="24" height="8"/>
  <rect x="184" y="280" width="8" height="8"/>
  <rect x="200" y="280" width="8" height="8"/>
  <rect x="216" y="280" width="24" height="8"/>
  <rect x="248" y="280" width="16" height="8"/>
  <rect x="40" y="288" width="8" height="8"/>
  <rect x="88" y="288" width="8" height="8"/>
  <rect x="112" y="288" width="8" height="8"/>
  <rect x="136" y="288" width="8" height="8"/>
  <rect x="152" y="288" width="16" height="8"/>
  <rect x="208" y="288" width="8" height="8"/>
  <rect x="240" y="288" width="16" height="8"/>
  <rect x="264" y="288" width="8" height="8"/>
  <rect x="280" y="288" width="8" height="8"/>
  <rect x="40" y="296" width="56" height="8"/>
  <rect x="104" y="296" width="8" height="8"/>
  <rect x="128" y="296" width="24" height="8"/>
  <rect x="176" y="296" width="8" height="8"/>
  <rect x="192" y="296" width="8" height="8"/>
  <rect x="216" y="296" width="24" height="8"/>
  <rect x="248" y="296" width="16" height="8"/>
  <rect x="288" y="296" width="8" height="8"/>
</g>
</svg>